solid Sm4rt W8tch
facet normal 1.0 0.0 0.0
  outer loop
    vertex 201.63108399999268 103.42500000000028 54.456050983452315
    vertex 201.63108399999268 103.32500000000027 54.775050983452324
    vertex 201.63108399999268 103.32500000000027 54.456050983452315
  endloop
endfacet
facet normal 1.0 0.0 0.0
  outer loop
    vertex 201.63108399999268 104.55000000000027 50.46705098345231
    vertex 201.63108399999268 102.42500000000028 50.96705098345231
    vertex 201.63108399999268 102.42500000000028 50.46705098345231
  endloop
endfacet
facet normal 1.0 0.0 0.0
  outer loop
    vertex 201.63108399999268 102.42500000000028 50.96705098345231
    vertex 201.63108399999268 104.55000000000027 50.46705098345231
    vertex 201.63108399999268 103.42500000000028 50.96705098345231
  endloop
endfacet
facet normal 1.0 0.0 0.0
  outer loop
    vertex 201.63108399999268 103.42500000000028 50.96705098345231
    vertex 201.63108399999268 104.55000000000027 50.46705098345231
    vertex 201.63108399999268 103.42500000000028 52.54805098345233
  endloop
endfacet
facet normal 1.0 0.0 0.0
  outer loop
    vertex 201.63108399999268 103.42500000000028 52.54805098345233
    vertex 201.63108399999268 104.55000000000027 50.46705098345231
    vertex 201.63108399999268 103.42500000000028 52.802050983452325
  endloop
endfacet
facet normal 1.0 0.0 0.0
  outer loop
    vertex 201.63108399999268 103.42500000000028 52.802050983452325
    vertex 201.63108399999268 104.55000000000027 50.46705098345231
    vertex 201.63108399999268 103.42500000000028 54.456050983452315
  endloop
endfacet
facet normal 1.0 0.0 0.0
  outer loop
    vertex 201.63108399999268 103.32500000000027 54.775050983452324
    vertex 201.63108399999268 101.82500000000029 55.02105098345233
    vertex 201.63108399999268 101.82500000000029 54.775050983452324
  endloop
endfacet
facet normal 1.0 0.0 0.0
  outer loop
    vertex 201.63108399999268 101.82500000000029 55.02105098345233
    vertex 201.63108399999268 103.32500000000027 54.775050983452324
    vertex 201.63108399999268 104.55000000000027 55.02105098345233
  endloop
endfacet
facet normal 1.0 0.0 0.0
  outer loop
    vertex 201.63108399999268 104.55000000000027 55.02105098345233
    vertex 201.63108399999268 103.32500000000027 54.775050983452324
    vertex 201.63108399999268 103.42500000000028 54.456050983452315
  endloop
endfacet
facet normal 1.0 0.0 0.0
  outer loop
    vertex 201.63108399999268 104.55000000000027 55.02105098345233
    vertex 201.63108399999268 103.42500000000028 54.456050983452315
    vertex 201.63108399999268 104.55000000000027 50.46705098345231
  endloop
endfacet
facet normal 1.0 0.0 0.0
  outer loop
    vertex 201.63108399999268 104.55000000000027 55.02105098345233
    vertex 201.63108399999268 104.55000000000027 50.46705098345231
    vertex 201.63108399999268 105.05000000000027 50.96705098345231
  endloop
endfacet
facet normal 1.0 0.0 0.0
  outer loop
    vertex 201.63108399999268 104.55000000000027 55.02105098345233
    vertex 201.63108399999268 105.05000000000027 50.96705098345231
    vertex 201.63108399999268 105.05000000000027 54.52105098345233
  endloop
endfacet
facet normal 1.0 0.0 0.0
  outer loop
    vertex 201.63108399999268 103.42500000000028 52.54805098345233
    vertex 201.63108399999268 103.32500000000027 52.802050983452325
    vertex 201.63108399999268 103.32500000000027 52.54805098345233
  endloop
endfacet
facet normal 1.0 0.0 0.0
  outer loop
    vertex 201.63108399999268 103.32500000000027 52.802050983452325
    vertex 201.63108399999268 103.42500000000028 52.54805098345233
    vertex 201.63108399999268 103.42500000000028 52.802050983452325
  endloop
endfacet
facet normal 0.0 1.0 0.0
  outer loop
    vertex 201.63108399999268 102.42500000000028 50.96705098345231
    vertex 204.5310839999927 102.42500000000028 50.46705098345231
    vertex 201.63108399999268 102.42500000000028 50.46705098345231
  endloop
endfacet
facet normal 0.0 1.0 0.0
  outer loop
    vertex 204.5310839999927 102.42500000000028 50.46705098345231
    vertex 201.63108399999268 102.42500000000028 50.96705098345231
    vertex 204.5310839999927 102.42500000000028 50.96705098345231
  endloop
endfacet
facet normal -1.0 0.0 0.0
  outer loop
    vertex 204.5310839999927 104.55000000000027 55.02105098345233
    vertex 204.5310839999927 101.82500000000029 54.775050983452324
    vertex 204.5310839999927 101.82500000000029 55.02105098345233
  endloop
endfacet
facet normal -1.0 0.0 0.0
  outer loop
    vertex 204.5310839999927 101.82500000000029 54.775050983452324
    vertex 204.5310839999927 104.55000000000027 55.02105098345233
    vertex 204.5310839999927 103.32500000000027 54.775050983452324
  endloop
endfacet
facet normal -1.0 0.0 0.0
  outer loop
    vertex 204.5310839999927 103.32500000000027 54.775050983452324
    vertex 204.5310839999927 104.55000000000027 55.02105098345233
    vertex 204.5310839999927 103.32500000000027 54.456050983452315
  endloop
endfacet
facet normal -1.0 0.0 0.0
  outer loop
    vertex 204.5310839999927 103.32500000000027 54.456050983452315
    vertex 204.5310839999927 104.55000000000027 55.02105098345233
    vertex 204.5310839999927 103.42500000000028 54.456050983452315
  endloop
endfacet
facet normal -1.0 0.0 0.0
  outer loop
    vertex 204.5310839999927 103.42500000000028 54.456050983452315
    vertex 204.5310839999927 104.55000000000027 55.02105098345233
    vertex 204.5310839999927 103.42500000000028 52.802050983452325
  endloop
endfacet
facet normal -1.0 0.0 0.0
  outer loop
    vertex 204.5310839999927 103.42500000000028 52.802050983452325
    vertex 204.5310839999927 104.55000000000027 55.02105098345233
    vertex 204.5310839999927 103.42500000000028 52.54805098345233
  endloop
endfacet
facet normal -1.0 0.0 0.0
  outer loop
    vertex 204.5310839999927 103.42500000000028 52.54805098345233
    vertex 204.5310839999927 104.55000000000027 55.02105098345233
    vertex 204.5310839999927 103.42500000000028 50.96705098345231
  endloop
endfacet
facet normal -1.0 0.0 0.0
  outer loop
    vertex 204.5310839999927 103.42500000000028 50.96705098345231
    vertex 204.5310839999927 102.42500000000028 50.46705098345231
    vertex 204.5310839999927 102.42500000000028 50.96705098345231
  endloop
endfacet
facet normal -1.0 0.0 0.0
  outer loop
    vertex 204.5310839999927 102.42500000000028 50.46705098345231
    vertex 204.5310839999927 103.42500000000028 50.96705098345231
    vertex 204.5310839999927 104.55000000000027 50.46705098345231
  endloop
endfacet
facet normal -1.0 0.0 0.0
  outer loop
    vertex 204.5310839999927 104.55000000000027 50.46705098345231
    vertex 204.5310839999927 103.42500000000028 50.96705098345231
    vertex 204.5310839999927 104.55000000000027 55.02105098345233
  endloop
endfacet
facet normal -1.0 0.0 0.0
  outer loop
    vertex 204.5310839999927 104.55000000000027 50.46705098345231
    vertex 204.5310839999927 104.55000000000027 55.02105098345233
    vertex 204.5310839999927 105.05000000000027 54.52105098345233
  endloop
endfacet
facet normal -1.0 0.0 0.0
  outer loop
    vertex 204.5310839999927 104.55000000000027 50.46705098345231
    vertex 204.5310839999927 105.05000000000027 54.52105098345233
    vertex 204.5310839999927 105.05000000000027 50.96705098345231
  endloop
endfacet
facet normal -1.0 0.0 0.0
  outer loop
    vertex 204.5310839999927 103.42500000000028 52.802050983452325
    vertex 204.5310839999927 103.32500000000027 52.54805098345233
    vertex 204.5310839999927 103.32500000000027 52.802050983452325
  endloop
endfacet
facet normal -1.0 0.0 0.0
  outer loop
    vertex 204.5310839999927 103.32500000000027 52.54805098345233
    vertex 204.5310839999927 103.42500000000028 52.802050983452325
    vertex 204.5310839999927 103.42500000000028 52.54805098345233
  endloop
endfacet
facet normal 0.0 0.0 1.0
  outer loop
    vertex 204.5310839999927 102.42500000000028 50.46705098345231
    vertex 201.63108399999268 104.55000000000027 50.46705098345231
    vertex 201.63108399999268 102.42500000000028 50.46705098345231
  endloop
endfacet
facet normal 0.0 0.0 1.0
  outer loop
    vertex 201.63108399999268 104.55000000000027 50.46705098345231
    vertex 204.5310839999927 102.42500000000028 50.46705098345231
    vertex 204.5310839999927 104.55000000000027 50.46705098345231
  endloop
endfacet
facet normal 0.0 1.0 0.0
  outer loop
    vertex 201.63108399999268 103.32500000000027 52.802050983452325
    vertex 204.5310839999927 103.32500000000027 52.54805098345233
    vertex 201.63108399999268 103.32500000000027 52.54805098345233
  endloop
endfacet
facet normal 0.0 1.0 0.0
  outer loop
    vertex 204.5310839999927 103.32500000000027 52.54805098345233
    vertex 201.63108399999268 103.32500000000027 52.802050983452325
    vertex 204.5310839999927 103.32500000000027 52.802050983452325
  endloop
endfacet
facet normal 0.0 0.0 1.0
  outer loop
    vertex 204.5310839999927 103.32500000000027 52.54805098345233
    vertex 201.63108399999268 103.42500000000028 52.54805098345233
    vertex 201.63108399999268 103.32500000000027 52.54805098345233
  endloop
endfacet
facet normal 0.0 0.0 1.0
  outer loop
    vertex 201.63108399999268 103.42500000000028 52.54805098345233
    vertex 204.5310839999927 103.32500000000027 52.54805098345233
    vertex 204.5310839999927 103.42500000000028 52.54805098345233
  endloop
endfacet
facet normal 0.0 0.0 1.0
  outer loop
    vertex 204.5310839999927 101.82500000000029 54.775050983452324
    vertex 201.63108399999268 103.32500000000027 54.775050983452324
    vertex 201.63108399999268 101.82500000000029 54.775050983452324
  endloop
endfacet
facet normal 0.0 0.0 1.0
  outer loop
    vertex 201.63108399999268 103.32500000000027 54.775050983452324
    vertex 204.5310839999927 101.82500000000029 54.775050983452324
    vertex 204.5310839999927 103.32500000000027 54.775050983452324
  endloop
endfacet
facet normal 0.0 0.0 -1.0
  outer loop
    vertex 204.5310839999927 103.42500000000028 50.96705098345231
    vertex 201.63108399999268 102.42500000000028 50.96705098345231
    vertex 201.63108399999268 103.42500000000028 50.96705098345231
  endloop
endfacet
facet normal 0.0 0.0 -1.0
  outer loop
    vertex 201.63108399999268 102.42500000000028 50.96705098345231
    vertex 204.5310839999927 103.42500000000028 50.96705098345231
    vertex 204.5310839999927 102.42500000000028 50.96705098345231
  endloop
endfacet
facet normal 0.0 1.0 0.0
  outer loop
    vertex 201.63108399999268 101.82500000000029 55.02105098345233
    vertex 204.5310839999927 101.82500000000029 54.775050983452324
    vertex 201.63108399999268 101.82500000000029 54.775050983452324
  endloop
endfacet
facet normal 0.0 1.0 0.0
  outer loop
    vertex 204.5310839999927 101.82500000000029 54.775050983452324
    vertex 201.63108399999268 101.82500000000029 55.02105098345233
    vertex 204.5310839999927 101.82500000000029 55.02105098345233
  endloop
endfacet
facet normal 0.0 1.0 0.0
  outer loop
    vertex 201.63108399999268 103.32500000000027 54.775050983452324
    vertex 204.5310839999927 103.32500000000027 54.456050983452315
    vertex 201.63108399999268 103.32500000000027 54.456050983452315
  endloop
endfacet
facet normal 0.0 1.0 0.0
  outer loop
    vertex 204.5310839999927 103.32500000000027 54.456050983452315
    vertex 201.63108399999268 103.32500000000027 54.775050983452324
    vertex 204.5310839999927 103.32500000000027 54.775050983452324
  endloop
endfacet
facet normal 0.0 0.0 1.0
  outer loop
    vertex 204.5310839999927 103.32500000000027 54.456050983452315
    vertex 201.63108399999268 103.42500000000028 54.456050983452315
    vertex 201.63108399999268 103.32500000000027 54.456050983452315
  endloop
endfacet
facet normal 0.0 0.0 1.0
  outer loop
    vertex 201.63108399999268 103.42500000000028 54.456050983452315
    vertex 204.5310839999927 103.32500000000027 54.456050983452315
    vertex 204.5310839999927 103.42500000000028 54.456050983452315
  endloop
endfacet
facet normal 0.0 0.0 -1.0
  outer loop
    vertex 204.5310839999927 103.42500000000028 52.802050983452325
    vertex 201.63108399999268 103.32500000000027 52.802050983452325
    vertex 201.63108399999268 103.42500000000028 52.802050983452325
  endloop
endfacet
facet normal 0.0 0.0 -1.0
  outer loop
    vertex 201.63108399999268 103.32500000000027 52.802050983452325
    vertex 204.5310839999927 103.42500000000028 52.802050983452325
    vertex 204.5310839999927 103.32500000000027 52.802050983452325
  endloop
endfacet
facet normal 0.0 1.0 0.0
  outer loop
    vertex 201.63108399999268 103.42500000000028 54.456050983452315
    vertex 204.5310839999927 103.42500000000028 52.802050983452325
    vertex 201.63108399999268 103.42500000000028 52.802050983452325
  endloop
endfacet
facet normal 0.0 1.0 0.0
  outer loop
    vertex 204.5310839999927 103.42500000000028 52.802050983452325
    vertex 201.63108399999268 103.42500000000028 54.456050983452315
    vertex 204.5310839999927 103.42500000000028 54.456050983452315
  endloop
endfacet
facet normal 0.0 1.0 0.0
  outer loop
    vertex 201.63108399999268 103.42500000000028 52.54805098345233
    vertex 204.5310839999927 103.42500000000028 50.96705098345231
    vertex 201.63108399999268 103.42500000000028 50.96705098345231
  endloop
endfacet
facet normal 0.0 1.0 0.0
  outer loop
    vertex 204.5310839999927 103.42500000000028 50.96705098345231
    vertex 201.63108399999268 103.42500000000028 52.54805098345233
    vertex 204.5310839999927 103.42500000000028 52.54805098345233
  endloop
endfacet
facet normal 0.0 0.0 -1.0
  outer loop
    vertex 204.5310839999927 104.55000000000027 55.02105098345233
    vertex 201.63108399999268 101.82500000000029 55.02105098345233
    vertex 201.63108399999268 104.55000000000027 55.02105098345233
  endloop
endfacet
facet normal 0.0 0.0 -1.0
  outer loop
    vertex 201.63108399999268 101.82500000000029 55.02105098345233
    vertex 204.5310839999927 104.55000000000027 55.02105098345233
    vertex 204.5310839999927 101.82500000000029 55.02105098345233
  endloop
endfacet
facet normal -5.881210348990797e-18 -0.7071067811865476 -0.7071067811865476
  outer loop
    vertex 204.5310839999927 104.55000000000027 55.02105098345233
    vertex 201.63108399999268 105.05000000000027 54.52105098345233
    vertex 204.5310839999927 105.05000000000027 54.52105098345233
  endloop
endfacet
facet normal -5.881210348990797e-18 -0.7071067811865476 -0.7071067811865476
  outer loop
    vertex 201.63108399999268 105.05000000000027 54.52105098345233
    vertex 204.5310839999927 104.55000000000027 55.02105098345233
    vertex 201.63108399999268 104.55000000000027 55.02105098345233
  endloop
endfacet
facet normal -5.881210348990797e-18 -0.7071067811865476 0.7071067811865476
  outer loop
    vertex 204.5310839999927 105.05000000000027 50.96705098345231
    vertex 201.63108399999268 104.55000000000027 50.46705098345231
    vertex 204.5310839999927 104.55000000000027 50.46705098345231
  endloop
endfacet
facet normal -5.881210348990797e-18 -0.7071067811865476 0.7071067811865476
  outer loop
    vertex 201.63108399999268 104.55000000000027 50.46705098345231
    vertex 204.5310839999927 105.05000000000027 50.96705098345231
    vertex 201.63108399999268 105.05000000000027 50.96705098345231
  endloop
endfacet
facet normal 0.0 -1.0 0.0
  outer loop
    vertex 203.58108399999273 105.17700000000026 53.74405098345231
    vertex 202.5810839999927 105.17700000000026 53.24405098345231
    vertex 203.58108399999273 105.17700000000026 53.24405098345231
  endloop
endfacet
facet normal 0.0 -1.0 0.0
  outer loop
    vertex 202.5810839999927 105.17700000000026 53.24405098345231
    vertex 203.58108399999273 105.17700000000026 53.74405098345231
    vertex 202.5810839999927 105.17700000000026 53.74405098345231
  endloop
endfacet
facet normal -0.0 -0.0 -1.0
  outer loop
    vertex 203.58108399999273 105.17700000000026 53.74405098345231
    vertex 202.5810839999927 105.05000000000027 53.74405098345231
    vertex 202.5810839999927 105.17700000000026 53.74405098345231
  endloop
endfacet
facet normal -0.0 -0.0 -1.0
  outer loop
    vertex 202.5810839999927 105.05000000000027 53.74405098345231
    vertex 203.58108399999273 105.17700000000026 53.74405098345231
    vertex 203.58108399999273 105.05000000000027 53.74405098345231
  endloop
endfacet
facet normal 1.0 0.0 0.0
  outer loop
    vertex 202.5810839999927 105.17700000000026 53.24405098345231
    vertex 202.5810839999927 105.05000000000027 53.74405098345231
    vertex 202.5810839999927 105.05000000000027 53.24405098345231
  endloop
endfacet
facet normal 1.0 0.0 0.0
  outer loop
    vertex 202.5810839999927 105.05000000000027 53.74405098345231
    vertex 202.5810839999927 105.17700000000026 53.24405098345231
    vertex 202.5810839999927 105.17700000000026 53.74405098345231
  endloop
endfacet
facet normal 0.0 0.0 1.0
  outer loop
    vertex 203.58108399999273 105.05000000000027 53.24405098345231
    vertex 202.5810839999927 105.17700000000026 53.24405098345231
    vertex 202.5810839999927 105.05000000000027 53.24405098345231
  endloop
endfacet
facet normal 0.0 0.0 1.0
  outer loop
    vertex 202.5810839999927 105.17700000000026 53.24405098345231
    vertex 203.58108399999273 105.05000000000027 53.24405098345231
    vertex 203.58108399999273 105.17700000000026 53.24405098345231
  endloop
endfacet
facet normal -1.0 0.0 0.0
  outer loop
    vertex 203.58108399999273 105.17700000000026 53.74405098345231
    vertex 203.58108399999273 105.05000000000027 53.24405098345231
    vertex 203.58108399999273 105.05000000000027 53.74405098345231
  endloop
endfacet
facet normal -1.0 0.0 0.0
  outer loop
    vertex 203.58108399999273 105.05000000000027 53.24405098345231
    vertex 203.58108399999273 105.17700000000026 53.74405098345231
    vertex 203.58108399999273 105.17700000000026 53.24405098345231
  endloop
endfacet
facet normal 0.0 -1.0 0.0
  outer loop
    vertex 203.58108399999273 105.17700000000026 52.99405098345231
    vertex 202.70618199999268 105.17700000000026 52.49405098345231
    vertex 203.58108399999273 105.17700000000026 52.49405098345231
  endloop
endfacet
facet normal 0.0 -1.0 0.0
  outer loop
    vertex 202.70618199999268 105.17700000000026 52.49405098345231
    vertex 203.58108399999273 105.17700000000026 52.99405098345231
    vertex 202.5810839999927 105.17700000000026 52.49405098345231
  endloop
endfacet
facet normal 0.0 -1.0 0.0
  outer loop
    vertex 202.5810839999927 105.17700000000026 52.49405098345231
    vertex 203.58108399999273 105.17700000000026 52.99405098345231
    vertex 202.5810839999927 105.17700000000026 52.99405098345231
  endloop
endfacet
facet normal 0.0 0.0 1.0
  outer loop
    vertex 203.58108399999273 105.05000000000027 52.49405098345231
    vertex 202.70618199999268 105.17700000000026 52.49405098345231
    vertex 202.70618199999268 105.05000000000027 52.49405098345231
  endloop
endfacet
facet normal 0.0 0.0 1.0
  outer loop
    vertex 202.70618199999268 105.17700000000026 52.49405098345231
    vertex 203.58108399999273 105.05000000000027 52.49405098345231
    vertex 203.58108399999273 105.17700000000026 52.49405098345231
  endloop
endfacet
facet normal -1.0 0.0 0.0
  outer loop
    vertex 203.58108399999273 105.17700000000026 52.99405098345231
    vertex 203.58108399999273 105.05000000000027 52.49405098345231
    vertex 203.58108399999273 105.05000000000027 52.99405098345231
  endloop
endfacet
facet normal -1.0 0.0 0.0
  outer loop
    vertex 203.58108399999273 105.05000000000027 52.49405098345231
    vertex 203.58108399999273 105.17700000000026 52.99405098345231
    vertex 203.58108399999273 105.17700000000026 52.49405098345231
  endloop
endfacet
facet normal -0.0 -0.0 -1.0
  outer loop
    vertex 203.58108399999273 105.17700000000026 52.99405098345231
    vertex 202.5810839999927 105.05000000000027 52.99405098345231
    vertex 202.5810839999927 105.17700000000026 52.99405098345231
  endloop
endfacet
facet normal -0.0 -0.0 -1.0
  outer loop
    vertex 202.5810839999927 105.05000000000027 52.99405098345231
    vertex 203.58108399999273 105.17700000000026 52.99405098345231
    vertex 203.58108399999273 105.05000000000027 52.99405098345231
  endloop
endfacet
facet normal 1.0 0.0 0.0
  outer loop
    vertex 202.5810839999927 105.17700000000026 52.49405098345231
    vertex 202.5810839999927 105.05000000000027 52.99405098345231
    vertex 202.5810839999927 105.05000000000027 52.49405098345231
  endloop
endfacet
facet normal 1.0 0.0 0.0
  outer loop
    vertex 202.5810839999927 105.05000000000027 52.99405098345231
    vertex 202.5810839999927 105.17700000000026 52.49405098345231
    vertex 202.5810839999927 105.17700000000026 52.99405098345231
  endloop
endfacet
facet normal 0.0 0.0 1.0
  outer loop
    vertex 202.70618199999268 105.05000000000027 52.49405098345231
    vertex 202.5810839999927 105.17700000000026 52.49405098345231
    vertex 202.5810839999927 105.05000000000027 52.49405098345231
  endloop
endfacet
facet normal 0.0 0.0 1.0
  outer loop
    vertex 202.5810839999927 105.17700000000026 52.49405098345231
    vertex 202.70618199999268 105.05000000000027 52.49405098345231
    vertex 202.70618199999268 105.17700000000026 52.49405098345231
  endloop
endfacet
facet normal 0.0 -1.0 0.0
  outer loop
    vertex 204.5310839999927 105.05000000000027 50.96705098345231
    vertex 203.58108399999273 105.05000000000027 51.74405098345231
    vertex 201.63108399999268 105.05000000000027 50.96705098345231
  endloop
endfacet
facet normal 0.0 -1.0 0.0
  outer loop
    vertex 203.58108399999273 105.05000000000027 51.74405098345231
    vertex 204.5310839999927 105.05000000000027 50.96705098345231
    vertex 204.5310839999927 105.05000000000027 54.52105098345233
  endloop
endfacet
facet normal 0.0 -1.0 0.0
  outer loop
    vertex 203.58108399999273 105.05000000000027 51.74405098345231
    vertex 204.5310839999927 105.05000000000027 54.52105098345233
    vertex 203.58108399999273 105.05000000000027 52.24405098345231
  endloop
endfacet
facet normal 0.0 -1.0 0.0
  outer loop
    vertex 203.58108399999273 105.05000000000027 52.24405098345231
    vertex 204.5310839999927 105.05000000000027 54.52105098345233
    vertex 203.58108399999273 105.05000000000027 52.49405098345231
  endloop
endfacet
facet normal 0.0 -1.0 0.0
  outer loop
    vertex 203.58108399999273 105.05000000000027 52.24405098345231
    vertex 203.58108399999273 105.05000000000027 52.49405098345231
    vertex 202.5810839999927 105.05000000000027 52.24405098345231
  endloop
endfacet
facet normal 0.0 -1.0 0.0
  outer loop
    vertex 203.58108399999273 105.05000000000027 52.49405098345231
    vertex 204.5310839999927 105.05000000000027 54.52105098345233
    vertex 203.58108399999273 105.05000000000027 52.99405098345231
  endloop
endfacet
facet normal 0.0 -1.0 0.0
  outer loop
    vertex 203.58108399999273 105.05000000000027 52.99405098345231
    vertex 204.5310839999927 105.05000000000027 54.52105098345233
    vertex 203.58108399999273 105.05000000000027 53.24405098345231
  endloop
endfacet
facet normal 0.0 -1.0 0.0
  outer loop
    vertex 203.58108399999273 105.05000000000027 52.99405098345231
    vertex 203.58108399999273 105.05000000000027 53.24405098345231
    vertex 202.5810839999927 105.05000000000027 52.99405098345231
  endloop
endfacet
facet normal 0.0 -1.0 0.0
  outer loop
    vertex 203.58108399999273 105.05000000000027 53.24405098345231
    vertex 204.5310839999927 105.05000000000027 54.52105098345233
    vertex 203.58108399999273 105.05000000000027 53.74405098345231
  endloop
endfacet
facet normal 0.0 -1.0 0.0
  outer loop
    vertex 203.58108399999273 105.05000000000027 53.74405098345231
    vertex 204.5310839999927 105.05000000000027 54.52105098345233
    vertex 202.5810839999927 105.05000000000027 53.74405098345231
  endloop
endfacet
facet normal 0.0 -1.0 0.0
  outer loop
    vertex 201.63108399999268 105.05000000000027 50.96705098345231
    vertex 202.5810839999927 105.05000000000027 51.74405098345231
    vertex 201.63108399999268 105.05000000000027 54.52105098345233
  endloop
endfacet
facet normal 0.0 -1.0 0.0
  outer loop
    vertex 202.5810839999927 105.05000000000027 51.74405098345231
    vertex 201.63108399999268 105.05000000000027 50.96705098345231
    vertex 203.58108399999273 105.05000000000027 51.74405098345231
  endloop
endfacet
facet normal 0.0 -1.0 0.0
  outer loop
    vertex 201.63108399999268 105.05000000000027 54.52105098345233
    vertex 202.5810839999927 105.05000000000027 51.74405098345231
    vertex 202.5810839999927 105.05000000000027 52.24405098345231
  endloop
endfacet
facet normal 0.0 -1.0 0.0
  outer loop
    vertex 201.63108399999268 105.05000000000027 54.52105098345233
    vertex 202.5810839999927 105.05000000000027 52.24405098345231
    vertex 202.5810839999927 105.05000000000027 52.49405098345231
  endloop
endfacet
facet normal 0.0 -1.0 0.0
  outer loop
    vertex 202.5810839999927 105.05000000000027 52.49405098345231
    vertex 202.5810839999927 105.05000000000027 52.24405098345231
    vertex 203.58108399999273 105.05000000000027 52.49405098345231
  endloop
endfacet
facet normal 0.0 -1.0 0.0
  outer loop
    vertex 202.5810839999927 105.05000000000027 52.49405098345231
    vertex 203.58108399999273 105.05000000000027 52.49405098345231
    vertex 202.70618199999268 105.05000000000027 52.49405098345231
  endloop
endfacet
facet normal 0.0 -1.0 0.0
  outer loop
    vertex 201.63108399999268 105.05000000000027 54.52105098345233
    vertex 202.5810839999927 105.05000000000027 52.49405098345231
    vertex 202.5810839999927 105.05000000000027 52.99405098345231
  endloop
endfacet
facet normal 0.0 -1.0 0.0
  outer loop
    vertex 201.63108399999268 105.05000000000027 54.52105098345233
    vertex 202.5810839999927 105.05000000000027 52.99405098345231
    vertex 202.5810839999927 105.05000000000027 53.24405098345231
  endloop
endfacet
facet normal 0.0 -1.0 0.0
  outer loop
    vertex 202.5810839999927 105.05000000000027 53.24405098345231
    vertex 202.5810839999927 105.05000000000027 52.99405098345231
    vertex 203.58108399999273 105.05000000000027 53.24405098345231
  endloop
endfacet
facet normal 0.0 -1.0 0.0
  outer loop
    vertex 201.63108399999268 105.05000000000027 54.52105098345233
    vertex 202.5810839999927 105.05000000000027 53.24405098345231
    vertex 202.5810839999927 105.05000000000027 53.74405098345231
  endloop
endfacet
facet normal 0.0 -1.0 0.0
  outer loop
    vertex 201.63108399999268 105.05000000000027 54.52105098345233
    vertex 202.5810839999927 105.05000000000027 53.74405098345231
    vertex 204.5310839999927 105.05000000000027 54.52105098345233
  endloop
endfacet
facet normal 0.0 -1.0 0.0
  outer loop
    vertex 203.58108399999273 105.17700000000026 52.24405098345231
    vertex 202.5810839999927 105.17700000000026 51.74405098345231
    vertex 203.58108399999273 105.17700000000026 51.74405098345231
  endloop
endfacet
facet normal 0.0 -1.0 0.0
  outer loop
    vertex 202.5810839999927 105.17700000000026 51.74405098345231
    vertex 203.58108399999273 105.17700000000026 52.24405098345231
    vertex 202.5810839999927 105.17700000000026 52.24405098345231
  endloop
endfacet
facet normal -1.0 0.0 0.0
  outer loop
    vertex 203.58108399999273 105.17700000000026 52.24405098345231
    vertex 203.58108399999273 105.05000000000027 51.74405098345231
    vertex 203.58108399999273 105.05000000000027 52.24405098345231
  endloop
endfacet
facet normal -1.0 0.0 0.0
  outer loop
    vertex 203.58108399999273 105.05000000000027 51.74405098345231
    vertex 203.58108399999273 105.17700000000026 52.24405098345231
    vertex 203.58108399999273 105.17700000000026 51.74405098345231
  endloop
endfacet
facet normal -0.0 -0.0 -1.0
  outer loop
    vertex 203.58108399999273 105.17700000000026 52.24405098345231
    vertex 202.5810839999927 105.05000000000027 52.24405098345231
    vertex 202.5810839999927 105.17700000000026 52.24405098345231
  endloop
endfacet
facet normal -0.0 -0.0 -1.0
  outer loop
    vertex 202.5810839999927 105.05000000000027 52.24405098345231
    vertex 203.58108399999273 105.17700000000026 52.24405098345231
    vertex 203.58108399999273 105.05000000000027 52.24405098345231
  endloop
endfacet
facet normal 1.0 0.0 0.0
  outer loop
    vertex 202.5810839999927 105.17700000000026 51.74405098345231
    vertex 202.5810839999927 105.05000000000027 52.24405098345231
    vertex 202.5810839999927 105.05000000000027 51.74405098345231
  endloop
endfacet
facet normal 1.0 0.0 0.0
  outer loop
    vertex 202.5810839999927 105.05000000000027 52.24405098345231
    vertex 202.5810839999927 105.17700000000026 51.74405098345231
    vertex 202.5810839999927 105.17700000000026 52.24405098345231
  endloop
endfacet
facet normal 0.0 0.0 1.0
  outer loop
    vertex 203.58108399999273 105.05000000000027 51.74405098345231
    vertex 202.5810839999927 105.17700000000026 51.74405098345231
    vertex 202.5810839999927 105.05000000000027 51.74405098345231
  endloop
endfacet
facet normal 0.0 0.0 1.0
  outer loop
    vertex 202.5810839999927 105.17700000000026 51.74405098345231
    vertex 203.58108399999273 105.05000000000027 51.74405098345231
    vertex 203.58108399999273 105.17700000000026 51.74405098345231
  endloop
endfacet
endsolid Sm4rt W8tch
