solid Button - Sm4rt W8tch (extracted) (repaired)
 facet normal -1.000000 0.000000 0.000000
  outer loop
   vertex 201.631088 102.425003 50.467049
   vertex 201.631088 102.425003 50.967049
   vertex 201.631088 104.550003 50.467049
  endloop
 endfacet
 facet normal -1.000000 0.000000 0.000000
  outer loop
   vertex 201.631088 103.425003 50.967049
   vertex 201.631088 104.550003 50.467049
   vertex 201.631088 102.425003 50.967049
  endloop
 endfacet
 facet normal -1.000000 0.000000 0.000000
  outer loop
   vertex 201.631088 103.425003 52.548050
   vertex 201.631088 104.550003 50.467049
   vertex 201.631088 103.425003 50.967049
  endloop
 endfacet
 facet normal -1.000000 0.000000 0.000000
  outer loop
   vertex 201.631088 103.425003 52.802052
   vertex 201.631088 104.550003 50.467049
   vertex 201.631088 103.425003 52.548050
  endloop
 endfacet
 facet normal -1.000000 0.000000 0.000000
  outer loop
   vertex 201.631088 103.425003 54.456051
   vertex 201.631088 104.550003 50.467049
   vertex 201.631088 103.425003 52.802052
  endloop
 endfacet
 facet normal -1.000000 0.000000 0.000000
  outer loop
   vertex 201.631088 101.824997 54.456051
   vertex 201.631088 101.824997 55.021049
   vertex 201.631088 103.425003 54.456051
  endloop
 endfacet
 facet normal -1.000000 0.000000 0.000000
  outer loop
   vertex 201.631088 104.550003 55.021049
   vertex 201.631088 103.425003 54.456051
   vertex 201.631088 101.824997 55.021049
  endloop
 endfacet
 facet normal -1.000000 0.000000 0.000000
  outer loop
   vertex 201.631088 104.550003 50.467049
   vertex 201.631088 103.425003 54.456051
   vertex 201.631088 104.550003 55.021049
  endloop
 endfacet
 facet normal -1.000000 0.000000 0.000000
  outer loop
   vertex 201.631088 105.050003 50.967049
   vertex 201.631088 104.550003 50.467049
   vertex 201.631088 104.550003 55.021049
  endloop
 endfacet
 facet normal -1.000000 0.000000 0.000000
  outer loop
   vertex 201.631088 105.050003 54.521049
   vertex 201.631088 105.050003 50.967049
   vertex 201.631088 104.550003 55.021049
  endloop
 endfacet
 facet normal -1.000000 0.000000 0.000000
  outer loop
   vertex 201.631088 103.324997 52.548050
   vertex 201.631088 103.324997 52.802052
   vertex 201.631088 103.425003 52.548050
  endloop
 endfacet
 facet normal -1.000000 0.000000 0.000000
  outer loop
   vertex 201.631088 103.425003 52.802052
   vertex 201.631088 103.425003 52.548050
   vertex 201.631088 103.324997 52.802052
  endloop
 endfacet
 facet normal 0.000000 -1.000000 0.000000
  outer loop
   vertex 201.631088 102.425003 50.467049
   vertex 204.531082 102.425003 50.467049
   vertex 201.631088 102.425003 50.967049
  endloop
 endfacet
 facet normal 0.000000 -1.000000 0.000000
  outer loop
   vertex 204.531082 102.425003 50.967049
   vertex 201.631088 102.425003 50.967049
   vertex 204.531082 102.425003 50.467049
  endloop
 endfacet
 facet normal 1.000000 0.000000 0.000000
  outer loop
   vertex 204.531082 101.824997 55.021049
   vertex 204.531082 101.824997 54.456051
   vertex 204.531082 104.550003 55.021049
  endloop
 endfacet
 facet normal 1.000000 0.000000 0.000000
  outer loop
   vertex 204.531082 103.425003 54.456051
   vertex 204.531082 104.550003 55.021049
   vertex 204.531082 101.824997 54.456051
  endloop
 endfacet
 facet normal 1.000000 0.000000 0.000000
  outer loop
   vertex 204.531082 103.425003 52.802052
   vertex 204.531082 104.550003 55.021049
   vertex 204.531082 103.425003 54.456051
  endloop
 endfacet
 facet normal 1.000000 0.000000 0.000000
  outer loop
   vertex 204.531082 103.425003 52.548050
   vertex 204.531082 104.550003 55.021049
   vertex 204.531082 103.425003 52.802052
  endloop
 endfacet
 facet normal 1.000000 0.000000 0.000000
  outer loop
   vertex 204.531082 103.425003 50.967049
   vertex 204.531082 104.550003 55.021049
   vertex 204.531082 103.425003 52.548050
  endloop
 endfacet
 facet normal 1.000000 0.000000 0.000000
  outer loop
   vertex 204.531082 102.425003 50.967049
   vertex 204.531082 102.425003 50.467049
   vertex 204.531082 103.425003 50.967049
  endloop
 endfacet
 facet normal 1.000000 0.000000 0.000000
  outer loop
   vertex 204.531082 104.550003 50.467049
   vertex 204.531082 103.425003 50.967049
   vertex 204.531082 102.425003 50.467049
  endloop
 endfacet
 facet normal 1.000000 0.000000 0.000000
  outer loop
   vertex 204.531082 104.550003 55.021049
   vertex 204.531082 103.425003 50.967049
   vertex 204.531082 104.550003 50.467049
  endloop
 endfacet
 facet normal 1.000000 0.000000 0.000000
  outer loop
   vertex 204.531082 105.050003 54.521049
   vertex 204.531082 104.550003 55.021049
   vertex 204.531082 104.550003 50.467049
  endloop
 endfacet
 facet normal 1.000000 0.000000 0.000000
  outer loop
   vertex 204.531082 105.050003 50.967049
   vertex 204.531082 105.050003 54.521049
   vertex 204.531082 104.550003 50.467049
  endloop
 endfacet
 facet normal 1.000000 0.000000 0.000000
  outer loop
   vertex 204.531082 103.324997 52.802052
   vertex 204.531082 103.324997 52.548050
   vertex 204.531082 103.425003 52.802052
  endloop
 endfacet
 facet normal 1.000000 0.000000 0.000000
  outer loop
   vertex 204.531082 103.425003 52.548050
   vertex 204.531082 103.425003 52.802052
   vertex 204.531082 103.324997 52.548050
  endloop
 endfacet
 facet normal 0.000000 0.000000 -1.000000
  outer loop
   vertex 201.631088 102.425003 50.467049
   vertex 201.631088 104.550003 50.467049
   vertex 204.531082 102.425003 50.467049
  endloop
 endfacet
 facet normal 0.000000 0.000000 -1.000000
  outer loop
   vertex 204.531082 104.550003 50.467049
   vertex 204.531082 102.425003 50.467049
   vertex 201.631088 104.550003 50.467049
  endloop
 endfacet
 facet normal 0.000000 -1.000000 0.000000
  outer loop
   vertex 201.631088 103.324997 52.548050
   vertex 204.531082 103.324997 52.548050
   vertex 201.631088 103.324997 52.802052
  endloop
 endfacet
 facet normal 0.000000 -1.000000 0.000000
  outer loop
   vertex 204.531082 103.324997 52.802052
   vertex 201.631088 103.324997 52.802052
   vertex 204.531082 103.324997 52.548050
  endloop
 endfacet
 facet normal 0.000000 0.000000 -1.000000
  outer loop
   vertex 201.631088 103.324997 52.548050
   vertex 201.631088 103.425003 52.548050
   vertex 204.531082 103.324997 52.548050
  endloop
 endfacet
 facet normal 0.000000 0.000000 -1.000000
  outer loop
   vertex 204.531082 103.425003 52.548050
   vertex 204.531082 103.324997 52.548050
   vertex 201.631088 103.425003 52.548050
  endloop
 endfacet
 facet normal 0.000000 0.000000 -1.000000
  outer loop
   vertex 201.631088 101.824997 54.456051
   vertex 201.631088 103.425003 54.456051
   vertex 204.531082 101.824997 54.456051
  endloop
 endfacet
 facet normal 0.000000 0.000000 -1.000000
  outer loop
   vertex 204.531082 103.425003 54.456051
   vertex 204.531082 101.824997 54.456051
   vertex 201.631088 103.425003 54.456051
  endloop
 endfacet
 facet normal 0.000000 0.000000 1.000000
  outer loop
   vertex 201.631088 103.425003 50.967049
   vertex 201.631088 102.425003 50.967049
   vertex 204.531082 103.425003 50.967049
  endloop
 endfacet
 facet normal 0.000000 0.000000 1.000000
  outer loop
   vertex 204.531082 102.425003 50.967049
   vertex 204.531082 103.425003 50.967049
   vertex 201.631088 102.425003 50.967049
  endloop
 endfacet
 facet normal 0.000000 -1.000000 0.000000
  outer loop
   vertex 201.631088 101.824997 54.456051
   vertex 204.531082 101.824997 54.456051
   vertex 201.631088 101.824997 55.021049
  endloop
 endfacet
 facet normal 0.000000 -1.000000 0.000000
  outer loop
   vertex 204.531082 101.824997 55.021049
   vertex 201.631088 101.824997 55.021049
   vertex 204.531082 101.824997 54.456051
  endloop
 endfacet
 facet normal 0.000000 0.000000 1.000000
  outer loop
   vertex 201.631088 103.425003 52.802052
   vertex 201.631088 103.324997 52.802052
   vertex 204.531082 103.425003 52.802052
  endloop
 endfacet
 facet normal 0.000000 0.000000 1.000000
  outer loop
   vertex 204.531082 103.324997 52.802052
   vertex 204.531082 103.425003 52.802052
   vertex 201.631088 103.324997 52.802052
  endloop
 endfacet
 facet normal 0.000000 -1.000000 0.000000
  outer loop
   vertex 201.631088 103.425003 52.802052
   vertex 204.531082 103.425003 52.802052
   vertex 201.631088 103.425003 54.456051
  endloop
 endfacet
 facet normal 0.000000 -1.000000 0.000000
  outer loop
   vertex 204.531082 103.425003 54.456051
   vertex 201.631088 103.425003 54.456051
   vertex 204.531082 103.425003 52.802052
  endloop
 endfacet
 facet normal 0.000000 -1.000000 0.000000
  outer loop
   vertex 201.631088 103.425003 50.967049
   vertex 204.531082 103.425003 50.967049
   vertex 201.631088 103.425003 52.548050
  endloop
 endfacet
 facet normal 0.000000 -1.000000 0.000000
  outer loop
   vertex 204.531082 103.425003 52.548050
   vertex 201.631088 103.425003 52.548050
   vertex 204.531082 103.425003 50.967049
  endloop
 endfacet
 facet normal 0.000000 0.000000 1.000000
  outer loop
   vertex 201.631088 104.550003 55.021049
   vertex 201.631088 101.824997 55.021049
   vertex 204.531082 104.550003 55.021049
  endloop
 endfacet
 facet normal 0.000000 0.000000 1.000000
  outer loop
   vertex 204.531082 101.824997 55.021049
   vertex 204.531082 104.550003 55.021049
   vertex 201.631088 101.824997 55.021049
  endloop
 endfacet
 facet normal 0.000000 0.707107 0.707107
  outer loop
   vertex 204.531082 105.050003 54.521049
   vertex 201.631088 105.050003 54.521049
   vertex 204.531082 104.550003 55.021049
  endloop
 endfacet
 facet normal 0.000000 0.707107 0.707107
  outer loop
   vertex 201.631088 104.550003 55.021049
   vertex 204.531082 104.550003 55.021049
   vertex 201.631088 105.050003 54.521049
  endloop
 endfacet
 facet normal 0.000000 0.707107 -0.707107
  outer loop
   vertex 204.531082 104.550003 50.467049
   vertex 201.631088 104.550003 50.467049
   vertex 204.531082 105.050003 50.967049
  endloop
 endfacet
 facet normal 0.000000 0.707107 -0.707107
  outer loop
   vertex 201.631088 105.050003 50.967049
   vertex 204.531082 105.050003 50.967049
   vertex 201.631088 104.550003 50.467049
  endloop
 endfacet
 facet normal 0.000000 1.000000 0.000000
  outer loop
   vertex 203.581085 105.177002 53.244049
   vertex 202.581085 105.177002 53.244049
   vertex 203.581085 105.177002 53.744049
  endloop
 endfacet
 facet normal 0.000000 1.000000 0.000000
  outer loop
   vertex 202.581085 105.177002 53.744049
   vertex 203.581085 105.177002 53.744049
   vertex 202.581085 105.177002 53.244049
  endloop
 endfacet
 facet normal 0.000000 0.000000 1.000000
  outer loop
   vertex 202.581085 105.177002 53.744049
   vertex 202.581085 105.050003 53.744049
   vertex 203.581085 105.177002 53.744049
  endloop
 endfacet
 facet normal 0.000000 0.000000 1.000000
  outer loop
   vertex 203.581085 105.050003 53.744049
   vertex 203.581085 105.177002 53.744049
   vertex 202.581085 105.050003 53.744049
  endloop
 endfacet
 facet normal -1.000000 0.000000 0.000000
  outer loop
   vertex 202.581085 105.050003 53.244049
   vertex 202.581085 105.050003 53.744049
   vertex 202.581085 105.177002 53.244049
  endloop
 endfacet
 facet normal -1.000000 0.000000 0.000000
  outer loop
   vertex 202.581085 105.177002 53.744049
   vertex 202.581085 105.177002 53.244049
   vertex 202.581085 105.050003 53.744049
  endloop
 endfacet
 facet normal 0.000000 0.000000 -1.000000
  outer loop
   vertex 202.581085 105.050003 53.244049
   vertex 202.581085 105.177002 53.244049
   vertex 203.581085 105.050003 53.244049
  endloop
 endfacet
 facet normal 0.000000 0.000000 -1.000000
  outer loop
   vertex 203.581085 105.177002 53.244049
   vertex 203.581085 105.050003 53.244049
   vertex 202.581085 105.177002 53.244049
  endloop
 endfacet
 facet normal 1.000000 0.000000 0.000000
  outer loop
   vertex 203.581085 105.050003 53.744049
   vertex 203.581085 105.050003 53.244049
   vertex 203.581085 105.177002 53.744049
  endloop
 endfacet
 facet normal 1.000000 0.000000 0.000000
  outer loop
   vertex 203.581085 105.177002 53.244049
   vertex 203.581085 105.177002 53.744049
   vertex 203.581085 105.050003 53.244049
  endloop
 endfacet
 facet normal 0.000000 1.000000 0.000000
  outer loop
   vertex 203.581085 105.177002 52.494049
   vertex 202.706177 105.177002 52.494049
   vertex 203.581085 105.177002 52.994049
  endloop
 endfacet
 facet normal 0.000000 1.000000 0.000000
  outer loop
   vertex 202.581085 105.177002 52.494049
   vertex 203.581085 105.177002 52.994049
   vertex 202.706177 105.177002 52.494049
  endloop
 endfacet
 facet normal 0.000000 1.000000 0.000000
  outer loop
   vertex 202.581085 105.177002 52.994049
   vertex 203.581085 105.177002 52.994049
   vertex 202.581085 105.177002 52.494049
  endloop
 endfacet
 facet normal 0.000000 0.000000 -1.000000
  outer loop
   vertex 202.706177 105.050003 52.494049
   vertex 202.706177 105.177002 52.494049
   vertex 203.581085 105.050003 52.494049
  endloop
 endfacet
 facet normal 0.000000 0.000000 -1.000000
  outer loop
   vertex 203.581085 105.177002 52.494049
   vertex 203.581085 105.050003 52.494049
   vertex 202.706177 105.177002 52.494049
  endloop
 endfacet
 facet normal 1.000000 0.000000 0.000000
  outer loop
   vertex 203.581085 105.050003 52.994049
   vertex 203.581085 105.050003 52.494049
   vertex 203.581085 105.177002 52.994049
  endloop
 endfacet
 facet normal 1.000000 0.000000 0.000000
  outer loop
   vertex 203.581085 105.177002 52.494049
   vertex 203.581085 105.177002 52.994049
   vertex 203.581085 105.050003 52.494049
  endloop
 endfacet
 facet normal 0.000000 0.000000 1.000000
  outer loop
   vertex 202.581085 105.177002 52.994049
   vertex 202.581085 105.050003 52.994049
   vertex 203.581085 105.177002 52.994049
  endloop
 endfacet
 facet normal 0.000000 0.000000 1.000000
  outer loop
   vertex 203.581085 105.050003 52.994049
   vertex 203.581085 105.177002 52.994049
   vertex 202.581085 105.050003 52.994049
  endloop
 endfacet
 facet normal -1.000000 0.000000 0.000000
  outer loop
   vertex 202.581085 105.050003 52.494049
   vertex 202.581085 105.050003 52.994049
   vertex 202.581085 105.177002 52.494049
  endloop
 endfacet
 facet normal -1.000000 0.000000 0.000000
  outer loop
   vertex 202.581085 105.177002 52.994049
   vertex 202.581085 105.177002 52.494049
   vertex 202.581085 105.050003 52.994049
  endloop
 endfacet
 facet normal 0.000000 0.000000 -1.000000
  outer loop
   vertex 202.581085 105.050003 52.494049
   vertex 202.581085 105.177002 52.494049
   vertex 202.706177 105.050003 52.494049
  endloop
 endfacet
 facet normal 0.000000 0.000000 -1.000000
  outer loop
   vertex 202.706177 105.177002 52.494049
   vertex 202.706177 105.050003 52.494049
   vertex 202.581085 105.177002 52.494049
  endloop
 endfacet
 facet normal 0.000000 1.000000 0.000000
  outer loop
   vertex 201.631088 105.050003 50.967049
   vertex 203.581085 105.050003 51.744049
   vertex 204.531082 105.050003 50.967049
  endloop
 endfacet
 facet normal 0.000000 1.000000 0.000000
  outer loop
   vertex 204.531082 105.050003 54.521049
   vertex 204.531082 105.050003 50.967049
   vertex 203.581085 105.050003 51.744049
  endloop
 endfacet
 facet normal 0.000000 1.000000 0.000000
  outer loop
   vertex 203.581085 105.050003 52.244049
   vertex 204.531082 105.050003 54.521049
   vertex 203.581085 105.050003 51.744049
  endloop
 endfacet
 facet normal 0.000000 1.000000 0.000000
  outer loop
   vertex 203.581085 105.050003 52.494049
   vertex 204.531082 105.050003 54.521049
   vertex 203.581085 105.050003 52.244049
  endloop
 endfacet
 facet normal 0.000000 1.000000 0.000000
  outer loop
   vertex 202.581085 105.050003 52.244049
   vertex 203.581085 105.050003 52.494049
   vertex 203.581085 105.050003 52.244049
  endloop
 endfacet
 facet normal 0.000000 1.000000 0.000000
  outer loop
   vertex 203.581085 105.050003 52.994049
   vertex 204.531082 105.050003 54.521049
   vertex 203.581085 105.050003 52.494049
  endloop
 endfacet
 facet normal 0.000000 1.000000 0.000000
  outer loop
   vertex 203.581085 105.050003 53.244049
   vertex 204.531082 105.050003 54.521049
   vertex 203.581085 105.050003 52.994049
  endloop
 endfacet
 facet normal 0.000000 1.000000 0.000000
  outer loop
   vertex 202.581085 105.050003 52.994049
   vertex 203.581085 105.050003 53.244049
   vertex 203.581085 105.050003 52.994049
  endloop
 endfacet
 facet normal 0.000000 1.000000 0.000000
  outer loop
   vertex 203.581085 105.050003 53.744049
   vertex 204.531082 105.050003 54.521049
   vertex 203.581085 105.050003 53.244049
  endloop
 endfacet
 facet normal 0.000000 1.000000 0.000000
  outer loop
   vertex 202.581085 105.050003 53.744049
   vertex 204.531082 105.050003 54.521049
   vertex 203.581085 105.050003 53.744049
  endloop
 endfacet
 facet normal 0.000000 1.000000 0.000000
  outer loop
   vertex 201.631088 105.050003 54.521049
   vertex 202.581085 105.050003 51.744049
   vertex 201.631088 105.050003 50.967049
  endloop
 endfacet
 facet normal 0.000000 1.000000 0.000000
  outer loop
   vertex 203.581085 105.050003 51.744049
   vertex 201.631088 105.050003 50.967049
   vertex 202.581085 105.050003 51.744049
  endloop
 endfacet
 facet normal 0.000000 1.000000 0.000000
  outer loop
   vertex 202.581085 105.050003 52.244049
   vertex 202.581085 105.050003 51.744049
   vertex 201.631088 105.050003 54.521049
  endloop
 endfacet
 facet normal 0.000000 1.000000 0.000000
  outer loop
   vertex 202.581085 105.050003 52.494049
   vertex 202.581085 105.050003 52.244049
   vertex 201.631088 105.050003 54.521049
  endloop
 endfacet
 facet normal 0.000000 1.000000 0.000000
  outer loop
   vertex 203.581085 105.050003 52.494049
   vertex 202.581085 105.050003 52.244049
   vertex 202.581085 105.050003 52.494049
  endloop
 endfacet
 facet normal 0.000000 0.000000 0.000000
  outer loop
   vertex 202.706177 105.050003 52.494049
   vertex 203.581085 105.050003 52.494049
   vertex 202.581085 105.050003 52.494049
  endloop
 endfacet
 facet normal 0.000000 1.000000 0.000000
  outer loop
   vertex 202.581085 105.050003 52.994049
   vertex 202.581085 105.050003 52.494049
   vertex 201.631088 105.050003 54.521049
  endloop
 endfacet
 facet normal 0.000000 1.000000 0.000000
  outer loop
   vertex 202.581085 105.050003 53.244049
   vertex 202.581085 105.050003 52.994049
   vertex 201.631088 105.050003 54.521049
  endloop
 endfacet
 facet normal 0.000000 1.000000 0.000000
  outer loop
   vertex 203.581085 105.050003 53.244049
   vertex 202.581085 105.050003 52.994049
   vertex 202.581085 105.050003 53.244049
  endloop
 endfacet
 facet normal 0.000000 1.000000 0.000000
  outer loop
   vertex 202.581085 105.050003 53.744049
   vertex 202.581085 105.050003 53.244049
   vertex 201.631088 105.050003 54.521049
  endloop
 endfacet
 facet normal 0.000000 1.000000 0.000000
  outer loop
   vertex 204.531082 105.050003 54.521049
   vertex 202.581085 105.050003 53.744049
   vertex 201.631088 105.050003 54.521049
  endloop
 endfacet
 facet normal 0.000000 1.000000 0.000000
  outer loop
   vertex 203.581085 105.177002 51.744049
   vertex 202.581085 105.177002 51.744049
   vertex 203.581085 105.177002 52.244049
  endloop
 endfacet
 facet normal 0.000000 1.000000 0.000000
  outer loop
   vertex 202.581085 105.177002 52.244049
   vertex 203.581085 105.177002 52.244049
   vertex 202.581085 105.177002 51.744049
  endloop
 endfacet
 facet normal 1.000000 0.000000 0.000000
  outer loop
   vertex 203.581085 105.050003 52.244049
   vertex 203.581085 105.050003 51.744049
   vertex 203.581085 105.177002 52.244049
  endloop
 endfacet
 facet normal 1.000000 0.000000 0.000000
  outer loop
   vertex 203.581085 105.177002 51.744049
   vertex 203.581085 105.177002 52.244049
   vertex 203.581085 105.050003 51.744049
  endloop
 endfacet
 facet normal 0.000000 0.000000 1.000000
  outer loop
   vertex 202.581085 105.177002 52.244049
   vertex 202.581085 105.050003 52.244049
   vertex 203.581085 105.177002 52.244049
  endloop
 endfacet
 facet normal 0.000000 0.000000 1.000000
  outer loop
   vertex 203.581085 105.050003 52.244049
   vertex 203.581085 105.177002 52.244049
   vertex 202.581085 105.050003 52.244049
  endloop
 endfacet
 facet normal -1.000000 0.000000 0.000000
  outer loop
   vertex 202.581085 105.050003 51.744049
   vertex 202.581085 105.050003 52.244049
   vertex 202.581085 105.177002 51.744049
  endloop
 endfacet
 facet normal -1.000000 0.000000 0.000000
  outer loop
   vertex 202.581085 105.177002 52.244049
   vertex 202.581085 105.177002 51.744049
   vertex 202.581085 105.050003 52.244049
  endloop
 endfacet
 facet normal 0.000000 0.000000 -1.000000
  outer loop
   vertex 202.581085 105.050003 51.744049
   vertex 202.581085 105.177002 51.744049
   vertex 203.581085 105.050003 51.744049
  endloop
 endfacet
 facet normal 0.000000 0.000000 -1.000000
  outer loop
   vertex 203.581085 105.177002 51.744049
   vertex 203.581085 105.050003 51.744049
   vertex 202.581085 105.177002 51.744049
  endloop
 endfacet
endsolid Button - Sm4rt W8tch (extracted) (repaired)
