M48
;Layer_Color=9474304
;FILE_FORMAT=4:4
METRIC
;TYPE=PLATED
T1F00S00C0.3810
T2F00S00C0.7000
T3F00S00C0.7620
T4F00S00C1.0160
T5F00S00C1.5240
%
T01
X00552450Y00784860
X00568198Y00778256
X00607568Y00784834
X00613000Y00793000
X00622000Y00797000
X00614680Y00845820
X00602742Y00840232
X00591058Y00842518
X00577257Y00830580
X00570410Y00817758
X00535000Y00835000
X00524764Y00833882
X00509016Y00846836
X00491490Y00843026
X00509016Y00819658
X00503682Y00873760
X00509524Y00951992
X00544830Y00999490
X00542750Y01051000
X00567690Y01060450
X00657402Y01060500
X00653034Y01012190
X00708660Y00969772
X00716500Y00951992
X00647700Y00886460
X00640334Y00872490
X00660146Y00864108
X00675386Y00800100
X00704000Y00811000
X00702000Y00825000
T02
X00589280Y00822960
X00627379
T03
X00774750Y00937000
X00801750
T04
X00531800Y00898900
X00557200
X00582600
X00608000
X00633400
X00658800
X00684200
Y00975100
X00658800
X00633400
X00608000
X00582600
X00557200
X00531800
T05
X00518000Y00782000
X00698000
Y01092000
X00518000
M30
