G04 Layer_Color=16711935*
%FSAX44Y44*%
%MOMM*%
G71*
G01*
G75*
%ADD36C,1.9812*%
%ADD37C,1.7032*%
%ADD38O,1.6002X2.1082*%
%ADD39O,1.3032X1.7032*%
%ADD40C,0.8382*%
%ADD41R,1.7032X2.2032*%
D36*
X00518000Y00782000D02*
D03*
X00698000D02*
D03*
Y01092000D02*
D03*
X00518000D02*
D03*
D37*
X00589280Y00822960D02*
D03*
X00627379D02*
D03*
D38*
X00531800Y00975100D02*
D03*
X00557200D02*
D03*
X00582600D02*
D03*
X00608000D02*
D03*
X00633400D02*
D03*
X00658800D02*
D03*
X00684200D02*
D03*
Y00898900D02*
D03*
X00658800D02*
D03*
X00633400D02*
D03*
X00608000D02*
D03*
X00582600D02*
D03*
X00557200D02*
D03*
X00531800D02*
D03*
D39*
X00801750Y00937000D02*
D03*
X00774750D02*
D03*
D40*
X00622000Y00797000D02*
D03*
X00613000Y00793000D02*
D03*
X00535000Y00835000D02*
D03*
X00702000Y00825000D02*
D03*
X00704000Y00811000D02*
D03*
X00542750Y01051000D02*
D03*
X00509016Y00846836D02*
D03*
X00607568Y00784834D02*
D03*
X00570410Y00817758D02*
D03*
X00577257Y00830580D02*
D03*
X00602742Y00840232D02*
D03*
X00614680Y00845820D02*
D03*
X00591058Y00842518D02*
D03*
X00491490Y00843026D02*
D03*
X00647700Y00886460D02*
D03*
X00675386Y00800100D02*
D03*
X00567690Y01060450D02*
D03*
X00708660Y00969772D02*
D03*
X00640334Y00872490D02*
D03*
X00509524Y00951992D02*
D03*
X00552450Y00784860D02*
D03*
X00657402Y01060500D02*
D03*
X00568198Y00778256D02*
D03*
X00503682Y00873760D02*
D03*
X00509016Y00819658D02*
D03*
X00653034Y01012190D02*
D03*
X00716500Y00951992D02*
D03*
X00544830Y00999490D02*
D03*
X00660146Y00864108D02*
D03*
X00524764Y00833882D02*
D03*
D41*
X00657999Y00937000D02*
D03*
X00637999D02*
D03*
X00617999D02*
D03*
X00597999D02*
D03*
X00577999D02*
D03*
X00557999D02*
D03*
M02*
