M48
;Layer_Color=9474304
;FILE_FORMAT=4:4
METRIC
;TYPE=PLATED
T1F00S00C0.3810
T2F00S00C0.7620
T3F00S00C1.5240
%
T01
X00547000Y00785000
X00559816Y00793242
X00572008Y00781558
X00603504Y00790448
X00608000Y00803000
X00580898Y00810514
X00575818Y00827898
X00568452Y00821469
X00551942Y00821690
X00508762Y00853440
X00518160Y00885698
X00490000Y00878000
X00576000Y00873000
X00643382Y00865378
X00657860Y00879856
X00665383Y00821000
X00680000Y00804000
X00706120Y00838962
X00717000Y00906000
X00718000Y00944000
X00728000Y00970000
X00753000Y00917000
X00689000Y01043000
Y01053000
X00606000Y01052000
X00497000Y01007000
X00628269Y00837565
T02
X00589280Y00822960
X00627379
X00633400Y00898900
X00608000
X00582600
X00557200
X00531800
Y00975100
X00557200
X00582600
X00608000
X00633400
X00658800
X00684200
Y00898900
X00658800
X00774750Y00937000
X00801750
T03
X00518000Y00782000
X00698000
Y01092000
X00518000
M30
