G04 Layer_Physical_Order=2*
G04 Layer_Color=16711680*
%FSAX44Y44*%
%MOMM*%
G71*
G01*
G75*
%ADD17C,0.2286*%
%ADD18C,1.8000*%
%ADD19C,1.5000*%
%ADD20O,1.1000X1.6000*%
%ADD21C,0.6350*%
%ADD22R,1.5000X2.0000*%
G36*
X00707796Y01101291D02*
X00706138Y01100138D01*
X00705474Y01100752D01*
X00704765Y01101311D01*
X00704014Y01101813D01*
X00703225Y01102255D01*
X00702404Y01102633D01*
X00701557Y01102946D01*
X00700687Y01103191D01*
X00699800Y01103367D01*
X00698903Y01103474D01*
X00698000Y01103509D01*
X00697097Y01103474D01*
X00696200Y01103367D01*
X00695313Y01103191D01*
X00694444Y01102946D01*
X00693596Y01102633D01*
X00692775Y01102255D01*
X00691987Y01101813D01*
X00691829Y01101708D01*
X00699768Y01093768D01*
X00707707Y01085829D01*
X00707813Y01085987D01*
X00708255Y01086775D01*
X00708633Y01087596D01*
X00708946Y01088444D01*
X00709191Y01089314D01*
X00709367Y01090200D01*
X00711423Y01090596D01*
X00711663Y01090549D01*
X00749181Y00986334D01*
Y00972001D01*
X00749213Y00971502D01*
X00749311Y00971012D01*
X00749472Y00970539D01*
X00749693Y00970091D01*
X00749970Y00969676D01*
X00750300Y00969300D01*
X00750675Y00968970D01*
X00751090Y00968693D01*
X00751539Y00968472D01*
X00752012Y00968311D01*
X00752502Y00968214D01*
X00753000Y00968181D01*
X00808109D01*
Y00947197D01*
X00808044Y00947120D01*
X00806468Y00946299D01*
X00806109Y00946214D01*
X00805526Y00946564D01*
X00804815Y00946900D01*
X00804075Y00947165D01*
X00803313Y00947356D01*
X00802535Y00947471D01*
X00801750Y00947510D01*
X00800965Y00947471D01*
X00800187Y00947356D01*
X00799425Y00947165D01*
X00798685Y00946900D01*
X00798142Y00946643D01*
X00803518Y00941268D01*
X00799982Y00937732D01*
X00794607Y00943108D01*
X00794350Y00942565D01*
X00794085Y00941825D01*
X00793894Y00941063D01*
X00793779Y00940285D01*
X00793740Y00939500D01*
Y00934500D01*
X00793779Y00933715D01*
X00793894Y00932937D01*
X00794085Y00932175D01*
X00794350Y00931435D01*
X00794607Y00930892D01*
X00799982Y00936268D01*
X00803518Y00932732D01*
X00798142Y00927357D01*
X00798685Y00927100D01*
X00799425Y00926835D01*
X00800187Y00926644D01*
X00800965Y00926529D01*
X00801750Y00926490D01*
X00802535Y00926529D01*
X00803313Y00926644D01*
X00804075Y00926835D01*
X00804815Y00927100D01*
X00805526Y00927436D01*
X00806109Y00927786D01*
X00806468Y00927701D01*
X00808044Y00926880D01*
X00808109Y00926803D01*
Y00905819D01*
X00753001D01*
X00752502Y00905787D01*
X00752012Y00905689D01*
X00751539Y00905528D01*
X00751091Y00905307D01*
X00750676Y00905030D01*
X00750300Y00904700D01*
X00750300Y00904700D01*
X00750300Y00904700D01*
X00749970Y00904324D01*
X00749693Y00903909D01*
X00749472Y00903461D01*
X00749311Y00902988D01*
X00749213Y00902498D01*
X00749181Y00901999D01*
Y00887667D01*
X00711663Y00783451D01*
X00711423Y00783405D01*
X00709367Y00783800D01*
X00709191Y00784687D01*
X00708946Y00785556D01*
X00708633Y00786404D01*
X00708255Y00787225D01*
X00707813Y00788013D01*
X00707707Y00788172D01*
X00699768Y00780232D01*
X00691829Y00772293D01*
X00691987Y00772187D01*
X00692775Y00771746D01*
X00693596Y00771367D01*
X00694444Y00771054D01*
X00695313Y00770809D01*
X00696200Y00770633D01*
X00697097Y00770527D01*
X00698000Y00770491D01*
X00698903Y00770527D01*
X00699800Y00770633D01*
X00700687Y00770809D01*
X00701557Y00771054D01*
X00702404Y00771367D01*
X00703225Y00771746D01*
X00704014Y00772187D01*
X00704765Y00772689D01*
X00705474Y00773249D01*
X00706138Y00773862D01*
X00707796Y00772709D01*
X00705316Y00765819D01*
X00510684D01*
X00508204Y00772709D01*
X00509862Y00773862D01*
X00510526Y00773249D01*
X00511235Y00772689D01*
X00511987Y00772187D01*
X00512775Y00771746D01*
X00513596Y00771367D01*
X00514444Y00771054D01*
X00515313Y00770809D01*
X00516200Y00770633D01*
X00517097Y00770527D01*
X00518000Y00770491D01*
X00518903Y00770527D01*
X00519800Y00770633D01*
X00520687Y00770809D01*
X00521556Y00771054D01*
X00522404Y00771367D01*
X00523225Y00771746D01*
X00524013Y00772187D01*
X00524172Y00772293D01*
X00516232Y00780232D01*
X00508293Y00788172D01*
X00508187Y00788013D01*
X00507746Y00787225D01*
X00507367Y00786404D01*
X00507054Y00785556D01*
X00506809Y00784687D01*
X00506633Y00783800D01*
X00504577Y00783405D01*
X00504337Y00783451D01*
X00466819Y00887667D01*
Y00902000D01*
X00466787Y00902498D01*
X00466689Y00902988D01*
X00466529Y00903461D01*
X00466308Y00903909D01*
X00466030Y00904325D01*
X00465701Y00904700D01*
X00465325Y00905030D01*
X00464910Y00905307D01*
X00464462Y00905528D01*
X00463988Y00905689D01*
X00463498Y00905787D01*
X00463000Y00905819D01*
X00451819D01*
Y00968181D01*
X00463000D01*
X00463498Y00968214D01*
X00463988Y00968311D01*
X00464462Y00968472D01*
X00464910Y00968693D01*
X00465325Y00968970D01*
X00465701Y00969300D01*
X00466030Y00969676D01*
X00466308Y00970091D01*
X00466529Y00970539D01*
X00466689Y00971012D01*
X00466787Y00971502D01*
X00466819Y00972001D01*
Y00986334D01*
X00504337Y01090549D01*
X00504577Y01090596D01*
X00506633Y01090200D01*
X00506809Y01089314D01*
X00507054Y01088444D01*
X00507367Y01087596D01*
X00507746Y01086775D01*
X00508187Y01085987D01*
X00508293Y01085829D01*
X00516232Y01093768D01*
X00524172Y01101708D01*
X00524013Y01101813D01*
X00523225Y01102255D01*
X00522404Y01102633D01*
X00521556Y01102946D01*
X00520687Y01103191D01*
X00519800Y01103367D01*
X00518903Y01103474D01*
X00518000Y01103509D01*
X00517097Y01103474D01*
X00516200Y01103367D01*
X00515313Y01103191D01*
X00514444Y01102946D01*
X00513596Y01102633D01*
X00512775Y01102255D01*
X00511987Y01101813D01*
X00511235Y01101311D01*
X00510526Y01100752D01*
X00509862Y01100138D01*
X00508204Y01101291D01*
X00510684Y01108181D01*
X00705316D01*
X00707796Y01101291D01*
D02*
G37*
%LPC*%
G36*
X00518000Y00793509D02*
X00517097Y00793473D01*
X00516200Y00793367D01*
X00515313Y00793191D01*
X00514444Y00792945D01*
X00513596Y00792633D01*
X00512775Y00792254D01*
X00511987Y00791813D01*
X00511828Y00791707D01*
X00518000Y00785536D01*
X00524172Y00791707D01*
X00524013Y00791813D01*
X00523225Y00792254D01*
X00522404Y00792633D01*
X00521556Y00792945D01*
X00520687Y00793191D01*
X00519800Y00793367D01*
X00518903Y00793473D01*
X00518000Y00793509D01*
D02*
G37*
G36*
X00698000D02*
X00697097Y00793473D01*
X00696200Y00793367D01*
X00695313Y00793191D01*
X00694444Y00792945D01*
X00693596Y00792633D01*
X00692775Y00792254D01*
X00691987Y00791813D01*
X00691829Y00791707D01*
X00698000Y00785536D01*
X00704172Y00791707D01*
X00704014Y00791813D01*
X00703225Y00792254D01*
X00702404Y00792633D01*
X00701557Y00792945D01*
X00700687Y00793191D01*
X00699800Y00793367D01*
X00698903Y00793473D01*
X00698000Y00793509D01*
D02*
G37*
G36*
X00774750Y00947510D02*
X00773965Y00947471D01*
X00773187Y00947356D01*
X00772425Y00947165D01*
X00771685Y00946900D01*
X00771142Y00946643D01*
X00774750Y00943036D01*
X00778358Y00946643D01*
X00777815Y00946900D01*
X00777075Y00947165D01*
X00776313Y00947356D01*
X00775535Y00947471D01*
X00774750Y00947510D01*
D02*
G37*
G36*
X00582600Y00985650D02*
X00581811Y00985611D01*
X00581030Y00985495D01*
X00580263Y00985303D01*
X00579520Y00985037D01*
X00578805Y00984699D01*
X00578128Y00984293D01*
X00577493Y00983823D01*
X00576908Y00983292D01*
X00576377Y00982707D01*
X00575907Y00982072D01*
X00575501Y00981395D01*
X00575163Y00980681D01*
X00574897Y00979937D01*
X00574705Y00979171D01*
X00574589Y00978389D01*
X00574550Y00977600D01*
Y00972600D01*
X00574589Y00971811D01*
X00574705Y00971030D01*
X00574897Y00970264D01*
X00575163Y00969520D01*
X00575501Y00968806D01*
X00575907Y00968128D01*
X00576377Y00967494D01*
X00576908Y00966908D01*
X00577493Y00966378D01*
X00578128Y00965907D01*
X00578805Y00965501D01*
X00579520Y00965163D01*
X00580263Y00964897D01*
X00581030Y00964705D01*
X00581811Y00964589D01*
X00582600Y00964550D01*
X00583389Y00964589D01*
X00584170Y00964705D01*
X00584937Y00964897D01*
X00585681Y00965163D01*
X00586395Y00965501D01*
X00587072Y00965907D01*
X00587707Y00966378D01*
X00588292Y00966908D01*
X00588823Y00967494D01*
X00589293Y00968128D01*
X00589699Y00968806D01*
X00590037Y00969520D01*
X00590303Y00970264D01*
X00590495Y00971030D01*
X00590611Y00971811D01*
X00590650Y00972600D01*
Y00977600D01*
X00590611Y00978389D01*
X00590495Y00979171D01*
X00590303Y00979937D01*
X00590037Y00980681D01*
X00589699Y00981395D01*
X00589293Y00982072D01*
X00588823Y00982707D01*
X00588292Y00983292D01*
X00587707Y00983823D01*
X00587072Y00984293D01*
X00586395Y00984699D01*
X00585681Y00985037D01*
X00584937Y00985303D01*
X00584170Y00985495D01*
X00583389Y00985611D01*
X00582600Y00985650D01*
D02*
G37*
G36*
X00557200D02*
X00556411Y00985611D01*
X00555630Y00985495D01*
X00554863Y00985303D01*
X00554119Y00985037D01*
X00553405Y00984699D01*
X00552728Y00984293D01*
X00552093Y00983823D01*
X00551508Y00983292D01*
X00550978Y00982707D01*
X00550507Y00982072D01*
X00550101Y00981395D01*
X00549763Y00980681D01*
X00549497Y00979937D01*
X00549305Y00979171D01*
X00549189Y00978389D01*
X00549150Y00977600D01*
Y00972600D01*
X00549189Y00971811D01*
X00549305Y00971030D01*
X00549497Y00970264D01*
X00549763Y00969520D01*
X00550101Y00968806D01*
X00550507Y00968128D01*
X00550978Y00967494D01*
X00551508Y00966908D01*
X00552093Y00966378D01*
X00552728Y00965907D01*
X00553405Y00965501D01*
X00554119Y00965163D01*
X00554863Y00964897D01*
X00555630Y00964705D01*
X00556411Y00964589D01*
X00557200Y00964550D01*
X00557989Y00964589D01*
X00558770Y00964705D01*
X00559537Y00964897D01*
X00560280Y00965163D01*
X00560995Y00965501D01*
X00561672Y00965907D01*
X00562307Y00966378D01*
X00562892Y00966908D01*
X00563423Y00967494D01*
X00563893Y00968128D01*
X00564299Y00968806D01*
X00564637Y00969520D01*
X00564903Y00970264D01*
X00565095Y00971030D01*
X00565211Y00971811D01*
X00565250Y00972600D01*
Y00977600D01*
X00565211Y00978389D01*
X00565095Y00979171D01*
X00564903Y00979937D01*
X00564637Y00980681D01*
X00564299Y00981395D01*
X00563893Y00982072D01*
X00563423Y00982707D01*
X00562892Y00983292D01*
X00562307Y00983823D01*
X00561672Y00984293D01*
X00560995Y00984699D01*
X00560280Y00985037D01*
X00559537Y00985303D01*
X00558770Y00985495D01*
X00557989Y00985611D01*
X00557200Y00985650D01*
D02*
G37*
G36*
X00531800D02*
X00531011Y00985611D01*
X00530230Y00985495D01*
X00529463Y00985303D01*
X00528719Y00985037D01*
X00528005Y00984699D01*
X00527328Y00984293D01*
X00526693Y00983823D01*
X00526108Y00983292D01*
X00525578Y00982707D01*
X00525107Y00982072D01*
X00524701Y00981395D01*
X00524363Y00980681D01*
X00524097Y00979937D01*
X00523905Y00979171D01*
X00523789Y00978389D01*
X00523750Y00977600D01*
Y00972600D01*
X00523789Y00971811D01*
X00523905Y00971030D01*
X00524097Y00970264D01*
X00524363Y00969520D01*
X00524701Y00968806D01*
X00525107Y00968128D01*
X00525578Y00967494D01*
X00526108Y00966908D01*
X00526693Y00966378D01*
X00527328Y00965907D01*
X00528005Y00965501D01*
X00528719Y00965163D01*
X00529463Y00964897D01*
X00530230Y00964705D01*
X00531011Y00964589D01*
X00531800Y00964550D01*
X00532589Y00964589D01*
X00533370Y00964705D01*
X00534137Y00964897D01*
X00534880Y00965163D01*
X00535595Y00965501D01*
X00536272Y00965907D01*
X00536907Y00966378D01*
X00537492Y00966908D01*
X00538022Y00967494D01*
X00538493Y00968128D01*
X00538899Y00968806D01*
X00539237Y00969520D01*
X00539503Y00970264D01*
X00539695Y00971030D01*
X00539811Y00971811D01*
X00539850Y00972600D01*
Y00977600D01*
X00539811Y00978389D01*
X00539695Y00979171D01*
X00539503Y00979937D01*
X00539237Y00980681D01*
X00538899Y00981395D01*
X00538493Y00982072D01*
X00538022Y00982707D01*
X00537492Y00983292D01*
X00536907Y00983823D01*
X00536272Y00984293D01*
X00535595Y00984699D01*
X00534880Y00985037D01*
X00534137Y00985303D01*
X00533370Y00985495D01*
X00532589Y00985611D01*
X00531800Y00985650D01*
D02*
G37*
G36*
X00781893Y00943108D02*
X00776518Y00937732D01*
X00774750Y00939500D01*
X00772982Y00937732D01*
X00767607Y00943108D01*
X00767350Y00942565D01*
X00767085Y00941825D01*
X00766894Y00941063D01*
X00766779Y00940285D01*
X00766740Y00939500D01*
Y00934500D01*
X00766779Y00933715D01*
X00766894Y00932937D01*
X00767085Y00932175D01*
X00767350Y00931435D01*
X00767607Y00930892D01*
X00772982Y00936268D01*
X00774750Y00934500D01*
X00776518Y00936268D01*
X00781893Y00930892D01*
X00782150Y00931435D01*
X00782415Y00932175D01*
X00782606Y00932937D01*
X00782721Y00933715D01*
X00782760Y00934500D01*
Y00939500D01*
X00782721Y00940285D01*
X00782606Y00941063D01*
X00782415Y00941825D01*
X00782150Y00942565D01*
X00781893Y00943108D01*
D02*
G37*
G36*
X00581376Y00874840D02*
X00579535Y00873000D01*
X00581376Y00871160D01*
X00581541Y00871735D01*
X00581648Y00872364D01*
X00581684Y00873000D01*
X00581648Y00873636D01*
X00581541Y00874265D01*
X00581376Y00874840D01*
D02*
G37*
G36*
X00570624Y00874840D02*
X00570459Y00874265D01*
X00570352Y00873636D01*
X00570316Y00873000D01*
X00570352Y00872364D01*
X00570459Y00871735D01*
X00570624Y00871160D01*
X00572464Y00873000D01*
X00570624Y00874840D01*
D02*
G37*
G36*
X00576000Y00869464D02*
X00574160Y00867624D01*
X00574735Y00867459D01*
X00575364Y00867352D01*
X00576000Y00867316D01*
X00576636Y00867352D01*
X00577265Y00867459D01*
X00577840Y00867624D01*
X00576000Y00869464D01*
D02*
G37*
G36*
X00774750Y00930965D02*
X00771142Y00927357D01*
X00771685Y00927100D01*
X00772425Y00926835D01*
X00773187Y00926644D01*
X00773965Y00926529D01*
X00774750Y00926490D01*
X00775535Y00926529D01*
X00776313Y00926644D01*
X00777075Y00926835D01*
X00777815Y00927100D01*
X00778358Y00927357D01*
X00774750Y00930965D01*
D02*
G37*
G36*
X00626939Y00829783D02*
X00625654Y00828221D01*
X00627379Y00826496D01*
X00628803Y00827919D01*
X00626939Y00829783D01*
D02*
G37*
G36*
X00576000Y00878684D02*
X00575364Y00878648D01*
X00574735Y00878541D01*
X00574160Y00878376D01*
X00576000Y00876535D01*
X00577840Y00878376D01*
X00577265Y00878541D01*
X00576636Y00878648D01*
X00576000Y00878684D01*
D02*
G37*
G36*
X00608000Y00985650D02*
X00607211Y00985611D01*
X00606430Y00985495D01*
X00605663Y00985303D01*
X00604920Y00985037D01*
X00604205Y00984699D01*
X00603528Y00984293D01*
X00602893Y00983823D01*
X00602308Y00983292D01*
X00601777Y00982707D01*
X00601307Y00982072D01*
X00600901Y00981395D01*
X00600563Y00980681D01*
X00600297Y00979937D01*
X00600105Y00979171D01*
X00599989Y00978389D01*
X00599950Y00977600D01*
Y00972600D01*
X00599989Y00971811D01*
X00600105Y00971030D01*
X00600297Y00970264D01*
X00600563Y00969520D01*
X00600901Y00968806D01*
X00601307Y00968128D01*
X00601777Y00967494D01*
X00602308Y00966908D01*
X00602893Y00966378D01*
X00603528Y00965907D01*
X00604205Y00965501D01*
X00604920Y00965163D01*
X00605663Y00964897D01*
X00606430Y00964705D01*
X00607211Y00964589D01*
X00608000Y00964550D01*
X00608789Y00964589D01*
X00609570Y00964705D01*
X00610337Y00964897D01*
X00611081Y00965163D01*
X00611795Y00965501D01*
X00612472Y00965907D01*
X00613107Y00966378D01*
X00613692Y00966908D01*
X00614222Y00967494D01*
X00614693Y00968128D01*
X00615099Y00968806D01*
X00615437Y00969520D01*
X00615703Y00970264D01*
X00615895Y00971030D01*
X00616011Y00971811D01*
X00616050Y00972600D01*
Y00977600D01*
X00616011Y00978389D01*
X00615895Y00979171D01*
X00615703Y00979937D01*
X00615437Y00980681D01*
X00615099Y00981395D01*
X00614693Y00982072D01*
X00614222Y00982707D01*
X00613692Y00983292D01*
X00613107Y00983823D01*
X00612472Y00984293D01*
X00611795Y00984699D01*
X00611081Y00985037D01*
X00610337Y00985303D01*
X00609570Y00985495D01*
X00608789Y00985611D01*
X00608000Y00985650D01*
D02*
G37*
G36*
X00698000Y01088465D02*
X00691829Y01082293D01*
X00691987Y01082187D01*
X00692775Y01081746D01*
X00693596Y01081368D01*
X00694444Y01081055D01*
X00695313Y01080809D01*
X00696200Y01080633D01*
X00697097Y01080527D01*
X00698000Y01080491D01*
X00698903Y01080527D01*
X00699800Y01080633D01*
X00700687Y01080809D01*
X00701557Y01081055D01*
X00702404Y01081368D01*
X00703225Y01081746D01*
X00704014Y01082187D01*
X00704172Y01082293D01*
X00698000Y01088465D01*
D02*
G37*
G36*
X00527707Y00788172D02*
X00521535Y00782000D01*
X00527707Y00775828D01*
X00527813Y00775987D01*
X00528254Y00776775D01*
X00528633Y00777596D01*
X00528946Y00778444D01*
X00529191Y00779313D01*
X00529367Y00780200D01*
X00529473Y00781097D01*
X00529509Y00782000D01*
X00529473Y00782903D01*
X00529367Y00783800D01*
X00529191Y00784687D01*
X00528946Y00785556D01*
X00528633Y00786404D01*
X00528254Y00787225D01*
X00527813Y00788013D01*
X00527707Y00788172D01*
D02*
G37*
G36*
X00606000Y01057724D02*
X00605359Y01057688D01*
X00604726Y01057580D01*
X00604109Y01057403D01*
X00603516Y01057157D01*
X00602955Y01056847D01*
X00602431Y01056475D01*
X00601953Y01056048D01*
X00601634Y01055691D01*
X00528000D01*
X00527518Y01055659D01*
X00527045Y01055565D01*
X00526588Y01055410D01*
X00526155Y01055196D01*
X00525753Y01054928D01*
X00525390Y01054610D01*
X00487390Y01016610D01*
X00487072Y01016247D01*
X00486804Y01015845D01*
X00486590Y01015412D01*
X00486435Y01014955D01*
X00486341Y01014482D01*
X00486309Y01014000D01*
Y00994750D01*
X00486341Y00994268D01*
X00486435Y00993795D01*
X00486590Y00993338D01*
X00486804Y00992905D01*
X00487072Y00992503D01*
X00487390Y00992140D01*
X00492151Y00987379D01*
Y00885409D01*
X00491967Y00885026D01*
X00491512Y00884567D01*
X00490151Y00883716D01*
X00490000Y00883724D01*
X00489359Y00883688D01*
X00488726Y00883580D01*
X00488110Y00883403D01*
X00487516Y00883157D01*
X00486955Y00882847D01*
X00486431Y00882475D01*
X00485952Y00882048D01*
X00485525Y00881569D01*
X00485153Y00881045D01*
X00484843Y00880484D01*
X00484597Y00879891D01*
X00484420Y00879274D01*
X00484312Y00878641D01*
X00484276Y00878000D01*
X00484312Y00877359D01*
X00484420Y00876726D01*
X00484597Y00876109D01*
X00484843Y00875516D01*
X00485153Y00874955D01*
X00485525Y00874431D01*
X00485952Y00873952D01*
X00486309Y00873634D01*
Y00842000D01*
X00486341Y00841518D01*
X00486435Y00841045D01*
X00486590Y00840587D01*
X00486804Y00840154D01*
X00487072Y00839753D01*
X00487390Y00839390D01*
X00541303Y00785478D01*
X00541276Y00785000D01*
X00541312Y00784359D01*
X00541419Y00783726D01*
X00541597Y00783110D01*
X00541843Y00782516D01*
X00542153Y00781955D01*
X00542525Y00781431D01*
X00542952Y00780953D01*
X00543431Y00780525D01*
X00543955Y00780153D01*
X00544516Y00779843D01*
X00545109Y00779597D01*
X00545726Y00779419D01*
X00546359Y00779312D01*
X00547000Y00779276D01*
X00547641Y00779312D01*
X00548274Y00779419D01*
X00548890Y00779597D01*
X00549484Y00779843D01*
X00550045Y00780153D01*
X00550569Y00780525D01*
X00551048Y00780953D01*
X00551475Y00781431D01*
X00551847Y00781955D01*
X00552157Y00782516D01*
X00552403Y00783110D01*
X00552501Y00783451D01*
X00553327Y00783880D01*
X00554619Y00784146D01*
X00554636Y00784145D01*
X00559832Y00778948D01*
X00560195Y00778630D01*
X00560597Y00778362D01*
X00561030Y00778148D01*
X00561487Y00777993D01*
X00561960Y00777899D01*
X00562442Y00777867D01*
X00567642D01*
X00567961Y00777511D01*
X00568439Y00777083D01*
X00568963Y00776711D01*
X00569524Y00776401D01*
X00570117Y00776155D01*
X00570734Y00775977D01*
X00571367Y00775870D01*
X00572008Y00775834D01*
X00572649Y00775870D01*
X00573282Y00775977D01*
X00573899Y00776155D01*
X00574492Y00776401D01*
X00575053Y00776711D01*
X00575577Y00777083D01*
X00576055Y00777511D01*
X00576483Y00777989D01*
X00576855Y00778513D01*
X00577165Y00779074D01*
X00577411Y00779668D01*
X00577589Y00780284D01*
X00577696Y00780917D01*
X00577732Y00781558D01*
X00577696Y00782199D01*
X00577589Y00782832D01*
X00577411Y00783448D01*
X00577165Y00784042D01*
X00576855Y00784603D01*
X00576483Y00785127D01*
X00576055Y00785605D01*
X00575577Y00786033D01*
X00575053Y00786405D01*
X00574492Y00786715D01*
X00573899Y00786961D01*
X00573282Y00787139D01*
X00572649Y00787246D01*
X00572008Y00787282D01*
X00571367Y00787246D01*
X00570734Y00787139D01*
X00570117Y00786961D01*
X00569524Y00786715D01*
X00568963Y00786405D01*
X00568439Y00786033D01*
X00567961Y00785605D01*
X00567642Y00785249D01*
X00563971D01*
X00563007Y00786213D01*
X00562920Y00786444D01*
X00562901Y00787076D01*
X00563324Y00788724D01*
X00563385Y00788767D01*
X00563863Y00789194D01*
X00564291Y00789673D01*
X00564663Y00790197D01*
X00564973Y00790758D01*
X00565219Y00791351D01*
X00565396Y00791968D01*
X00565504Y00792599D01*
X00596095D01*
X00596478Y00792415D01*
X00596937Y00791960D01*
X00597789Y00790599D01*
X00597780Y00790448D01*
X00597816Y00789807D01*
X00597924Y00789174D01*
X00598101Y00788558D01*
X00598347Y00787964D01*
X00598657Y00787403D01*
X00599029Y00786879D01*
X00599456Y00786401D01*
X00599935Y00785973D01*
X00600459Y00785601D01*
X00601020Y00785291D01*
X00601614Y00785045D01*
X00602230Y00784867D01*
X00602863Y00784760D01*
X00603504Y00784724D01*
X00604145Y00784760D01*
X00604778Y00784867D01*
X00605395Y00785045D01*
X00605988Y00785291D01*
X00606549Y00785601D01*
X00607073Y00785973D01*
X00607551Y00786401D01*
X00607870Y00786757D01*
X00680448D01*
X00680930Y00786789D01*
X00681403Y00786883D01*
X00681860Y00787038D01*
X00682293Y00787252D01*
X00682695Y00787520D01*
X00683058Y00787838D01*
X00719610Y00824390D01*
X00719928Y00824753D01*
X00720196Y00825154D01*
X00720410Y00825588D01*
X00720565Y00826045D01*
X00720659Y00826518D01*
X00720691Y00827000D01*
Y00901634D01*
X00721048Y00901953D01*
X00721475Y00902431D01*
X00721847Y00902955D01*
X00722157Y00903516D01*
X00722403Y00904109D01*
X00722580Y00904726D01*
X00722688Y00905359D01*
X00722724Y00906000D01*
X00722688Y00906641D01*
X00722580Y00907274D01*
X00722403Y00907890D01*
X00722157Y00908484D01*
X00721847Y00909045D01*
X00721475Y00909569D01*
X00721048Y00910048D01*
X00720569Y00910475D01*
X00720045Y00910847D01*
X00719483Y00911157D01*
X00718891Y00911403D01*
X00719464Y00913309D01*
X00748634D01*
X00748952Y00912952D01*
X00749431Y00912525D01*
X00749955Y00912153D01*
X00750516Y00911843D01*
X00751109Y00911597D01*
X00751726Y00911420D01*
X00752359Y00911312D01*
X00753000Y00911276D01*
X00753641Y00911312D01*
X00754274Y00911420D01*
X00754891Y00911597D01*
X00755484Y00911843D01*
X00756045Y00912153D01*
X00756569Y00912525D01*
X00757048Y00912952D01*
X00757475Y00913431D01*
X00757847Y00913955D01*
X00758157Y00914516D01*
X00758403Y00915109D01*
X00758580Y00915726D01*
X00758688Y00916359D01*
X00758724Y00917000D01*
X00758688Y00917641D01*
X00758580Y00918274D01*
X00758403Y00918891D01*
X00758157Y00919484D01*
X00757847Y00920045D01*
X00757475Y00920569D01*
X00757048Y00921048D01*
X00756569Y00921475D01*
X00756045Y00921847D01*
X00755484Y00922157D01*
X00754891Y00922403D01*
X00754274Y00922580D01*
X00753641Y00922688D01*
X00753000Y00922724D01*
X00752359Y00922688D01*
X00751726Y00922580D01*
X00751109Y00922403D01*
X00750516Y00922157D01*
X00749955Y00921847D01*
X00749431Y00921475D01*
X00748952Y00921048D01*
X00748634Y00920691D01*
X00686000D01*
X00685518Y00920659D01*
X00685045Y00920565D01*
X00684588Y00920410D01*
X00684155Y00920196D01*
X00683753Y00919928D01*
X00683390Y00919610D01*
X00668712Y00904932D01*
X00668394Y00904569D01*
X00668352Y00904506D01*
X00667066Y00904416D01*
X00666145Y00904674D01*
X00665899Y00905195D01*
X00665493Y00905872D01*
X00665023Y00906507D01*
X00664492Y00907092D01*
X00663907Y00907623D01*
X00663272Y00908093D01*
X00662595Y00908499D01*
X00661880Y00908837D01*
X00661137Y00909103D01*
X00660370Y00909295D01*
X00659589Y00909411D01*
X00658800Y00909450D01*
X00658011Y00909411D01*
X00657230Y00909295D01*
X00656463Y00909103D01*
X00655720Y00908837D01*
X00655005Y00908499D01*
X00654328Y00908093D01*
X00653693Y00907623D01*
X00653108Y00907092D01*
X00652578Y00906507D01*
X00652107Y00905872D01*
X00651701Y00905195D01*
X00651363Y00904481D01*
X00651097Y00903737D01*
X00650905Y00902971D01*
X00650789Y00902189D01*
X00650750Y00901400D01*
Y00896400D01*
X00650789Y00895611D01*
X00650905Y00894830D01*
X00651097Y00894063D01*
X00651363Y00893320D01*
X00651701Y00892606D01*
X00652107Y00891928D01*
X00652578Y00891293D01*
X00653108Y00890708D01*
X00653693Y00890178D01*
X00654328Y00889707D01*
X00655005Y00889301D01*
X00655720Y00888963D01*
X00656463Y00888697D01*
X00657230Y00888505D01*
X00657497Y00888465D01*
X00657974Y00887930D01*
X00658134Y00887526D01*
X00658295Y00886399D01*
X00657473Y00885558D01*
X00657219Y00885544D01*
X00656586Y00885436D01*
X00655969Y00885259D01*
X00655376Y00885013D01*
X00654815Y00884703D01*
X00654291Y00884331D01*
X00653812Y00883904D01*
X00653385Y00883425D01*
X00653013Y00882901D01*
X00652703Y00882340D01*
X00652457Y00881747D01*
X00652280Y00881130D01*
X00652172Y00880497D01*
X00652136Y00879856D01*
X00652172Y00879215D01*
X00652280Y00878582D01*
X00652457Y00877965D01*
X00652703Y00877372D01*
X00653013Y00876811D01*
X00653385Y00876287D01*
X00653812Y00875808D01*
X00654291Y00875381D01*
X00654815Y00875009D01*
X00655376Y00874699D01*
X00655969Y00874453D01*
X00656586Y00874276D01*
X00657219Y00874168D01*
X00657860Y00874132D01*
X00658501Y00874168D01*
X00659134Y00874276D01*
X00659751Y00874453D01*
X00660344Y00874699D01*
X00660905Y00875009D01*
X00661429Y00875381D01*
X00661908Y00875808D01*
X00662335Y00876287D01*
X00662707Y00876811D01*
X00663017Y00877372D01*
X00663263Y00877965D01*
X00663440Y00878582D01*
X00663548Y00879215D01*
X00663584Y00879856D01*
X00663557Y00880333D01*
X00673932Y00890708D01*
X00674250Y00891071D01*
X00674518Y00891472D01*
X00674732Y00891906D01*
X00674887Y00892363D01*
X00674932Y00892588D01*
X00675561Y00892840D01*
X00676986Y00892848D01*
X00677101Y00892606D01*
X00677507Y00891928D01*
X00677978Y00891293D01*
X00678508Y00890708D01*
X00679093Y00890178D01*
X00679728Y00889707D01*
X00680405Y00889301D01*
X00681120Y00888963D01*
X00681863Y00888697D01*
X00682630Y00888505D01*
X00683411Y00888389D01*
X00684200Y00888351D01*
X00684989Y00888389D01*
X00685770Y00888505D01*
X00686537Y00888697D01*
X00687281Y00888963D01*
X00687995Y00889301D01*
X00688672Y00889707D01*
X00689307Y00890178D01*
X00689892Y00890708D01*
X00690423Y00891293D01*
X00690893Y00891928D01*
X00691299Y00892606D01*
X00691637Y00893320D01*
X00691903Y00894063D01*
X00692095Y00894830D01*
X00692211Y00895611D01*
X00692250Y00896400D01*
Y00901400D01*
X00692211Y00902189D01*
X00692095Y00902971D01*
X00691903Y00903737D01*
X00691637Y00904481D01*
X00691299Y00905195D01*
X00690893Y00905872D01*
X00690423Y00906507D01*
X00689892Y00907092D01*
X00689307Y00907623D01*
X00688672Y00908093D01*
X00687995Y00908499D01*
X00687281Y00908837D01*
X00686537Y00909103D01*
X00686229Y00909181D01*
X00685665Y00910364D01*
X00685567Y00911347D01*
X00687529Y00913309D01*
X00714536D01*
X00715109Y00911403D01*
X00714516Y00911157D01*
X00713955Y00910847D01*
X00713431Y00910475D01*
X00712952Y00910048D01*
X00712525Y00909569D01*
X00712153Y00909045D01*
X00711843Y00908484D01*
X00711597Y00907890D01*
X00711420Y00907274D01*
X00711312Y00906641D01*
X00711276Y00906000D01*
X00711312Y00905359D01*
X00711420Y00904726D01*
X00711597Y00904109D01*
X00711843Y00903516D01*
X00712153Y00902955D01*
X00712525Y00902431D01*
X00712952Y00901953D01*
X00713309Y00901634D01*
Y00841766D01*
X00711309Y00841368D01*
X00711277Y00841446D01*
X00710967Y00842007D01*
X00710595Y00842531D01*
X00710167Y00843009D01*
X00709689Y00843437D01*
X00709165Y00843809D01*
X00708604Y00844119D01*
X00708010Y00844365D01*
X00707394Y00844542D01*
X00706761Y00844650D01*
X00706120Y00844686D01*
X00705479Y00844650D01*
X00704846Y00844542D01*
X00704230Y00844365D01*
X00703636Y00844119D01*
X00703075Y00843809D01*
X00702551Y00843437D01*
X00702073Y00843009D01*
X00701645Y00842531D01*
X00701273Y00842007D01*
X00700963Y00841446D01*
X00700717Y00840853D01*
X00700539Y00840236D01*
X00700432Y00839603D01*
X00700396Y00838962D01*
X00700432Y00838321D01*
X00700539Y00837688D01*
X00700717Y00837072D01*
X00700963Y00836478D01*
X00701273Y00835917D01*
X00701645Y00835393D01*
X00702073Y00834914D01*
X00702429Y00834596D01*
Y00823037D01*
X00686884Y00807492D01*
X00686233Y00807349D01*
X00684679Y00807543D01*
X00684313Y00807750D01*
X00684047Y00808047D01*
X00683691Y00808366D01*
Y00817000D01*
X00683659Y00817481D01*
X00683565Y00817955D01*
X00683410Y00818412D01*
X00683196Y00818845D01*
X00682928Y00819247D01*
X00682609Y00819610D01*
X00672609Y00829610D01*
X00672246Y00829928D01*
X00671845Y00830196D01*
X00671412Y00830410D01*
X00670955Y00830565D01*
X00670481Y00830659D01*
X00669999Y00830691D01*
X00660000D01*
X00659518Y00830659D01*
X00659045Y00830565D01*
X00658588Y00830410D01*
X00658155Y00830196D01*
X00657753Y00829928D01*
X00657390Y00829610D01*
X00644264Y00816484D01*
X00637482D01*
X00636929Y00817051D01*
X00636323Y00818484D01*
X00636451Y00818730D01*
X00636785Y00819537D01*
X00637048Y00820369D01*
X00637237Y00821222D01*
X00637351Y00822088D01*
X00637389Y00822960D01*
X00637351Y00823832D01*
X00637237Y00824698D01*
X00637048Y00825551D01*
X00636785Y00826384D01*
X00636451Y00827190D01*
X00636048Y00827965D01*
X00636007Y00828029D01*
X00635535Y00826141D01*
X00635037Y00823449D01*
X00634807Y00821916D01*
X00632339Y00824384D01*
X00629147Y00821192D01*
X00627379Y00822960D01*
X00625612Y00821192D01*
X00622464Y00824340D01*
X00620045Y00821395D01*
X00619720Y00822850D01*
X00618410Y00827387D01*
X00618308Y00827190D01*
X00617974Y00826384D01*
X00617711Y00825551D01*
X00617522Y00824698D01*
X00617408Y00823832D01*
X00617370Y00822960D01*
X00617404Y00822188D01*
X00617216Y00822005D01*
X00615499Y00821264D01*
X00574618Y00862146D01*
X00574255Y00862464D01*
X00573853Y00862732D01*
X00573420Y00862946D01*
X00572963Y00863101D01*
X00572490Y00863195D01*
X00572008Y00863227D01*
X00522993D01*
X00516009Y00870211D01*
Y00878289D01*
X00516193Y00878672D01*
X00516648Y00879131D01*
X00518009Y00879983D01*
X00518160Y00879974D01*
X00518801Y00880010D01*
X00519434Y00880117D01*
X00520051Y00880295D01*
X00520644Y00880541D01*
X00521205Y00880851D01*
X00521729Y00881223D01*
X00522207Y00881650D01*
X00522526Y00882007D01*
X00569397D01*
X00569879Y00882039D01*
X00570353Y00882133D01*
X00570810Y00882288D01*
X00571243Y00882502D01*
X00571644Y00882770D01*
X00572007Y00883088D01*
X00578439Y00889520D01*
X00578805Y00889301D01*
X00579520Y00888963D01*
X00580263Y00888697D01*
X00581030Y00888505D01*
X00581811Y00888389D01*
X00582600Y00888351D01*
X00583389Y00888389D01*
X00584170Y00888505D01*
X00584937Y00888697D01*
X00585681Y00888963D01*
X00586395Y00889301D01*
X00587072Y00889707D01*
X00587707Y00890178D01*
X00588292Y00890708D01*
X00588823Y00891293D01*
X00589293Y00891928D01*
X00589699Y00892606D01*
X00590037Y00893320D01*
X00590303Y00894063D01*
X00590495Y00894830D01*
X00590611Y00895611D01*
X00590650Y00896400D01*
Y00901400D01*
X00590611Y00902189D01*
X00590495Y00902971D01*
X00590303Y00903737D01*
X00590037Y00904481D01*
X00589699Y00905195D01*
X00589293Y00905872D01*
X00588823Y00906507D01*
X00588292Y00907092D01*
X00587707Y00907623D01*
X00587072Y00908093D01*
X00586395Y00908499D01*
X00585681Y00908837D01*
X00584937Y00909103D01*
X00584170Y00909295D01*
X00583389Y00909411D01*
X00582600Y00909450D01*
X00581811Y00909411D01*
X00581030Y00909295D01*
X00580263Y00909103D01*
X00579520Y00908837D01*
X00578805Y00908499D01*
X00578128Y00908093D01*
X00577493Y00907623D01*
X00576908Y00907092D01*
X00576377Y00906507D01*
X00575907Y00905872D01*
X00575501Y00905195D01*
X00575163Y00904481D01*
X00574897Y00903737D01*
X00574705Y00902971D01*
X00574589Y00902189D01*
X00574550Y00901400D01*
Y00896400D01*
X00574566Y00896086D01*
X00567869Y00889389D01*
X00564395D01*
X00563554Y00891036D01*
X00563493Y00891389D01*
X00563893Y00891928D01*
X00564299Y00892606D01*
X00564637Y00893320D01*
X00564903Y00894063D01*
X00565095Y00894830D01*
X00565211Y00895611D01*
X00565250Y00896400D01*
Y00901400D01*
X00565211Y00902189D01*
X00565095Y00902971D01*
X00564903Y00903737D01*
X00564637Y00904481D01*
X00564299Y00905195D01*
X00563893Y00905872D01*
X00563423Y00906507D01*
X00562892Y00907092D01*
X00562307Y00907623D01*
X00561672Y00908093D01*
X00560995Y00908499D01*
X00560280Y00908837D01*
X00559537Y00909103D01*
X00558770Y00909295D01*
X00557989Y00909411D01*
X00557200Y00909450D01*
X00556411Y00909411D01*
X00555630Y00909295D01*
X00554863Y00909103D01*
X00554119Y00908837D01*
X00553405Y00908499D01*
X00552728Y00908093D01*
X00552093Y00907623D01*
X00551508Y00907092D01*
X00550978Y00906507D01*
X00550507Y00905872D01*
X00550101Y00905195D01*
X00549763Y00904481D01*
X00549497Y00903737D01*
X00549305Y00902971D01*
X00549189Y00902189D01*
X00549150Y00901400D01*
Y00896400D01*
X00549189Y00895611D01*
X00549305Y00894830D01*
X00549497Y00894063D01*
X00549763Y00893320D01*
X00550101Y00892606D01*
X00550507Y00891928D01*
X00550907Y00891389D01*
X00550846Y00891036D01*
X00550005Y00889389D01*
X00538995D01*
X00538154Y00891036D01*
X00538093Y00891389D01*
X00538493Y00891928D01*
X00538899Y00892606D01*
X00539237Y00893320D01*
X00539503Y00894063D01*
X00539695Y00894830D01*
X00539811Y00895611D01*
X00539850Y00896400D01*
Y00901400D01*
X00539811Y00902189D01*
X00539695Y00902971D01*
X00539503Y00903737D01*
X00539237Y00904481D01*
X00538899Y00905195D01*
X00538493Y00905872D01*
X00538022Y00906507D01*
X00537492Y00907092D01*
X00536907Y00907623D01*
X00536272Y00908093D01*
X00535595Y00908499D01*
X00535461Y00908563D01*
X00534949Y00910124D01*
X00534991Y00910922D01*
X00542378Y00918309D01*
X00586000D01*
X00586482Y00918341D01*
X00586955Y00918435D01*
X00587412Y00918590D01*
X00587845Y00918804D01*
X00588247Y00919072D01*
X00588610Y00919390D01*
X00593680Y00924460D01*
X00614308D01*
Y00909212D01*
X00612882Y00908343D01*
X00612308Y00908192D01*
X00611795Y00908499D01*
X00611081Y00908837D01*
X00610337Y00909103D01*
X00609570Y00909295D01*
X00608789Y00909411D01*
X00608000Y00909450D01*
X00607211Y00909411D01*
X00606430Y00909295D01*
X00605663Y00909103D01*
X00604920Y00908837D01*
X00604205Y00908499D01*
X00603528Y00908093D01*
X00602893Y00907623D01*
X00602308Y00907092D01*
X00601777Y00906507D01*
X00601307Y00905872D01*
X00600901Y00905195D01*
X00600563Y00904481D01*
X00600297Y00903737D01*
X00600105Y00902971D01*
X00599989Y00902189D01*
X00599950Y00901400D01*
Y00896400D01*
X00599989Y00895611D01*
X00600105Y00894830D01*
X00600297Y00894063D01*
X00600563Y00893320D01*
X00600901Y00892606D01*
X00601307Y00891928D01*
X00601777Y00891293D01*
X00602308Y00890708D01*
X00602893Y00890178D01*
X00603528Y00889707D01*
X00604205Y00889301D01*
X00604920Y00888963D01*
X00605663Y00888697D01*
X00606430Y00888505D01*
X00607211Y00888389D01*
X00608000Y00888351D01*
X00608789Y00888389D01*
X00609570Y00888505D01*
X00610337Y00888697D01*
X00611081Y00888963D01*
X00611795Y00889301D01*
X00612472Y00889707D01*
X00612862Y00889727D01*
X00613588Y00889567D01*
X00614309Y00889315D01*
X00614769Y00888985D01*
X00614803Y00888915D01*
X00615071Y00888514D01*
X00615389Y00888151D01*
X00637685Y00865855D01*
X00637658Y00865378D01*
X00637694Y00864737D01*
X00637802Y00864104D01*
X00637979Y00863487D01*
X00638225Y00862894D01*
X00638535Y00862333D01*
X00638907Y00861809D01*
X00639334Y00861330D01*
X00639813Y00860903D01*
X00640337Y00860531D01*
X00640898Y00860221D01*
X00641491Y00859975D01*
X00642108Y00859798D01*
X00642403Y00859747D01*
X00642904Y00858879D01*
X00643148Y00857664D01*
X00628746Y00843262D01*
X00628269Y00843289D01*
X00627628Y00843253D01*
X00626995Y00843146D01*
X00626379Y00842968D01*
X00625785Y00842722D01*
X00625224Y00842412D01*
X00624700Y00842040D01*
X00624221Y00841612D01*
X00623794Y00841134D01*
X00623422Y00840610D01*
X00623112Y00840049D01*
X00622866Y00839455D01*
X00622688Y00838839D01*
X00622581Y00838206D01*
X00622545Y00837565D01*
X00622581Y00836924D01*
X00622688Y00836291D01*
X00622866Y00835675D01*
X00623112Y00835081D01*
X00623422Y00834520D01*
X00623553Y00834336D01*
X00623614Y00834038D01*
X00623455Y00832965D01*
X00623220Y00832247D01*
X00622981Y00831944D01*
X00622375Y00831628D01*
X00622296Y00831579D01*
X00623115Y00830760D01*
X00623508Y00830703D01*
X00626058Y00830501D01*
X00626926Y00830476D01*
X00627868Y00830618D01*
X00632492Y00831608D01*
X00632635Y00831751D01*
X00632469Y00832669D01*
X00632561Y00833791D01*
X00632744Y00833996D01*
X00633116Y00834520D01*
X00633426Y00835081D01*
X00633672Y00835675D01*
X00633849Y00836291D01*
X00633957Y00836924D01*
X00633993Y00837565D01*
X00633966Y00838043D01*
X00651834Y00855910D01*
X00652152Y00856273D01*
X00652420Y00856674D01*
X00652634Y00857108D01*
X00652789Y00857565D01*
X00652883Y00858038D01*
X00652915Y00858520D01*
Y00868172D01*
X00652883Y00868654D01*
X00652789Y00869127D01*
X00652634Y00869585D01*
X00652420Y00870017D01*
X00652152Y00870419D01*
X00651834Y00870782D01*
X00646691Y00875925D01*
Y00924460D01*
X00648039D01*
Y00924500D01*
X00664464D01*
X00656232Y00932732D01*
X00659767Y00936268D01*
X00667999Y00928036D01*
Y00948309D01*
X00708471D01*
X00712303Y00944477D01*
X00712276Y00944000D01*
X00712312Y00943359D01*
X00712420Y00942726D01*
X00712597Y00942110D01*
X00712843Y00941516D01*
X00713153Y00940955D01*
X00713525Y00940431D01*
X00713952Y00939952D01*
X00714431Y00939525D01*
X00714955Y00939153D01*
X00715517Y00938843D01*
X00716109Y00938597D01*
X00716726Y00938419D01*
X00717359Y00938312D01*
X00718000Y00938276D01*
X00718641Y00938312D01*
X00719274Y00938419D01*
X00719891Y00938597D01*
X00720484Y00938843D01*
X00721045Y00939153D01*
X00721569Y00939525D01*
X00722048Y00939952D01*
X00722475Y00940431D01*
X00722847Y00940955D01*
X00723157Y00941516D01*
X00723403Y00942110D01*
X00723580Y00942726D01*
X00723688Y00943359D01*
X00723724Y00944000D01*
X00723688Y00944641D01*
X00723580Y00945274D01*
X00723403Y00945891D01*
X00723157Y00946484D01*
X00722847Y00947045D01*
X00722475Y00947569D01*
X00722048Y00948047D01*
X00721569Y00948475D01*
X00721045Y00948847D01*
X00720484Y00949157D01*
X00719891Y00949403D01*
X00719274Y00949581D01*
X00718641Y00949688D01*
X00718000Y00949724D01*
X00717523Y00949697D01*
X00716382Y00950838D01*
X00716229Y00951398D01*
X00716230Y00951541D01*
X00716609Y00953388D01*
X00716634Y00953414D01*
X00727523Y00964303D01*
X00728000Y00964276D01*
X00728641Y00964312D01*
X00729274Y00964419D01*
X00729891Y00964597D01*
X00730484Y00964843D01*
X00731045Y00965153D01*
X00731569Y00965525D01*
X00732048Y00965953D01*
X00732475Y00966431D01*
X00732847Y00966955D01*
X00733157Y00967516D01*
X00733403Y00968110D01*
X00733580Y00968726D01*
X00733688Y00969359D01*
X00733724Y00970000D01*
X00733688Y00970641D01*
X00733580Y00971274D01*
X00733403Y00971890D01*
X00733157Y00972484D01*
X00732847Y00973045D01*
X00732475Y00973569D01*
X00732048Y00974047D01*
X00731569Y00974475D01*
X00731045Y00974847D01*
X00730484Y00975157D01*
X00729891Y00975403D01*
X00729274Y00975581D01*
X00728641Y00975688D01*
X00728000Y00975724D01*
X00727359Y00975688D01*
X00726726Y00975581D01*
X00726109Y00975403D01*
X00725516Y00975157D01*
X00724955Y00974847D01*
X00724431Y00974475D01*
X00723952Y00974047D01*
X00723525Y00973569D01*
X00723153Y00973045D01*
X00722843Y00972484D01*
X00722597Y00971890D01*
X00722420Y00971274D01*
X00722312Y00970641D01*
X00722276Y00970000D01*
X00722303Y00969522D01*
X00712471Y00959691D01*
X00574000D01*
X00573518Y00959659D01*
X00573045Y00959565D01*
X00572588Y00959410D01*
X00572155Y00959196D01*
X00571753Y00958928D01*
X00571390Y00958610D01*
X00562321Y00949540D01*
X00547960D01*
Y00939705D01*
X00547858Y00939616D01*
X00501381Y00893139D01*
X00499533Y00893904D01*
Y00988908D01*
X00499501Y00989390D01*
X00499407Y00989863D01*
X00499252Y00990321D01*
X00499038Y00990754D01*
X00498770Y00991155D01*
X00498452Y00991518D01*
X00493691Y00996279D01*
Y01000055D01*
X00494249Y01000662D01*
X00495691Y01001429D01*
X00495726Y01001419D01*
X00496359Y01001311D01*
X00497000Y01001275D01*
X00497641Y01001311D01*
X00498274Y01001419D01*
X00498890Y01001597D01*
X00499484Y01001842D01*
X00500045Y01002153D01*
X00500569Y01002524D01*
X00501048Y01002952D01*
X00501366Y01003309D01*
X00652999D01*
X00653481Y01003340D01*
X00653955Y01003434D01*
X00654412Y01003590D01*
X00654845Y01003803D01*
X00655246Y01004071D01*
X00655609Y01004390D01*
X00688522Y01037303D01*
X00689000Y01037276D01*
X00689641Y01037312D01*
X00690274Y01037420D01*
X00690891Y01037597D01*
X00691484Y01037843D01*
X00692045Y01038153D01*
X00692569Y01038525D01*
X00693047Y01038952D01*
X00693475Y01039431D01*
X00693847Y01039955D01*
X00694157Y01040516D01*
X00694403Y01041109D01*
X00694581Y01041726D01*
X00694688Y01042359D01*
X00694724Y01043000D01*
X00694688Y01043641D01*
X00694581Y01044274D01*
X00694403Y01044891D01*
X00694157Y01045484D01*
X00693847Y01046045D01*
X00693475Y01046569D01*
X00693368Y01046689D01*
X00693213Y01047040D01*
X00693054Y01048631D01*
X00693362Y01049365D01*
X00693444Y01049456D01*
X00693813Y01049976D01*
X00694121Y01050534D01*
X00694365Y01051123D01*
X00694541Y01051735D01*
X00694648Y01052364D01*
X00694684Y01053000D01*
X00694648Y01053636D01*
X00694541Y01054265D01*
X00694376Y01054840D01*
X00692720Y01053185D01*
X00692997Y01052871D01*
X00693881Y01051953D01*
X00693322Y01049280D01*
X00693031Y01049547D01*
X00692734Y01049772D01*
X00692432Y01049954D01*
X00692124Y01050094D01*
X00691811Y01050192D01*
X00691492Y01050247D01*
X00691168Y01050260D01*
X00690838Y01050231D01*
X00690503Y01050159D01*
X00690162Y01050045D01*
X00690678Y01051322D01*
X00689000Y01053000D01*
X00687232Y01051232D01*
X00683624Y01054840D01*
X00683459Y01054265D01*
X00683352Y01053636D01*
X00683316Y01053000D01*
X00683352Y01052364D01*
X00683459Y01051735D01*
X00683635Y01051123D01*
X00683879Y01050534D01*
X00684187Y01049976D01*
X00684556Y01049456D01*
X00684638Y01049365D01*
X00684946Y01048631D01*
X00684787Y01047040D01*
X00684632Y01046689D01*
X00684525Y01046569D01*
X00684153Y01046045D01*
X00683843Y01045484D01*
X00683597Y01044891D01*
X00683419Y01044274D01*
X00683312Y01043641D01*
X00683276Y01043000D01*
X00683303Y01042523D01*
X00651471Y01010690D01*
X00501366D01*
X00501048Y01011047D01*
X00500569Y01011475D01*
X00500045Y01011846D01*
X00499484Y01012157D01*
X00498890Y01012402D01*
X00498274Y01012580D01*
X00497641Y01012688D01*
X00497000Y01012723D01*
X00496758Y01012710D01*
X00496115Y01013619D01*
X00495849Y01014630D01*
X00529529Y01048309D01*
X00601634D01*
X00601953Y01047952D01*
X00602431Y01047525D01*
X00602955Y01047153D01*
X00603516Y01046843D01*
X00604109Y01046597D01*
X00604726Y01046420D01*
X00605359Y01046312D01*
X00606000Y01046276D01*
X00606641Y01046312D01*
X00607274Y01046420D01*
X00607891Y01046597D01*
X00608484Y01046843D01*
X00609045Y01047153D01*
X00609569Y01047525D01*
X00610047Y01047952D01*
X00610475Y01048431D01*
X00610847Y01048955D01*
X00611157Y01049516D01*
X00611403Y01050109D01*
X00611581Y01050726D01*
X00611688Y01051359D01*
X00611724Y01052000D01*
X00611688Y01052641D01*
X00611581Y01053274D01*
X00611403Y01053891D01*
X00611157Y01054484D01*
X00610847Y01055045D01*
X00610475Y01055569D01*
X00610047Y01056048D01*
X00609569Y01056475D01*
X00609045Y01056847D01*
X00608484Y01057157D01*
X00607891Y01057403D01*
X00607274Y01057580D01*
X00606641Y01057688D01*
X00606000Y01057724D01*
D02*
G37*
G36*
X00689000Y01058684D02*
X00688364Y01058648D01*
X00687735Y01058541D01*
X00687160Y01058376D01*
X00689000Y01056535D01*
X00690840Y01058376D01*
X00690265Y01058541D01*
X00689636Y01058648D01*
X00689000Y01058684D01*
D02*
G37*
G36*
X00518000Y01088465D02*
X00511828Y01082293D01*
X00511987Y01082187D01*
X00512775Y01081746D01*
X00513596Y01081368D01*
X00514444Y01081055D01*
X00515313Y01080809D01*
X00516200Y01080633D01*
X00517097Y01080527D01*
X00518000Y01080491D01*
X00518903Y01080527D01*
X00519800Y01080633D01*
X00520687Y01080809D01*
X00521556Y01081055D01*
X00522404Y01081368D01*
X00523225Y01081746D01*
X00524013Y01082187D01*
X00524172Y01082293D01*
X00518000Y01088465D01*
D02*
G37*
G36*
X00688293Y00788172D02*
X00688187Y00788013D01*
X00687746Y00787225D01*
X00687367Y00786404D01*
X00687055Y00785556D01*
X00686809Y00784687D01*
X00686633Y00783800D01*
X00686527Y00782903D01*
X00686491Y00782000D01*
X00686527Y00781097D01*
X00686633Y00780200D01*
X00686809Y00779313D01*
X00687055Y00778444D01*
X00687367Y00777596D01*
X00687746Y00776775D01*
X00688187Y00775987D01*
X00688293Y00775828D01*
X00694465Y00782000D01*
X00688293Y00788172D01*
D02*
G37*
G36*
X00684200Y00985650D02*
X00683411Y00985611D01*
X00682630Y00985495D01*
X00681863Y00985303D01*
X00681120Y00985037D01*
X00680405Y00984699D01*
X00679728Y00984293D01*
X00679093Y00983823D01*
X00678508Y00983292D01*
X00677978Y00982707D01*
X00677507Y00982072D01*
X00677101Y00981395D01*
X00676763Y00980681D01*
X00676497Y00979937D01*
X00676305Y00979171D01*
X00676189Y00978389D01*
X00676150Y00977600D01*
Y00972600D01*
X00676189Y00971811D01*
X00676305Y00971030D01*
X00676497Y00970264D01*
X00676763Y00969520D01*
X00677101Y00968806D01*
X00677507Y00968128D01*
X00677978Y00967494D01*
X00678508Y00966908D01*
X00679093Y00966378D01*
X00679728Y00965907D01*
X00680405Y00965501D01*
X00681120Y00965163D01*
X00681863Y00964897D01*
X00682630Y00964705D01*
X00683411Y00964589D01*
X00684200Y00964550D01*
X00684989Y00964589D01*
X00685770Y00964705D01*
X00686537Y00964897D01*
X00687281Y00965163D01*
X00687995Y00965501D01*
X00688672Y00965907D01*
X00689307Y00966378D01*
X00689892Y00966908D01*
X00690423Y00967494D01*
X00690893Y00968128D01*
X00691299Y00968806D01*
X00691637Y00969520D01*
X00691903Y00970264D01*
X00692095Y00971030D01*
X00692211Y00971811D01*
X00692250Y00972600D01*
Y00977600D01*
X00692211Y00978389D01*
X00692095Y00979171D01*
X00691903Y00979937D01*
X00691637Y00980681D01*
X00691299Y00981395D01*
X00690893Y00982072D01*
X00690423Y00982707D01*
X00689892Y00983292D01*
X00689307Y00983823D01*
X00688672Y00984293D01*
X00687995Y00984699D01*
X00687281Y00985037D01*
X00686537Y00985303D01*
X00685770Y00985495D01*
X00684989Y00985611D01*
X00684200Y00985650D01*
D02*
G37*
G36*
X00658800D02*
X00658011Y00985611D01*
X00657230Y00985495D01*
X00656463Y00985303D01*
X00655720Y00985037D01*
X00655005Y00984699D01*
X00654328Y00984293D01*
X00653693Y00983823D01*
X00653108Y00983292D01*
X00652578Y00982707D01*
X00652107Y00982072D01*
X00651701Y00981395D01*
X00651363Y00980681D01*
X00651097Y00979937D01*
X00650905Y00979171D01*
X00650789Y00978389D01*
X00650750Y00977600D01*
Y00972600D01*
X00650789Y00971811D01*
X00650905Y00971030D01*
X00651097Y00970264D01*
X00651363Y00969520D01*
X00651701Y00968806D01*
X00652107Y00968128D01*
X00652578Y00967494D01*
X00653108Y00966908D01*
X00653693Y00966378D01*
X00654328Y00965907D01*
X00655005Y00965501D01*
X00655720Y00965163D01*
X00656463Y00964897D01*
X00657230Y00964705D01*
X00658011Y00964589D01*
X00658800Y00964550D01*
X00659589Y00964589D01*
X00660370Y00964705D01*
X00661137Y00964897D01*
X00661880Y00965163D01*
X00662595Y00965501D01*
X00663272Y00965907D01*
X00663907Y00966378D01*
X00664492Y00966908D01*
X00665023Y00967494D01*
X00665493Y00968128D01*
X00665899Y00968806D01*
X00666237Y00969520D01*
X00666503Y00970264D01*
X00666695Y00971030D01*
X00666811Y00971811D01*
X00666850Y00972600D01*
Y00977600D01*
X00666811Y00978389D01*
X00666695Y00979171D01*
X00666503Y00979937D01*
X00666237Y00980681D01*
X00665899Y00981395D01*
X00665493Y00982072D01*
X00665023Y00982707D01*
X00664492Y00983292D01*
X00663907Y00983823D01*
X00663272Y00984293D01*
X00662595Y00984699D01*
X00661880Y00985037D01*
X00661137Y00985303D01*
X00660370Y00985495D01*
X00659589Y00985611D01*
X00658800Y00985650D01*
D02*
G37*
G36*
X00633400D02*
X00632611Y00985611D01*
X00631830Y00985495D01*
X00631063Y00985303D01*
X00630320Y00985037D01*
X00629605Y00984699D01*
X00628928Y00984293D01*
X00628293Y00983823D01*
X00627708Y00983292D01*
X00627178Y00982707D01*
X00626707Y00982072D01*
X00626301Y00981395D01*
X00625963Y00980681D01*
X00625697Y00979937D01*
X00625505Y00979171D01*
X00625389Y00978389D01*
X00625350Y00977600D01*
Y00972600D01*
X00625389Y00971811D01*
X00625505Y00971030D01*
X00625697Y00970264D01*
X00625963Y00969520D01*
X00626301Y00968806D01*
X00626707Y00968128D01*
X00627178Y00967494D01*
X00627708Y00966908D01*
X00628293Y00966378D01*
X00628928Y00965907D01*
X00629605Y00965501D01*
X00630320Y00965163D01*
X00631063Y00964897D01*
X00631830Y00964705D01*
X00632611Y00964589D01*
X00633400Y00964550D01*
X00634189Y00964589D01*
X00634970Y00964705D01*
X00635737Y00964897D01*
X00636480Y00965163D01*
X00637195Y00965501D01*
X00637872Y00965907D01*
X00638507Y00966378D01*
X00639092Y00966908D01*
X00639622Y00967494D01*
X00640093Y00968128D01*
X00640499Y00968806D01*
X00640837Y00969520D01*
X00641103Y00970264D01*
X00641295Y00971030D01*
X00641411Y00971811D01*
X00641450Y00972600D01*
Y00977600D01*
X00641411Y00978389D01*
X00641295Y00979171D01*
X00641103Y00979937D01*
X00640837Y00980681D01*
X00640499Y00981395D01*
X00640093Y00982072D01*
X00639622Y00982707D01*
X00639092Y00983292D01*
X00638507Y00983823D01*
X00637872Y00984293D01*
X00637195Y00984699D01*
X00636480Y00985037D01*
X00635737Y00985303D01*
X00634970Y00985495D01*
X00634189Y00985611D01*
X00633400Y00985650D01*
D02*
G37*
G36*
X00527707Y01098172D02*
X00521535Y01092000D01*
X00527707Y01085829D01*
X00527813Y01085987D01*
X00528254Y01086775D01*
X00528633Y01087596D01*
X00528946Y01088444D01*
X00529191Y01089314D01*
X00529367Y01090200D01*
X00529473Y01091097D01*
X00529509Y01092000D01*
X00529473Y01092903D01*
X00529367Y01093801D01*
X00529191Y01094687D01*
X00528946Y01095557D01*
X00528633Y01096405D01*
X00528254Y01097225D01*
X00527813Y01098014D01*
X00527707Y01098172D01*
D02*
G37*
G36*
X00688293Y01098172D02*
X00688187Y01098014D01*
X00687746Y01097225D01*
X00687367Y01096405D01*
X00687055Y01095557D01*
X00686809Y01094687D01*
X00686633Y01093801D01*
X00686527Y01092903D01*
X00686491Y01092000D01*
X00686527Y01091097D01*
X00686633Y01090200D01*
X00686809Y01089314D01*
X00687055Y01088444D01*
X00687367Y01087596D01*
X00687746Y01086775D01*
X00688187Y01085987D01*
X00688293Y01085829D01*
X00694465Y01092000D01*
X00688293Y01098172D01*
D02*
G37*
%LPD*%
G36*
X00578089Y00825619D02*
X00577643Y00824888D01*
X00577462Y00824526D01*
X00577309Y00824165D01*
X00577184Y00823807D01*
X00577086Y00823452D01*
X00577017Y00823098D01*
X00576975Y00822746D01*
X00576961Y00822396D01*
X00574675D01*
X00574661Y00822746D01*
X00574619Y00823098D01*
X00574550Y00823452D01*
X00574452Y00823807D01*
X00574327Y00824165D01*
X00574174Y00824526D01*
X00573993Y00824888D01*
X00573784Y00825253D01*
X00573547Y00825619D01*
X00573282Y00825988D01*
X00578354D01*
X00578089Y00825619D01*
D02*
G37*
G36*
X00565627Y00825931D02*
X00565905Y00825712D01*
X00566204Y00825511D01*
X00566525Y00825328D01*
X00566867Y00825163D01*
X00567230Y00825017D01*
X00567614Y00824889D01*
X00568020Y00824779D01*
X00568446Y00824687D01*
X00568894Y00824614D01*
X00565308Y00821028D01*
X00565234Y00821475D01*
X00565033Y00822307D01*
X00564905Y00822691D01*
X00564758Y00823055D01*
X00564594Y00823396D01*
X00564411Y00823717D01*
X00564210Y00824016D01*
X00563991Y00824295D01*
X00563753Y00824552D01*
X00565370Y00826168D01*
X00565627Y00825931D01*
D02*
G37*
G36*
X00632968Y00840647D02*
X00632730Y00840390D01*
X00632511Y00840112D01*
X00632310Y00839812D01*
X00632127Y00839492D01*
X00631963Y00839150D01*
X00631816Y00838787D01*
X00631688Y00838403D01*
X00631578Y00837997D01*
X00631487Y00837571D01*
X00631413Y00837123D01*
X00627827Y00840709D01*
X00628275Y00840783D01*
X00629107Y00840984D01*
X00629491Y00841113D01*
X00629854Y00841259D01*
X00630196Y00841423D01*
X00630517Y00841606D01*
X00630816Y00841807D01*
X00631094Y00842026D01*
X00631351Y00842264D01*
X00632968Y00840647D01*
D02*
G37*
G36*
X00708391Y00836683D02*
X00707945Y00835952D01*
X00707764Y00835590D01*
X00707611Y00835229D01*
X00707486Y00834871D01*
X00707388Y00834515D01*
X00707319Y00834161D01*
X00707277Y00833810D01*
X00707263Y00833460D01*
X00704977D01*
X00704963Y00833810D01*
X00704921Y00834161D01*
X00704852Y00834515D01*
X00704754Y00834871D01*
X00704629Y00835229D01*
X00704476Y00835590D01*
X00704295Y00835952D01*
X00704086Y00836316D01*
X00703849Y00836683D01*
X00703584Y00837051D01*
X00708656D01*
X00708391Y00836683D01*
D02*
G37*
G36*
X00555160Y00821684D02*
X00555361Y00820852D01*
X00555490Y00820468D01*
X00555636Y00820105D01*
X00555801Y00819763D01*
X00555983Y00819443D01*
X00556184Y00819143D01*
X00556403Y00818865D01*
X00556641Y00818608D01*
X00555024Y00816991D01*
X00554767Y00817229D01*
X00554489Y00817448D01*
X00554189Y00817649D01*
X00553869Y00817831D01*
X00553527Y00817996D01*
X00553164Y00818142D01*
X00552780Y00818271D01*
X00552374Y00818381D01*
X00551948Y00818472D01*
X00551500Y00818546D01*
X00555086Y00822132D01*
X00555160Y00821684D01*
D02*
G37*
G36*
X00605783Y00792719D02*
X00606514Y00792273D01*
X00606876Y00792092D01*
X00607237Y00791939D01*
X00607595Y00791814D01*
X00607951Y00791716D01*
X00608305Y00791647D01*
X00608657Y00791605D01*
X00609006Y00791591D01*
Y00789305D01*
X00608657Y00789291D01*
X00608305Y00789249D01*
X00607951Y00789180D01*
X00607595Y00789082D01*
X00607237Y00788957D01*
X00606876Y00788804D01*
X00606514Y00788623D01*
X00606150Y00788414D01*
X00605783Y00788177D01*
X00605415Y00787912D01*
Y00792984D01*
X00605783Y00792719D01*
D02*
G37*
G36*
X00610279Y00805271D02*
X00611010Y00804825D01*
X00611372Y00804644D01*
X00611733Y00804491D01*
X00612091Y00804366D01*
X00612447Y00804268D01*
X00612801Y00804199D01*
X00613153Y00804157D01*
X00613502Y00804143D01*
Y00801857D01*
X00613153Y00801843D01*
X00612801Y00801801D01*
X00612447Y00801732D01*
X00612091Y00801634D01*
X00611733Y00801509D01*
X00611372Y00801356D01*
X00611010Y00801174D01*
X00610646Y00800966D01*
X00610279Y00800729D01*
X00609911Y00800464D01*
Y00805536D01*
X00610279Y00805271D01*
D02*
G37*
G36*
X00544175Y00789461D02*
X00544453Y00789242D01*
X00544753Y00789041D01*
X00545073Y00788858D01*
X00545415Y00788694D01*
X00545778Y00788548D01*
X00546162Y00788419D01*
X00546568Y00788309D01*
X00546994Y00788218D01*
X00547442Y00788144D01*
X00543856Y00784558D01*
X00543782Y00785006D01*
X00543581Y00785838D01*
X00543452Y00786222D01*
X00543306Y00786585D01*
X00543142Y00786927D01*
X00542959Y00787247D01*
X00542758Y00787547D01*
X00542539Y00787825D01*
X00542301Y00788082D01*
X00543918Y00789699D01*
X00544175Y00789461D01*
D02*
G37*
G36*
X00570097Y00779022D02*
X00569729Y00779287D01*
X00568998Y00779733D01*
X00568635Y00779914D01*
X00568275Y00780067D01*
X00567917Y00780192D01*
X00567561Y00780290D01*
X00567207Y00780359D01*
X00566856Y00780401D01*
X00566506Y00780415D01*
Y00782701D01*
X00566856Y00782715D01*
X00567207Y00782757D01*
X00567561Y00782826D01*
X00567917Y00782924D01*
X00568275Y00783049D01*
X00568635Y00783202D01*
X00568998Y00783383D01*
X00569362Y00783592D01*
X00569729Y00783829D01*
X00570097Y00784094D01*
Y00779022D01*
D02*
G37*
G36*
X00678570Y00801165D02*
X00678289Y00801296D01*
X00677993Y00801414D01*
X00677683Y00801518D01*
X00677359Y00801608D01*
X00676668Y00801746D01*
X00676301Y00801795D01*
X00675526Y00801850D01*
X00675117Y00801857D01*
X00674288Y00804143D01*
X00674669Y00804160D01*
X00675035Y00804210D01*
X00675385Y00804293D01*
X00675719Y00804410D01*
X00676037Y00804560D01*
X00676339Y00804743D01*
X00676626Y00804960D01*
X00676897Y00805210D01*
X00677152Y00805494D01*
X00677392Y00805811D01*
X00678570Y00801165D01*
D02*
G37*
G36*
X00596937Y00822471D02*
X00597984Y00817586D01*
X00598277Y00816676D01*
X00598582Y00815891D01*
X00598900Y00815231D01*
X00599230Y00814695D01*
X00599572Y00814284D01*
X00597956Y00812668D01*
X00597545Y00813010D01*
X00597009Y00813340D01*
X00596348Y00813658D01*
X00595564Y00813963D01*
X00594654Y00814256D01*
X00592461Y00814804D01*
X00589769Y00815303D01*
X00588236Y00815533D01*
X00596707Y00824004D01*
X00596937Y00822471D01*
D02*
G37*
G36*
X00665825Y00817856D02*
X00665377Y00817782D01*
X00664545Y00817581D01*
X00664161Y00817452D01*
X00663798Y00817306D01*
X00663456Y00817141D01*
X00663135Y00816959D01*
X00662836Y00816758D01*
X00662558Y00816539D01*
X00662300Y00816301D01*
X00660684Y00817918D01*
X00660921Y00818175D01*
X00661141Y00818453D01*
X00661342Y00818753D01*
X00661524Y00819073D01*
X00661689Y00819415D01*
X00661835Y00819778D01*
X00661964Y00820162D01*
X00662074Y00820568D01*
X00662165Y00820994D01*
X00662239Y00821442D01*
X00665825Y00817856D01*
D02*
G37*
G36*
X00681157Y00809152D02*
X00681198Y00808801D01*
X00681268Y00808447D01*
X00681366Y00808091D01*
X00681491Y00807733D01*
X00681644Y00807373D01*
X00681825Y00807010D01*
X00682034Y00806646D01*
X00682271Y00806279D01*
X00682535Y00805911D01*
X00677464D01*
X00677729Y00806279D01*
X00678174Y00807010D01*
X00678355Y00807373D01*
X00678509Y00807733D01*
X00678634Y00808091D01*
X00678731Y00808447D01*
X00678801Y00808801D01*
X00678843Y00809152D01*
X00678857Y00809502D01*
X00681143D01*
X00681157Y00809152D01*
D02*
G37*
G36*
X00578987Y00807978D02*
X00578619Y00808243D01*
X00577888Y00808689D01*
X00577525Y00808870D01*
X00577165Y00809023D01*
X00576807Y00809148D01*
X00576451Y00809246D01*
X00576097Y00809315D01*
X00575746Y00809357D01*
X00575396Y00809371D01*
Y00811657D01*
X00575746Y00811671D01*
X00576097Y00811713D01*
X00576451Y00811782D01*
X00576807Y00811880D01*
X00577165Y00812005D01*
X00577525Y00812158D01*
X00577888Y00812339D01*
X00578252Y00812548D01*
X00578619Y00812785D01*
X00578987Y00813050D01*
Y00807978D01*
D02*
G37*
G36*
X00511041Y00855711D02*
X00511772Y00855265D01*
X00512135Y00855084D01*
X00512495Y00854931D01*
X00512853Y00854806D01*
X00513209Y00854708D01*
X00513563Y00854639D01*
X00513914Y00854597D01*
X00514264Y00854583D01*
Y00852297D01*
X00513914Y00852283D01*
X00513563Y00852241D01*
X00513209Y00852172D01*
X00512853Y00852074D01*
X00512495Y00851949D01*
X00512135Y00851796D01*
X00511772Y00851615D01*
X00511408Y00851406D01*
X00511041Y00851169D01*
X00510673Y00850904D01*
Y00855976D01*
X00511041Y00855711D01*
D02*
G37*
G36*
X00715175Y00948461D02*
X00715453Y00948242D01*
X00715752Y00948041D01*
X00716073Y00947859D01*
X00716415Y00947694D01*
X00716778Y00947548D01*
X00717162Y00947419D01*
X00717568Y00947309D01*
X00717994Y00947218D01*
X00718442Y00947144D01*
X00714856Y00943558D01*
X00714782Y00944006D01*
X00714581Y00944838D01*
X00714453Y00945222D01*
X00714306Y00945585D01*
X00714141Y00945927D01*
X00713959Y00946247D01*
X00713758Y00946547D01*
X00713539Y00946825D01*
X00713301Y00947082D01*
X00714918Y00948699D01*
X00715175Y00948461D01*
D02*
G37*
G36*
X00587085Y00945742D02*
X00586684Y00945325D01*
X00586040Y00944554D01*
X00585797Y00944199D01*
X00585606Y00943866D01*
X00585467Y00943553D01*
X00585381Y00943260D01*
X00585348Y00942989D01*
X00585367Y00942739D01*
X00585438Y00942509D01*
X00583464Y00946939D01*
X00583585Y00946758D01*
X00583750Y00946654D01*
X00583960Y00946627D01*
X00584216Y00946676D01*
X00584517Y00946803D01*
X00584863Y00947006D01*
X00585254Y00947286D01*
X00585690Y00947642D01*
X00586697Y00948586D01*
X00587085Y00945742D01*
D02*
G37*
G36*
X00594264Y00927061D02*
X00594066Y00927165D01*
X00593841Y00927210D01*
X00593588Y00927194D01*
X00593306Y00927119D01*
X00592997Y00926984D01*
X00592660Y00926789D01*
X00592295Y00926535D01*
X00591901Y00926221D01*
X00591031Y00925414D01*
X00588913Y00926530D01*
X00589391Y00927024D01*
X00590139Y00927898D01*
X00590408Y00928278D01*
X00590607Y00928620D01*
X00590737Y00928924D01*
X00590797Y00929191D01*
X00590788Y00929419D01*
X00590709Y00929610D01*
X00590560Y00929763D01*
X00594264Y00927061D01*
D02*
G37*
G36*
X00665462Y00939069D02*
X00665531Y00938875D01*
X00665647Y00938704D01*
X00665809Y00938555D01*
X00666018Y00938429D01*
X00666273Y00938326D01*
X00666574Y00938246D01*
X00666921Y00938189D01*
X00667315Y00938155D01*
X00667755Y00938143D01*
Y00938143D01*
Y00935857D01*
X00667315Y00935846D01*
X00666921Y00935812D01*
X00666574Y00935754D01*
X00666273Y00935675D01*
X00666018Y00935572D01*
X00665809Y00935446D01*
X00665647Y00935297D01*
X00665531Y00935126D01*
X00665462Y00934931D01*
X00665439Y00934714D01*
Y00934714D01*
Y00939286D01*
X00665462Y00939069D01*
D02*
G37*
G36*
X00567085Y00947469D02*
X00566610Y00946978D01*
X00565869Y00946107D01*
X00565603Y00945728D01*
X00565406Y00945386D01*
X00565280Y00945081D01*
X00565223Y00944814D01*
X00565235Y00944584D01*
X00565317Y00944391D01*
X00565469Y00944236D01*
X00561737Y00946970D01*
X00561937Y00946863D01*
X00562165Y00946816D01*
X00562420Y00946828D01*
X00562702Y00946900D01*
X00563012Y00947032D01*
X00563349Y00947224D01*
X00563713Y00947475D01*
X00564105Y00947786D01*
X00564524Y00948156D01*
X00564970Y00948586D01*
X00567085Y00947469D01*
D02*
G37*
G36*
X00689442Y01039856D02*
X00688994Y01039782D01*
X00688162Y01039581D01*
X00687778Y01039453D01*
X00687415Y01039306D01*
X00687073Y01039141D01*
X00686752Y01038959D01*
X00686453Y01038758D01*
X00686175Y01038539D01*
X00685918Y01038301D01*
X00684301Y01039918D01*
X00684539Y01040175D01*
X00684758Y01040453D01*
X00684959Y01040752D01*
X00685142Y01041073D01*
X00685306Y01041415D01*
X00685452Y01041778D01*
X00685581Y01042162D01*
X00685691Y01042568D01*
X00685782Y01042994D01*
X00685856Y01043442D01*
X00689442Y01039856D01*
D02*
G37*
G36*
X00604089Y01049464D02*
X00603721Y01049729D01*
X00602990Y01050175D01*
X00602627Y01050356D01*
X00602267Y01050509D01*
X00601909Y01050634D01*
X00601553Y01050732D01*
X00601199Y01050801D01*
X00600848Y01050843D01*
X00600498Y01050857D01*
Y01053143D01*
X00600848Y01053157D01*
X00601199Y01053199D01*
X00601553Y01053268D01*
X00601909Y01053366D01*
X00602267Y01053491D01*
X00602627Y01053644D01*
X00602990Y01053826D01*
X00603354Y01054034D01*
X00603721Y01054271D01*
X00604089Y01054536D01*
Y01049464D01*
D02*
G37*
G36*
X00728442Y00966856D02*
X00727994Y00966782D01*
X00727162Y00966581D01*
X00726778Y00966452D01*
X00726415Y00966306D01*
X00726073Y00966142D01*
X00725752Y00965959D01*
X00725453Y00965758D01*
X00725175Y00965539D01*
X00724918Y00965301D01*
X00723301Y00966918D01*
X00723539Y00967175D01*
X00723758Y00967453D01*
X00723959Y00967753D01*
X00724141Y00968073D01*
X00724306Y00968415D01*
X00724453Y00968778D01*
X00724581Y00969162D01*
X00724691Y00969568D01*
X00724782Y00969994D01*
X00724856Y00970442D01*
X00728442Y00966856D01*
D02*
G37*
G36*
X00499279Y01009271D02*
X00500010Y01008825D01*
X00500373Y01008644D01*
X00500733Y01008491D01*
X00501091Y01008365D01*
X00501447Y01008268D01*
X00501801Y01008198D01*
X00502152Y01008156D01*
X00502502Y01008142D01*
Y01005856D01*
X00502152Y01005843D01*
X00501801Y01005801D01*
X00501447Y01005731D01*
X00501091Y01005634D01*
X00500733Y01005508D01*
X00500373Y01005355D01*
X00500010Y01005174D01*
X00499646Y01004965D01*
X00499279Y01004728D01*
X00498911Y01004464D01*
Y01009535D01*
X00499279Y01009271D01*
D02*
G37*
G36*
X00643836Y00927195D02*
X00643853Y00927167D01*
X00643860Y00927142D01*
X00643856Y00927121D01*
X00643842Y00927103D01*
X00643817Y00927088D01*
X00643782Y00927076D01*
X00643736Y00927068D01*
X00643680Y00927063D01*
X00643644Y00927062D01*
X00642192Y00925610D01*
X00641920Y00925885D01*
X00641208Y00926698D01*
X00641124Y00926829D01*
X00641077Y00926931D01*
X00641067Y00927003D01*
X00641095Y00927047D01*
X00641161Y00927061D01*
X00643613D01*
X00643644Y00927062D01*
X00643808Y00927226D01*
X00643836Y00927195D01*
D02*
G37*
G36*
X00662559Y00882938D02*
X00662321Y00882681D01*
X00662102Y00882403D01*
X00661901Y00882104D01*
X00661719Y00881783D01*
X00661554Y00881441D01*
X00661407Y00881078D01*
X00661279Y00880694D01*
X00661169Y00880288D01*
X00661078Y00879862D01*
X00661004Y00879414D01*
X00657418Y00883000D01*
X00657866Y00883074D01*
X00658698Y00883275D01*
X00659082Y00883403D01*
X00659445Y00883550D01*
X00659787Y00883715D01*
X00660107Y00883897D01*
X00660407Y00884098D01*
X00660685Y00884317D01*
X00660942Y00884555D01*
X00662559Y00882938D01*
D02*
G37*
G36*
X00520439Y00887969D02*
X00521170Y00887523D01*
X00521533Y00887342D01*
X00521893Y00887189D01*
X00522251Y00887064D01*
X00522607Y00886966D01*
X00522961Y00886897D01*
X00523312Y00886855D01*
X00523662Y00886841D01*
Y00884555D01*
X00523312Y00884541D01*
X00522961Y00884499D01*
X00522607Y00884430D01*
X00522251Y00884332D01*
X00521893Y00884207D01*
X00521533Y00884054D01*
X00521170Y00883873D01*
X00520806Y00883664D01*
X00520439Y00883427D01*
X00520071Y00883162D01*
Y00888234D01*
X00520439Y00887969D01*
D02*
G37*
G36*
X00640557Y00869839D02*
X00640835Y00869620D01*
X00641134Y00869419D01*
X00641455Y00869237D01*
X00641797Y00869072D01*
X00642160Y00868925D01*
X00642544Y00868797D01*
X00642950Y00868687D01*
X00643376Y00868596D01*
X00643824Y00868522D01*
X00640238Y00864936D01*
X00640164Y00865384D01*
X00639963Y00866216D01*
X00639835Y00866600D01*
X00639688Y00866963D01*
X00639524Y00867305D01*
X00639341Y00867626D01*
X00639140Y00867925D01*
X00638921Y00868203D01*
X00638683Y00868460D01*
X00640300Y00870077D01*
X00640557Y00869839D01*
D02*
G37*
G36*
X00492271Y00875721D02*
X00491825Y00874990D01*
X00491644Y00874628D01*
X00491491Y00874267D01*
X00491366Y00873909D01*
X00491268Y00873553D01*
X00491199Y00873199D01*
X00491157Y00872848D01*
X00491143Y00872498D01*
X00488857D01*
X00488843Y00872848D01*
X00488801Y00873199D01*
X00488732Y00873553D01*
X00488634Y00873909D01*
X00488509Y00874267D01*
X00488356Y00874628D01*
X00488175Y00874990D01*
X00487966Y00875354D01*
X00487729Y00875721D01*
X00487464Y00876089D01*
X00492536D01*
X00492271Y00875721D01*
D02*
G37*
G36*
X00579132Y00892206D02*
X00579017Y00892396D01*
X00578873Y00892526D01*
X00578701Y00892596D01*
X00578500Y00892604D01*
X00578271Y00892552D01*
X00578013Y00892440D01*
X00577727Y00892267D01*
X00577413Y00892033D01*
X00577070Y00891738D01*
X00576699Y00891383D01*
X00575630Y00893547D01*
X00576001Y00893934D01*
X00576595Y00894655D01*
X00576818Y00894989D01*
X00576992Y00895305D01*
X00577115Y00895603D01*
X00577189Y00895883D01*
X00577214Y00896146D01*
X00577188Y00896390D01*
X00577114Y00896617D01*
X00579132Y00892206D01*
D02*
G37*
G36*
X00620068Y00927038D02*
X00619874Y00926969D01*
X00619702Y00926853D01*
X00619554Y00926691D01*
X00619428Y00926482D01*
X00619325Y00926227D01*
X00619245Y00925926D01*
X00619188Y00925579D01*
X00619154Y00925185D01*
X00619142Y00924745D01*
X00616856D01*
X00616845Y00925185D01*
X00616811Y00925579D01*
X00616753Y00925926D01*
X00616673Y00926227D01*
X00616571Y00926482D01*
X00616445Y00926691D01*
X00616296Y00926853D01*
X00616125Y00926969D01*
X00615930Y00927038D01*
X00615713Y00927061D01*
X00620285D01*
X00620068Y00927038D01*
D02*
G37*
G36*
X00655944Y00927043D02*
X00655624Y00926993D01*
X00655303Y00926910D01*
X00654981Y00926794D01*
X00654658Y00926645D01*
X00654335Y00926464D01*
X00654010Y00926251D01*
X00653684Y00926005D01*
X00653358Y00925726D01*
X00653031Y00925414D01*
X00649798D01*
X00649937Y00925562D01*
X00650062Y00925713D01*
X00650171Y00925867D01*
X00650267Y00926024D01*
X00650347Y00926185D01*
X00650413Y00926348D01*
X00650464Y00926514D01*
X00650501Y00926683D01*
X00650523Y00926856D01*
X00650530Y00927031D01*
X00656264Y00927061D01*
X00655944Y00927043D01*
D02*
G37*
G36*
X00719271Y00903721D02*
X00718825Y00902990D01*
X00718644Y00902627D01*
X00718491Y00902267D01*
X00718366Y00901909D01*
X00718268Y00901553D01*
X00718199Y00901199D01*
X00718157Y00900847D01*
X00718143Y00900498D01*
X00715857D01*
X00715843Y00900847D01*
X00715801Y00901199D01*
X00715732Y00901553D01*
X00715634Y00901909D01*
X00715509Y00902267D01*
X00715356Y00902627D01*
X00715174Y00902990D01*
X00714966Y00903354D01*
X00714729Y00903721D01*
X00714464Y00904089D01*
X00719536D01*
X00719271Y00903721D01*
D02*
G37*
G36*
X00751089Y00914464D02*
X00750721Y00914729D01*
X00749990Y00915174D01*
X00749628Y00915356D01*
X00749267Y00915509D01*
X00748909Y00915634D01*
X00748553Y00915732D01*
X00748199Y00915801D01*
X00747848Y00915843D01*
X00747498Y00915857D01*
Y00918143D01*
X00747848Y00918157D01*
X00748199Y00918199D01*
X00748553Y00918268D01*
X00748909Y00918366D01*
X00749267Y00918491D01*
X00749628Y00918644D01*
X00749990Y00918825D01*
X00750354Y00919034D01*
X00750721Y00919271D01*
X00751089Y00919536D01*
Y00914464D01*
D02*
G37*
D17*
X00732282Y00937000D02*
X00801750D01*
X00627379Y00822960D02*
X00653034Y00848615D01*
Y00874014D01*
X00649986Y00877062D02*
X00653034Y00874014D01*
X00617999Y00890761D02*
Y00937000D01*
Y00890761D02*
X00643382Y00865378D01*
X00575818Y00817880D02*
Y00827898D01*
X00572523Y00814585D02*
X00575818Y00817880D01*
X00559047Y00814585D02*
X00572523D01*
X00551942Y00821690D02*
X00559047Y00814585D01*
X00589280Y00822960D02*
X00603257Y00808983D01*
X00559816Y00793242D02*
X00562864Y00796290D01*
X00572008Y00859536D02*
X00618751Y00812793D01*
X00557999Y00937000D02*
Y00937006D01*
X00658000Y00937000D02*
X00716283D01*
X00658000D02*
X00732282Y00937000D01*
X00638000Y00931418D02*
Y00937000D01*
X00649224Y00858520D02*
Y00868172D01*
X00628269Y00837565D02*
X00649224Y00858520D01*
X00657860Y00879856D02*
X00671322Y00893318D01*
X00603257Y00808983D02*
X00653366D01*
X00665383Y00821000D01*
X00576000Y00873000D02*
X00626040Y00822960D01*
X00627379D01*
X00518160Y00885698D02*
X00569397D01*
X00582600Y00898900D01*
X00716283Y00937000D02*
X00735000Y00937000D01*
Y01009218D01*
X00691218Y01053000D02*
X00735000Y01009218D01*
X00689000Y01053000D02*
X00691218D01*
X00608000Y00803000D02*
X00681000D01*
X00618751Y00812793D02*
X00645793D01*
X00660000Y00827000D01*
X00671322Y00893318D02*
Y00902322D01*
X00577999Y00937000D02*
Y00938272D01*
X00557999Y00937006D02*
Y00939999D01*
X00577999Y00938272D02*
X00591727Y00952000D01*
X00710000D01*
X00718000Y00944000D01*
X00557999Y00939999D02*
X00574000Y00956000D01*
X00714000D01*
X00728000Y00970000D01*
X00597999Y00933999D02*
Y00937000D01*
X00586000Y00922000D02*
X00597999Y00933999D01*
X00501396Y00887935D02*
X00550467Y00937006D01*
X00512318Y00893468D02*
X00540849Y00922000D01*
X00586000D01*
X00550467Y00937006D02*
X00557999D01*
X00562442Y00781558D02*
X00572008D01*
X00528000Y01052000D02*
X00606000D01*
X00562864Y00796290D02*
X00679448D01*
X00679580Y00796158D01*
X00671322Y00902322D02*
X00686000Y00917000D01*
X00753000D01*
X00649986Y00877062D02*
Y00923986D01*
X00658000Y00932000D01*
Y00937000D01*
X00603504Y00790448D02*
X00680448D01*
X00679580Y00796158D02*
X00680770D01*
X00706120Y00821508D02*
Y00838962D01*
X00680000Y00804000D02*
Y00817000D01*
X00680000Y00804000D02*
X00681000Y00803000D01*
X00680000Y00804000D02*
X00680000D01*
X00680770Y00796158D02*
X00706120Y00821508D01*
X00717000Y00827000D02*
Y00906000D01*
X00680448Y00790448D02*
X00717000Y00827000D01*
X00660000D02*
X00669999D01*
X00680000Y00817000D01*
X00490000Y00994750D02*
X00495842Y00988908D01*
X00490000Y00994750D02*
Y01014000D01*
X00528000Y01052000D01*
X00643000Y00874396D02*
X00649224Y00868172D01*
X00643000Y00874396D02*
Y00926418D01*
X00638000Y00931418D02*
X00643000Y00926418D01*
X00497000Y01007000D02*
X00652999D01*
X00689000Y01043000D01*
X00490000Y00842000D02*
Y00878000D01*
Y00842000D02*
X00547000Y00785000D01*
X00495842Y00848158D02*
Y00988908D01*
Y00848158D02*
X00562442Y00781558D01*
X00501396Y00848604D02*
Y00887935D01*
Y00848604D02*
X00539486Y00810514D01*
X00580898D01*
X00508762Y00853440D02*
X00536482D01*
X00568452Y00821469D01*
X00512318Y00868682D02*
Y00893468D01*
Y00868682D02*
X00521464Y00859536D01*
X00572008D01*
D18*
X00698000Y01092000D02*
D03*
X00518000D02*
D03*
Y00782000D02*
D03*
X00698000D02*
D03*
D19*
X00589280Y00822960D02*
D03*
X00627379D02*
D03*
D20*
X00801750Y00937000D02*
D03*
X00774750D02*
D03*
X00684200Y00975100D02*
D03*
X00658800D02*
D03*
X00633400D02*
D03*
X00608000D02*
D03*
X00582600D02*
D03*
X00557200D02*
D03*
X00531800D02*
D03*
X00684200Y00898900D02*
D03*
X00658800D02*
D03*
X00633400D02*
D03*
X00608000D02*
D03*
X00582600D02*
D03*
X00557200D02*
D03*
X00531800D02*
D03*
D21*
X00643382Y00865378D02*
D03*
X00575818Y00827898D02*
D03*
X00551942Y00821690D02*
D03*
X00568452Y00821469D02*
D03*
X00508762Y00853440D02*
D03*
X00559816Y00793242D02*
D03*
X00706120Y00838962D02*
D03*
X00603504Y00790448D02*
D03*
X00572008Y00781558D02*
D03*
X00580898Y00810514D02*
D03*
X00518160Y00885698D02*
D03*
X00628269Y00837565D02*
D03*
X00657860Y00879856D02*
D03*
X00753000Y00917000D02*
D03*
X00665383Y00821000D02*
D03*
X00608000Y00803000D02*
D03*
X00576000Y00873000D02*
D03*
X00689000Y01053000D02*
D03*
X00606000Y01052000D02*
D03*
X00728000Y00970000D02*
D03*
X00718000Y00944000D02*
D03*
X00547000Y00785000D02*
D03*
X00717000Y00906000D02*
D03*
X00680000Y00804000D02*
D03*
X00497000Y01007000D02*
D03*
X00490000Y00878000D02*
D03*
X00689000Y01043000D02*
D03*
D22*
X00657999Y00937000D02*
D03*
X00637999D02*
D03*
X00617999D02*
D03*
X00597999D02*
D03*
X00577999D02*
D03*
X00557999D02*
D03*
M02*
