G04 Layer_Color=16711935*
%FSAX44Y44*%
%MOMM*%
G71*
G01*
G75*
%ADD35C,1.9812*%
%ADD36O,1.3032X1.8032*%
%ADD37O,1.3032X1.8032*%
%ADD38C,1.7032*%
%ADD39C,0.8382*%
%ADD40R,1.7032X2.2032*%
D35*
X00698000Y00782000D02*
D03*
X00518000D02*
D03*
Y01092000D02*
D03*
X00698000D02*
D03*
D36*
X00531800Y00898900D02*
D03*
X00557200D02*
D03*
X00582600D02*
D03*
X00608000D02*
D03*
X00633400D02*
D03*
X00658800D02*
D03*
X00684200D02*
D03*
X00531800Y00975100D02*
D03*
X00557200D02*
D03*
X00582600D02*
D03*
X00608000D02*
D03*
X00633400D02*
D03*
X00658800D02*
D03*
X00684200D02*
D03*
D37*
X00774750Y00937000D02*
D03*
X00801750D02*
D03*
D38*
X00627379Y00822960D02*
D03*
X00589280D02*
D03*
D39*
X00689000Y01043000D02*
D03*
X00490000Y00878000D02*
D03*
X00497000Y01007000D02*
D03*
X00680000Y00804000D02*
D03*
X00717000Y00906000D02*
D03*
X00547000Y00785000D02*
D03*
X00718000Y00944000D02*
D03*
X00728000Y00970000D02*
D03*
X00606000Y01052000D02*
D03*
X00689000Y01053000D02*
D03*
X00576000Y00873000D02*
D03*
X00608000Y00803000D02*
D03*
X00665383Y00821000D02*
D03*
X00753000Y00917000D02*
D03*
X00657860Y00879856D02*
D03*
X00628269Y00837565D02*
D03*
X00518160Y00885698D02*
D03*
X00580898Y00810514D02*
D03*
X00572008Y00781558D02*
D03*
X00603504Y00790448D02*
D03*
X00706120Y00838962D02*
D03*
X00559816Y00793242D02*
D03*
X00508762Y00853440D02*
D03*
X00568452Y00821469D02*
D03*
X00551942Y00821690D02*
D03*
X00575818Y00827898D02*
D03*
X00643382Y00865378D02*
D03*
D40*
X00557999Y00937000D02*
D03*
X00577999D02*
D03*
X00597999D02*
D03*
X00617999D02*
D03*
X00638000D02*
D03*
X00658000D02*
D03*
M02*
