G04 Layer_Color=8388736*
%FSAX44Y44*%
%MOMM*%
G71*
G01*
G75*
%ADD27R,1.2000X1.6000*%
G04:AMPARAMS|DCode=28|XSize=0.75mm|YSize=1.7mm|CornerRadius=0mm|HoleSize=0mm|Usage=FLASHONLY|Rotation=315.000|XOffset=0mm|YOffset=0mm|HoleType=Round|Shape=Rectangle|*
%AMROTATEDRECTD28*
4,1,4,-0.8662,-0.3359,0.3359,0.8662,0.8662,0.3359,-0.3359,-0.8662,-0.8662,-0.3359,0.0*
%
%ADD28ROTATEDRECTD28*%

G04:AMPARAMS|DCode=29|XSize=0.75mm|YSize=1.7mm|CornerRadius=0mm|HoleSize=0mm|Usage=FLASHONLY|Rotation=45.000|XOffset=0mm|YOffset=0mm|HoleType=Round|Shape=Rectangle|*
%AMROTATEDRECTD29*
4,1,4,0.3359,-0.8662,-0.8662,0.3359,-0.3359,0.8662,0.8662,-0.3359,0.3359,-0.8662,0.0*
%
%ADD29ROTATEDRECTD29*%

%ADD30R,1.2000X1.7000*%
%ADD31R,1.2000X1.3000*%
%ADD32R,1.3000X1.2000*%
G04:AMPARAMS|DCode=33|XSize=1.2mm|YSize=1.3mm|CornerRadius=0mm|HoleSize=0mm|Usage=FLASHONLY|Rotation=225.000|XOffset=0mm|YOffset=0mm|HoleType=Round|Shape=Rectangle|*
%AMROTATEDRECTD33*
4,1,4,-0.0354,0.8839,0.8839,-0.0354,0.0354,-0.8839,-0.8839,0.0354,-0.0354,0.8839,0.0*
%
%ADD33ROTATEDRECTD33*%

%ADD34C,1.9500*%
%ADD35C,1.6500*%
%ADD36O,1.2500X1.7500*%
%ADD37C,0.8350*%
D27*
X00566500Y01023000D02*
D03*
X00547500D02*
D03*
X00557000Y01001000D02*
D03*
X00680500Y01023000D02*
D03*
X00661500D02*
D03*
X00671000Y01001000D02*
D03*
X00642500Y01023000D02*
D03*
X00623500D02*
D03*
X00633000Y01001000D02*
D03*
X00604500Y01023000D02*
D03*
X00585500D02*
D03*
X00595000Y01001000D02*
D03*
D28*
X00618253Y00873851D02*
D03*
X00623910Y00868194D02*
D03*
X00629567Y00862538D02*
D03*
X00635224Y00856881D02*
D03*
X00640881Y00851224D02*
D03*
X00646537Y00845567D02*
D03*
X00652194Y00839910D02*
D03*
X00657851Y00834253D02*
D03*
X00597747Y00774149D02*
D03*
X00592090Y00779806D02*
D03*
X00586433Y00785463D02*
D03*
X00580776Y00791120D02*
D03*
X00575120Y00796777D02*
D03*
X00569463Y00802433D02*
D03*
X00563806Y00808090D02*
D03*
X00558149Y00813747D02*
D03*
D29*
X00657851D02*
D03*
X00652194Y00808090D02*
D03*
X00646537Y00802433D02*
D03*
X00640881Y00796777D02*
D03*
X00635224Y00791120D02*
D03*
X00629567Y00785463D02*
D03*
X00623910Y00779806D02*
D03*
X00618253Y00774149D02*
D03*
X00558149Y00834253D02*
D03*
X00563806Y00839910D02*
D03*
X00569463Y00845567D02*
D03*
X00575120Y00851224D02*
D03*
X00580776Y00856881D02*
D03*
X00586433Y00862538D02*
D03*
X00592090Y00868194D02*
D03*
X00597747Y00873851D02*
D03*
D30*
X00779750Y00960000D02*
D03*
X00796750D02*
D03*
Y00914000D02*
D03*
X00779750Y00914000D02*
D03*
D31*
X00658500Y00785000D02*
D03*
X00675500D02*
D03*
X00692500Y00815000D02*
D03*
X00675500D02*
D03*
X00523500Y00854000D02*
D03*
X00540500D02*
D03*
X00528500Y01020000D02*
D03*
X00511500D02*
D03*
X00699500D02*
D03*
X00716500D02*
D03*
X00692500Y00855000D02*
D03*
X00675500D02*
D03*
X00523500Y00874000D02*
D03*
X00540500D02*
D03*
X00692500Y00875000D02*
D03*
X00675500D02*
D03*
X00528500Y01000000D02*
D03*
X00511500D02*
D03*
X00699500D02*
D03*
X00716500D02*
D03*
X00692500Y00835000D02*
D03*
X00675500D02*
D03*
D32*
X00557000Y01043500D02*
D03*
Y01060500D02*
D03*
X00671000Y01043500D02*
D03*
Y01060500D02*
D03*
X00633000Y01043500D02*
D03*
Y01060500D02*
D03*
X00595000Y01043500D02*
D03*
Y01060500D02*
D03*
D33*
X00535990Y00821990D02*
D03*
X00548010Y00834011D02*
D03*
D34*
X00698000Y01092000D02*
D03*
X00518000D02*
D03*
Y00782000D02*
D03*
X00698000D02*
D03*
D35*
X00589280Y00822960D02*
D03*
X00627379D02*
D03*
D36*
X00801750Y00937000D02*
D03*
X00774750D02*
D03*
X00684200Y00975100D02*
D03*
X00658800D02*
D03*
X00633400D02*
D03*
X00608000D02*
D03*
X00582600D02*
D03*
X00557200D02*
D03*
X00531800D02*
D03*
X00684200Y00898900D02*
D03*
X00658800D02*
D03*
X00633400D02*
D03*
X00608000D02*
D03*
X00582600D02*
D03*
X00557200D02*
D03*
X00531800D02*
D03*
D37*
X00643382Y00865378D02*
D03*
X00575818Y00827898D02*
D03*
X00551942Y00821690D02*
D03*
X00568452Y00821469D02*
D03*
X00508762Y00853440D02*
D03*
X00559816Y00793242D02*
D03*
X00706120Y00838962D02*
D03*
X00603504Y00790448D02*
D03*
X00572008Y00781558D02*
D03*
X00580898Y00810514D02*
D03*
X00518160Y00885698D02*
D03*
X00628269Y00837565D02*
D03*
X00657860Y00879856D02*
D03*
X00753000Y00917000D02*
D03*
X00665383Y00821000D02*
D03*
X00608000Y00803000D02*
D03*
X00576000Y00873000D02*
D03*
X00689000Y01053000D02*
D03*
X00606000Y01052000D02*
D03*
X00728000Y00970000D02*
D03*
X00718000Y00944000D02*
D03*
X00547000Y00785000D02*
D03*
X00717000Y00906000D02*
D03*
X00680000Y00804000D02*
D03*
X00497000Y01007000D02*
D03*
X00490000Y00878000D02*
D03*
X00689000Y01043000D02*
D03*
M02*
