%FSAX44Y44*%
%MOMM*%
G71*
G01*
G75*
G04 Layer_Physical_Order=1*
G04 Layer_Color=255*
%ADD10R,1.0000X1.0000*%
%ADD11R,1.0000X1.1000*%
G04:AMPARAMS|DCode=12|XSize=0.55mm|YSize=1.5mm|CornerRadius=0mm|HoleSize=0mm|Usage=FLASHONLY|Rotation=315.000|XOffset=0mm|YOffset=0mm|HoleType=Round|Shape=Rectangle|*
%AMROTATEDRECTD12*
4,1,4,-0.7248,-0.3359,0.3359,0.7248,0.7248,0.3359,-0.3359,-0.7248,-0.7248,-0.3359,0.0*
%
%ADD12ROTATEDRECTD12*%

G04:AMPARAMS|DCode=13|XSize=0.55mm|YSize=1.5mm|CornerRadius=0mm|HoleSize=0mm|Usage=FLASHONLY|Rotation=45.000|XOffset=0mm|YOffset=0mm|HoleType=Round|Shape=Rectangle|*
%AMROTATEDRECTD13*
4,1,4,0.3359,-0.7248,-0.7248,0.3359,-0.3359,0.7248,0.7248,-0.3359,0.3359,-0.7248,0.0*
%
%ADD13ROTATEDRECTD13*%

%ADD14R,1.1000X1.0000*%
%ADD15R,1.0000X1.4000*%
G04:AMPARAMS|DCode=16|XSize=1mm|YSize=1.1mm|CornerRadius=0mm|HoleSize=0mm|Usage=FLASHONLY|Rotation=225.000|XOffset=0mm|YOffset=0mm|HoleType=Round|Shape=Rectangle|*
%AMROTATEDRECTD16*
4,1,4,-0.0354,0.7425,0.7425,-0.0354,0.0354,-0.7425,-0.7425,0.0354,-0.0354,0.7425,0.0*
%
%ADD16ROTATEDRECTD16*%

%ADD17C,0.2286*%
%ADD18C,0.2540*%
%ADD19O,1.1000X1.5000*%
%ADD20O,1.3970X1.9050*%
%ADD21C,1.5000*%
%ADD22C,1.7780*%
%ADD23C,0.6350*%
G36*
X00663362Y00864109D02*
X00663547Y00863291D01*
X00663660Y00862922D01*
X00663786Y00862578D01*
X00663926Y00862260D01*
X00664080Y00861969D01*
X00664246Y00861703D01*
X00664427Y00861464D01*
X00664620Y00861250D01*
X00663004Y00859634D01*
X00662790Y00859827D01*
X00662551Y00860008D01*
X00662285Y00860174D01*
X00661994Y00860328D01*
X00661676Y00860468D01*
X00661332Y00860594D01*
X00660963Y00860707D01*
X00660145Y00860892D01*
X00659697Y00860965D01*
X00663289Y00864557D01*
X00663362Y00864109D01*
D02*
G37*
G36*
X00625901Y00855640D02*
X00625731Y00855777D01*
X00625546Y00855866D01*
X00625344Y00855906D01*
X00625125Y00855898D01*
X00624891Y00855842D01*
X00624640Y00855737D01*
X00624374Y00855583D01*
X00624091Y00855381D01*
X00623792Y00855130D01*
X00623476Y00854831D01*
X00621860Y00856448D01*
X00622159Y00856763D01*
X00622410Y00857062D01*
X00622612Y00857345D01*
X00622765Y00857612D01*
X00622870Y00857862D01*
X00622927Y00858097D01*
X00622935Y00858315D01*
X00622895Y00858517D01*
X00622806Y00858703D01*
X00622668Y00858873D01*
X00625901Y00855640D01*
D02*
G37*
G36*
X00699086Y00859970D02*
X00698653Y00859521D01*
X00697965Y00858706D01*
X00697711Y00858341D01*
X00697516Y00858004D01*
X00697381Y00857694D01*
X00697306Y00857413D01*
X00697291Y00857160D01*
X00697335Y00856935D01*
X00697439Y00856737D01*
X00694737Y00860440D01*
X00694889Y00860291D01*
X00695080Y00860212D01*
X00695309Y00860203D01*
X00695575Y00860263D01*
X00695879Y00860393D01*
X00696222Y00860592D01*
X00696602Y00860862D01*
X00697020Y00861200D01*
X00697970Y00862086D01*
X00699086Y00859970D01*
D02*
G37*
G36*
X00642608Y00870217D02*
X00642161Y00869508D01*
X00641980Y00869166D01*
X00641826Y00868834D01*
X00641701Y00868511D01*
X00641603Y00868196D01*
X00641533Y00867890D01*
X00641491Y00867593D01*
X00641477Y00867305D01*
X00639191D01*
X00639177Y00867593D01*
X00639135Y00867890D01*
X00639065Y00868196D01*
X00638968Y00868511D01*
X00638842Y00868834D01*
X00638688Y00869166D01*
X00638507Y00869508D01*
X00638060Y00870217D01*
X00637794Y00870585D01*
X00642874D01*
X00642608Y00870217D01*
D02*
G37*
G36*
X00641477Y00864620D02*
X00641487Y00863959D01*
X00641629Y00862273D01*
X00641715Y00861811D01*
X00641819Y00861397D01*
X00641943Y00861034D01*
X00642086Y00860720D01*
X00642247Y00860455D01*
X00642428Y00860240D01*
X00638582Y00864086D01*
X00638698Y00863993D01*
X00638801Y00863958D01*
X00638893Y00863981D01*
X00638972Y00864062D01*
X00639039Y00864201D01*
X00639094Y00864398D01*
X00639136Y00864652D01*
X00639167Y00864965D01*
X00639191Y00865763D01*
X00641477Y00864620D01*
D02*
G37*
G36*
X00670561Y00853724D02*
X00670548Y00853742D01*
X00670510Y00853759D01*
X00670446Y00853773D01*
X00670357Y00853786D01*
X00670103Y00853805D01*
X00669290Y00853821D01*
Y00856107D01*
X00669531Y00856108D01*
X00670510Y00856169D01*
X00670548Y00856186D01*
X00670561Y00856204D01*
Y00853724D01*
D02*
G37*
G36*
X00618387Y00849742D02*
X00618196Y00849523D01*
X00618034Y00849279D01*
X00617902Y00849010D01*
X00617799Y00848716D01*
X00617725Y00848396D01*
X00617681Y00848051D01*
X00617666Y00847681D01*
X00617681Y00847285D01*
X00617725Y00846864D01*
X00617798Y00846418D01*
X00613474Y00848757D01*
X00613711Y00848862D01*
X00614194Y00849122D01*
X00614439Y00849277D01*
X00614937Y00849636D01*
X00615190Y00849841D01*
X00615966Y00850554D01*
X00618387Y00849742D01*
D02*
G37*
G36*
X00526833Y00848538D02*
X00526638Y00848469D01*
X00526467Y00848353D01*
X00526319Y00848191D01*
X00526193Y00847982D01*
X00526090Y00847727D01*
X00526010Y00847426D01*
X00525953Y00847079D01*
X00525918Y00846685D01*
X00525907Y00846245D01*
X00523621D01*
X00523610Y00846685D01*
X00523575Y00847079D01*
X00523518Y00847426D01*
X00523438Y00847727D01*
X00523335Y00847982D01*
X00523209Y00848191D01*
X00523061Y00848353D01*
X00522890Y00848469D01*
X00522695Y00848538D01*
X00522478Y00848561D01*
X00527050D01*
X00526833Y00848538D01*
D02*
G37*
G36*
X00776055Y00951922D02*
Y00951515D01*
X00776101Y00950937D01*
X00776236Y00950373D01*
X00776458Y00949837D01*
X00776761Y00949343D01*
X00777137Y00948902D01*
X00779388Y00946652D01*
Y00927391D01*
X00777137Y00925140D01*
X00776761Y00924699D01*
X00776458Y00924205D01*
X00776236Y00923670D01*
X00776101Y00923106D01*
X00776055Y00922528D01*
Y00919040D01*
X00772209D01*
Y00905823D01*
X00753001D01*
X00752403Y00905776D01*
X00751819Y00905636D01*
X00751265Y00905406D01*
X00750754Y00905093D01*
X00750297Y00904703D01*
X00750297Y00904703D01*
X00750297Y00904703D01*
X00749907Y00904246D01*
X00749594Y00903735D01*
X00749364Y00903181D01*
X00749224Y00902597D01*
X00749177Y00901999D01*
Y00887667D01*
X00705313Y00765823D01*
X00625784D01*
X00625299Y00766996D01*
X00627269Y00768967D01*
X00632925Y00774623D01*
X00638582Y00780280D01*
X00646064Y00787761D01*
X00631865Y00801960D01*
X00628731Y00798826D01*
X00627294Y00799185D01*
X00627291Y00799192D01*
X00626960Y00799864D01*
X00626544Y00800487D01*
X00626050Y00801050D01*
X00625486Y00801544D01*
X00624864Y00801960D01*
X00624192Y00802291D01*
X00623482Y00802532D01*
X00622747Y00802678D01*
X00622000Y00802727D01*
X00621253Y00802678D01*
X00620518Y00802532D01*
X00619808Y00802291D01*
X00619766Y00802271D01*
X00612733Y00809304D01*
X00612292Y00809680D01*
X00611798Y00809983D01*
X00611262Y00810205D01*
X00610698Y00810340D01*
X00610121Y00810386D01*
X00575709D01*
X00574646Y00811449D01*
X00574646Y00811450D01*
X00574109Y00811987D01*
X00574081Y00812149D01*
X00574290Y00813559D01*
X00574460Y00813708D01*
X00574954Y00814271D01*
X00575370Y00814894D01*
X00575701Y00815566D01*
X00575942Y00816276D01*
X00576088Y00817010D01*
X00576137Y00817758D01*
X00576088Y00818506D01*
X00575942Y00819240D01*
X00575701Y00819950D01*
X00575370Y00820622D01*
X00574954Y00821245D01*
X00574460Y00821808D01*
X00573896Y00822302D01*
X00573274Y00822718D01*
X00572602Y00823049D01*
X00571892Y00823290D01*
X00571157Y00823436D01*
X00570410Y00823485D01*
X00569662Y00823436D01*
X00568927Y00823290D01*
X00568218Y00823049D01*
X00567546Y00822718D01*
X00566923Y00822302D01*
X00566360Y00821808D01*
X00566231Y00821660D01*
X00564684Y00821411D01*
X00562094Y00824000D01*
X00567165Y00829071D01*
X00568293Y00830199D01*
X00570524Y00827968D01*
X00570965Y00827591D01*
X00571459Y00827288D01*
X00571995Y00827066D01*
X00572558Y00826931D01*
X00572877Y00826906D01*
X00573207Y00826530D01*
X00573770Y00826036D01*
X00574393Y00825620D01*
X00575065Y00825289D01*
X00575774Y00825048D01*
X00576509Y00824902D01*
X00577257Y00824853D01*
X00578004Y00824902D01*
X00578138Y00824928D01*
X00579226Y00824049D01*
X00579276Y00823945D01*
X00579228Y00822960D01*
X00579276Y00821975D01*
X00579421Y00820999D01*
X00579661Y00820042D01*
X00579993Y00819113D01*
X00580415Y00818222D01*
X00580922Y00817375D01*
X00581510Y00816583D01*
X00582172Y00815852D01*
X00582903Y00815190D01*
X00583695Y00814602D01*
X00584542Y00814095D01*
X00585433Y00813673D01*
X00586362Y00813341D01*
X00587319Y00813101D01*
X00588295Y00812956D01*
X00589280Y00812908D01*
X00590265Y00812956D01*
X00591241Y00813101D01*
X00592198Y00813341D01*
X00593127Y00813673D01*
X00594019Y00814095D01*
X00594865Y00814602D01*
X00595657Y00815190D01*
X00596388Y00815852D01*
X00597050Y00816583D01*
X00597638Y00817375D01*
X00598145Y00818222D01*
X00598567Y00819113D01*
X00598899Y00820042D01*
X00599139Y00820999D01*
X00599284Y00821975D01*
X00599332Y00822960D01*
X00599284Y00823945D01*
X00599139Y00824921D01*
X00598899Y00825878D01*
X00598567Y00826807D01*
X00598498Y00826953D01*
X00599512Y00827968D01*
X00599889Y00828409D01*
X00600192Y00828903D01*
X00600414Y00829438D01*
X00600549Y00830002D01*
X00600594Y00830580D01*
Y00842137D01*
X00600202D01*
X00600443Y00842474D01*
X00600594Y00842721D01*
Y00845312D01*
X00600549Y00845890D01*
X00600414Y00846454D01*
X00600192Y00846989D01*
X00599889Y00847484D01*
X00599512Y00847924D01*
X00595383Y00852054D01*
X00594942Y00852430D01*
X00594448Y00852733D01*
X00593912Y00852955D01*
X00593348Y00853090D01*
X00592771Y00853136D01*
X00592737D01*
X00591616Y00853522D01*
X00591616D01*
X00591616Y00853522D01*
X00579105Y00866033D01*
Y00867303D01*
X00580598Y00868796D01*
X00584008D01*
X00595449Y00857355D01*
X00601106Y00863011D01*
X00608000Y00869906D01*
X00614894Y00863011D01*
X00614894Y00863012D01*
X00618727Y00859179D01*
X00618727Y00859179D01*
X00619855Y00858051D01*
X00613135Y00851331D01*
X00612488Y00851111D01*
X00611816Y00850780D01*
X00611194Y00850364D01*
X00610630Y00849870D01*
X00610136Y00849306D01*
X00609720Y00848684D01*
X00609389Y00848012D01*
X00609148Y00847302D01*
X00609002Y00846568D01*
X00608953Y00845820D01*
X00609002Y00845072D01*
X00609148Y00844338D01*
X00609389Y00843628D01*
X00609720Y00842956D01*
X00610136Y00842334D01*
X00610630Y00841770D01*
X00611194Y00841276D01*
X00611816Y00840860D01*
X00612488Y00840529D01*
X00613198Y00840288D01*
X00613932Y00840142D01*
X00614680Y00840093D01*
X00615428Y00840142D01*
X00616162Y00840288D01*
X00616872Y00840529D01*
X00617544Y00840860D01*
X00618167Y00841276D01*
X00618730Y00841770D01*
X00619224Y00842334D01*
X00619640Y00842956D01*
X00619971Y00843628D01*
X00620212Y00844338D01*
X00620358Y00845072D01*
X00620407Y00845820D01*
X00620358Y00846568D01*
X00620212Y00847302D01*
X00620046Y00847793D01*
X00625079Y00852826D01*
X00626208Y00851698D01*
X00626208Y00851698D01*
X00630041Y00847865D01*
X00631865Y00846041D01*
X00635697Y00842209D01*
X00637522Y00840384D01*
X00641354Y00836552D01*
X00643178Y00834728D01*
X00647011Y00830895D01*
X00647011Y00830895D01*
X00653270Y00824635D01*
Y00823365D01*
X00648836Y00818931D01*
X00641354Y00811450D01*
X00635697Y00805792D01*
X00649896Y00791594D01*
X00657377Y00799075D01*
X00661210Y00802907D01*
X00666786Y00808484D01*
X00667960Y00807998D01*
Y00806961D01*
X00671805D01*
Y00804561D01*
X00671336Y00804150D01*
X00670842Y00803587D01*
X00670426Y00802964D01*
X00670095Y00802292D01*
X00669854Y00801582D01*
X00669708Y00800847D01*
X00669659Y00800100D01*
X00669708Y00799352D01*
X00669854Y00798618D01*
X00670095Y00797908D01*
X00670426Y00797236D01*
X00670842Y00796613D01*
X00671336Y00796050D01*
X00671899Y00795556D01*
X00672522Y00795140D01*
X00673194Y00794809D01*
X00673904Y00794568D01*
X00674639Y00794422D01*
X00675386Y00794373D01*
X00676133Y00794422D01*
X00676868Y00794568D01*
X00677578Y00794809D01*
X00677996Y00795015D01*
X00678786Y00794797D01*
X00679418Y00794394D01*
X00679461Y00794186D01*
X00678316Y00793041D01*
X00667960D01*
Y00776961D01*
X00683040D01*
Y00787317D01*
X00686634Y00790911D01*
X00687011Y00791351D01*
X00687314Y00791846D01*
X00687536Y00792381D01*
X00687671Y00792945D01*
X00687716Y00793523D01*
Y00806961D01*
X00699941D01*
X00699950Y00806950D01*
X00700514Y00806456D01*
X00701136Y00806040D01*
X00701808Y00805709D01*
X00702518Y00805468D01*
X00703252Y00805322D01*
X00704000Y00805273D01*
X00704747Y00805322D01*
X00705482Y00805468D01*
X00706192Y00805709D01*
X00706864Y00806040D01*
X00707486Y00806456D01*
X00708050Y00806950D01*
X00708544Y00807514D01*
X00708960Y00808136D01*
X00709291Y00808808D01*
X00709532Y00809518D01*
X00709678Y00810253D01*
X00709727Y00811000D01*
X00709678Y00811748D01*
X00709532Y00812482D01*
X00709291Y00813192D01*
X00708960Y00813864D01*
X00708544Y00814486D01*
X00708050Y00815050D01*
X00707486Y00815544D01*
X00706864Y00815960D01*
X00706192Y00816291D01*
X00705482Y00816532D01*
X00704747Y00816678D01*
X00704000Y00816727D01*
X00703252Y00816678D01*
X00702518Y00816532D01*
X00701808Y00816291D01*
X00701310Y00816046D01*
X00700747Y00816242D01*
X00700040Y00816755D01*
Y00818376D01*
X00701243Y00819314D01*
X00701310Y00819318D01*
X00702000Y00819273D01*
X00702747Y00819322D01*
X00703482Y00819468D01*
X00704192Y00819709D01*
X00704864Y00820040D01*
X00705487Y00820456D01*
X00706050Y00820950D01*
X00706544Y00821514D01*
X00706960Y00822136D01*
X00707291Y00822808D01*
X00707532Y00823518D01*
X00707678Y00824252D01*
X00707727Y00825000D01*
X00707678Y00825748D01*
X00707532Y00826482D01*
X00707291Y00827192D01*
X00706960Y00827864D01*
X00706544Y00828486D01*
X00706050Y00829050D01*
X00705487Y00829544D01*
X00704864Y00829960D01*
X00704192Y00830291D01*
X00703482Y00830532D01*
X00702747Y00830678D01*
X00702000Y00830727D01*
X00701998Y00830727D01*
X00700040Y00832685D01*
Y00843041D01*
X00684960D01*
Y00833860D01*
X00684251Y00833292D01*
X00683040Y00833825D01*
Y00843041D01*
X00674033D01*
X00671286Y00845787D01*
X00671773Y00846961D01*
X00683040D01*
Y00863041D01*
X00667960D01*
X00667960Y00863041D01*
Y00863041D01*
X00666853Y00862626D01*
X00665842Y00863636D01*
X00665873Y00864108D01*
X00665824Y00864855D01*
X00665678Y00865590D01*
X00665437Y00866300D01*
X00665106Y00866972D01*
X00664690Y00867595D01*
X00664196Y00868158D01*
X00663633Y00868652D01*
X00663010Y00869068D01*
X00662338Y00869399D01*
X00661628Y00869640D01*
X00660893Y00869786D01*
X00660146Y00869835D01*
X00659398Y00869786D01*
X00658664Y00869640D01*
X00657954Y00869399D01*
X00657282Y00869068D01*
X00656659Y00868652D01*
X00656096Y00868158D01*
X00655602Y00867595D01*
X00655186Y00866972D01*
X00654855Y00866300D01*
X00654614Y00865590D01*
X00654468Y00864855D01*
X00654440Y00864430D01*
X00653707Y00863985D01*
X00653160Y00863890D01*
X00652882Y00864128D01*
X00652387Y00864431D01*
X00651852Y00864652D01*
X00651288Y00864788D01*
X00650710Y00864833D01*
X00644028D01*
Y00868129D01*
X00644384Y00868440D01*
X00644878Y00869004D01*
X00645294Y00869626D01*
X00645625Y00870298D01*
X00645866Y00871008D01*
X00646012Y00871742D01*
X00646061Y00872490D01*
X00646012Y00873238D01*
X00645887Y00873870D01*
X00645901Y00874016D01*
X00646784Y00875140D01*
X00667960D01*
Y00866961D01*
X00683040D01*
Y00877185D01*
X00684251Y00877719D01*
X00684960Y00877150D01*
Y00866961D01*
X00696473D01*
Y00864198D01*
X00695315Y00863041D01*
X00684960D01*
Y00846961D01*
X00700040D01*
Y00857316D01*
X00702780Y00860055D01*
X00703156Y00860496D01*
X00703459Y00860991D01*
X00703551Y00861212D01*
X00703681Y00861526D01*
X00703816Y00862090D01*
X00703862Y00862668D01*
Y00899779D01*
X00703816Y00900357D01*
X00703681Y00900920D01*
X00703459Y00901456D01*
X00703156Y00901950D01*
X00702780Y00902391D01*
X00694368Y00910802D01*
X00694854Y00911976D01*
X00732919D01*
X00733497Y00912021D01*
X00734061Y00912156D01*
X00734597Y00912378D01*
X00735091Y00912681D01*
X00735532Y00913058D01*
X00774882Y00952408D01*
X00776055Y00951922D01*
D02*
G37*
G36*
X00545462Y00856069D02*
X00545532Y00855875D01*
X00545647Y00855703D01*
X00545810Y00855555D01*
X00546018Y00855429D01*
X00546273Y00855326D01*
X00546574Y00855246D01*
X00546921Y00855189D01*
X00547315Y00855155D01*
X00547755Y00855143D01*
Y00852857D01*
X00547315Y00852846D01*
X00546921Y00852812D01*
X00546574Y00852755D01*
X00546273Y00852674D01*
X00546018Y00852572D01*
X00545810Y00852446D01*
X00545647Y00852297D01*
X00545532Y00852126D01*
X00545462Y00851932D01*
X00545439Y00851714D01*
Y00856286D01*
X00545462Y00856069D01*
D02*
G37*
G36*
X00587537Y00853046D02*
X00587448Y00852860D01*
X00587408Y00852658D01*
X00587416Y00852440D01*
X00587472Y00852206D01*
X00587577Y00851955D01*
X00587731Y00851688D01*
X00587933Y00851405D01*
X00588184Y00851106D01*
X00588483Y00850791D01*
X00586866Y00849175D01*
X00586551Y00849474D01*
X00586252Y00849724D01*
X00585969Y00849926D01*
X00585702Y00850080D01*
X00585452Y00850185D01*
X00585217Y00850242D01*
X00584999Y00850250D01*
X00584797Y00850209D01*
X00584611Y00850120D01*
X00584441Y00849983D01*
X00587674Y00853216D01*
X00587537Y00853046D01*
D02*
G37*
G36*
X00547086Y00878970D02*
X00546729Y00878606D01*
X00545727Y00877453D01*
X00545584Y00877240D01*
X00545484Y00877057D01*
X00545426Y00876905D01*
X00545411Y00876782D01*
X00545439Y00876689D01*
X00543689Y00879439D01*
X00543754Y00879384D01*
X00543852Y00879375D01*
X00543983Y00879410D01*
X00544145Y00879490D01*
X00544340Y00879615D01*
X00544568Y00879786D01*
X00545120Y00880262D01*
X00545801Y00880918D01*
X00547086Y00878970D01*
D02*
G37*
G36*
X00530086D02*
X00529653Y00878521D01*
X00528965Y00877706D01*
X00528711Y00877341D01*
X00528516Y00877003D01*
X00528381Y00876694D01*
X00528306Y00876413D01*
X00528291Y00876160D01*
X00528335Y00875934D01*
X00528439Y00875737D01*
X00525737Y00879439D01*
X00525890Y00879291D01*
X00526080Y00879212D01*
X00526309Y00879202D01*
X00526575Y00879263D01*
X00526880Y00879393D01*
X00527222Y00879592D01*
X00527602Y00879861D01*
X00528020Y00880200D01*
X00528970Y00881086D01*
X00530086Y00878970D01*
D02*
G37*
G36*
X00625959Y00879941D02*
X00625656Y00879622D01*
X00625402Y00879319D01*
X00625196Y00879033D01*
X00625040Y00878764D01*
X00624933Y00878511D01*
X00624874Y00878275D01*
X00624865Y00878055D01*
X00624904Y00877852D01*
X00624992Y00877665D01*
X00625129Y00877495D01*
X00621897Y00880728D01*
X00622066Y00880591D01*
X00622253Y00880503D01*
X00622456Y00880463D01*
X00622676Y00880473D01*
X00622912Y00880531D01*
X00623165Y00880639D01*
X00623435Y00880795D01*
X00623721Y00881001D01*
X00624023Y00881255D01*
X00624343Y00881558D01*
X00625959Y00879941D01*
D02*
G37*
G36*
X00665559Y00895045D02*
X00665519Y00894815D01*
X00665527Y00894568D01*
X00665585Y00894304D01*
X00665692Y00894022D01*
X00665847Y00893724D01*
X00666052Y00893408D01*
X00666305Y00893075D01*
X00666608Y00892725D01*
X00666960Y00892357D01*
X00665774Y00890310D01*
X00665416Y00890652D01*
X00665083Y00890936D01*
X00664776Y00891163D01*
X00664495Y00891331D01*
X00664239Y00891442D01*
X00664008Y00891495D01*
X00663803Y00891491D01*
X00663624Y00891428D01*
X00663470Y00891308D01*
X00663341Y00891130D01*
X00665649Y00895257D01*
X00665559Y00895045D01*
D02*
G37*
G36*
X00650113Y00890746D02*
X00650118Y00890384D01*
X00650195Y00889374D01*
X00650241Y00889063D01*
X00650363Y00888479D01*
X00650440Y00888206D01*
X00650623Y00887699D01*
X00645896Y00889072D01*
X00646263Y00889340D01*
X00646591Y00889611D01*
X00646881Y00889883D01*
X00647132Y00890158D01*
X00647344Y00890435D01*
X00647518Y00890714D01*
X00647653Y00890996D01*
X00647750Y00891280D01*
X00647808Y00891566D01*
X00647827Y00891855D01*
X00650113Y00890746D01*
D02*
G37*
G36*
X00592329Y00880714D02*
X00592857Y00880264D01*
X00592999Y00880167D01*
X00593125Y00880098D01*
X00593235Y00880055D01*
X00593328Y00880040D01*
X00593404Y00880051D01*
X00593464Y00880088D01*
X00591334Y00877959D01*
X00591371Y00878018D01*
X00591382Y00878094D01*
X00591367Y00878187D01*
X00591324Y00878297D01*
X00591255Y00878423D01*
X00591158Y00878565D01*
X00591035Y00878725D01*
X00590708Y00879093D01*
X00590504Y00879302D01*
X00592120Y00880918D01*
X00592329Y00880714D01*
D02*
G37*
G36*
X00632374Y00873527D02*
X00632070Y00873216D01*
X00631397Y00872436D01*
X00631251Y00872226D01*
X00631145Y00872041D01*
X00631078Y00871881D01*
X00631051Y00871747D01*
X00631063Y00871638D01*
X00631115Y00871554D01*
X00628311Y00874314D01*
X00628482Y00874178D01*
X00628670Y00874090D01*
X00628873Y00874052D01*
X00629094Y00874062D01*
X00629330Y00874120D01*
X00629583Y00874228D01*
X00629852Y00874384D01*
X00630137Y00874588D01*
X00630439Y00874842D01*
X00630757Y00875144D01*
X00632374Y00873527D01*
D02*
G37*
G36*
X00586257Y00870226D02*
X00586306Y00870439D01*
X00586267Y00870629D01*
X00586141Y00870798D01*
X00585927Y00870943D01*
X00585626Y00871067D01*
X00585237Y00871168D01*
X00584761Y00871246D01*
X00584197Y00871302D01*
X00582806Y00871347D01*
X00584679Y00873633D01*
X00585251Y00873644D01*
X00586244Y00873734D01*
X00586665Y00873812D01*
X00587035Y00873913D01*
X00587355Y00874037D01*
X00587624Y00874183D01*
X00587843Y00874351D01*
X00588012Y00874541D01*
X00588130Y00874754D01*
X00586257Y00870226D01*
D02*
G37*
G36*
X00504839Y00878657D02*
X00504881Y00878360D01*
X00504951Y00878054D01*
X00505048Y00877739D01*
X00505174Y00877416D01*
X00505328Y00877084D01*
X00505509Y00876742D01*
X00505956Y00876033D01*
X00506222Y00875665D01*
X00501142D01*
X00501408Y00876033D01*
X00501855Y00876742D01*
X00502036Y00877084D01*
X00502190Y00877416D01*
X00502315Y00877739D01*
X00502413Y00878054D01*
X00502483Y00878360D01*
X00502525Y00878657D01*
X00502539Y00878945D01*
X00504825D01*
X00504839Y00878657D01*
D02*
G37*
G36*
X00687524Y00881609D02*
X00688398Y00880862D01*
X00688778Y00880592D01*
X00689121Y00880393D01*
X00689425Y00880263D01*
X00689691Y00880203D01*
X00689920Y00880212D01*
X00690111Y00880291D01*
X00690263Y00880440D01*
X00687561Y00876737D01*
X00687665Y00876935D01*
X00687709Y00877160D01*
X00687694Y00877413D01*
X00687619Y00877694D01*
X00687484Y00878004D01*
X00687289Y00878341D01*
X00687035Y00878706D01*
X00686721Y00879100D01*
X00685914Y00879970D01*
X00687030Y00882086D01*
X00687524Y00881609D01*
D02*
G37*
G36*
X00670561Y00876548D02*
X00670536Y00876766D01*
X00670465Y00876960D01*
X00670349Y00877131D01*
X00670186Y00877280D01*
X00669977Y00877406D01*
X00669723Y00877508D01*
X00669422Y00877589D01*
X00669075Y00877646D01*
X00668683Y00877680D01*
X00668244Y00877691D01*
Y00879977D01*
X00668679Y00879982D01*
X00669707Y00880056D01*
X00669959Y00880101D01*
X00670164Y00880155D01*
X00670324Y00880219D01*
X00670439Y00880293D01*
X00670507Y00880376D01*
X00670530Y00880470D01*
X00670561Y00876548D01*
D02*
G37*
G36*
X00682086Y00789971D02*
X00681653Y00789521D01*
X00680965Y00788707D01*
X00680711Y00788342D01*
X00680517Y00788005D01*
X00680382Y00787695D01*
X00680306Y00787414D01*
X00680291Y00787160D01*
X00680335Y00786935D01*
X00680439Y00786738D01*
X00677737Y00790440D01*
X00677890Y00790292D01*
X00678080Y00790213D01*
X00678309Y00790203D01*
X00678575Y00790264D01*
X00678880Y00790394D01*
X00679222Y00790593D01*
X00679602Y00790862D01*
X00680020Y00791201D01*
X00680970Y00792087D01*
X00682086Y00789971D01*
D02*
G37*
G36*
X00571647Y00789686D02*
X00571395Y00789903D01*
X00571098Y00790098D01*
X00570755Y00790269D01*
X00570367Y00790417D01*
X00569932Y00790543D01*
X00569452Y00790646D01*
X00568926Y00790726D01*
X00567738Y00790818D01*
X00567075Y00790829D01*
X00565932Y00793115D01*
X00566363Y00793118D01*
X00567570Y00793191D01*
X00567743Y00793224D01*
X00567864Y00793263D01*
X00567932Y00793309D01*
X00567949Y00793360D01*
X00567915Y00793418D01*
X00571647Y00789686D01*
D02*
G37*
G36*
X00676643Y00805238D02*
X00676656Y00804945D01*
X00676696Y00804645D01*
X00676762Y00804336D01*
X00676854Y00804019D01*
X00676973Y00803694D01*
X00677119Y00803362D01*
X00677291Y00803021D01*
X00677714Y00802316D01*
X00677965Y00801951D01*
X00672887Y00802058D01*
X00673166Y00802429D01*
X00673637Y00803140D01*
X00673828Y00803482D01*
X00673989Y00803813D01*
X00674122Y00804135D01*
X00674224Y00804447D01*
X00674298Y00804750D01*
X00674342Y00805043D01*
X00674357Y00805326D01*
X00676643Y00805238D01*
D02*
G37*
G36*
X00552618Y00808758D02*
X00552640Y00808971D01*
X00552581Y00809161D01*
X00552439Y00809330D01*
X00552217Y00809475D01*
X00551912Y00809599D01*
X00551527Y00809700D01*
X00551059Y00809778D01*
X00550510Y00809834D01*
X00549168Y00809879D01*
X00550434Y00812165D01*
X00551034Y00812176D01*
X00552062Y00812266D01*
X00552492Y00812344D01*
X00552865Y00812445D01*
X00553182Y00812569D01*
X00553443Y00812714D01*
X00553647Y00812883D01*
X00553794Y00813073D01*
X00553885Y00813286D01*
X00552618Y00808758D01*
D02*
G37*
G36*
X00677569Y00809508D02*
X00677374Y00809440D01*
X00677203Y00809325D01*
X00677054Y00809165D01*
X00676928Y00808960D01*
X00676826Y00808708D01*
X00676746Y00808411D01*
X00676689Y00808068D01*
X00676654Y00807680D01*
X00676643Y00807245D01*
X00674357D01*
X00674345Y00807680D01*
X00674311Y00808068D01*
X00674254Y00808411D01*
X00674174Y00808708D01*
X00674071Y00808960D01*
X00673945Y00809165D01*
X00673797Y00809325D01*
X00673625Y00809440D01*
X00673431Y00809508D01*
X00673214Y00809531D01*
X00677786D01*
X00677569Y00809508D01*
D02*
G37*
G36*
X00577417Y00783915D02*
X00577179Y00784119D01*
X00576894Y00784301D01*
X00576562Y00784462D01*
X00576183Y00784601D01*
X00575756Y00784719D01*
X00575283Y00784816D01*
X00574762Y00784891D01*
X00573579Y00784976D01*
X00572917Y00784987D01*
X00571774Y00787273D01*
X00572203Y00787278D01*
X00573159Y00787351D01*
X00573366Y00787395D01*
X00573518Y00787449D01*
X00573615Y00787512D01*
X00573656Y00787586D01*
X00573641Y00787669D01*
X00573571Y00787761D01*
X00577417Y00783915D01*
D02*
G37*
G36*
X00570471Y00780530D02*
X00571180Y00780083D01*
X00571522Y00779902D01*
X00571854Y00779748D01*
X00572178Y00779622D01*
X00572492Y00779525D01*
X00572798Y00779455D01*
X00573095Y00779413D01*
X00573383Y00779399D01*
Y00777113D01*
X00573095Y00777099D01*
X00572798Y00777057D01*
X00572492Y00776987D01*
X00572178Y00776889D01*
X00571854Y00776764D01*
X00571522Y00776610D01*
X00571180Y00776429D01*
X00570471Y00775982D01*
X00570103Y00775716D01*
Y00780796D01*
X00570471Y00780530D01*
D02*
G37*
G36*
X00588425Y00772908D02*
X00588255Y00773046D01*
X00588069Y00773135D01*
X00587867Y00773175D01*
X00587649Y00773167D01*
X00587415Y00773110D01*
X00587164Y00773005D01*
X00586897Y00772852D01*
X00586614Y00772650D01*
X00586315Y00772399D01*
X00586000Y00772100D01*
X00584384Y00773717D01*
X00584683Y00774032D01*
X00584934Y00774331D01*
X00585135Y00774614D01*
X00585289Y00774880D01*
X00585394Y00775131D01*
X00585451Y00775365D01*
X00585459Y00775583D01*
X00585418Y00775786D01*
X00585330Y00775971D01*
X00585192Y00776141D01*
X00588425Y00772908D01*
D02*
G37*
G36*
X00612482Y00781553D02*
X00612785Y00781298D01*
X00613071Y00781093D01*
X00613340Y00780937D01*
X00613593Y00780829D01*
X00613830Y00780771D01*
X00614049Y00780761D01*
X00614253Y00780800D01*
X00614439Y00780889D01*
X00614609Y00781026D01*
X00611376Y00777793D01*
X00611513Y00777963D01*
X00611602Y00778149D01*
X00611641Y00778353D01*
X00611631Y00778572D01*
X00611573Y00778809D01*
X00611465Y00779062D01*
X00611309Y00779331D01*
X00611104Y00779617D01*
X00610849Y00779920D01*
X00610546Y00780239D01*
X00612163Y00781856D01*
X00612482Y00781553D01*
D02*
G37*
G36*
X00555666Y00784861D02*
X00555851Y00784043D01*
X00555964Y00783674D01*
X00556090Y00783330D01*
X00556230Y00783012D01*
X00556384Y00782721D01*
X00556550Y00782455D01*
X00556731Y00782216D01*
X00556924Y00782002D01*
X00555308Y00780386D01*
X00555094Y00780579D01*
X00554855Y00780760D01*
X00554589Y00780927D01*
X00554298Y00781080D01*
X00553980Y00781220D01*
X00553636Y00781346D01*
X00553267Y00781459D01*
X00552449Y00781644D01*
X00552001Y00781717D01*
X00555593Y00785309D01*
X00555666Y00784861D01*
D02*
G37*
G36*
X00582768Y00778565D02*
X00582598Y00778702D01*
X00582412Y00778791D01*
X00582210Y00778831D01*
X00581992Y00778823D01*
X00581758Y00778767D01*
X00581507Y00778662D01*
X00581240Y00778508D01*
X00580957Y00778306D01*
X00580658Y00778056D01*
X00580343Y00777757D01*
X00578727Y00779373D01*
X00579026Y00779688D01*
X00579276Y00779987D01*
X00579478Y00780270D01*
X00579632Y00780537D01*
X00579737Y00780787D01*
X00579794Y00781022D01*
X00579802Y00781240D01*
X00579761Y00781442D01*
X00579672Y00781628D01*
X00579535Y00781798D01*
X00582768Y00778565D01*
D02*
G37*
G36*
X00671813Y00841669D02*
X00672607Y00841002D01*
X00672967Y00840753D01*
X00673302Y00840560D01*
X00673613Y00840423D01*
X00673900Y00840343D01*
X00674162Y00840319D01*
X00674399Y00840351D01*
X00674612Y00840440D01*
X00670561Y00838086D01*
X00670725Y00838223D01*
X00670816Y00838402D01*
X00670834Y00838622D01*
X00670779Y00838883D01*
X00670651Y00839186D01*
X00670449Y00839530D01*
X00670175Y00839915D01*
X00669828Y00840341D01*
X00668914Y00841319D01*
X00671379Y00842087D01*
X00671813Y00841669D01*
D02*
G37*
G36*
X00525921Y00838779D02*
X00525963Y00838482D01*
X00526033Y00838176D01*
X00526130Y00837861D01*
X00526256Y00837538D01*
X00526410Y00837206D01*
X00526591Y00836864D01*
X00527038Y00836155D01*
X00527304Y00835787D01*
X00522224D01*
X00522490Y00836155D01*
X00522937Y00836864D01*
X00523118Y00837206D01*
X00523272Y00837538D01*
X00523397Y00837861D01*
X00523495Y00838176D01*
X00523565Y00838482D01*
X00523607Y00838779D01*
X00523621Y00839067D01*
X00525907D01*
X00525921Y00838779D01*
D02*
G37*
G36*
X00576689Y00842198D02*
X00576743Y00842155D01*
X00576945Y00841970D01*
X00578314Y00840623D01*
X00576697Y00839006D01*
X00576382Y00839305D01*
X00576083Y00839556D01*
X00575800Y00839758D01*
X00575534Y00839911D01*
X00575283Y00840016D01*
X00575049Y00840073D01*
X00574830Y00840081D01*
X00574628Y00840041D01*
X00574442Y00839952D01*
X00574273Y00839814D01*
X00576667Y00842209D01*
X00576689Y00842198D01*
D02*
G37*
G36*
X00492647Y00847923D02*
X00492689Y00847626D01*
X00492759Y00847320D01*
X00492856Y00847005D01*
X00492982Y00846682D01*
X00493136Y00846350D01*
X00493317Y00846008D01*
X00493764Y00845299D01*
X00494030Y00844931D01*
X00488950D01*
X00489216Y00845299D01*
X00489663Y00846008D01*
X00489844Y00846350D01*
X00489998Y00846682D01*
X00490123Y00847005D01*
X00490221Y00847320D01*
X00490291Y00847626D01*
X00490333Y00847923D01*
X00490347Y00848211D01*
X00492633D01*
X00492647Y00847923D01*
D02*
G37*
G36*
X00511290Y00844563D02*
X00510843Y00843854D01*
X00510662Y00843512D01*
X00510508Y00843180D01*
X00510382Y00842857D01*
X00510285Y00842542D01*
X00510215Y00842236D01*
X00510173Y00841939D01*
X00510159Y00841651D01*
X00507873D01*
X00507859Y00841939D01*
X00507817Y00842236D01*
X00507747Y00842542D01*
X00507649Y00842857D01*
X00507524Y00843180D01*
X00507370Y00843512D01*
X00507189Y00843854D01*
X00506742Y00844563D01*
X00506476Y00844931D01*
X00511556D01*
X00511290Y00844563D01*
D02*
G37*
G36*
X00584135Y00846041D02*
X00585263Y00847169D01*
X00585603Y00846829D01*
X00586044Y00846453D01*
X00586539Y00846150D01*
X00587074Y00845928D01*
X00587638Y00845793D01*
X00588216Y00845747D01*
X00591240D01*
X00593206Y00843782D01*
Y00833568D01*
X00592622Y00832995D01*
X00591936Y00832645D01*
X00591241Y00832819D01*
X00590265Y00832964D01*
X00589546Y00832999D01*
X00576017Y00846527D01*
X00575787Y00846724D01*
X00567792Y00854719D01*
Y00855989D01*
X00570989Y00859187D01*
X00584135Y00846041D01*
D02*
G37*
G36*
X00585152Y00833817D02*
X00585594Y00833473D01*
X00586128Y00833103D01*
X00587473Y00832281D01*
X00590183Y00830847D01*
X00591657Y00830138D01*
X00592211Y00830073D01*
X00592793Y00830054D01*
X00593348Y00830088D01*
X00593875Y00830173D01*
X00594374Y00830312D01*
X00594845Y00830502D01*
X00595288Y00830745D01*
X00595704Y00831040D01*
X00596092Y00831388D01*
X00597708Y00829772D01*
X00597360Y00829384D01*
X00597065Y00828968D01*
X00596822Y00828525D01*
X00596632Y00828054D01*
X00596493Y00827555D01*
X00596408Y00827028D01*
X00596374Y00826473D01*
X00596394Y00825891D01*
X00596465Y00825281D01*
X00596589Y00824642D01*
X00591783Y00829448D01*
X00582049Y00824952D01*
X00582390Y00826265D01*
X00582860Y00828579D01*
X00582990Y00829581D01*
X00583049Y00830479D01*
X00583037Y00831274D01*
X00582955Y00831965D01*
X00582803Y00832552D01*
X00582580Y00833036D01*
X00582287Y00833417D01*
X00584803Y00834133D01*
X00585152Y00833817D01*
D02*
G37*
G36*
X00572165Y00815112D02*
X00571133Y00813971D01*
X00571218Y00813887D01*
X00570968Y00813626D01*
X00570579Y00813155D01*
X00570440Y00812944D01*
X00570339Y00812750D01*
X00570274Y00812573D01*
X00570247Y00812412D01*
X00570257Y00812268D01*
X00570304Y00812140D01*
X00570388Y00812029D01*
X00569857Y00812560D01*
X00569537Y00812205D01*
X00567436Y00813338D01*
X00567650Y00813577D01*
X00567821Y00813827D01*
X00567949Y00814087D01*
X00568035Y00814356D01*
X00568038Y00814379D01*
X00567744Y00814673D01*
X00567855Y00814589D01*
X00567983Y00814542D01*
X00568063Y00814537D01*
X00568078Y00814635D01*
X00568078Y00814924D01*
X00568036Y00815223D01*
X00567952Y00815533D01*
X00567825Y00815851D01*
X00567655Y00816180D01*
X00572165Y00815112D01*
D02*
G37*
G36*
X00574296Y00829432D02*
X00574285Y00829433D01*
X00574249Y00829434D01*
X00573136Y00829437D01*
Y00831723D01*
X00574296Y00831728D01*
Y00829432D01*
D02*
G37*
G36*
X00570567Y00836075D02*
X00570478Y00835890D01*
X00570437Y00835687D01*
X00570445Y00835469D01*
X00570502Y00835235D01*
X00570607Y00834984D01*
X00570761Y00834718D01*
X00570963Y00834435D01*
X00571213Y00834136D01*
X00571512Y00833820D01*
X00569896Y00832204D01*
X00569581Y00832503D01*
X00569282Y00832754D01*
X00568999Y00832956D01*
X00568732Y00833109D01*
X00568481Y00833214D01*
X00568247Y00833271D01*
X00568029Y00833279D01*
X00567827Y00833239D01*
X00567641Y00833150D01*
X00567471Y00833012D01*
X00570704Y00836245D01*
X00570567Y00836075D01*
D02*
G37*
G36*
X00689254Y00829562D02*
X00689146Y00829755D01*
X00688990Y00829869D01*
X00688787Y00829903D01*
X00688536Y00829858D01*
X00688236Y00829733D01*
X00687889Y00829529D01*
X00687494Y00829245D01*
X00687051Y00828881D01*
X00686021Y00827915D01*
X00685914Y00831040D01*
X00686302Y00831445D01*
X00686930Y00832199D01*
X00687169Y00832550D01*
X00687359Y00832882D01*
X00687499Y00833196D01*
X00687589Y00833492D01*
X00687629Y00833771D01*
X00687620Y00834031D01*
X00687561Y00834273D01*
X00689254Y00829562D01*
D02*
G37*
G36*
X00552658Y00891130D02*
X00552530Y00891308D01*
X00552376Y00891428D01*
X00552197Y00891491D01*
X00551992Y00891495D01*
X00551761Y00891442D01*
X00551505Y00891331D01*
X00551223Y00891163D01*
X00550916Y00890936D01*
X00550584Y00890652D01*
X00550226Y00890310D01*
X00549040Y00892357D01*
X00549392Y00892725D01*
X00549948Y00893408D01*
X00550153Y00893724D01*
X00550308Y00894022D01*
X00550415Y00894304D01*
X00550472Y00894568D01*
X00550481Y00894815D01*
X00550440Y00895045D01*
X00550351Y00895257D01*
X00552658Y00891130D01*
D02*
G37*
G36*
X00509263Y01014561D02*
X00509111Y01014710D01*
X00508920Y01014789D01*
X00508691Y01014798D01*
X00508425Y01014738D01*
X00508121Y01014608D01*
X00507779Y01014409D01*
X00507398Y01014139D01*
X00506980Y01013801D01*
X00506031Y01012915D01*
X00504914Y01015031D01*
X00505348Y01015480D01*
X00506035Y01016295D01*
X00506289Y01016660D01*
X00506484Y01016997D01*
X00506619Y01017307D01*
X00506694Y01017588D01*
X00506709Y01017841D01*
X00506665Y01018066D01*
X00506561Y01018264D01*
X00509263Y01014561D01*
D02*
G37*
G36*
X00532731Y01014515D02*
X00532505Y01014466D01*
X00532343Y01014386D01*
X00532246Y01014272D01*
X00532214Y01014127D01*
X00532246Y01013949D01*
X00532343Y01013739D01*
X00532505Y01013496D01*
X00532731Y01013222D01*
X00533022Y01012915D01*
X00529789D01*
X00529466Y01013222D01*
X00529142Y01013496D01*
X00528819Y01013739D01*
X00528496Y01013949D01*
X00528173Y01014127D01*
X00527849Y01014272D01*
X00527526Y01014386D01*
X00527203Y01014466D01*
X00526879Y01014515D01*
X00526556Y01014531D01*
X00533022D01*
X00532731Y01014515D01*
D02*
G37*
G36*
X00697263Y01014561D02*
X00697110Y01014710D01*
X00696920Y01014789D01*
X00696691Y01014798D01*
X00696425Y01014738D01*
X00696120Y01014608D01*
X00695778Y01014409D01*
X00695398Y01014139D01*
X00694980Y01013801D01*
X00694030Y01012915D01*
X00692914Y01015031D01*
X00693347Y01015480D01*
X00694035Y01016295D01*
X00694289Y01016660D01*
X00694484Y01016997D01*
X00694618Y01017307D01*
X00694694Y01017588D01*
X00694709Y01017841D01*
X00694665Y01018066D01*
X00694561Y01018264D01*
X00697263Y01014561D01*
D02*
G37*
G36*
X00567654Y01031822D02*
X00567688Y01031433D01*
X00567746Y01031090D01*
X00567826Y01030793D01*
X00567929Y01030542D01*
X00568054Y01030336D01*
X00568203Y01030176D01*
X00568374Y01030062D01*
X00568569Y01029993D01*
X00568786Y01029970D01*
X00564214D01*
X00564431Y01029993D01*
X00564625Y01030062D01*
X00564797Y01030176D01*
X00564945Y01030336D01*
X00565071Y01030542D01*
X00565174Y01030793D01*
X00565254Y01031090D01*
X00565311Y01031433D01*
X00565345Y01031822D01*
X00565357Y01032256D01*
X00567643D01*
X00567654Y01031822D01*
D02*
G37*
G36*
X00714263Y01014561D02*
X00714111Y01014710D01*
X00713920Y01014789D01*
X00713691Y01014798D01*
X00713425Y01014738D01*
X00713120Y01014608D01*
X00712778Y01014409D01*
X00712398Y01014139D01*
X00711980Y01013801D01*
X00711031Y01012915D01*
X00709914Y01015031D01*
X00710347Y01015480D01*
X00711035Y01016295D01*
X00711289Y01016660D01*
X00711484Y01016997D01*
X00711619Y01017307D01*
X00711694Y01017588D01*
X00711709Y01017841D01*
X00711665Y01018066D01*
X00711561Y01018264D01*
X00714263Y01014561D01*
D02*
G37*
G36*
X00509263Y00994561D02*
X00509111Y00994710D01*
X00508920Y00994789D01*
X00508691Y00994798D01*
X00508425Y00994738D01*
X00508121Y00994608D01*
X00507779Y00994409D01*
X00507398Y00994140D01*
X00506980Y00993801D01*
X00506031Y00992915D01*
X00504914Y00995031D01*
X00505348Y00995480D01*
X00506035Y00996295D01*
X00506289Y00996660D01*
X00506484Y00996997D01*
X00506619Y00997307D01*
X00506694Y00997588D01*
X00506709Y00997841D01*
X00506665Y00998067D01*
X00506561Y00998264D01*
X00509263Y00994561D01*
D02*
G37*
G36*
X00718569Y00994538D02*
X00718374Y00994469D01*
X00718203Y00994353D01*
X00718054Y00994191D01*
X00717929Y00993982D01*
X00717826Y00993728D01*
X00717746Y00993426D01*
X00717689Y00993079D01*
X00717654Y00992685D01*
X00717643Y00992245D01*
X00715357D01*
X00715346Y00992685D01*
X00715311Y00993079D01*
X00715254Y00993426D01*
X00715174Y00993728D01*
X00715071Y00993982D01*
X00714946Y00994191D01*
X00714797Y00994353D01*
X00714625Y00994469D01*
X00714431Y00994538D01*
X00714214Y00994561D01*
X00718786D01*
X00718569Y00994538D01*
D02*
G37*
G36*
X00697263Y00994561D02*
X00697110Y00994710D01*
X00696920Y00994789D01*
X00696691Y00994798D01*
X00696425Y00994738D01*
X00696120Y00994608D01*
X00695778Y00994409D01*
X00695398Y00994140D01*
X00694980Y00993801D01*
X00694030Y00992915D01*
X00692914Y00995031D01*
X00693347Y00995480D01*
X00694035Y00996295D01*
X00694289Y00996660D01*
X00694484Y00996997D01*
X00694618Y00997307D01*
X00694694Y00997588D01*
X00694709Y00997841D01*
X00694665Y00998067D01*
X00694561Y00998264D01*
X00697263Y00994561D01*
D02*
G37*
G36*
X00542186Y01003771D02*
X00542425Y01003590D01*
X00542691Y01003423D01*
X00542982Y01003270D01*
X00543300Y01003130D01*
X00543644Y01003004D01*
X00544013Y01002891D01*
X00544831Y01002706D01*
X00545279Y01002633D01*
X00541687Y00999041D01*
X00541614Y00999489D01*
X00541429Y01000307D01*
X00541316Y01000676D01*
X00541190Y01001020D01*
X00541050Y01001338D01*
X00540896Y01001629D01*
X00540730Y01001895D01*
X00540549Y01002134D01*
X00540356Y01002348D01*
X00541972Y01003964D01*
X00542186Y01003771D01*
D02*
G37*
G36*
X00590061Y00996696D02*
X00590038Y00996913D01*
X00589968Y00997107D01*
X00589853Y00997279D01*
X00589690Y00997428D01*
X00589482Y00997553D01*
X00589227Y00997656D01*
X00588926Y00997736D01*
X00588578Y00997793D01*
X00588185Y00997828D01*
X00587745Y00997839D01*
Y01000125D01*
X00588185Y01000136D01*
X00588578Y01000171D01*
X00588926Y01000228D01*
X00589227Y01000308D01*
X00589482Y01000411D01*
X00589690Y01000536D01*
X00589853Y01000685D01*
X00589968Y01000856D01*
X00590038Y01001051D01*
X00590061Y01001268D01*
Y00996696D01*
D02*
G37*
G36*
X00593264Y01055561D02*
X00593066Y01055665D01*
X00592841Y01055710D01*
X00592588Y01055694D01*
X00592306Y01055619D01*
X00591997Y01055484D01*
X00591660Y01055290D01*
X00591294Y01055035D01*
X00590901Y01054721D01*
X00590031Y01053914D01*
X00587914Y01055031D01*
X00588392Y01055525D01*
X00589139Y01056398D01*
X00589408Y01056779D01*
X00589608Y01057121D01*
X00589738Y01057425D01*
X00589798Y01057692D01*
X00589789Y01057920D01*
X00589710Y01058111D01*
X00589561Y01058264D01*
X00593264Y01055561D01*
D02*
G37*
G36*
X00544938Y01053353D02*
X00545641Y01052941D01*
X00545981Y01052774D01*
X00546314Y01052632D01*
X00546639Y01052516D01*
X00546956Y01052426D01*
X00547267Y01052362D01*
X00547569Y01052324D01*
X00547864Y01052311D01*
X00547994Y01050025D01*
X00547713Y01050010D01*
X00547422Y01049964D01*
X00547121Y01049889D01*
X00546810Y01049784D01*
X00546488Y01049649D01*
X00546157Y01049483D01*
X00545816Y01049288D01*
X00545104Y01048806D01*
X00544733Y01048521D01*
X00544576Y01053598D01*
X00544938Y01053353D01*
D02*
G37*
G36*
X00565785Y01057910D02*
X00565417Y01058176D01*
X00564708Y01058623D01*
X00564366Y01058804D01*
X00564034Y01058958D01*
X00563711Y01059083D01*
X00563438Y01059168D01*
X00563273Y01059124D01*
X00563018Y01059021D01*
X00562810Y01058895D01*
X00562648Y01058747D01*
X00562532Y01058576D01*
X00562462Y01058381D01*
X00562439Y01058164D01*
Y01062736D01*
X00562462Y01062519D01*
X00562532Y01062325D01*
X00562648Y01062153D01*
X00562810Y01062004D01*
X00563018Y01061879D01*
X00563273Y01061776D01*
X00563438Y01061732D01*
X00563711Y01061816D01*
X00564034Y01061942D01*
X00564366Y01062096D01*
X00564708Y01062277D01*
X00565417Y01062724D01*
X00565785Y01062990D01*
Y01057910D01*
D02*
G37*
G36*
X00708641Y01098934D02*
X00707494Y01098371D01*
X00707372Y01098562D01*
X00706764Y01099354D01*
X00706090Y01100090D01*
X00705354Y01100764D01*
X00704562Y01101372D01*
X00703720Y01101908D01*
X00702835Y01102369D01*
X00701913Y01102751D01*
X00700961Y01103051D01*
X00699987Y01103267D01*
X00698997Y01103398D01*
X00698000Y01103441D01*
X00697003Y01103398D01*
X00696013Y01103267D01*
X00695039Y01103051D01*
X00694087Y01102751D01*
X00693165Y01102369D01*
X00692279Y01101908D01*
X00691438Y01101372D01*
X00690646Y01100764D01*
X00689910Y01100090D01*
X00689236Y01099354D01*
X00688628Y01098562D01*
X00688092Y01097721D01*
X00687631Y01096835D01*
X00687249Y01095913D01*
X00686949Y01094961D01*
X00686733Y01093987D01*
X00686602Y01092997D01*
X00686559Y01092000D01*
X00686602Y01091003D01*
X00686733Y01090013D01*
X00686949Y01089039D01*
X00687249Y01088087D01*
X00687631Y01087165D01*
X00688092Y01086280D01*
X00688628Y01085438D01*
X00689236Y01084646D01*
X00689910Y01083910D01*
X00690646Y01083236D01*
X00691438Y01082628D01*
X00692279Y01082092D01*
X00693165Y01081631D01*
X00694087Y01081249D01*
X00695039Y01080949D01*
X00696013Y01080733D01*
X00697003Y01080603D01*
X00698000Y01080559D01*
X00698997Y01080603D01*
X00699987Y01080733D01*
X00700961Y01080949D01*
X00701913Y01081249D01*
X00702835Y01081631D01*
X00703720Y01082092D01*
X00704562Y01082628D01*
X00705354Y01083236D01*
X00706090Y01083910D01*
X00706764Y01084646D01*
X00707372Y01085438D01*
X00707908Y01086280D01*
X00708369Y01087165D01*
X00708751Y01088087D01*
X00709051Y01089039D01*
X00709267Y01090013D01*
X00709397Y01091003D01*
X00709441Y01092000D01*
X00709397Y01092997D01*
X00709379Y01093133D01*
X00710621Y01093434D01*
X00749177Y00986333D01*
Y00972001D01*
X00749224Y00971403D01*
X00749364Y00970819D01*
X00749594Y00970265D01*
X00749907Y00969753D01*
X00750297Y00969297D01*
X00750753Y00968908D01*
X00751265Y00968594D01*
X00751819Y00968365D01*
X00752402Y00968225D01*
X00753000Y00968177D01*
X00772209D01*
Y00960185D01*
X00731389Y00919364D01*
X00655738D01*
X00655252Y00920538D01*
X00673612Y00938898D01*
X00673989Y00939338D01*
X00674292Y00939833D01*
X00674513Y00940368D01*
X00674649Y00940932D01*
X00674694Y00941510D01*
Y00967451D01*
X00675964Y00967773D01*
X00676271Y00967262D01*
X00676828Y00966510D01*
X00677457Y00965817D01*
X00678150Y00965189D01*
X00678902Y00964631D01*
X00679704Y00964150D01*
X00680550Y00963750D01*
X00681432Y00963435D01*
X00682339Y00963207D01*
X00683265Y00963070D01*
X00684200Y00963024D01*
X00685135Y00963070D01*
X00686060Y00963207D01*
X00686968Y00963435D01*
X00687849Y00963750D01*
X00688695Y00964150D01*
X00689498Y00964631D01*
X00690250Y00965189D01*
X00690943Y00965817D01*
X00691572Y00966510D01*
X00692129Y00967262D01*
X00692610Y00968065D01*
X00693010Y00968911D01*
X00693326Y00969792D01*
X00693553Y00970700D01*
X00693690Y00971626D01*
X00693736Y00972560D01*
Y00977640D01*
X00693690Y00978575D01*
X00693553Y00979501D01*
X00693326Y00980409D01*
X00693010Y00981290D01*
X00692610Y00982136D01*
X00692129Y00982939D01*
X00691572Y00983690D01*
X00690943Y00984384D01*
X00690922Y00984402D01*
X00690789Y00986065D01*
X00696684Y00991961D01*
X00704966D01*
Y00974134D01*
X00704610Y00973822D01*
X00704116Y00973259D01*
X00703700Y00972636D01*
X00703369Y00971964D01*
X00703128Y00971254D01*
X00702982Y00970519D01*
X00702933Y00969772D01*
X00702982Y00969025D01*
X00703128Y00968290D01*
X00703369Y00967580D01*
X00703700Y00966908D01*
X00704116Y00966285D01*
X00704610Y00965722D01*
X00705173Y00965228D01*
X00705796Y00964812D01*
X00706468Y00964481D01*
X00707178Y00964240D01*
X00707913Y00964094D01*
X00708660Y00964045D01*
X00709408Y00964094D01*
X00710142Y00964240D01*
X00710852Y00964481D01*
X00711524Y00964812D01*
X00711536Y00964820D01*
X00712806Y00964141D01*
Y00956354D01*
X00712450Y00956042D01*
X00711956Y00955479D01*
X00711540Y00954856D01*
X00711209Y00954184D01*
X00710968Y00953474D01*
X00710822Y00952739D01*
X00710773Y00951992D01*
X00710822Y00951245D01*
X00710968Y00950510D01*
X00711209Y00949800D01*
X00711540Y00949128D01*
X00711956Y00948505D01*
X00712450Y00947942D01*
X00713013Y00947448D01*
X00713636Y00947032D01*
X00714308Y00946701D01*
X00715018Y00946460D01*
X00715752Y00946314D01*
X00716500Y00946265D01*
X00717247Y00946314D01*
X00717982Y00946460D01*
X00718692Y00946701D01*
X00719364Y00947032D01*
X00719986Y00947448D01*
X00720550Y00947942D01*
X00721044Y00948505D01*
X00721460Y00949128D01*
X00721791Y00949800D01*
X00722032Y00950510D01*
X00722178Y00951245D01*
X00722227Y00951992D01*
X00722178Y00952739D01*
X00722032Y00953474D01*
X00721791Y00954184D01*
X00721460Y00954856D01*
X00721044Y00955479D01*
X00720550Y00956042D01*
X00720194Y00956354D01*
Y00991961D01*
X00724040D01*
Y01008040D01*
X00712354D01*
Y01010630D01*
X00713685Y01011961D01*
X00724040D01*
Y01028040D01*
X00708960D01*
Y01017851D01*
X00708251Y01017282D01*
X00707040Y01017816D01*
Y01028040D01*
X00691960D01*
Y01017685D01*
X00690159Y01015884D01*
X00688040D01*
Y01032541D01*
X00684194D01*
Y01034000D01*
X00684149Y01034578D01*
X00684014Y01035142D01*
X00683792Y01035678D01*
X00683489Y01036172D01*
X00683112Y01036613D01*
X00679040Y01040685D01*
Y01051041D01*
X00662960D01*
Y01035961D01*
X00673315D01*
X00675562Y01033714D01*
X00675076Y01032541D01*
X00672960D01*
Y01015884D01*
X00664972D01*
X00664394Y01015839D01*
X00663830Y01015704D01*
X00663295Y01015482D01*
X00662801Y01015179D01*
X00662360Y01014802D01*
X00656188Y01008630D01*
X00655811Y01008189D01*
X00655508Y01007695D01*
X00655286Y01007159D01*
X00655151Y01006596D01*
X00655105Y01006018D01*
Y00986430D01*
X00654304Y00986051D01*
X00653502Y00985570D01*
X00652750Y00985012D01*
X00652057Y00984384D01*
X00651428Y00983690D01*
X00650871Y00982939D01*
X00650389Y00982136D01*
X00649989Y00981290D01*
X00649674Y00980409D01*
X00649447Y00979501D01*
X00649309Y00978575D01*
X00649263Y00977640D01*
Y00972560D01*
X00649309Y00971626D01*
X00649447Y00970700D01*
X00649674Y00969792D01*
X00649989Y00968911D01*
X00650389Y00968065D01*
X00650871Y00967262D01*
X00651428Y00966510D01*
X00652057Y00965817D01*
X00652750Y00965189D01*
X00653502Y00964631D01*
X00654304Y00964150D01*
X00655150Y00963750D01*
X00656031Y00963435D01*
X00656939Y00963207D01*
X00657865Y00963070D01*
X00658800Y00963024D01*
X00659734Y00963070D01*
X00660660Y00963207D01*
X00661568Y00963435D01*
X00662449Y00963750D01*
X00663295Y00964150D01*
X00664098Y00964631D01*
X00664850Y00965189D01*
X00665543Y00965817D01*
X00666036Y00966360D01*
X00666588Y00966289D01*
X00667306Y00965908D01*
Y00943040D01*
X00635085Y00910820D01*
X00634334Y00910931D01*
X00633400Y00910977D01*
X00632465Y00910931D01*
X00631539Y00910794D01*
X00630631Y00910566D01*
X00629750Y00910251D01*
X00628904Y00909851D01*
X00628102Y00909370D01*
X00627350Y00908812D01*
X00626656Y00908184D01*
X00626028Y00907490D01*
X00625471Y00906739D01*
X00624989Y00905936D01*
X00624589Y00905090D01*
X00624274Y00904209D01*
X00624047Y00903301D01*
X00623909Y00902375D01*
X00623863Y00901440D01*
Y00896360D01*
X00623909Y00895426D01*
X00624047Y00894500D01*
X00624274Y00893592D01*
X00624589Y00892711D01*
X00624989Y00891865D01*
X00625471Y00891062D01*
X00626028Y00890311D01*
X00626656Y00889617D01*
X00627350Y00888989D01*
X00628102Y00888431D01*
X00628904Y00887950D01*
X00629750Y00887550D01*
X00630631Y00887235D01*
X00631539Y00887007D01*
X00631791Y00886970D01*
X00632237Y00885620D01*
X00631079Y00884461D01*
X00625168D01*
X00624590Y00884416D01*
X00624026Y00884280D01*
X00623491Y00884059D01*
X00622997Y00883756D01*
X00622754Y00883549D01*
X00621612Y00884691D01*
X00608000Y00871080D01*
X00594388Y00884691D01*
X00593057Y00883360D01*
X00592989Y00883402D01*
X00592454Y00883624D01*
X00591890Y00883759D01*
X00591312Y00883804D01*
X00548988D01*
X00548502Y00884978D01*
X00551935Y00888411D01*
X00552704Y00887950D01*
X00553550Y00887550D01*
X00554431Y00887235D01*
X00555339Y00887007D01*
X00556265Y00886870D01*
X00557200Y00886824D01*
X00558134Y00886870D01*
X00559060Y00887007D01*
X00559968Y00887235D01*
X00560849Y00887550D01*
X00561695Y00887950D01*
X00562498Y00888431D01*
X00563250Y00888989D01*
X00563943Y00889617D01*
X00564572Y00890311D01*
X00565129Y00891062D01*
X00565610Y00891865D01*
X00566010Y00892711D01*
X00566326Y00893592D01*
X00566553Y00894500D01*
X00566690Y00895426D01*
X00566736Y00896360D01*
Y00901440D01*
X00566690Y00902375D01*
X00566553Y00903301D01*
X00566326Y00904209D01*
X00566010Y00905090D01*
X00565610Y00905936D01*
X00565129Y00906739D01*
X00564572Y00907490D01*
X00563943Y00908184D01*
X00563250Y00908812D01*
X00562498Y00909370D01*
X00561695Y00909851D01*
X00560849Y00910251D01*
X00559968Y00910566D01*
X00559060Y00910794D01*
X00558134Y00910931D01*
X00557200Y00910977D01*
X00556265Y00910931D01*
X00555339Y00910794D01*
X00554431Y00910566D01*
X00553550Y00910251D01*
X00552704Y00909851D01*
X00551902Y00909370D01*
X00551150Y00908812D01*
X00550457Y00908184D01*
X00549828Y00907490D01*
X00549271Y00906739D01*
X00548789Y00905936D01*
X00548389Y00905090D01*
X00548074Y00904209D01*
X00547847Y00903301D01*
X00547709Y00902375D01*
X00547663Y00901440D01*
Y00896360D01*
X00547709Y00895426D01*
X00547811Y00894737D01*
X00541197Y00888122D01*
X00538785D01*
X00538295Y00889392D01*
X00538543Y00889617D01*
X00539172Y00890311D01*
X00539729Y00891062D01*
X00540210Y00891865D01*
X00540610Y00892711D01*
X00540926Y00893592D01*
X00541153Y00894500D01*
X00541290Y00895426D01*
X00541336Y00896360D01*
Y00901440D01*
X00541290Y00902375D01*
X00541188Y00903064D01*
X00574112Y00935988D01*
X00574489Y00936429D01*
X00574792Y00936923D01*
X00575014Y00937459D01*
X00575149Y00938023D01*
X00575194Y00938601D01*
Y00964703D01*
X00576464Y00965266D01*
X00576550Y00965189D01*
X00577302Y00964631D01*
X00578104Y00964150D01*
X00578950Y00963750D01*
X00579832Y00963435D01*
X00580739Y00963207D01*
X00581665Y00963070D01*
X00582600Y00963024D01*
X00583535Y00963070D01*
X00584460Y00963207D01*
X00585368Y00963435D01*
X00586249Y00963750D01*
X00587095Y00964150D01*
X00587898Y00964631D01*
X00588650Y00965189D01*
X00589343Y00965817D01*
X00589972Y00966510D01*
X00590529Y00967262D01*
X00591010Y00968065D01*
X00591410Y00968911D01*
X00591726Y00969792D01*
X00591953Y00970700D01*
X00592090Y00971626D01*
X00592136Y00972560D01*
Y00977640D01*
X00592090Y00978575D01*
X00591953Y00979501D01*
X00591726Y00980409D01*
X00591410Y00981290D01*
X00591010Y00982136D01*
X00590529Y00982939D01*
X00589972Y00983690D01*
X00589343Y00984384D01*
X00588650Y00985012D01*
X00587898Y00985570D01*
X00587095Y00986051D01*
X00586249Y00986451D01*
X00585368Y00986766D01*
X00584460Y00986994D01*
X00583535Y00987131D01*
X00582600Y00987177D01*
X00581665Y00987131D01*
X00580739Y00986994D01*
X00579832Y00986766D01*
X00579731Y00986730D01*
X00579035Y00987830D01*
X00586190Y00994986D01*
X00587460Y00994558D01*
Y00991460D01*
X00602540D01*
Y01010540D01*
X00587460D01*
Y01002676D01*
X00584962D01*
X00584384Y01002631D01*
X00583820Y01002496D01*
X00583285Y01002274D01*
X00582790Y01001971D01*
X00582350Y01001594D01*
X00568888Y00988132D01*
X00568511Y00987691D01*
X00568208Y00987197D01*
X00567986Y00986662D01*
X00567851Y00986098D01*
X00567806Y00985520D01*
Y00979693D01*
X00566553Y00979501D01*
X00566326Y00980409D01*
X00566010Y00981290D01*
X00565610Y00982136D01*
X00565129Y00982939D01*
X00564572Y00983690D01*
X00563943Y00984384D01*
X00563250Y00985012D01*
X00562498Y00985570D01*
X00561695Y00986051D01*
X00560849Y00986451D01*
X00560695Y00986506D01*
Y00991460D01*
X00564540D01*
Y01010540D01*
X00549460D01*
Y01004720D01*
X00548646Y01004232D01*
X00548190Y01004118D01*
X00547694Y01004450D01*
X00547022Y01004781D01*
X00546312Y01005022D01*
X00545578Y01005168D01*
X00544830Y01005217D01*
X00544358Y01005186D01*
X00536040Y01013505D01*
Y01028040D01*
X00524394D01*
Y01038600D01*
X00535833Y01050038D01*
X00537200Y01049609D01*
X00537218Y01049518D01*
X00537459Y01048808D01*
X00537790Y01048136D01*
X00538206Y01047514D01*
X00538700Y01046950D01*
X00539263Y01046456D01*
X00539886Y01046040D01*
X00540558Y01045709D01*
X00541268Y01045468D01*
X00542002Y01045322D01*
X00542750Y01045273D01*
X00543498Y01045322D01*
X00544232Y01045468D01*
X00544942Y01045709D01*
X00545614Y01046040D01*
X00546236Y01046456D01*
X00546800Y01046950D01*
X00547258Y01047473D01*
X00548960D01*
Y01035961D01*
X00559315D01*
X00561562Y01033714D01*
X00561076Y01032541D01*
X00558960D01*
Y01013461D01*
X00574040D01*
Y01032541D01*
X00570194D01*
Y01034001D01*
X00570149Y01034579D01*
X00570013Y01035143D01*
X00569791Y01035678D01*
X00569489Y01036172D01*
X00569112Y01036613D01*
X00565040Y01040685D01*
Y01047473D01*
X00585667D01*
X00585690Y01047475D01*
X00586751Y01046715D01*
X00586960Y01046384D01*
Y01035961D01*
X00597315D01*
X00599562Y01033714D01*
X00599076Y01032541D01*
X00596960D01*
Y01013461D01*
X00612040D01*
Y01032541D01*
X00608194D01*
Y01034001D01*
X00608149Y01034579D01*
X00608013Y01035143D01*
X00607791Y01035678D01*
X00607489Y01036172D01*
X00607112Y01036613D01*
X00603040Y01040685D01*
Y01051041D01*
X00592818D01*
X00592284Y01052252D01*
X00592851Y01052960D01*
X00603040D01*
Y01064630D01*
X00623646D01*
X00624960Y01063316D01*
Y01052960D01*
X00641040D01*
Y01068040D01*
X00630685D01*
X00627789Y01070936D01*
X00627348Y01071313D01*
X00626853Y01071616D01*
X00626318Y01071838D01*
X00625754Y01071973D01*
X00625176Y01072018D01*
X00548894D01*
X00548316Y01071973D01*
X00547752Y01071838D01*
X00547217Y01071616D01*
X00546722Y01071313D01*
X00546282Y01070936D01*
X00518088Y01042742D01*
X00517711Y01042301D01*
X00517408Y01041807D01*
X00517186Y01041272D01*
X00517051Y01040708D01*
X00517006Y01040130D01*
Y01028040D01*
X00503960D01*
Y01017685D01*
X00488878Y01002603D01*
X00488501Y01002162D01*
X00488198Y01001668D01*
X00487976Y01001132D01*
X00487841Y01000568D01*
X00487796Y00999990D01*
Y00847387D01*
X00487440Y00847076D01*
X00486946Y00846513D01*
X00486530Y00845890D01*
X00486199Y00845218D01*
X00485958Y00844508D01*
X00485812Y00843773D01*
X00485763Y00843026D01*
X00485812Y00842279D01*
X00485958Y00841544D01*
X00486199Y00840834D01*
X00486530Y00840162D01*
X00486946Y00839539D01*
X00487440Y00838976D01*
X00488004Y00838482D01*
X00488626Y00838066D01*
X00489298Y00837735D01*
X00490008Y00837494D01*
X00490742Y00837348D01*
X00491490Y00837299D01*
X00492238Y00837348D01*
X00492972Y00837494D01*
X00493682Y00837735D01*
X00494354Y00838066D01*
X00494400Y00838097D01*
X00495670Y00837418D01*
Y00815660D01*
X00495715Y00815082D01*
X00495850Y00814518D01*
X00496072Y00813983D01*
X00496375Y00813488D01*
X00496752Y00813048D01*
X00502406Y00807394D01*
X00502846Y00807017D01*
X00503341Y00806714D01*
X00503563Y00806622D01*
X00503876Y00806492D01*
X00504440Y00806357D01*
X00505018Y00806312D01*
X00507994D01*
X00547309Y00766996D01*
X00546823Y00765823D01*
X00510687D01*
X00466823Y00887667D01*
Y00902000D01*
X00466776Y00902598D01*
X00466636Y00903181D01*
X00466406Y00903735D01*
X00466093Y00904247D01*
X00465703Y00904703D01*
X00465247Y00905093D01*
X00464735Y00905406D01*
X00464181Y00905636D01*
X00463598Y00905776D01*
X00463000Y00905823D01*
X00451823D01*
Y00968177D01*
X00463000D01*
X00463598Y00968225D01*
X00464181Y00968365D01*
X00464735Y00968594D01*
X00465247Y00968908D01*
X00465703Y00969297D01*
X00466093Y00969753D01*
X00466406Y00970265D01*
X00466636Y00970819D01*
X00466776Y00971403D01*
X00466823Y00972001D01*
Y00986333D01*
X00505379Y01093433D01*
X00506620Y01093131D01*
X00506603Y01092997D01*
X00506559Y01092000D01*
X00506603Y01091003D01*
X00506733Y01090013D01*
X00506949Y01089039D01*
X00507249Y01088087D01*
X00507631Y01087165D01*
X00508092Y01086280D01*
X00508628Y01085438D01*
X00509236Y01084646D01*
X00509910Y01083910D01*
X00510646Y01083236D01*
X00511438Y01082628D01*
X00512279Y01082092D01*
X00513165Y01081631D01*
X00514087Y01081249D01*
X00515039Y01080949D01*
X00516013Y01080733D01*
X00517003Y01080603D01*
X00518000Y01080559D01*
X00518997Y01080603D01*
X00519987Y01080733D01*
X00520961Y01080949D01*
X00521913Y01081249D01*
X00522835Y01081631D01*
X00523720Y01082092D01*
X00524562Y01082628D01*
X00525354Y01083236D01*
X00526090Y01083910D01*
X00526764Y01084646D01*
X00527372Y01085438D01*
X00527908Y01086280D01*
X00528369Y01087165D01*
X00528751Y01088087D01*
X00529051Y01089039D01*
X00529267Y01090013D01*
X00529397Y01091003D01*
X00529441Y01092000D01*
X00529397Y01092997D01*
X00529267Y01093987D01*
X00529051Y01094961D01*
X00528751Y01095913D01*
X00528369Y01096835D01*
X00527908Y01097721D01*
X00527372Y01098562D01*
X00526764Y01099354D01*
X00526090Y01100090D01*
X00525354Y01100764D01*
X00524562Y01101372D01*
X00523720Y01101908D01*
X00522835Y01102369D01*
X00521913Y01102751D01*
X00520961Y01103051D01*
X00519987Y01103267D01*
X00518997Y01103398D01*
X00518000Y01103441D01*
X00517003Y01103398D01*
X00516013Y01103267D01*
X00515039Y01103051D01*
X00514087Y01102751D01*
X00513165Y01102369D01*
X00512279Y01101908D01*
X00511438Y01101372D01*
X00510646Y01100764D01*
X00509910Y01100090D01*
X00509236Y01099354D01*
X00508628Y01098562D01*
X00508507Y01098372D01*
X00507360Y01098935D01*
X00510687Y01108177D01*
X00705313D01*
X00708641Y01098934D01*
D02*
G37*
G36*
X00628480Y01066653D02*
X00629294Y01065965D01*
X00629660Y01065711D01*
X00629997Y01065517D01*
X00630306Y01065382D01*
X00630587Y01065306D01*
X00630841Y01065291D01*
X00631066Y01065335D01*
X00631263Y01065439D01*
X00627561Y01062737D01*
X00627710Y01062890D01*
X00627789Y01063080D01*
X00627798Y01063309D01*
X00627738Y01063575D01*
X00627608Y01063880D01*
X00627408Y01064222D01*
X00627139Y01064602D01*
X00626800Y01065020D01*
X00625914Y01065970D01*
X00628031Y01067086D01*
X00628480Y01066653D01*
D02*
G37*
G36*
X00681655Y01031822D02*
X00681689Y01031433D01*
X00681746Y01031090D01*
X00681826Y01030793D01*
X00681929Y01030542D01*
X00682055Y01030336D01*
X00682203Y01030176D01*
X00682375Y01030062D01*
X00682569Y01029993D01*
X00682786Y01029970D01*
X00678214D01*
X00678431Y01029993D01*
X00678625Y01030062D01*
X00678797Y01030176D01*
X00678946Y01030336D01*
X00679071Y01030542D01*
X00679174Y01030793D01*
X00679254Y01031090D01*
X00679311Y01031433D01*
X00679346Y01031822D01*
X00679357Y01032256D01*
X00681643D01*
X00681655Y01031822D01*
D02*
G37*
G36*
X00605654D02*
X00605688Y01031433D01*
X00605746Y01031090D01*
X00605826Y01030793D01*
X00605928Y01030542D01*
X00606054Y01030336D01*
X00606203Y01030176D01*
X00606374Y01030062D01*
X00606568Y01029993D01*
X00606786Y01029970D01*
X00602214D01*
X00602431Y01029993D01*
X00602625Y01030062D01*
X00602797Y01030176D01*
X00602945Y01030336D01*
X00603071Y01030542D01*
X00603174Y01030793D01*
X00603254Y01031090D01*
X00603311Y01031433D01*
X00603345Y01031822D01*
X00603357Y01032256D01*
X00605643D01*
X00605654Y01031822D01*
D02*
G37*
G36*
X00562291Y01041111D02*
X00562212Y01040920D01*
X00562202Y01040692D01*
X00562263Y01040425D01*
X00562393Y01040121D01*
X00562592Y01039779D01*
X00562861Y01039399D01*
X00563200Y01038981D01*
X00564086Y01038031D01*
X00561970Y01036915D01*
X00561520Y01037348D01*
X00560706Y01038036D01*
X00560341Y01038290D01*
X00560003Y01038484D01*
X00559694Y01038619D01*
X00559413Y01038694D01*
X00559160Y01038710D01*
X00558934Y01038665D01*
X00558737Y01038562D01*
X00562439Y01041264D01*
X00562291Y01041111D01*
D02*
G37*
G36*
X00676290D02*
X00676211Y01040920D01*
X00676202Y01040692D01*
X00676262Y01040425D01*
X00676392Y01040121D01*
X00676592Y01039779D01*
X00676861Y01039399D01*
X00677200Y01038981D01*
X00678086Y01038031D01*
X00675969Y01036915D01*
X00675520Y01037348D01*
X00674706Y01038036D01*
X00674341Y01038290D01*
X00674003Y01038484D01*
X00673694Y01038619D01*
X00673412Y01038694D01*
X00673159Y01038710D01*
X00672934Y01038665D01*
X00672737Y01038562D01*
X00676439Y01041264D01*
X00676290Y01041111D01*
D02*
G37*
G36*
X00600290D02*
X00600212Y01040920D01*
X00600202Y01040692D01*
X00600263Y01040425D01*
X00600392Y01040121D01*
X00600592Y01039779D01*
X00600861Y01039399D01*
X00601200Y01038981D01*
X00602086Y01038031D01*
X00599970Y01036915D01*
X00599520Y01037348D01*
X00598706Y01038036D01*
X00598341Y01038290D01*
X00598003Y01038484D01*
X00597694Y01038619D01*
X00597413Y01038694D01*
X00597159Y01038710D01*
X00596934Y01038665D01*
X00596737Y01038562D01*
X00600439Y01041264D01*
X00600290Y01041111D01*
D02*
G37*
G36*
X00780904Y00918315D02*
X00780938Y00917921D01*
X00780995Y00917574D01*
X00781075Y00917273D01*
X00781178Y00917018D01*
X00781304Y00916809D01*
X00781453Y00916647D01*
X00781624Y00916532D01*
X00781818Y00916462D01*
X00782036Y00916439D01*
X00777464D01*
X00777681Y00916462D01*
X00777875Y00916532D01*
X00778046Y00916647D01*
X00778195Y00916809D01*
X00778321Y00917018D01*
X00778424Y00917273D01*
X00778504Y00917574D01*
X00778561Y00917921D01*
X00778595Y00918315D01*
X00778606Y00918755D01*
X00780892D01*
X00780904Y00918315D01*
D02*
G37*
G36*
X00709817Y00974669D02*
X00709859Y00974372D01*
X00709929Y00974066D01*
X00710026Y00973752D01*
X00710152Y00973428D01*
X00710306Y00973096D01*
X00710487Y00972754D01*
X00710934Y00972045D01*
X00711200Y00971677D01*
X00706120D01*
X00706386Y00972045D01*
X00706833Y00972754D01*
X00707014Y00973096D01*
X00707168Y00973428D01*
X00707293Y00973752D01*
X00707391Y00974066D01*
X00707461Y00974372D01*
X00707503Y00974669D01*
X00707517Y00974957D01*
X00709803D01*
X00709817Y00974669D01*
D02*
G37*
G36*
X00639489Y00908383D02*
X00639147Y00908025D01*
X00638863Y00907692D01*
X00638636Y00907385D01*
X00638467Y00907103D01*
X00638356Y00906846D01*
X00638302Y00906615D01*
X00638305Y00906409D01*
X00638367Y00906228D01*
X00638485Y00906073D01*
X00638662Y00905943D01*
X00634567Y00908283D01*
X00634778Y00908192D01*
X00635007Y00908150D01*
X00635252Y00908157D01*
X00635515Y00908214D01*
X00635796Y00908319D01*
X00636093Y00908474D01*
X00636408Y00908678D01*
X00636741Y00908931D01*
X00637090Y00909233D01*
X00637457Y00909584D01*
X00639489Y00908383D01*
D02*
G37*
G36*
X00539960Y00905444D02*
X00539608Y00905076D01*
X00539052Y00904393D01*
X00538847Y00904077D01*
X00538691Y00903778D01*
X00538585Y00903497D01*
X00538527Y00903233D01*
X00538519Y00902986D01*
X00538559Y00902756D01*
X00538649Y00902544D01*
X00536341Y00906671D01*
X00536470Y00906493D01*
X00536624Y00906373D01*
X00536803Y00906310D01*
X00537008Y00906305D01*
X00537239Y00906359D01*
X00537495Y00906470D01*
X00537776Y00906638D01*
X00538083Y00906865D01*
X00538416Y00907149D01*
X00538774Y00907491D01*
X00539960Y00905444D01*
D02*
G37*
G36*
X00511798Y00949719D02*
X00511351Y00949010D01*
X00511170Y00948668D01*
X00511016Y00948336D01*
X00510891Y00948012D01*
X00510793Y00947698D01*
X00510723Y00947392D01*
X00510681Y00947095D01*
X00510667Y00946807D01*
X00508381D01*
X00508367Y00947095D01*
X00508325Y00947392D01*
X00508255Y00947698D01*
X00508158Y00948012D01*
X00508032Y00948336D01*
X00507878Y00948668D01*
X00507697Y00949010D01*
X00507250Y00949719D01*
X00506984Y00950087D01*
X00512064D01*
X00511798Y00949719D01*
D02*
G37*
G36*
X00717657Y00956889D02*
X00717699Y00956592D01*
X00717769Y00956286D01*
X00717866Y00955972D01*
X00717992Y00955648D01*
X00718146Y00955316D01*
X00718327Y00954974D01*
X00718774Y00954265D01*
X00719040Y00953897D01*
X00713960D01*
X00714226Y00954265D01*
X00714673Y00954974D01*
X00714854Y00955316D01*
X00715008Y00955648D01*
X00715134Y00955972D01*
X00715231Y00956286D01*
X00715301Y00956592D01*
X00715343Y00956889D01*
X00715357Y00957177D01*
X00717643D01*
X00717657Y00956889D01*
D02*
G37*
G36*
X00778013Y00957561D02*
X00782036D01*
X00781818Y00957538D01*
X00781624Y00957468D01*
X00781453Y00957353D01*
X00781304Y00957190D01*
X00781178Y00956982D01*
X00781075Y00956727D01*
X00780995Y00956426D01*
X00780938Y00956078D01*
X00780904Y00955685D01*
X00780892Y00955245D01*
X00778606D01*
X00778595Y00955685D01*
X00778561Y00956078D01*
X00778504Y00956426D01*
X00778424Y00956727D01*
X00778321Y00956982D01*
X00778195Y00957190D01*
X00778046Y00957353D01*
X00777875Y00957468D01*
X00777681Y00957538D01*
X00777464Y00957561D01*
X00778013D01*
X00777838Y00957687D01*
X00777630Y00957749D01*
X00777389Y00957746D01*
X00777115Y00957678D01*
X00776808Y00957546D01*
X00776468Y00957349D01*
X00776096Y00957087D01*
X00775690Y00956761D01*
X00774780Y00955914D01*
X00773164Y00957531D01*
X00773619Y00958002D01*
X00774337Y00958846D01*
X00774598Y00959219D01*
X00774795Y00959559D01*
X00774928Y00959865D01*
X00774995Y00960139D01*
X00774998Y00960380D01*
X00774937Y00960588D01*
X00774810Y00960763D01*
X00778013Y00957561D01*
D02*
G37*
G36*
X00558154Y00986327D02*
X00558189Y00985885D01*
X00558245Y00985495D01*
X00558325Y00985159D01*
X00558427Y00984875D01*
X00558551Y00984643D01*
X00558699Y00984465D01*
X00558869Y00984339D01*
X00559062Y00984266D01*
X00559277Y00984246D01*
X00554723Y00984125D01*
X00554939Y00984157D01*
X00555131Y00984241D01*
X00555301Y00984377D01*
X00555449Y00984564D01*
X00555574Y00984804D01*
X00555676Y00985096D01*
X00555755Y00985440D01*
X00555812Y00985835D01*
X00555846Y00986283D01*
X00555857Y00986782D01*
X00558143Y00986822D01*
X00558154Y00986327D01*
D02*
G37*
G36*
X00673069Y00994038D02*
X00672874Y00993969D01*
X00672703Y00993853D01*
X00672554Y00993691D01*
X00672429Y00993482D01*
X00672326Y00993227D01*
X00672246Y00992926D01*
X00672189Y00992579D01*
X00672154Y00992185D01*
X00672143Y00991745D01*
X00669857D01*
X00669846Y00992185D01*
X00669811Y00992579D01*
X00669754Y00992926D01*
X00669674Y00993227D01*
X00669571Y00993482D01*
X00669445Y00993691D01*
X00669297Y00993853D01*
X00669125Y00993969D01*
X00668931Y00994038D01*
X00668714Y00994061D01*
X00673286D01*
X00673069Y00994038D01*
D02*
G37*
G36*
X00559069D02*
X00558875Y00993969D01*
X00558703Y00993853D01*
X00558555Y00993691D01*
X00558429Y00993482D01*
X00558326Y00993227D01*
X00558246Y00992926D01*
X00558189Y00992579D01*
X00558155Y00992185D01*
X00558143Y00991745D01*
X00555857D01*
X00555846Y00992185D01*
X00555811Y00992579D01*
X00555754Y00992926D01*
X00555674Y00993227D01*
X00555571Y00993482D01*
X00555446Y00993691D01*
X00555297Y00993853D01*
X00555126Y00993969D01*
X00554931Y00994038D01*
X00554714Y00994061D01*
X00559286D01*
X00559069Y00994038D01*
D02*
G37*
G36*
X00808105Y00905823D02*
X00787290D01*
Y00919040D01*
X00783444D01*
Y00920998D01*
X00785694Y00923248D01*
X00786071Y00923689D01*
X00786374Y00924183D01*
X00786596Y00924719D01*
X00786731Y00925283D01*
X00786776Y00925861D01*
Y00948182D01*
X00786731Y00948760D01*
X00786596Y00949324D01*
X00786374Y00949859D01*
X00786071Y00950353D01*
X00785694Y00950794D01*
X00783444Y00953045D01*
Y00954960D01*
X00787290D01*
Y00968177D01*
X00808105D01*
Y00905823D01*
D02*
G37*
G36*
X00533369Y00994508D02*
X00533280Y00994440D01*
X00533201Y00994325D01*
X00533132Y00994165D01*
X00533074Y00993960D01*
X00533027Y00993708D01*
X00532990Y00993411D01*
X00532948Y00992679D01*
X00532943Y00992245D01*
X00530657D01*
X00530645Y00992679D01*
X00530611Y00993068D01*
X00530554Y00993411D01*
X00530474Y00993708D01*
X00530371Y00993960D01*
X00530245Y00994165D01*
X00530097Y00994325D01*
X00529925Y00994440D01*
X00529731Y00994508D01*
X00529514Y00994531D01*
X00533469D01*
X00533369Y00994508D01*
D02*
G37*
G36*
X00532954Y00986305D02*
X00532988Y00985860D01*
X00533045Y00985468D01*
X00533124Y00985127D01*
X00533226Y00984839D01*
X00533351Y00984604D01*
X00533498Y00984421D01*
X00533669Y00984290D01*
X00533862Y00984211D01*
X00534077Y00984185D01*
X00529523D01*
X00529738Y00984211D01*
X00529931Y00984290D01*
X00530101Y00984421D01*
X00530248Y00984604D01*
X00530373Y00984839D01*
X00530475Y00985127D01*
X00530555Y00985468D01*
X00530611Y00985860D01*
X00530645Y00986305D01*
X00530657Y00986802D01*
X00532943D01*
X00532954Y00986305D01*
D02*
G37*
G36*
X00659954D02*
X00659988Y00985860D01*
X00660045Y00985468D01*
X00660124Y00985127D01*
X00660226Y00984839D01*
X00660351Y00984604D01*
X00660499Y00984421D01*
X00660669Y00984290D01*
X00660862Y00984211D01*
X00661077Y00984185D01*
X00656523D01*
X00656738Y00984211D01*
X00656931Y00984290D01*
X00657101Y00984421D01*
X00657249Y00984604D01*
X00657373Y00984839D01*
X00657475Y00985127D01*
X00657555Y00985468D01*
X00657611Y00985860D01*
X00657645Y00986305D01*
X00657657Y00986802D01*
X00659943D01*
X00659954Y00986305D01*
D02*
G37*
%LPC*%
G36*
X00582600Y00910977D02*
X00581665Y00910931D01*
X00580739Y00910794D01*
X00579832Y00910566D01*
X00578950Y00910251D01*
X00578104Y00909851D01*
X00577302Y00909370D01*
X00576550Y00908812D01*
X00575857Y00908184D01*
X00575228Y00907490D01*
X00574670Y00906739D01*
X00574189Y00905936D01*
X00573789Y00905090D01*
X00573474Y00904209D01*
X00573247Y00903301D01*
X00573109Y00902375D01*
X00573063Y00901440D01*
Y00896360D01*
X00573109Y00895426D01*
X00573247Y00894500D01*
X00573474Y00893592D01*
X00573789Y00892711D01*
X00574189Y00891865D01*
X00574670Y00891062D01*
X00575228Y00890311D01*
X00575857Y00889617D01*
X00576550Y00888989D01*
X00577302Y00888431D01*
X00578104Y00887950D01*
X00578950Y00887550D01*
X00579832Y00887235D01*
X00580739Y00887007D01*
X00581665Y00886870D01*
X00582600Y00886824D01*
X00583535Y00886870D01*
X00584460Y00887007D01*
X00585368Y00887235D01*
X00586249Y00887550D01*
X00587095Y00887950D01*
X00587898Y00888431D01*
X00588650Y00888989D01*
X00589343Y00889617D01*
X00589972Y00890311D01*
X00590529Y00891062D01*
X00591010Y00891865D01*
X00591410Y00892711D01*
X00591726Y00893592D01*
X00591953Y00894500D01*
X00592090Y00895426D01*
X00592136Y00896360D01*
Y00901440D01*
X00592090Y00902375D01*
X00591953Y00903301D01*
X00591726Y00904209D01*
X00591410Y00905090D01*
X00591010Y00905936D01*
X00590529Y00906739D01*
X00589972Y00907490D01*
X00589343Y00908184D01*
X00588650Y00908812D01*
X00587898Y00909370D01*
X00587095Y00909851D01*
X00586249Y00910251D01*
X00585368Y00910566D01*
X00584460Y00910794D01*
X00583535Y00910931D01*
X00582600Y00910977D01*
D02*
G37*
G36*
X00608000D02*
X00607065Y00910931D01*
X00606139Y00910794D01*
X00605232Y00910566D01*
X00604350Y00910251D01*
X00603504Y00909851D01*
X00602702Y00909370D01*
X00601950Y00908812D01*
X00601256Y00908184D01*
X00600628Y00907490D01*
X00600070Y00906739D01*
X00599589Y00905936D01*
X00599189Y00905090D01*
X00598874Y00904209D01*
X00598647Y00903301D01*
X00598509Y00902375D01*
X00598463Y00901440D01*
Y00896360D01*
X00598509Y00895426D01*
X00598647Y00894500D01*
X00598874Y00893592D01*
X00599189Y00892711D01*
X00599589Y00891865D01*
X00600070Y00891062D01*
X00600628Y00890311D01*
X00601256Y00889617D01*
X00601950Y00888989D01*
X00602702Y00888431D01*
X00603504Y00887950D01*
X00604350Y00887550D01*
X00605232Y00887235D01*
X00606139Y00887007D01*
X00607065Y00886870D01*
X00608000Y00886824D01*
X00608935Y00886870D01*
X00609860Y00887007D01*
X00610768Y00887235D01*
X00611649Y00887550D01*
X00612495Y00887950D01*
X00613298Y00888431D01*
X00614050Y00888989D01*
X00614743Y00889617D01*
X00615372Y00890311D01*
X00615929Y00891062D01*
X00616410Y00891865D01*
X00616810Y00892711D01*
X00617126Y00893592D01*
X00617353Y00894500D01*
X00617490Y00895426D01*
X00617536Y00896360D01*
Y00901440D01*
X00617490Y00902375D01*
X00617353Y00903301D01*
X00617126Y00904209D01*
X00616810Y00905090D01*
X00616410Y00905936D01*
X00615929Y00906739D01*
X00615372Y00907490D01*
X00614743Y00908184D01*
X00614050Y00908812D01*
X00613298Y00909370D01*
X00612495Y00909851D01*
X00611649Y00910251D01*
X00610768Y00910566D01*
X00609860Y00910794D01*
X00608935Y00910931D01*
X00608000Y00910977D01*
D02*
G37*
G36*
X00679040Y01068040D02*
X00662960D01*
Y01064321D01*
X00661690Y01064279D01*
X00661452Y01064550D01*
X00660889Y01065044D01*
X00660266Y01065460D01*
X00659594Y01065792D01*
X00658885Y01066032D01*
X00658150Y01066179D01*
X00657402Y01066228D01*
X00656655Y01066179D01*
X00655920Y01066032D01*
X00655211Y01065792D01*
X00654539Y01065460D01*
X00653916Y01065044D01*
X00653353Y01064550D01*
X00652859Y01063987D01*
X00652442Y01063364D01*
X00652111Y01062692D01*
X00651870Y01061983D01*
X00651724Y01061248D01*
X00651675Y01060500D01*
X00651724Y01059753D01*
X00651870Y01059018D01*
X00652111Y01058309D01*
X00652442Y01057637D01*
X00652859Y01057014D01*
X00653353Y01056451D01*
X00653916Y01055956D01*
X00654539Y01055540D01*
X00655211Y01055209D01*
X00655920Y01054968D01*
X00656655Y01054822D01*
X00657402Y01054773D01*
X00658150Y01054822D01*
X00658885Y01054968D01*
X00659594Y01055209D01*
X00660266Y01055540D01*
X00660889Y01055956D01*
X00661452Y01056451D01*
X00661690Y01056722D01*
X00662960Y01056680D01*
Y01052960D01*
X00679040D01*
Y01068040D01*
D02*
G37*
G36*
X00641040Y01051041D02*
X00624960D01*
Y01035961D01*
X00635315D01*
X00637562Y01033714D01*
X00637076Y01032541D01*
X00634960D01*
Y01013461D01*
X00648746D01*
X00649054Y01013557D01*
X00649378Y01013682D01*
X00649710Y01013836D01*
X00650040Y01014011D01*
Y01032541D01*
X00646195D01*
Y01034000D01*
X00646149Y01034578D01*
X00646014Y01035142D01*
X00645792Y01035678D01*
X00645489Y01036172D01*
X00645112Y01036613D01*
X00641040Y01040685D01*
Y01051041D01*
D02*
G37*
G36*
X00608000Y00987177D02*
X00607065Y00987131D01*
X00606139Y00986994D01*
X00605232Y00986766D01*
X00604350Y00986451D01*
X00603504Y00986051D01*
X00602702Y00985570D01*
X00601950Y00985012D01*
X00601256Y00984384D01*
X00600628Y00983690D01*
X00600070Y00982939D01*
X00599589Y00982136D01*
X00599189Y00981290D01*
X00598874Y00980409D01*
X00598647Y00979501D01*
X00598509Y00978575D01*
X00598463Y00977640D01*
Y00972560D01*
X00598509Y00971626D01*
X00598647Y00970700D01*
X00598874Y00969792D01*
X00599189Y00968911D01*
X00599589Y00968065D01*
X00600070Y00967262D01*
X00600628Y00966510D01*
X00601256Y00965817D01*
X00601950Y00965189D01*
X00602702Y00964631D01*
X00603504Y00964150D01*
X00604350Y00963750D01*
X00605232Y00963435D01*
X00606139Y00963207D01*
X00607065Y00963070D01*
X00608000Y00963024D01*
X00608935Y00963070D01*
X00609860Y00963207D01*
X00610768Y00963435D01*
X00611649Y00963750D01*
X00612495Y00964150D01*
X00613298Y00964631D01*
X00614050Y00965189D01*
X00614743Y00965817D01*
X00615372Y00966510D01*
X00615929Y00967262D01*
X00616410Y00968065D01*
X00616810Y00968911D01*
X00617126Y00969792D01*
X00617353Y00970700D01*
X00617490Y00971626D01*
X00617536Y00972560D01*
Y00977640D01*
X00617490Y00978575D01*
X00617353Y00979501D01*
X00617126Y00980409D01*
X00616810Y00981290D01*
X00616410Y00982136D01*
X00615929Y00982939D01*
X00615372Y00983690D01*
X00614743Y00984384D01*
X00614050Y00985012D01*
X00613298Y00985570D01*
X00612495Y00986051D01*
X00611649Y00986451D01*
X00610768Y00986766D01*
X00609860Y00986994D01*
X00608935Y00987131D01*
X00608000Y00987177D01*
D02*
G37*
G36*
X00640540Y01010540D02*
X00625460D01*
Y00991460D01*
X00629306D01*
Y00986241D01*
X00628904Y00986051D01*
X00628102Y00985570D01*
X00627350Y00985012D01*
X00626656Y00984384D01*
X00626028Y00983690D01*
X00625471Y00982939D01*
X00624989Y00982136D01*
X00624589Y00981290D01*
X00624274Y00980409D01*
X00624047Y00979501D01*
X00623909Y00978575D01*
X00623863Y00977640D01*
Y00972560D01*
X00623909Y00971626D01*
X00624047Y00970700D01*
X00624274Y00969792D01*
X00624589Y00968911D01*
X00624989Y00968065D01*
X00625471Y00967262D01*
X00626028Y00966510D01*
X00626656Y00965817D01*
X00627350Y00965189D01*
X00628102Y00964631D01*
X00628904Y00964150D01*
X00629750Y00963750D01*
X00630631Y00963435D01*
X00631539Y00963207D01*
X00632465Y00963070D01*
X00633400Y00963024D01*
X00634334Y00963070D01*
X00635260Y00963207D01*
X00636168Y00963435D01*
X00637049Y00963750D01*
X00637895Y00964150D01*
X00638698Y00964631D01*
X00639450Y00965189D01*
X00640143Y00965817D01*
X00640772Y00966510D01*
X00641329Y00967262D01*
X00641810Y00968065D01*
X00642210Y00968911D01*
X00642526Y00969792D01*
X00642753Y00970700D01*
X00642890Y00971626D01*
X00642936Y00972560D01*
Y00977640D01*
X00642890Y00978575D01*
X00642753Y00979501D01*
X00642526Y00980409D01*
X00642210Y00981290D01*
X00641810Y00982136D01*
X00641329Y00982939D01*
X00640772Y00983690D01*
X00640143Y00984384D01*
X00639450Y00985012D01*
X00638698Y00985570D01*
X00637895Y00986051D01*
X00637049Y00986451D01*
X00636694Y00986578D01*
Y00991460D01*
X00640540D01*
Y01010540D01*
D02*
G37*
%LPD*%
G36*
X00665530Y01058214D02*
X00665508Y01058431D01*
X00665439Y01058626D01*
X00665325Y01058797D01*
X00665165Y01058946D01*
X00664959Y01059072D01*
X00664707Y01059174D01*
X00664410Y01059254D01*
X00664067Y01059312D01*
X00663679Y01059346D01*
X00663244Y01059357D01*
Y01061643D01*
X00663679Y01061655D01*
X00664067Y01061689D01*
X00664410Y01061746D01*
X00664707Y01061826D01*
X00664959Y01061929D01*
X00665165Y01062055D01*
X00665325Y01062203D01*
X00665439Y01062375D01*
X00665508Y01062569D01*
X00665530Y01062786D01*
Y01058214D01*
D02*
G37*
G36*
X00634154Y00986349D02*
X00634188Y00985910D01*
X00634245Y00985523D01*
X00634324Y00985190D01*
X00634426Y00984910D01*
X00634551Y00984683D01*
X00634699Y00984509D01*
X00634869Y00984389D01*
X00635062Y00984321D01*
X00635277Y00984306D01*
X00630728Y00984064D01*
X00630943Y00984101D01*
X00631135Y00984189D01*
X00631304Y00984329D01*
X00631451Y00984519D01*
X00631575Y00984759D01*
X00631676Y00985051D01*
X00631755Y00985393D01*
X00631812Y00985787D01*
X00631846Y00986231D01*
X00631857Y00986726D01*
X00634143Y00986841D01*
X00634154Y00986349D01*
D02*
G37*
G36*
X00635069Y00994038D02*
X00634874Y00993969D01*
X00634703Y00993853D01*
X00634554Y00993691D01*
X00634429Y00993482D01*
X00634326Y00993227D01*
X00634246Y00992926D01*
X00634189Y00992579D01*
X00634154Y00992185D01*
X00634143Y00991745D01*
X00631857D01*
X00631846Y00992185D01*
X00631811Y00992579D01*
X00631754Y00992926D01*
X00631674Y00993227D01*
X00631571Y00993482D01*
X00631446Y00993691D01*
X00631297Y00993853D01*
X00631125Y00993969D01*
X00630931Y00994038D01*
X00630714Y00994061D01*
X00635286D01*
X00635069Y00994038D01*
D02*
G37*
G36*
X00643654Y01031822D02*
X00643689Y01031433D01*
X00643746Y01031090D01*
X00643826Y01030793D01*
X00643929Y01030542D01*
X00644055Y01030336D01*
X00644203Y01030176D01*
X00644375Y01030062D01*
X00644569Y01029993D01*
X00644786Y01029970D01*
X00640214D01*
X00640431Y01029993D01*
X00640626Y01030062D01*
X00640797Y01030176D01*
X00640946Y01030336D01*
X00641071Y01030542D01*
X00641174Y01030793D01*
X00641254Y01031090D01*
X00641311Y01031433D01*
X00641346Y01031822D01*
X00641357Y01032256D01*
X00643643D01*
X00643654Y01031822D01*
D02*
G37*
G36*
X00659676Y01062775D02*
X00660385Y01062328D01*
X00660726Y01062146D01*
X00661058Y01061992D01*
X00661382Y01061867D01*
X00661696Y01061769D01*
X00662002Y01061699D01*
X00662299Y01061657D01*
X00662587Y01061643D01*
Y01059357D01*
X00662299Y01059343D01*
X00662002Y01059301D01*
X00661696Y01059232D01*
X00661382Y01059134D01*
X00661058Y01059008D01*
X00660726Y01058855D01*
X00660385Y01058673D01*
X00659676Y01058226D01*
X00659308Y01057961D01*
Y01063040D01*
X00659676Y01062775D01*
D02*
G37*
G36*
X00638290Y01041111D02*
X00638212Y01040920D01*
X00638202Y01040692D01*
X00638262Y01040425D01*
X00638392Y01040121D01*
X00638592Y01039779D01*
X00638861Y01039399D01*
X00639200Y01038981D01*
X00640086Y01038031D01*
X00637970Y01036915D01*
X00637520Y01037348D01*
X00636706Y01038036D01*
X00636340Y01038290D01*
X00636003Y01038484D01*
X00635694Y01038619D01*
X00635413Y01038694D01*
X00635159Y01038710D01*
X00634934Y01038665D01*
X00634737Y01038562D01*
X00638439Y01041264D01*
X00638290Y01041111D01*
D02*
G37*
D10*
X00779750Y00911500D02*
D03*
X00796750D02*
D03*
Y00962500D02*
D03*
X00779750D02*
D03*
D11*
X00675500Y00785001D02*
D03*
X00658500D02*
D03*
X00692500Y00835001D02*
D03*
X00675500D02*
D03*
X00699500Y01000001D02*
D03*
X00716500D02*
D03*
X00528500D02*
D03*
X00511500D02*
D03*
X00692500Y00875001D02*
D03*
X00675500D02*
D03*
X00523500Y00874000D02*
D03*
X00540500D02*
D03*
X00692500Y00855001D02*
D03*
X00675500D02*
D03*
X00699500Y01020001D02*
D03*
X00716500D02*
D03*
X00528500D02*
D03*
X00511500D02*
D03*
X00523500Y00854000D02*
D03*
X00540500D02*
D03*
X00692500Y00815001D02*
D03*
X00675500D02*
D03*
D12*
X00618253Y00873851D02*
D03*
X00623910Y00868195D02*
D03*
X00629566Y00862538D02*
D03*
X00635224Y00856881D02*
D03*
X00640881Y00851224D02*
D03*
X00646537Y00845567D02*
D03*
X00652194Y00839911D02*
D03*
X00657851Y00834253D02*
D03*
X00597747Y00774149D02*
D03*
X00592090Y00779806D02*
D03*
X00586433Y00785463D02*
D03*
X00580776Y00791120D02*
D03*
X00575120Y00796777D02*
D03*
X00569462Y00802434D02*
D03*
X00563806Y00808091D02*
D03*
X00558149Y00813747D02*
D03*
D13*
X00657851D02*
D03*
X00652194Y00808091D02*
D03*
X00646537Y00802434D02*
D03*
X00640881Y00796776D02*
D03*
X00635224Y00791120D02*
D03*
X00629566Y00785463D02*
D03*
X00623910Y00779806D02*
D03*
X00618253Y00774149D02*
D03*
X00558149Y00834253D02*
D03*
X00563806Y00839910D02*
D03*
X00569462Y00845567D02*
D03*
X00575120Y00851224D02*
D03*
X00580776Y00856881D02*
D03*
X00586433Y00862538D02*
D03*
X00592090Y00868195D02*
D03*
X00597747Y00873851D02*
D03*
D14*
X00595000Y01043501D02*
D03*
Y01060500D02*
D03*
X00633000Y01043501D02*
D03*
Y01060500D02*
D03*
X00671000Y01043501D02*
D03*
Y01060500D02*
D03*
X00557000Y01043501D02*
D03*
Y01060500D02*
D03*
D15*
X00604500Y01023001D02*
D03*
X00585500D02*
D03*
X00595000Y01001000D02*
D03*
X00642500Y01023001D02*
D03*
X00623500D02*
D03*
X00633000Y01001000D02*
D03*
X00680500Y01023001D02*
D03*
X00661500D02*
D03*
X00671000Y01001000D02*
D03*
X00566500Y01023001D02*
D03*
X00547500D02*
D03*
X00557000Y01001000D02*
D03*
D16*
X00535989Y00821990D02*
D03*
X00548010Y00834011D02*
D03*
D17*
X00779750Y00911500D02*
Y00922528D01*
X00783082Y00925861D01*
Y00948182D01*
X00779750Y00951515D02*
X00783082Y00948182D01*
X00779750Y00951515D02*
Y00962500D01*
X00548010Y00834011D02*
X00552958D01*
X00553200Y00834253D01*
X00558149D01*
X00796750Y00911500D02*
Y00921512D01*
X00801750Y00926512D01*
Y00937000D01*
Y00947166D01*
X00796750Y00952166D02*
X00801750Y00947166D01*
X00796750Y00952166D02*
Y00962500D01*
X00658800Y00975100D02*
Y01006018D01*
X00664972Y01012190D01*
X00595000Y00998982D02*
Y01001000D01*
X00523500Y00854000D02*
X00524764D01*
X00675500Y00835001D02*
Y00836349D01*
X00660146Y00864108D02*
X00669290Y00854964D01*
X00675500D02*
Y00855001D01*
X00540500Y00854000D02*
X00560578D01*
X00591868Y00868195D02*
X00592090D01*
X00597571Y00873851D02*
X00597747D01*
X00716500Y00951992D02*
Y01000001D01*
X00689864Y00815001D02*
X00692500D01*
X00657402Y01060500D02*
X00671000D01*
X00552450Y00784860D02*
X00564896Y00772414D01*
X00569462Y00844639D02*
Y00845567D01*
X00580776Y00856881D02*
X00588216Y00849442D01*
X00592771D01*
X00557000Y01060450D02*
Y01060500D01*
X00675386Y00800100D02*
X00675500Y00800214D01*
Y00815001D01*
X00524764Y00833882D02*
Y00854000D01*
X00669290Y00854964D02*
X00675500D01*
X00557000Y01060450D02*
X00567690D01*
X00627379Y00810277D02*
Y00822960D01*
Y00810277D02*
X00640881Y00796776D01*
X00658500Y00785001D02*
X00666769Y00776732D01*
X00640881Y00796776D02*
X00652655Y00785001D01*
X00658500D01*
X00773430Y00930910D02*
X00774750D01*
Y00937000D01*
X00661500Y01020656D02*
Y01023001D01*
X00653034Y01012190D02*
X00661500Y01020656D01*
X00577850Y01012190D02*
X00585500Y01019840D01*
Y01023001D01*
Y01019780D02*
Y01023001D01*
Y01019780D02*
X00593090Y01012190D01*
X00547500Y01019680D02*
Y01023001D01*
Y01019680D02*
X00554990Y01012190D01*
X00577850D01*
X00593090D02*
X00615950D01*
X00623500Y01019740D01*
Y01023001D01*
Y01019880D02*
Y01023001D01*
Y01019880D02*
X00631190Y01012190D01*
X00653034D01*
X00569462Y00844639D02*
X00573362Y00840740D01*
X00589280Y00822960D02*
X00596900Y00830580D01*
X00684022Y00827532D02*
X00691491Y00835001D01*
X00692500D01*
X00675500Y00785001D02*
X00684022Y00793523D01*
X00560578Y00854000D02*
X00579068Y00872490D01*
X00587573D01*
X00591868Y00868195D01*
X00591312Y00880110D02*
X00597571Y00873851D01*
X00540500Y00874000D02*
X00546609Y00880110D01*
X00591312D01*
X00618253Y00873851D02*
X00625168Y00880767D01*
X00648970Y00887730D02*
Y00906272D01*
X00643382Y00891540D02*
Y00906272D01*
X00648970D02*
X00653796Y00911098D01*
X00688848D01*
X00700167Y00899779D01*
X00643382Y00906272D02*
X00652780Y00915670D01*
X00732919D01*
X00779750Y00962500D01*
X00625168Y00880767D02*
X00632609D01*
X00643382Y00891540D01*
X00623910Y00868195D02*
X00625425D01*
X00636065Y00878834D01*
X00674376D01*
X00675500Y00877710D01*
X00639481Y00861139D02*
X00650710D01*
X00675500Y00836349D01*
X00635224Y00856881D02*
X00640334Y00861992D01*
Y00872490D01*
X00591865Y00768267D02*
X00597747Y00774149D01*
X00564896Y00772414D02*
X00584698D01*
X00592090Y00779806D01*
X00708660Y00969772D02*
Y01012160D01*
X00716500Y01020001D01*
X00568198Y00778256D02*
X00579226D01*
X00586433Y00785463D01*
X00575786Y00786130D02*
X00580776Y00791120D01*
X00509524Y00870712D02*
Y00951992D01*
X00514350Y00862330D02*
Y00882650D01*
X00520700Y00889000D01*
X00560578Y00786130D02*
X00575786D01*
X00561848Y00791972D02*
X00570315D01*
X00558800Y00795020D02*
X00561848Y00791972D01*
X00569462Y00802434D02*
X00573720Y00806692D01*
X00610121D01*
X00625176Y01068324D02*
X00633000Y01060500D01*
X00491490Y00999990D02*
X00511500Y01020001D01*
X00555423Y00811022D02*
X00558149Y00813747D01*
X00503682Y00873760D02*
Y00992182D01*
X00511500Y01000001D01*
X00531800Y00898900D02*
X00571500Y00938601D01*
X00542727Y00884428D02*
X00557200Y00898900D01*
X00523500Y00874000D02*
X00533928Y00884428D01*
X00542727D01*
X00647700Y00886460D02*
X00648970Y00887730D01*
X00692500Y00855001D02*
X00700167Y00862668D01*
Y00899779D01*
X00633400Y00898900D02*
Y00903910D01*
X00671000Y00941510D01*
Y01001000D01*
X00658800Y00898900D02*
X00672510Y00885190D01*
X00682310D01*
X00692500Y00875001D01*
X00528500Y01000001D02*
X00531800Y00996701D01*
Y00975100D02*
Y00996701D01*
X00557000Y00975300D02*
X00557200Y00975100D01*
X00557000Y00975300D02*
Y01001000D01*
X00584962Y00998982D02*
X00595000D01*
X00571500Y00938601D02*
Y00985520D01*
X00584962Y00998982D01*
X00528500Y01015820D02*
Y01020001D01*
Y01015820D02*
X00544830Y00999490D01*
X00633000Y00975500D02*
X00633400Y00975100D01*
X00633000Y00975500D02*
Y01001000D01*
X00691689Y01012190D02*
X00699500Y01020001D01*
X00664972Y01012190D02*
X00691689D01*
X00684200Y00975100D02*
Y00984701D01*
X00699500Y01000001D01*
X00671000Y01043501D02*
X00680500Y01034000D01*
Y01023001D02*
Y01034000D01*
X00633000Y01043501D02*
X00642500Y01034000D01*
Y01023001D02*
Y01034000D01*
X00595000Y01043501D02*
X00604500Y01034001D01*
Y01023001D02*
Y01034001D01*
X00557000Y01043501D02*
X00566500Y01034001D01*
Y01023001D02*
Y01034001D01*
X00683167Y00778397D02*
Y00782227D01*
X00681503Y00776732D02*
X00683167Y00778397D01*
X00666769Y00776732D02*
X00681503D01*
X00491490Y00843026D02*
Y00999990D01*
X00556006Y00790702D02*
X00560578Y00786130D01*
X00514137Y00823468D02*
X00514150D01*
X00509016Y00819658D02*
X00512572D01*
X00514150Y00823468D02*
X00526596Y00811022D01*
X00555423D01*
X00512572Y00819658D02*
X00537210Y00795020D01*
X00558800D01*
X00535178Y00790702D02*
X00556006D01*
X00512064Y00813816D02*
X00535178Y00790702D01*
X00551263Y00768267D02*
X00591865D01*
X00503174Y00817238D02*
X00506596Y00813816D01*
X00499364Y00815660D02*
X00505018Y00810006D01*
X00509524D01*
X00551263Y00768267D01*
X00506596Y00813816D02*
X00512064D01*
X00614680Y00847651D02*
X00629566Y00862538D01*
X00575120Y00851224D02*
X00583826Y00842518D01*
X00591058D01*
X00614680Y00845820D02*
Y00847651D01*
X00596900Y00830580D02*
Y00845312D01*
X00592771Y00849442D02*
X00596900Y00845312D01*
X00589280Y00822960D02*
Y00828040D01*
X00573405Y00843915D02*
X00589280Y00828040D01*
X00573136Y00830580D02*
X00577257D01*
X00563806Y00839910D02*
X00573136Y00830580D01*
X00563806Y00808091D02*
X00570410Y00814695D01*
Y00817758D01*
X00607568Y00784834D02*
X00618253Y00774149D01*
X00499364Y00860552D02*
X00509524Y00870712D01*
X00503174Y00851154D02*
X00514350Y00862330D01*
X00509016Y00828589D02*
X00514137Y00823468D01*
X00499364Y00815660D02*
Y00860552D01*
X00503174Y00817238D02*
Y00851154D01*
X00509016Y00828589D02*
Y00846836D01*
X00548894Y01068324D02*
X00625176D01*
X00520700Y00889000D02*
Y01040130D01*
X00548894Y01068324D01*
X00542750Y01051000D02*
X00542918Y01051168D01*
X00585667D01*
X00595000Y01060500D01*
X00684022Y00793523D02*
Y00827532D01*
X00689864Y00815001D02*
X00693865Y00811000D01*
X00704000D01*
X00683167Y00782227D02*
X00706098Y00805158D01*
X00706420D01*
X00709842Y00808580D01*
Y00867322D01*
X00773430Y00930910D01*
X00692500Y00835001D02*
X00702000Y00825501D01*
Y00825000D02*
Y00825501D01*
X00535000Y00822980D02*
X00535989Y00821990D01*
X00535000Y00822980D02*
Y00835000D01*
X00613000Y00790716D02*
Y00793000D01*
Y00790716D02*
X00623910Y00779806D01*
X00610121Y00806692D02*
X00619812Y00797000D01*
X00622000D01*
D18*
X00586433Y00862538D02*
X00602742Y00846229D01*
Y00840232D02*
Y00846229D01*
Y00840232D02*
X00620014Y00822960D01*
X00627379D01*
D19*
X00774750Y00937000D02*
D03*
X00801750D02*
D03*
D20*
X00531800Y00898900D02*
D03*
X00557200D02*
D03*
X00582600D02*
D03*
X00608000D02*
D03*
X00633400D02*
D03*
X00658800D02*
D03*
X00684200D02*
D03*
Y00975100D02*
D03*
X00658800D02*
D03*
X00633400D02*
D03*
X00608000D02*
D03*
X00582600D02*
D03*
X00557200D02*
D03*
X00531800D02*
D03*
D21*
X00627379Y00822960D02*
D03*
X00589280D02*
D03*
D22*
X00518000Y01092000D02*
D03*
X00698000D02*
D03*
Y00782000D02*
D03*
X00518000D02*
D03*
D23*
X00524764Y00833882D02*
D03*
X00660146Y00864108D02*
D03*
X00544830Y00999490D02*
D03*
X00716500Y00951992D02*
D03*
X00653034Y01012190D02*
D03*
X00509016Y00819658D02*
D03*
X00503682Y00873760D02*
D03*
X00568198Y00778256D02*
D03*
X00657402Y01060500D02*
D03*
X00552450Y00784860D02*
D03*
X00509524Y00951992D02*
D03*
X00640334Y00872490D02*
D03*
X00708660Y00969772D02*
D03*
X00567690Y01060450D02*
D03*
X00675386Y00800100D02*
D03*
X00647700Y00886460D02*
D03*
X00491490Y00843026D02*
D03*
X00591058Y00842518D02*
D03*
X00614680Y00845820D02*
D03*
X00602742Y00840232D02*
D03*
X00577257Y00830580D02*
D03*
X00570410Y00817758D02*
D03*
X00607568Y00784834D02*
D03*
X00509016Y00846836D02*
D03*
X00542750Y01051000D02*
D03*
X00704000Y00811000D02*
D03*
X00702000Y00825000D02*
D03*
X00535000Y00835000D02*
D03*
X00613000Y00793000D02*
D03*
X00622000Y00797000D02*
D03*
M02*
