G04 Layer_Color=65535*
%FSAX44Y44*%
%MOMM*%
G71*
G01*
G75*
%ADD25C,0.2000*%
%ADD26C,0.1270*%
%ADD39C,0.2540*%
%ADD40C,0.5000*%
%ADD41C,0.2500*%
%ADD42C,0.1000*%
G36*
X00480891Y00953765D02*
X00481335Y00953691D01*
X00481761Y00953580D01*
X00482168Y00953431D01*
X00482539Y00953265D01*
X00482890Y00953080D01*
X00483205Y00952876D01*
X00483501Y00952672D01*
X00483761Y00952469D01*
X00483983Y00952265D01*
X00484168Y00952080D01*
X00484335Y00951913D01*
X00484464Y00951765D01*
X00484557Y00951654D01*
X00484612Y00951580D01*
X00484631Y00951561D01*
X00484853Y00951932D01*
X00485112Y00952246D01*
X00485390Y00952524D01*
X00485668Y00952746D01*
X00485909Y00952932D01*
X00486112Y00953043D01*
X00486186Y00953098D01*
X00486242Y00953135D01*
X00486279Y00953154D01*
X00486297D01*
X00486742Y00953339D01*
X00487205Y00953487D01*
X00487631Y00953580D01*
X00488038Y00953654D01*
X00488223Y00953672D01*
X00488390Y00953691D01*
X00488538Y00953709D01*
X00488668Y00953728D01*
X00488908D01*
X00489205Y00953709D01*
X00489482Y00953672D01*
X00489742Y00953635D01*
X00489964Y00953580D01*
X00490149Y00953505D01*
X00490279Y00953468D01*
X00490371Y00953431D01*
X00490408Y00953413D01*
X00490667Y00953283D01*
X00490908Y00953154D01*
X00491112Y00953006D01*
X00491297Y00952876D01*
X00491445Y00952746D01*
X00491556Y00952654D01*
X00491630Y00952580D01*
X00491649Y00952561D01*
X00491834Y00952357D01*
X00492019Y00952135D01*
X00492167Y00951932D01*
X00492297Y00951747D01*
X00492389Y00951580D01*
X00492482Y00951432D01*
X00492519Y00951358D01*
X00492537Y00951321D01*
X00492667Y00951061D01*
X00492760Y00950802D01*
X00492852Y00950561D01*
X00492908Y00950339D01*
X00492945Y00950135D01*
X00492982Y00949987D01*
X00493000Y00949895D01*
Y00949858D01*
Y00943488D01*
X00492945Y00943192D01*
X00492871Y00942914D01*
X00492797Y00942655D01*
X00492723Y00942433D01*
X00492649Y00942229D01*
X00492575Y00942099D01*
X00492537Y00942007D01*
X00492519Y00941970D01*
X00492389Y00941711D01*
X00492241Y00941488D01*
X00492075Y00941266D01*
X00491945Y00941099D01*
X00491815Y00940951D01*
X00491723Y00940840D01*
X00491649Y00940766D01*
X00491630Y00940748D01*
X00491427Y00940562D01*
X00491204Y00940396D01*
X00491001Y00940266D01*
X00490816Y00940155D01*
X00490649Y00940062D01*
X00490501Y00939988D01*
X00490427Y00939951D01*
X00490390Y00939933D01*
X00490130Y00939840D01*
X00489871Y00939766D01*
X00489612Y00939711D01*
X00489390Y00939674D01*
X00489205Y00939655D01*
X00489038Y00939637D01*
X00488908D01*
X00488390Y00939655D01*
X00487890Y00939729D01*
X00487445Y00939822D01*
X00487057Y00939914D01*
X00486890Y00939970D01*
X00486742Y00940025D01*
X00486612Y00940062D01*
X00486501Y00940099D01*
X00486409Y00940136D01*
X00486353Y00940174D01*
X00486316Y00940192D01*
X00486297D01*
X00485890Y00940414D01*
X00485557Y00940674D01*
X00485261Y00940933D01*
X00485038Y00941192D01*
X00484853Y00941433D01*
X00484724Y00941618D01*
X00484687Y00941692D01*
X00484650Y00941748D01*
X00484631Y00941766D01*
Y00941785D01*
X00484316Y00941396D01*
X00483983Y00941062D01*
X00483631Y00940766D01*
X00483279Y00940507D01*
X00482927Y00940303D01*
X00482576Y00940118D01*
X00482242Y00939970D01*
X00481909Y00939859D01*
X00481594Y00939766D01*
X00481316Y00939692D01*
X00481057Y00939655D01*
X00480835Y00939618D01*
X00480668Y00939600D01*
X00480520Y00939581D01*
X00480409D01*
X00480020Y00939600D01*
X00479650Y00939637D01*
X00479335Y00939692D01*
X00479039Y00939766D01*
X00478817Y00939822D01*
X00478632Y00939877D01*
X00478521Y00939914D01*
X00478502Y00939933D01*
X00478483D01*
X00478187Y00940081D01*
X00477909Y00940229D01*
X00477650Y00940396D01*
X00477447Y00940562D01*
X00477261Y00940711D01*
X00477132Y00940822D01*
X00477058Y00940896D01*
X00477021Y00940933D01*
X00476798Y00941192D01*
X00476613Y00941451D01*
X00476465Y00941692D01*
X00476335Y00941933D01*
X00476224Y00942136D01*
X00476150Y00942303D01*
X00476113Y00942414D01*
X00476095Y00942433D01*
Y00942451D01*
X00475984Y00942784D01*
X00475910Y00943136D01*
X00475854Y00943451D01*
X00475817Y00943766D01*
X00475798Y00944007D01*
X00475780Y00944210D01*
Y00944284D01*
Y00944340D01*
Y00944377D01*
Y00944395D01*
Y00948951D01*
X00475798Y00949339D01*
X00475836Y00949691D01*
X00475891Y00950024D01*
X00475947Y00950321D01*
X00476002Y00950561D01*
X00476058Y00950747D01*
X00476076Y00950802D01*
X00476095Y00950858D01*
X00476113Y00950876D01*
Y00950895D01*
X00476243Y00951228D01*
X00476410Y00951524D01*
X00476558Y00951784D01*
X00476706Y00952006D01*
X00476854Y00952191D01*
X00476965Y00952320D01*
X00477039Y00952394D01*
X00477058Y00952432D01*
X00477298Y00952654D01*
X00477539Y00952858D01*
X00477798Y00953024D01*
X00478021Y00953154D01*
X00478224Y00953265D01*
X00478372Y00953357D01*
X00478483Y00953394D01*
X00478521Y00953413D01*
X00478854Y00953543D01*
X00479187Y00953635D01*
X00479502Y00953691D01*
X00479798Y00953746D01*
X00480039Y00953765D01*
X00480243Y00953783D01*
X00480409D01*
X00480891Y00953765D01*
D02*
G37*
G36*
X00510225Y00881294D02*
X00510207Y00880887D01*
X00510170Y00880517D01*
X00510096Y00880165D01*
X00510040Y00879869D01*
X00509966Y00879628D01*
X00509892Y00879443D01*
X00509874Y00879369D01*
X00509855Y00879313D01*
X00509837Y00879295D01*
Y00879276D01*
X00509670Y00878943D01*
X00509503Y00878646D01*
X00509318Y00878387D01*
X00509151Y00878165D01*
X00508985Y00877980D01*
X00508855Y00877850D01*
X00508781Y00877776D01*
X00508744Y00877739D01*
X00508466Y00877517D01*
X00508189Y00877313D01*
X00507892Y00877147D01*
X00507633Y00877017D01*
X00507392Y00876906D01*
X00507207Y00876832D01*
X00507133Y00876795D01*
X00507078Y00876776D01*
X00507059Y00876758D01*
X00507041D01*
X00506670Y00876647D01*
X00506281Y00876573D01*
X00505930Y00876499D01*
X00505596Y00876462D01*
X00505300Y00876443D01*
X00505170D01*
X00505078Y00876424D01*
X00504874D01*
X00504245Y00876462D01*
X00503652Y00876536D01*
X00503134Y00876647D01*
X00502893Y00876721D01*
X00502671Y00876795D01*
X00502486Y00876850D01*
X00502319Y00876925D01*
X00502152Y00876980D01*
X00502041Y00877036D01*
X00501930Y00877073D01*
X00501856Y00877110D01*
X00501819Y00877147D01*
X00501800D01*
X00501578Y00877276D01*
X00501375Y00877406D01*
X00501189Y00877517D01*
X00501023Y00877628D01*
X00500893Y00877721D01*
X00500801Y00877795D01*
X00500745Y00877832D01*
X00500726Y00877850D01*
X00500430Y00878165D01*
X00500319Y00878332D01*
X00500208Y00878480D01*
X00500134Y00878609D01*
X00500078Y00878721D01*
X00500041Y00878795D01*
X00500023Y00878813D01*
X00499930Y00879054D01*
X00499838Y00879295D01*
X00499764Y00879517D01*
X00499708Y00879758D01*
X00499671Y00879943D01*
X00499634Y00880109D01*
X00499615Y00880202D01*
Y00880239D01*
X00499578Y00880572D01*
X00499560Y00880906D01*
X00499523Y00881257D01*
Y00881572D01*
X00499504Y00881850D01*
Y00881980D01*
Y00882072D01*
Y00882165D01*
Y00882220D01*
Y00882257D01*
Y00882276D01*
Y00884072D01*
Y00884294D01*
Y00884461D01*
Y00884535D01*
Y00884590D01*
Y00884609D01*
Y00884627D01*
Y00884794D01*
X00499523Y00884905D01*
Y00884998D01*
Y00885016D01*
X00499467Y00885312D01*
X00499412Y00885553D01*
X00499338Y00885775D01*
X00499245Y00885942D01*
X00499171Y00886072D01*
X00499097Y00886183D01*
X00499060Y00886238D01*
X00499041Y00886257D01*
X00498893Y00886405D01*
X00498745Y00886516D01*
X00498597Y00886590D01*
X00498467Y00886646D01*
X00498356Y00886683D01*
X00498264Y00886701D01*
X00498171D01*
X00497967Y00886683D01*
X00497782Y00886627D01*
X00497616Y00886553D01*
X00497486Y00886460D01*
X00497375Y00886368D01*
X00497301Y00886294D01*
X00497245Y00886238D01*
X00497227Y00886220D01*
X00497116Y00886035D01*
X00497023Y00885831D01*
X00496968Y00885627D01*
X00496912Y00885442D01*
X00496894Y00885275D01*
X00496875Y00885146D01*
Y00885053D01*
Y00885016D01*
Y00876424D01*
X00493005D01*
Y00885683D01*
X00493023Y00886109D01*
X00493061Y00886498D01*
X00493116Y00886831D01*
X00493190Y00887146D01*
X00493264Y00887386D01*
X00493320Y00887571D01*
X00493338Y00887646D01*
X00493357Y00887701D01*
X00493375Y00887720D01*
Y00887738D01*
X00493523Y00888072D01*
X00493709Y00888368D01*
X00493875Y00888645D01*
X00494061Y00888868D01*
X00494209Y00889053D01*
X00494338Y00889183D01*
X00494412Y00889257D01*
X00494449Y00889294D01*
X00494727Y00889516D01*
X00495023Y00889719D01*
X00495320Y00889886D01*
X00495579Y00890016D01*
X00495820Y00890127D01*
X00496005Y00890219D01*
X00496079Y00890238D01*
X00496134Y00890256D01*
X00496153Y00890275D01*
X00496171D01*
X00496560Y00890386D01*
X00496949Y00890479D01*
X00497319Y00890534D01*
X00497653Y00890590D01*
X00497949Y00890608D01*
X00498079D01*
X00498190Y00890627D01*
X00498393D01*
X00498856Y00890608D01*
X00499301Y00890571D01*
X00499708Y00890497D01*
X00500097Y00890423D01*
X00500449Y00890312D01*
X00500782Y00890164D01*
X00501097Y00890016D01*
X00501375Y00889849D01*
X00501634Y00889682D01*
X00501875Y00889479D01*
X00502097Y00889275D01*
X00502300Y00889071D01*
X00502486Y00888849D01*
X00502634Y00888608D01*
X00502911Y00888164D01*
X00503134Y00887701D01*
X00503282Y00887257D01*
X00503411Y00886831D01*
X00503485Y00886460D01*
X00503522Y00886146D01*
X00503541Y00886016D01*
Y00885905D01*
X00503559Y00885813D01*
Y00885738D01*
Y00885701D01*
Y00885683D01*
Y00881757D01*
X00503578Y00881535D01*
X00503615Y00881350D01*
X00503671Y00881165D01*
X00503745Y00881017D01*
X00503819Y00880887D01*
X00503874Y00880795D01*
X00503911Y00880739D01*
X00503930Y00880720D01*
X00504078Y00880572D01*
X00504226Y00880480D01*
X00504393Y00880406D01*
X00504541Y00880350D01*
X00504670Y00880313D01*
X00504782Y00880294D01*
X00504874D01*
X00505115Y00880313D01*
X00505318Y00880350D01*
X00505485Y00880424D01*
X00505652Y00880517D01*
X00505782Y00880628D01*
X00505874Y00880757D01*
X00505967Y00880887D01*
X00506041Y00881035D01*
X00506133Y00881294D01*
X00506189Y00881535D01*
X00506207Y00881628D01*
Y00881702D01*
Y00881739D01*
Y00881757D01*
X00506170Y00888701D01*
X00510225Y00890627D01*
Y00881294D01*
D02*
G37*
G36*
X00493000Y00934100D02*
X00482224Y00930508D01*
X00493000Y00926916D01*
Y00922601D01*
X00482224Y00919028D01*
X00493000Y00915435D01*
Y00911140D01*
X00475780Y00916880D01*
Y00921194D01*
X00486538Y00924768D01*
X00475780Y00928360D01*
Y00932674D01*
X00493000Y00938415D01*
Y00934100D01*
D02*
G37*
G36*
X00493000Y00976485D02*
X00492982Y00975855D01*
X00492908Y00975263D01*
X00492797Y00974744D01*
X00492741Y00974504D01*
X00492686Y00974281D01*
X00492612Y00974078D01*
X00492556Y00973893D01*
X00492500Y00973726D01*
X00492463Y00973596D01*
X00492408Y00973504D01*
X00492389Y00973411D01*
X00492352Y00973374D01*
Y00973356D01*
X00492093Y00972856D01*
X00491815Y00972393D01*
X00491519Y00971985D01*
X00491223Y00971634D01*
X00490964Y00971356D01*
X00490853Y00971245D01*
X00490760Y00971152D01*
X00490686Y00971078D01*
X00490630Y00971004D01*
X00490593Y00970985D01*
X00490575Y00970967D01*
X00490130Y00970615D01*
X00489667Y00970300D01*
X00489204Y00970041D01*
X00488779Y00969819D01*
X00488593Y00969726D01*
X00488408Y00969634D01*
X00488242Y00969578D01*
X00488112Y00969523D01*
X00487982Y00969467D01*
X00487908Y00969430D01*
X00487853Y00969411D01*
X00487834D01*
X00487223Y00969226D01*
X00486594Y00969097D01*
X00486001Y00969004D01*
X00485723Y00968967D01*
X00485464Y00968949D01*
X00485224Y00968912D01*
X00485001D01*
X00484798Y00968893D01*
X00484631Y00968875D01*
X00483983D01*
X00483631Y00968912D01*
X00483261Y00968930D01*
X00482890Y00968967D01*
X00482576Y00969004D01*
X00482427Y00969023D01*
X00482298D01*
X00482205Y00969041D01*
X00482131Y00969060D01*
X00482057D01*
X00481687Y00969115D01*
X00481316Y00969208D01*
X00480983Y00969300D01*
X00480668Y00969393D01*
X00480428Y00969486D01*
X00480224Y00969560D01*
X00480150Y00969597D01*
X00480094Y00969615D01*
X00480076Y00969634D01*
X00480057D01*
X00479706Y00969819D01*
X00479372Y00970004D01*
X00479076Y00970189D01*
X00478817Y00970356D01*
X00478595Y00970523D01*
X00478428Y00970634D01*
X00478317Y00970708D01*
X00478298Y00970745D01*
X00478280D01*
X00477984Y00971004D01*
X00477724Y00971263D01*
X00477483Y00971504D01*
X00477280Y00971745D01*
X00477113Y00971930D01*
X00477002Y00972096D01*
X00476909Y00972189D01*
X00476891Y00972226D01*
X00476687Y00972541D01*
X00476521Y00972856D01*
X00476391Y00973152D01*
X00476280Y00973411D01*
X00476206Y00973633D01*
X00476150Y00973819D01*
X00476132Y00973930D01*
X00476113Y00973948D01*
Y00973967D01*
X00476058Y00974226D01*
X00476002Y00974467D01*
X00475965Y00974670D01*
X00475928Y00974855D01*
X00475891Y00974985D01*
X00475873Y00975096D01*
X00475854Y00975152D01*
Y00975170D01*
X00475835Y00975337D01*
X00475817Y00975467D01*
X00475798Y00975578D01*
Y00975670D01*
X00475780Y00975744D01*
Y00975781D01*
Y00975818D01*
Y00983169D01*
X00479835D01*
Y00976226D01*
X00479854Y00975948D01*
X00479891Y00975670D01*
X00479965Y00975429D01*
X00480076Y00975189D01*
X00480205Y00974985D01*
X00480335Y00974781D01*
X00480502Y00974596D01*
X00480687Y00974411D01*
X00481113Y00974115D01*
X00481576Y00973856D01*
X00482076Y00973652D01*
X00482594Y00973485D01*
X00483094Y00973356D01*
X00483594Y00973263D01*
X00484057Y00973189D01*
X00484483Y00973152D01*
X00484668Y00973133D01*
X00484835Y00973115D01*
X00484983D01*
X00485094Y00973096D01*
X00485409D01*
X00485501Y00973115D01*
X00485723Y00973152D01*
X00486001Y00973207D01*
X00486279Y00973281D01*
X00486557Y00973356D01*
X00486779Y00973411D01*
X00486871Y00973430D01*
X00486945Y00973448D01*
X00486982Y00973467D01*
X00487001D01*
X00487223Y00973559D01*
X00487427Y00973670D01*
X00487501Y00973726D01*
X00487575Y00973763D01*
X00487612Y00973781D01*
X00487631Y00973800D01*
X00487890Y00974004D01*
X00488093Y00974189D01*
X00488168Y00974263D01*
X00488223Y00974318D01*
X00488260Y00974355D01*
X00488279Y00974374D01*
X00488482Y00974615D01*
X00488630Y00974837D01*
X00488686Y00974930D01*
X00488723Y00975004D01*
X00488760Y00975041D01*
Y00975059D01*
X00488871Y00975318D01*
X00488927Y00975522D01*
X00488945Y00975596D01*
Y00975652D01*
Y00975689D01*
Y00975707D01*
Y00981207D01*
X00493000Y00983188D01*
Y00976485D01*
D02*
G37*
G36*
Y00993539D02*
X00486390D01*
Y00987928D01*
X00493000D01*
Y00983929D01*
X00475780D01*
Y00987873D01*
X00482390D01*
Y00991835D01*
X00485131Y00993520D01*
X00475780D01*
Y00997575D01*
X00493000D01*
Y00993539D01*
D02*
G37*
G36*
X00510225Y00906273D02*
X00499449Y00902681D01*
X00510225Y00899089D01*
Y00891923D01*
X00493005D01*
Y00896237D01*
X00505911D01*
X00493005Y00900533D01*
Y00904829D01*
X00505911Y00909143D01*
X00493005D01*
Y00913458D01*
X00510225D01*
Y00906273D01*
D02*
G37*
G36*
X00499078Y00941566D02*
X00499115Y00941621D01*
X00499152Y00941658D01*
X00499171Y00941696D01*
X00499227Y00941751D01*
X00499245Y00941788D01*
X00499393Y00942084D01*
X00499541Y00942362D01*
X00499689Y00942603D01*
X00499819Y00942825D01*
X00499949Y00942992D01*
X00500041Y00943121D01*
X00500097Y00943214D01*
X00500115Y00943232D01*
X00500300Y00943455D01*
X00500504Y00943658D01*
X00500689Y00943844D01*
X00500856Y00943992D01*
X00501023Y00944103D01*
X00501134Y00944195D01*
X00501208Y00944251D01*
X00501245Y00944269D01*
X00501486Y00944417D01*
X00501745Y00944547D01*
X00501986Y00944658D01*
X00502226Y00944732D01*
X00502411Y00944806D01*
X00502578Y00944843D01*
X00502671Y00944880D01*
X00502708D01*
X00503022Y00944955D01*
X00503337Y00944992D01*
X00503652Y00945029D01*
X00503948Y00945066D01*
X00504208D01*
X00504393Y00945084D01*
X00504578D01*
X00504985Y00945066D01*
X00505374Y00945029D01*
X00505744Y00944955D01*
X00506059Y00944899D01*
X00506318Y00944825D01*
X00506541Y00944751D01*
X00506615Y00944732D01*
X00506670Y00944714D01*
X00506689Y00944695D01*
X00506707D01*
X00507078Y00944547D01*
X00507429Y00944380D01*
X00507744Y00944214D01*
X00508004Y00944047D01*
X00508226Y00943899D01*
X00508392Y00943788D01*
X00508485Y00943714D01*
X00508522Y00943677D01*
X00508800Y00943418D01*
X00509040Y00943158D01*
X00509263Y00942899D01*
X00509429Y00942658D01*
X00509577Y00942436D01*
X00509670Y00942270D01*
X00509744Y00942159D01*
X00509762Y00942140D01*
Y00942121D01*
X00509911Y00941788D01*
X00510022Y00941455D01*
X00510114Y00941122D01*
X00510170Y00940844D01*
X00510207Y00940585D01*
X00510225Y00940381D01*
Y00940307D01*
Y00940251D01*
Y00940233D01*
Y00940214D01*
Y00930956D01*
X00493005D01*
Y00935030D01*
X00501634D01*
X00493005Y00940677D01*
Y00945306D01*
X00499078Y00941566D01*
D02*
G37*
G36*
X00510221Y00947875D02*
X00502259D01*
Y00957096D01*
X00475780D01*
Y00965317D01*
X00502259D01*
Y00972835D01*
X00510221Y00976797D01*
Y00947875D01*
D02*
G37*
G36*
X00499930Y00926919D02*
X00510225D01*
Y00921957D01*
X00499912Y00915180D01*
X00495875Y00917087D01*
Y00922605D01*
X00493005D01*
Y00926919D01*
X00495875D01*
Y00929530D01*
X00499930D01*
Y00926919D01*
D02*
G37*
%LPC*%
G36*
X00504541Y00941214D02*
X00504430D01*
X00504226Y00941196D01*
X00504022Y00941159D01*
X00503948Y00941122D01*
X00503893Y00941103D01*
X00503856Y00941085D01*
X00503837D01*
X00503615Y00940992D01*
X00503430Y00940881D01*
X00503356Y00940844D01*
X00503300Y00940807D01*
X00503282Y00940788D01*
X00503263Y00940770D01*
X00503097Y00940603D01*
X00502948Y00940455D01*
X00502874Y00940344D01*
X00502837Y00940307D01*
Y00940288D01*
X00502745Y00940085D01*
X00502689Y00939918D01*
Y00939844D01*
X00502671Y00939788D01*
Y00939751D01*
Y00939733D01*
Y00935011D01*
X00506226D01*
Y00939566D01*
X00506207Y00939807D01*
X00506133Y00940029D01*
X00506059Y00940233D01*
X00505948Y00940399D01*
X00505855Y00940547D01*
X00505763Y00940640D01*
X00505689Y00940714D01*
X00505670Y00940733D01*
X00505467Y00940899D01*
X00505244Y00941010D01*
X00505041Y00941103D01*
X00504856Y00941159D01*
X00504689Y00941196D01*
X00504541Y00941214D01*
D02*
G37*
G36*
X00487853Y00949784D02*
X00487631D01*
X00487501Y00949747D01*
X00487279Y00949673D01*
X00487186Y00949636D01*
X00487112Y00949598D01*
X00487057Y00949580D01*
X00487038Y00949561D01*
X00486908Y00949487D01*
X00486797Y00949395D01*
X00486705Y00949321D01*
X00486649Y00949247D01*
X00486557Y00949136D01*
X00486520Y00949099D01*
Y00949080D01*
Y00944692D01*
X00482483Y00946617D01*
X00482446Y00948654D01*
X00482427Y00948821D01*
X00482390Y00948969D01*
X00482335Y00949062D01*
X00482316Y00949099D01*
X00482205Y00949247D01*
X00482094Y00949358D01*
X00482020Y00949432D01*
X00482002Y00949450D01*
X00481983D01*
X00481835Y00949543D01*
X00481687Y00949636D01*
X00481576Y00949673D01*
X00481557Y00949691D01*
X00481539D01*
X00481353Y00949747D01*
X00481205Y00949765D01*
X00481076Y00949784D01*
X00481039D01*
X00480854Y00949765D01*
X00480668Y00949728D01*
X00480502Y00949673D01*
X00480372Y00949617D01*
X00480243Y00949543D01*
X00480150Y00949487D01*
X00480094Y00949450D01*
X00480076Y00949432D01*
X00479928Y00949302D01*
X00479835Y00949154D01*
X00479761Y00949006D01*
X00479706Y00948876D01*
X00479669Y00948765D01*
X00479650Y00948673D01*
Y00948617D01*
Y00948599D01*
Y00944729D01*
X00479669Y00944562D01*
X00479706Y00944432D01*
X00479743Y00944321D01*
X00479761Y00944303D01*
Y00944284D01*
X00479872Y00944136D01*
X00479965Y00944025D01*
X00480039Y00943951D01*
X00480076Y00943914D01*
X00480224Y00943821D01*
X00480372Y00943747D01*
X00480483Y00943692D01*
X00480502Y00943673D01*
X00480520D01*
X00480705Y00943618D01*
X00480872Y00943599D01*
X00481002Y00943581D01*
X00481039D01*
X00481187Y00943599D01*
X00481316Y00943618D01*
X00481557Y00943692D01*
X00481650Y00943729D01*
X00481724Y00943766D01*
X00481779Y00943803D01*
X00481798D01*
X00481946Y00943895D01*
X00482057Y00943988D01*
X00482150Y00944081D01*
X00482224Y00944173D01*
X00482279Y00944247D01*
X00482316Y00944303D01*
X00482353Y00944340D01*
Y00944358D01*
X00486483D01*
X00486538Y00944247D01*
X00486594Y00944136D01*
X00486760Y00943951D01*
X00486853Y00943895D01*
X00486927Y00943840D01*
X00486964Y00943821D01*
X00486983Y00943803D01*
X00487131Y00943729D01*
X00487279Y00943673D01*
X00487408Y00943636D01*
X00487519Y00943618D01*
X00487631Y00943599D01*
X00487705Y00943581D01*
X00487760D01*
X00487964Y00943599D01*
X00488149Y00943636D01*
X00488316Y00943692D01*
X00488464Y00943766D01*
X00488593Y00943840D01*
X00488686Y00943895D01*
X00488742Y00943932D01*
X00488760Y00943951D01*
X00488908Y00944099D01*
X00489019Y00944247D01*
X00489094Y00944395D01*
X00489149Y00944544D01*
X00489186Y00944673D01*
X00489205Y00944766D01*
Y00944840D01*
Y00944858D01*
Y00948487D01*
X00489186Y00948673D01*
X00489131Y00948858D01*
X00489056Y00949006D01*
X00488982Y00949136D01*
X00488908Y00949247D01*
X00488834Y00949321D01*
X00488779Y00949376D01*
X00488760Y00949395D01*
X00488593Y00949525D01*
X00488408Y00949617D01*
X00488242Y00949691D01*
X00488094Y00949728D01*
X00487964Y00949765D01*
X00487853Y00949784D01*
D02*
G37*
G36*
X00503948Y00922605D02*
X00499930D01*
X00499912Y00919809D01*
X00503948Y00922605D01*
D02*
G37*
%LPD*%
D25*
X00575280Y00808960D02*
X00603280D01*
Y00836960D01*
X00575280D02*
X00603280D01*
X00575280Y00808960D02*
Y00836960D01*
X00613380Y00808960D02*
X00641380D01*
Y00836960D01*
X00613380D02*
X00641380D01*
X00613380Y00808960D02*
Y00836960D01*
X00547750Y00924250D02*
X00668250D01*
Y00949750D01*
X00547750D02*
X00668250D01*
X00547750Y00924250D02*
Y00949750D01*
D26*
X00624245Y00863248D02*
X00625494Y00864498D01*
X00627993D01*
X00629243Y00863248D01*
Y00858250D01*
X00627993Y00857000D01*
X00625494D01*
X00624245Y00858250D01*
X00621745Y00857000D02*
Y00864498D01*
X00617997D01*
X00616747Y00863248D01*
Y00860749D01*
X00617997Y00859499D01*
X00621745D01*
X00619246D02*
X00616747Y00857000D01*
X00609249D02*
X00614248D01*
X00609249Y00861998D01*
Y00863248D01*
X00610499Y00864498D01*
X00612998D01*
X00614248Y00863248D01*
X00606750D02*
X00605501Y00864498D01*
X00603001D01*
X00601752Y00863248D01*
Y00861998D01*
X00603001Y00860749D01*
X00604251D01*
X00603001D01*
X00601752Y00859499D01*
Y00858250D01*
X00603001Y00857000D01*
X00605501D01*
X00606750Y00858250D01*
X00599253Y00863248D02*
X00598003Y00864498D01*
X00595504D01*
X00594254Y00863248D01*
Y00861998D01*
X00595504Y00860749D01*
X00596753D01*
X00595504D01*
X00594254Y00859499D01*
Y00858250D01*
X00595504Y00857000D01*
X00598003D01*
X00599253Y00858250D01*
X00591755Y00863248D02*
X00590505Y00864498D01*
X00588006D01*
X00586757Y00863248D01*
Y00858250D01*
X00588006Y00857000D01*
X00590505D01*
X00591755Y00858250D01*
Y00863248D01*
X00648002Y00850248D02*
X00649251Y00851498D01*
X00651750D01*
X00653000Y00850248D01*
Y00845250D01*
X00651750Y00844000D01*
X00649251D01*
X00648002Y00845250D01*
Y00847749D01*
X00650501D01*
X00645502Y00844000D02*
Y00851498D01*
X00640504Y00844000D01*
Y00851498D01*
X00638005D02*
Y00844000D01*
X00634256D01*
X00633006Y00845250D01*
Y00850248D01*
X00634256Y00851498D01*
X00638005D01*
X00583000D02*
Y00846499D01*
X00580501Y00844000D01*
X00578002Y00846499D01*
Y00851498D01*
X00570504Y00850248D02*
X00571754Y00851498D01*
X00574253D01*
X00575502Y00850248D01*
Y00845250D01*
X00574253Y00844000D01*
X00571754D01*
X00570504Y00845250D01*
X00563006Y00850248D02*
X00564256Y00851498D01*
X00566755D01*
X00568005Y00850248D01*
Y00845250D01*
X00566755Y00844000D01*
X00564256D01*
X00563006Y00845250D01*
X00662998Y00958498D02*
X00664248Y00959748D01*
X00666747D01*
X00667996Y00958498D01*
Y00953500D01*
X00666747Y00952250D01*
X00664248D01*
X00662998Y00953500D01*
Y00955999D01*
X00665497D01*
X00660499Y00952250D02*
Y00959748D01*
X00655500Y00952250D01*
Y00959748D01*
X00653001D02*
Y00952250D01*
X00649252D01*
X00648003Y00953500D01*
Y00958498D01*
X00649252Y00959748D01*
X00653001D01*
X00647996Y00921748D02*
Y00916750D01*
X00645497Y00914250D01*
X00642998Y00916750D01*
Y00921748D01*
X00635500Y00920498D02*
X00636750Y00921748D01*
X00639249D01*
X00640499Y00920498D01*
Y00915500D01*
X00639249Y00914250D01*
X00636750D01*
X00635500Y00915500D01*
X00628003Y00920498D02*
X00629252Y00921748D01*
X00631751D01*
X00633001Y00920498D01*
Y00915500D01*
X00631751Y00914250D01*
X00629252D01*
X00628003Y00915500D01*
X00627996Y00952250D02*
Y00959748D01*
X00624248D01*
X00622998Y00958498D01*
Y00955999D01*
X00624248Y00954750D01*
X00627996D01*
X00625497D02*
X00622998Y00952250D01*
X00615500Y00958498D02*
X00616750Y00959748D01*
X00619249D01*
X00620499Y00958498D01*
Y00957249D01*
X00619249Y00955999D01*
X00616750D01*
X00615500Y00954750D01*
Y00953500D01*
X00616750Y00952250D01*
X00619249D01*
X00620499Y00953500D01*
X00613001Y00959748D02*
X00608003D01*
X00610502D01*
Y00952250D01*
X00602998Y00920498D02*
X00604248Y00921748D01*
X00606747D01*
X00607996Y00920498D01*
Y00919249D01*
X00606747Y00917999D01*
X00604248D01*
X00602998Y00916750D01*
Y00915500D01*
X00604248Y00914250D01*
X00606747D01*
X00607996Y00915500D01*
X00595500Y00920498D02*
X00596750Y00921748D01*
X00599249D01*
X00600499Y00920498D01*
Y00915500D01*
X00599249Y00914250D01*
X00596750D01*
X00595500Y00915500D01*
X00593001Y00921748D02*
Y00914250D01*
Y00916750D01*
X00588003Y00921748D01*
X00591751Y00917999D01*
X00588003Y00914250D01*
X00591120Y00952250D02*
Y00959748D01*
X00588621Y00957249D01*
X00586122Y00959748D01*
Y00952250D01*
X00583623Y00959748D02*
X00581124D01*
X00582373D01*
Y00952250D01*
X00583623D01*
X00581124D01*
X00572376Y00958498D02*
X00573626Y00959748D01*
X00576125D01*
X00577375Y00958498D01*
Y00957249D01*
X00576125Y00955999D01*
X00573626D01*
X00572376Y00954750D01*
Y00953500D01*
X00573626Y00952250D01*
X00576125D01*
X00577375Y00953500D01*
X00566128Y00959748D02*
X00568627D01*
X00569877Y00958498D01*
Y00953500D01*
X00568627Y00952250D01*
X00566128D01*
X00564879Y00953500D01*
Y00958498D01*
X00566128Y00959748D01*
X00570496Y00914250D02*
Y00921748D01*
X00567996Y00919249D01*
X00565497Y00921748D01*
Y00914250D01*
X00559249Y00921748D02*
X00561748D01*
X00562998Y00920498D01*
Y00915500D01*
X00561748Y00914250D01*
X00559249D01*
X00557999Y00915500D01*
Y00920498D01*
X00559249Y00921748D01*
X00550502Y00920498D02*
X00551751Y00921748D01*
X00554251D01*
X00555500Y00920498D01*
Y00919249D01*
X00554251Y00917999D01*
X00551751D01*
X00550502Y00916750D01*
Y00915500D01*
X00551751Y00914250D01*
X00554251D01*
X00555500Y00915500D01*
X00548003Y00921748D02*
X00545503D01*
X00546753D01*
Y00914250D01*
X00548003D01*
X00545503D01*
D39*
X00626750Y01059500D02*
G03*
X00589250Y01059500I-00018750J-00001295D01*
G01*
Y01044500D02*
G03*
X00626750Y01044500I00018750J00001295D01*
G01*
D40*
X00536750Y01087000D02*
X00679250D01*
Y01017000D02*
Y01087000D01*
X00536750Y01017000D02*
Y01087000D01*
Y01017000D02*
X00556750D01*
X00659250D02*
X00679250D01*
D41*
X00626750Y01044500D02*
Y01059500D01*
X00589250Y01044500D02*
X00606750D01*
X00584250Y01027000D02*
Y01077000D01*
X00546750Y01027000D02*
Y01077000D01*
X00565500Y01044500D01*
X00584250Y01077000D01*
X00589250Y01027000D02*
Y01044500D01*
X00631750Y01077000D02*
X00650500Y01027000D01*
X00669250Y01077000D01*
D42*
X00654235Y01015334D02*
Y01020332D01*
X00651736D01*
X00650903Y01019499D01*
Y01017833D01*
X00651736Y01017000D01*
X00654235D01*
X00646737Y01015334D02*
X00648403D01*
X00649237Y01016167D01*
Y01017833D01*
X00648403Y01018666D01*
X00646737D01*
X00645904Y01017833D01*
Y01017000D01*
X00649237D01*
X00644238Y01018666D02*
Y01015334D01*
Y01017000D01*
X00643405Y01017833D01*
X00642572Y01018666D01*
X00641739D01*
X00633408D02*
X00631742D01*
X00630909Y01017833D01*
Y01015334D01*
X00633408D01*
X00634241Y01016167D01*
X00633408Y01017000D01*
X00630909D01*
X00629243Y01015334D02*
X00626744D01*
X00625911Y01016167D01*
X00626744Y01017000D01*
X00628410D01*
X00629243Y01017833D01*
X00628410Y01018666D01*
X00625911D01*
X00624245Y01013668D02*
Y01018666D01*
X00621746D01*
X00620913Y01017833D01*
Y01016167D01*
X00621746Y01015334D01*
X00624245D01*
X00616747D02*
X00618413D01*
X00619246Y01016167D01*
Y01017833D01*
X00618413Y01018666D01*
X00616747D01*
X00615914Y01017833D01*
Y01017000D01*
X00619246D01*
X00614248Y01018666D02*
Y01015334D01*
Y01017000D01*
X00613415Y01017833D01*
X00612582Y01018666D01*
X00611749D01*
X00608417D02*
X00606750D01*
X00605917Y01017833D01*
Y01015334D01*
X00608417D01*
X00609250Y01016167D01*
X00608417Y01017000D01*
X00605917D01*
X00598420Y01018666D02*
X00596754D01*
X00595921Y01017833D01*
Y01015334D01*
X00598420D01*
X00599253Y01016167D01*
X00598420Y01017000D01*
X00595921D01*
X00590922Y01020332D02*
Y01015334D01*
X00593422D01*
X00594255Y01016167D01*
Y01017833D01*
X00593422Y01018666D01*
X00590922D01*
X00583425D02*
X00581759D01*
X00580926Y01017833D01*
Y01015334D01*
X00583425D01*
X00584258Y01016167D01*
X00583425Y01017000D01*
X00580926D01*
X00579259Y01015334D02*
X00576760D01*
X00575927Y01016167D01*
X00576760Y01017000D01*
X00578426D01*
X00579259Y01017833D01*
X00578426Y01018666D01*
X00575927D01*
X00573428Y01019499D02*
Y01018666D01*
X00574261D01*
X00572595D01*
X00573428D01*
Y01016167D01*
X00572595Y01015334D01*
X00570096Y01018666D02*
Y01015334D01*
Y01017000D01*
X00569263Y01017833D01*
X00568430Y01018666D01*
X00567597D01*
X00564264D02*
X00562598D01*
X00561765Y01017833D01*
Y01015334D01*
X00564264D01*
X00565097Y01016167D01*
X00564264Y01017000D01*
X00561765D01*
M02*
