%FSAX44Y44*%
%MOMM*%
G71*
G01*
G75*
G04 Layer_Color=65535*
%ADD10R,1.0000X1.0000*%
%ADD11R,1.0000X1.1000*%
G04:AMPARAMS|DCode=12|XSize=0.55mm|YSize=1.5mm|CornerRadius=0mm|HoleSize=0mm|Usage=FLASHONLY|Rotation=315.000|XOffset=0mm|YOffset=0mm|HoleType=Round|Shape=Rectangle|*
%AMROTATEDRECTD12*
4,1,4,-0.7248,-0.3359,0.3359,0.7248,0.7248,0.3359,-0.3359,-0.7248,-0.7248,-0.3359,0.0*
%
%ADD12ROTATEDRECTD12*%

G04:AMPARAMS|DCode=13|XSize=0.55mm|YSize=1.5mm|CornerRadius=0mm|HoleSize=0mm|Usage=FLASHONLY|Rotation=45.000|XOffset=0mm|YOffset=0mm|HoleType=Round|Shape=Rectangle|*
%AMROTATEDRECTD13*
4,1,4,0.3359,-0.7248,-0.7248,0.3359,-0.3359,0.7248,0.7248,-0.3359,0.3359,-0.7248,0.0*
%
%ADD13ROTATEDRECTD13*%

%ADD14R,1.1000X1.0000*%
%ADD15R,1.0000X1.4000*%
G04:AMPARAMS|DCode=16|XSize=1mm|YSize=1.1mm|CornerRadius=0mm|HoleSize=0mm|Usage=FLASHONLY|Rotation=225.000|XOffset=0mm|YOffset=0mm|HoleType=Round|Shape=Rectangle|*
%AMROTATEDRECTD16*
4,1,4,-0.0354,0.7425,0.7425,-0.0354,0.0354,-0.7425,-0.7425,0.0354,-0.0354,0.7425,0.0*
%
%ADD16ROTATEDRECTD16*%

%ADD17C,0.2286*%
%ADD18C,0.2540*%
%ADD19O,1.1000X1.5000*%
%ADD20O,1.3970X1.9050*%
%ADD21C,1.5000*%
%ADD22C,1.7780*%
%ADD23C,0.6350*%
%ADD24R,1.5000X2.0000*%
%ADD25C,0.6000*%
%ADD26C,0.1250*%
%ADD27C,0.2000*%
%ADD28C,0.1270*%
D25*
X00611000Y00853699D02*
G03*
X00611000Y00853699I-00003000J00000000D01*
G01*
D26*
X00538150Y00918900D02*
G03*
X00538150Y00918900I-00006350J00000000D01*
G01*
D27*
X00772000Y00970250D02*
X00804500D01*
X00772000Y00960250D02*
Y00970250D01*
X00804500Y00960250D02*
Y00970250D01*
X00772000Y00903750D02*
Y00913750D01*
X00804500Y00903750D02*
Y00913750D01*
X00772000Y00903750D02*
X00804500D01*
X00683250Y00776751D02*
Y00793251D01*
X00650750Y00776751D02*
Y00793251D01*
X00673250Y00776751D02*
X00683250D01*
X00673250Y00793251D02*
X00683250D01*
X00650750Y00776751D02*
X00660750D01*
X00650750Y00793251D02*
X00660750D01*
X00564159Y00824000D02*
X00608000Y00780160D01*
Y00867841D02*
X00651841Y00824000D01*
X00608000Y00780160D02*
X00651841Y00824000D01*
X00564159D02*
X00608000Y00867841D01*
X00696500Y00886501D02*
Y00987501D01*
X00519500Y00886501D02*
X00696500D01*
X00519500Y00987501D02*
X00696500D01*
X00519500Y00886501D02*
Y00987501D01*
X00700250Y00826500D02*
Y00843501D01*
X00667750Y00826500D02*
Y00843501D01*
X00690250Y00826500D02*
X00700250D01*
X00690250Y00843501D02*
X00700250D01*
X00667750Y00826500D02*
X00677750D01*
X00667750Y00843501D02*
X00677750D01*
X00691750Y00991501D02*
Y01008500D01*
X00724250Y00991501D02*
Y01008500D01*
X00691750D02*
X00701750D01*
X00691750Y00991501D02*
X00701750D01*
X00714250Y01008500D02*
X00724250D01*
X00714250Y00991501D02*
X00724250D01*
X00536250D02*
Y01008500D01*
X00503750Y00991501D02*
Y01008500D01*
X00526250Y00991501D02*
X00536250D01*
X00526250Y01008500D02*
X00536250D01*
X00503750Y00991501D02*
X00513750D01*
X00503750Y01008500D02*
X00513750D01*
X00700250Y00866501D02*
Y00883500D01*
X00667750Y00866501D02*
Y00883500D01*
X00690250Y00866501D02*
X00700250D01*
X00690250Y00883500D02*
X00700250D01*
X00667750Y00866501D02*
X00677750D01*
X00667750Y00883500D02*
X00677750D01*
X00515750Y00865500D02*
Y00882501D01*
X00548250Y00865500D02*
Y00882501D01*
X00515750D02*
X00525750D01*
X00515750Y00865500D02*
X00525750D01*
X00538250Y00882501D02*
X00548250D01*
X00538250Y00865500D02*
X00548250D01*
X00700250Y00846501D02*
Y00863500D01*
X00667750Y00846501D02*
Y00863500D01*
X00690250Y00846501D02*
X00700250D01*
X00690250Y00863500D02*
X00700250D01*
X00667750Y00846501D02*
X00677750D01*
X00667750Y00863500D02*
X00677750D01*
X00691750Y01011501D02*
Y01028500D01*
X00724250Y01011501D02*
Y01028500D01*
X00691750D02*
X00701750D01*
X00691750Y01011501D02*
X00701750D01*
X00714250Y01028500D02*
X00724250D01*
X00714250Y01011501D02*
X00724250D01*
X00536250D02*
Y01028500D01*
X00503750Y01011501D02*
Y01028500D01*
X00526250Y01011501D02*
X00536250D01*
X00526250Y01028500D02*
X00536250D01*
X00503750Y01011501D02*
X00513750D01*
X00503750Y01028500D02*
X00513750D01*
X00515750Y00845500D02*
Y00862501D01*
X00548250Y00845500D02*
Y00862501D01*
X00515750D02*
X00525750D01*
X00515750Y00845500D02*
X00525750D01*
X00538250Y00862501D02*
X00548250D01*
X00538250Y00845500D02*
X00548250D01*
X00700250Y00806501D02*
Y00823501D01*
X00667750Y00806501D02*
Y00823501D01*
X00690250Y00806501D02*
X00700250D01*
X00690250Y00823501D02*
X00700250D01*
X00667750Y00806501D02*
X00677750D01*
X00667750Y00823501D02*
X00677750D01*
X00586500Y01035751D02*
X00603500D01*
X00586500Y01068250D02*
X00603500D01*
X00586500Y01035751D02*
Y01045751D01*
X00603500Y01035751D02*
Y01045751D01*
X00586500Y01058250D02*
Y01068250D01*
X00603500Y01058250D02*
Y01068250D01*
X00624500Y01035751D02*
X00641500D01*
X00624500Y01068250D02*
X00641500D01*
X00624500Y01035751D02*
Y01045751D01*
X00641500Y01035751D02*
Y01045751D01*
X00624500Y01058250D02*
Y01068250D01*
X00641500Y01058250D02*
Y01068250D01*
X00662500Y01035751D02*
X00679500D01*
X00662500Y01068250D02*
X00679500D01*
X00662500Y01035751D02*
Y01045751D01*
X00679500Y01035751D02*
Y01045751D01*
X00662500Y01058250D02*
Y01068250D01*
X00679500Y01058250D02*
Y01068250D01*
X00548500Y01035751D02*
X00565500D01*
X00548500Y01068250D02*
X00565500D01*
X00548500Y01035751D02*
Y01045751D01*
X00565500Y01035751D02*
Y01045751D01*
X00548500Y01058250D02*
Y01068250D01*
X00565500Y01058250D02*
Y01068250D01*
X00612250Y01018500D02*
Y01032750D01*
X00577750Y01018500D02*
Y01032750D01*
Y00991251D02*
Y01005501D01*
X00612250Y00991251D02*
Y01005501D01*
X00577750Y00991251D02*
X00612250D01*
X00577750Y01032750D02*
X00612250D01*
X00650250Y01018500D02*
Y01032750D01*
X00615750Y01018500D02*
Y01032750D01*
Y00991251D02*
Y01005501D01*
X00650250Y00991251D02*
Y01005501D01*
X00615750Y00991251D02*
X00650250D01*
X00615750Y01032750D02*
X00650250D01*
X00688250Y01018500D02*
Y01032750D01*
X00653750Y01018500D02*
Y01032750D01*
Y00991251D02*
Y01005501D01*
X00688250Y00991251D02*
Y01005501D01*
X00653750Y00991251D02*
X00688250D01*
X00653750Y01032750D02*
X00688250D01*
X00574250Y01018500D02*
Y01032750D01*
X00539750Y01018500D02*
Y01032750D01*
Y00991251D02*
Y01005501D01*
X00574250Y00991251D02*
Y01005501D01*
X00539750Y00991251D02*
X00574250D01*
X00539750Y01032750D02*
X00574250D01*
D28*
X00759252Y00933499D02*
X00758002Y00932249D01*
Y00929750D01*
X00759252Y00928500D01*
X00760501D01*
X00761751Y00929750D01*
Y00932249D01*
X00763001Y00933499D01*
X00764250D01*
X00765500Y00932249D01*
Y00929750D01*
X00764250Y00928500D01*
X00758002Y00935998D02*
X00765500D01*
Y00939746D01*
X00764250Y00940996D01*
X00763001D01*
X00761751Y00939746D01*
Y00935998D01*
Y00939746D01*
X00760501Y00940996D01*
X00759252D01*
X00758002Y00939746D01*
Y00935998D01*
X00765500Y00943495D02*
Y00945995D01*
Y00944745D01*
X00758002D01*
X00759252Y00943495D01*
X00665998Y00802498D02*
X00664749Y00803748D01*
X00662250D01*
X00661000Y00802498D01*
Y00797500D01*
X00662250Y00796250D01*
X00664749D01*
X00665998Y00797500D01*
X00668498Y00796250D02*
X00670997D01*
X00669747D01*
Y00803748D01*
X00668498Y00802498D01*
X00600000Y00828498D02*
Y00821000D01*
X00603749D01*
X00604998Y00822250D01*
Y00827248D01*
X00603749Y00828498D01*
X00600000D01*
X00607498D02*
Y00821000D01*
X00611246D01*
X00612496Y00822250D01*
Y00827248D01*
X00611246Y00828498D01*
X00607498D01*
X00614995Y00821000D02*
X00617494D01*
X00616245D01*
Y00828498D01*
X00614995Y00827248D01*
X00508502Y00929000D02*
X00516000D01*
X00512251D01*
Y00933998D01*
X00508502D01*
X00516000D01*
X00509752Y00941496D02*
X00508502Y00940246D01*
Y00937747D01*
X00509752Y00936498D01*
X00514750D01*
X00516000Y00937747D01*
Y00940246D01*
X00514750Y00941496D01*
X00512251D01*
Y00938997D01*
X00516000Y00943995D02*
Y00946494D01*
Y00945245D01*
X00508502D01*
X00509752Y00943995D01*
X00704000Y00843500D02*
X00711498D01*
Y00839751D01*
X00710248Y00838502D01*
X00707749D01*
X00706499Y00839751D01*
Y00843500D01*
Y00841001D02*
X00704000Y00838502D01*
Y00836002D02*
Y00833503D01*
Y00834753D01*
X00711498D01*
X00710248Y00836002D01*
X00727750Y01008500D02*
X00735248D01*
Y01004751D01*
X00733998Y01003502D01*
X00731499D01*
X00730249Y01004751D01*
Y01008500D01*
Y01006001D02*
X00727750Y01003502D01*
Y00996004D02*
Y01001002D01*
X00732748Y00996004D01*
X00733998D01*
X00735248Y00997254D01*
Y00999753D01*
X00733998Y01001002D01*
X00500250Y00991250D02*
X00492752D01*
Y00994999D01*
X00494002Y00996248D01*
X00496501D01*
X00497751Y00994999D01*
Y00991250D01*
Y00993749D02*
X00500250Y00996248D01*
X00494002Y00998748D02*
X00492752Y00999997D01*
Y01002496D01*
X00494002Y01003746D01*
X00495252D01*
X00496501Y01002496D01*
Y01001247D01*
Y01002496D01*
X00497751Y01003746D01*
X00499000D01*
X00500250Y01002496D01*
Y00999997D01*
X00499000Y00998748D01*
X00703750Y00883500D02*
X00711248D01*
Y00879751D01*
X00709998Y00878502D01*
X00707499D01*
X00706249Y00879751D01*
Y00883500D01*
Y00881001D02*
X00703750Y00878502D01*
Y00872254D02*
X00711248D01*
X00707499Y00876002D01*
Y00871004D01*
X00551750Y00882750D02*
X00559248D01*
Y00879001D01*
X00557998Y00877752D01*
X00555499D01*
X00554249Y00879001D01*
Y00882750D01*
Y00880251D02*
X00551750Y00877752D01*
X00559248Y00870254D02*
Y00875252D01*
X00555499D01*
X00556748Y00872753D01*
Y00871504D01*
X00555499Y00870254D01*
X00553000D01*
X00551750Y00871504D01*
Y00874003D01*
X00553000Y00875252D01*
X00704000Y00863500D02*
X00711498D01*
Y00859751D01*
X00710248Y00858502D01*
X00707749D01*
X00706499Y00859751D01*
Y00863500D01*
Y00861001D02*
X00704000Y00858502D01*
X00711498Y00851004D02*
X00710248Y00853503D01*
X00707749Y00856002D01*
X00705250D01*
X00704000Y00854753D01*
Y00852254D01*
X00705250Y00851004D01*
X00706499D01*
X00707749Y00852254D01*
Y00856002D01*
X00727750Y01028500D02*
X00735248D01*
Y01024751D01*
X00733998Y01023502D01*
X00731499D01*
X00730249Y01024751D01*
Y01028500D01*
Y01026001D02*
X00727750Y01023502D01*
X00735248Y01021002D02*
Y01016004D01*
X00733998D01*
X00729000Y01021002D01*
X00727750D01*
X00500250Y01011250D02*
X00492752D01*
Y01014999D01*
X00494002Y01016248D01*
X00496501D01*
X00497751Y01014999D01*
Y01011250D01*
Y01013749D02*
X00500250Y01016248D01*
X00494002Y01018748D02*
X00492752Y01019997D01*
Y01022496D01*
X00494002Y01023746D01*
X00495252D01*
X00496501Y01022496D01*
X00497751Y01023746D01*
X00499000D01*
X00500250Y01022496D01*
Y01019997D01*
X00499000Y01018748D01*
X00497751D01*
X00496501Y01019997D01*
X00495252Y01018748D01*
X00494002D01*
X00496501Y01019997D02*
Y01022496D01*
X00551750Y00862750D02*
X00559248D01*
Y00859001D01*
X00557998Y00857752D01*
X00555499D01*
X00554249Y00859001D01*
Y00862750D01*
Y00860251D02*
X00551750Y00857752D01*
X00553000Y00855252D02*
X00551750Y00854003D01*
Y00851504D01*
X00553000Y00850254D01*
X00557998D01*
X00559248Y00851504D01*
Y00854003D01*
X00557998Y00855252D01*
X00556748D01*
X00555499Y00854003D01*
Y00850254D01*
X00709250Y00823250D02*
X00716748D01*
Y00819501D01*
X00715498Y00818252D01*
X00712999D01*
X00711749Y00819501D01*
Y00823250D01*
Y00820751D02*
X00709250Y00818252D01*
Y00815752D02*
Y00813253D01*
Y00814503D01*
X00716748D01*
X00715498Y00815752D01*
Y00809504D02*
X00716748Y00808255D01*
Y00805756D01*
X00715498Y00804506D01*
X00710500D01*
X00709250Y00805756D01*
Y00808255D01*
X00710500Y00809504D01*
X00715498D01*
X00586000Y01074000D02*
Y01081498D01*
X00589749D01*
X00590998Y01080248D01*
Y01077749D01*
X00589749Y01076499D01*
X00586000D01*
X00588499D02*
X00590998Y01074000D01*
X00593498D02*
X00595997D01*
X00594747D01*
Y01081498D01*
X00593498Y01080248D01*
X00599746Y01074000D02*
X00602245D01*
X00600995D01*
Y01081498D01*
X00599746Y01080248D01*
X00624000Y01074000D02*
Y01081498D01*
X00627749D01*
X00628998Y01080248D01*
Y01077749D01*
X00627749Y01076499D01*
X00624000D01*
X00626499D02*
X00628998Y01074000D01*
X00631498D02*
X00633997D01*
X00632747D01*
Y01081498D01*
X00631498Y01080248D01*
X00642744Y01074000D02*
X00637746D01*
X00642744Y01078999D01*
Y01080248D01*
X00641494Y01081498D01*
X00638995D01*
X00637746Y01080248D01*
X00662000Y01074000D02*
Y01081498D01*
X00665749D01*
X00666998Y01080248D01*
Y01077749D01*
X00665749Y01076499D01*
X00662000D01*
X00664499D02*
X00666998Y01074000D01*
X00669498D02*
X00671997D01*
X00670747D01*
Y01081498D01*
X00669498Y01080248D01*
X00675746D02*
X00676995Y01081498D01*
X00679494D01*
X00680744Y01080248D01*
Y01078999D01*
X00679494Y01077749D01*
X00678245D01*
X00679494D01*
X00680744Y01076499D01*
Y01075250D01*
X00679494Y01074000D01*
X00676995D01*
X00675746Y01075250D01*
X00548000Y01074000D02*
Y01081498D01*
X00551749D01*
X00552998Y01080248D01*
Y01077749D01*
X00551749Y01076499D01*
X00548000D01*
X00550499D02*
X00552998Y01074000D01*
X00555498D02*
X00557997D01*
X00556747D01*
Y01081498D01*
X00555498Y01080248D01*
X00565494Y01074000D02*
Y01081498D01*
X00561746Y01077749D01*
X00566744D01*
X00575502Y01038000D02*
X00580501D01*
X00583000Y01040499D01*
X00580501Y01042998D01*
X00575502D01*
Y01045498D02*
Y01050496D01*
Y01047997D01*
X00583000D01*
Y01052995D02*
Y01055494D01*
Y01054245D01*
X00575502D01*
X00576752Y01052995D01*
X00613752Y01038000D02*
X00618751D01*
X00621250Y01040499D01*
X00618751Y01042998D01*
X00613752D01*
Y01045498D02*
Y01050496D01*
Y01047997D01*
X00621250D01*
Y01057994D02*
Y01052995D01*
X00616252Y01057994D01*
X00615002D01*
X00613752Y01056744D01*
Y01054245D01*
X00615002Y01052995D01*
X00651752Y01038000D02*
X00656751D01*
X00659250Y01040499D01*
X00656751Y01042998D01*
X00651752D01*
Y01045498D02*
Y01050496D01*
Y01047997D01*
X00659250D01*
X00653002Y01052995D02*
X00651752Y01054245D01*
Y01056744D01*
X00653002Y01057994D01*
X00654252D01*
X00655501Y01056744D01*
Y01055494D01*
Y01056744D01*
X00656751Y01057994D01*
X00658000D01*
X00659250Y01056744D01*
Y01054245D01*
X00658000Y01052995D01*
X00530252Y01038000D02*
X00535251D01*
X00537750Y01040499D01*
X00535251Y01042998D01*
X00530252D01*
Y01045498D02*
Y01050496D01*
Y01047997D01*
X00537750D01*
Y01056744D02*
X00530252D01*
X00534001Y01052995D01*
Y01057994D01*
X00527052Y00819302D02*
X00526168Y00818418D01*
Y00814884D01*
X00529702Y00814884D01*
X00530586Y00815767D01*
X00526168Y00814884D02*
X00523517Y00812233D01*
X00527052Y00808698D02*
X00528819Y00806931D01*
X00527935Y00807815D01*
X00533237Y00813116D01*
X00531470D01*
M02*
