G04 Layer_Physical_Order=1*
G04 Layer_Color=255*
%FSAX44Y44*%
%MOMM*%
G71*
G01*
G75*
%ADD10R,1.0000X1.4000*%
G04:AMPARAMS|DCode=11|XSize=0.55mm|YSize=1.5mm|CornerRadius=0mm|HoleSize=0mm|Usage=FLASHONLY|Rotation=315.000|XOffset=0mm|YOffset=0mm|HoleType=Round|Shape=Rectangle|*
%AMROTATEDRECTD11*
4,1,4,-0.7248,-0.3359,0.3359,0.7248,0.7248,0.3359,-0.3359,-0.7248,-0.7248,-0.3359,0.0*
%
%ADD11ROTATEDRECTD11*%

G04:AMPARAMS|DCode=12|XSize=0.55mm|YSize=1.5mm|CornerRadius=0mm|HoleSize=0mm|Usage=FLASHONLY|Rotation=45.000|XOffset=0mm|YOffset=0mm|HoleType=Round|Shape=Rectangle|*
%AMROTATEDRECTD12*
4,1,4,0.3359,-0.7248,-0.7248,0.3359,-0.3359,0.7248,0.7248,-0.3359,0.3359,-0.7248,0.0*
%
%ADD12ROTATEDRECTD12*%

%ADD13R,1.0000X1.5000*%
%ADD14R,1.0000X1.1000*%
%ADD15R,1.1000X1.0000*%
G04:AMPARAMS|DCode=16|XSize=1mm|YSize=1.1mm|CornerRadius=0mm|HoleSize=0mm|Usage=FLASHONLY|Rotation=225.000|XOffset=0mm|YOffset=0mm|HoleType=Round|Shape=Rectangle|*
%AMROTATEDRECTD16*
4,1,4,-0.0354,0.7425,0.7425,-0.0354,0.0354,-0.7425,-0.7425,0.0354,-0.0354,0.7425,0.0*
%
%ADD16ROTATEDRECTD16*%

%ADD17C,0.2286*%
%ADD18C,1.8000*%
%ADD19C,1.5000*%
%ADD20O,1.1000X1.6000*%
%ADD21C,0.6350*%
G36*
X00613070Y00864836D02*
X00620551Y00857355D01*
X00624384Y00853522D01*
X00633046Y00844859D01*
X00631314Y00842412D01*
X00630753Y00842722D01*
X00630159Y00842968D01*
X00629543Y00843146D01*
X00628910Y00843253D01*
X00628269Y00843289D01*
X00627628Y00843253D01*
X00626995Y00843146D01*
X00626379Y00842968D01*
X00625785Y00842722D01*
X00625224Y00842412D01*
X00624700Y00842040D01*
X00624221Y00841612D01*
X00623794Y00841134D01*
X00623422Y00840610D01*
X00623112Y00840049D01*
X00622866Y00839455D01*
X00622688Y00838839D01*
X00622581Y00838206D01*
X00622545Y00837565D01*
X00622581Y00836924D01*
X00622688Y00836291D01*
X00622866Y00835675D01*
X00623052Y00835226D01*
X00623112Y00835035D01*
X00623122Y00834265D01*
X00622725Y00832596D01*
X00622559Y00832137D01*
X00622231Y00831644D01*
X00629147Y00824728D01*
X00627379Y00822960D01*
X00629147Y00821192D01*
X00622296Y00814341D01*
X00622375Y00814292D01*
X00622778Y00811504D01*
X00622674Y00810838D01*
X00622452Y00810419D01*
X00616529D01*
X00601378Y00825570D01*
X00601015Y00825888D01*
X00600613Y00826156D01*
X00600180Y00826370D01*
X00599723Y00826525D01*
X00599250Y00826619D01*
X00598768Y00826651D01*
X00598618D01*
X00598388Y00827207D01*
X00597983Y00827985D01*
X00597512Y00828724D01*
X00596978Y00829420D01*
X00596386Y00830066D01*
X00595740Y00830658D01*
X00595044Y00831192D01*
X00594305Y00831663D01*
X00593527Y00832068D01*
X00592717Y00832403D01*
X00591881Y00832667D01*
X00591025Y00832857D01*
X00590156Y00832971D01*
X00589280Y00833010D01*
X00588404Y00832971D01*
X00587535Y00832857D01*
X00587419Y00832831D01*
X00580797Y00839453D01*
X00581253Y00843216D01*
X00584107Y00846069D01*
X00584135Y00846041D01*
X00591616Y00853522D01*
X00591588Y00853550D01*
X00595421Y00857383D01*
X00595449Y00857355D01*
X00602930Y00864836D01*
X00608000Y00869906D01*
X00613070Y00864836D01*
D02*
G37*
G36*
X00547086Y00854841D02*
X00546773Y00854512D01*
X00546493Y00854185D01*
X00546246Y00853859D01*
X00546032Y00853533D01*
X00545851Y00853210D01*
X00545702Y00852887D01*
X00545587Y00852566D01*
X00545505Y00852245D01*
X00545455Y00851926D01*
X00545439Y00851608D01*
Y00858074D01*
X00545455Y00857778D01*
X00545505Y00857547D01*
X00545587Y00857383D01*
X00545702Y00857284D01*
X00545851Y00857251D01*
X00546032Y00857284D01*
X00546246Y00857383D01*
X00546493Y00857547D01*
X00546773Y00857778D01*
X00547086Y00858074D01*
Y00854841D01*
D02*
G37*
G36*
X00687524Y00861609D02*
X00688398Y00860862D01*
X00688778Y00860592D01*
X00689121Y00860393D01*
X00689425Y00860263D01*
X00689691Y00860203D01*
X00689920Y00860212D01*
X00690111Y00860291D01*
X00690263Y00860440D01*
X00687561Y00856737D01*
X00687665Y00856935D01*
X00687709Y00857160D01*
X00687694Y00857413D01*
X00687619Y00857694D01*
X00687484Y00858004D01*
X00687289Y00858341D01*
X00687035Y00858706D01*
X00686721Y00859100D01*
X00685914Y00859970D01*
X00687030Y00862086D01*
X00687524Y00861609D01*
D02*
G37*
G36*
X00573571Y00860240D02*
X00573584Y00860275D01*
X00573547Y00860307D01*
X00573460Y00860334D01*
X00573324Y00860358D01*
X00573139Y00860379D01*
X00572620Y00860408D01*
X00571470Y00860425D01*
X00573756Y00862711D01*
X00574208Y00862722D01*
X00574636Y00862756D01*
X00575040Y00862812D01*
X00575420Y00862890D01*
X00575777Y00862991D01*
X00576110Y00863115D01*
X00576420Y00863260D01*
X00576706Y00863429D01*
X00576968Y00863619D01*
X00577207Y00863832D01*
X00573571Y00860240D01*
D02*
G37*
G36*
X00637273Y00868628D02*
X00636970Y00868308D01*
X00636716Y00868006D01*
X00636510Y00867720D01*
X00636354Y00867450D01*
X00636246Y00867197D01*
X00636188Y00866961D01*
X00636178Y00866741D01*
X00636218Y00866538D01*
X00636306Y00866351D01*
X00636443Y00866181D01*
X00633210Y00869414D01*
X00633380Y00869277D01*
X00633567Y00869189D01*
X00633770Y00869150D01*
X00633989Y00869159D01*
X00634226Y00869218D01*
X00634479Y00869325D01*
X00634748Y00869482D01*
X00635034Y00869687D01*
X00635337Y00869941D01*
X00635656Y00870244D01*
X00637273Y00868628D01*
D02*
G37*
G36*
X00579218Y00872979D02*
X00579417Y00872145D01*
X00579543Y00871759D01*
X00579689Y00871395D01*
X00579852Y00871053D01*
X00580034Y00870732D01*
X00580234Y00870433D01*
X00580453Y00870154D01*
X00580559Y00870039D01*
X00580662Y00869941D01*
X00580965Y00869687D01*
X00581251Y00869482D01*
X00581521Y00869325D01*
X00581774Y00869218D01*
X00582010Y00869159D01*
X00582230Y00869150D01*
X00582433Y00869189D01*
X00582620Y00869277D01*
X00582789Y00869414D01*
X00579557Y00866181D01*
X00579694Y00866351D01*
X00579782Y00866538D01*
X00579821Y00866741D01*
X00579812Y00866961D01*
X00579753Y00867197D01*
X00579646Y00867450D01*
X00579489Y00867720D01*
X00579284Y00868006D01*
X00579030Y00868308D01*
X00578923Y00868420D01*
X00578805Y00868531D01*
X00578526Y00868751D01*
X00578227Y00868952D01*
X00577906Y00869136D01*
X00577565Y00869302D01*
X00577203Y00869449D01*
X00576820Y00869579D01*
X00576417Y00869690D01*
X00575992Y00869783D01*
X00575547Y00869857D01*
X00579146Y00873429D01*
X00579218Y00872979D01*
D02*
G37*
G36*
X00646600Y00865372D02*
X00646801Y00864540D01*
X00646929Y00864156D01*
X00647076Y00863793D01*
X00647241Y00863451D01*
X00647423Y00863130D01*
X00647624Y00862831D01*
X00647843Y00862553D01*
X00648081Y00862296D01*
X00646464Y00860679D01*
X00646207Y00860917D01*
X00645929Y00861136D01*
X00645630Y00861337D01*
X00645309Y00861519D01*
X00644967Y00861684D01*
X00644604Y00861831D01*
X00644220Y00861959D01*
X00643814Y00862069D01*
X00643388Y00862160D01*
X00643382Y00862161D01*
X00643376Y00862160D01*
X00642544Y00861959D01*
X00642160Y00861831D01*
X00641797Y00861684D01*
X00641719Y00861646D01*
X00641676Y00861473D01*
X00641666Y00861254D01*
X00641705Y00861051D01*
X00641794Y00860864D01*
X00641931Y00860694D01*
X00641233Y00861393D01*
X00641134Y00861337D01*
X00640835Y00861136D01*
X00640557Y00860917D01*
X00640300Y00860679D01*
X00638683Y00862296D01*
X00638921Y00862553D01*
X00639140Y00862831D01*
X00639341Y00863130D01*
X00639397Y00863229D01*
X00638698Y00863927D01*
X00638868Y00863790D01*
X00639055Y00863701D01*
X00639258Y00863662D01*
X00639478Y00863672D01*
X00639650Y00863715D01*
X00639688Y00863793D01*
X00639835Y00864156D01*
X00639963Y00864540D01*
X00640073Y00864946D01*
X00640164Y00865372D01*
X00640238Y00865820D01*
X00643382Y00862676D01*
X00646526Y00865820D01*
X00646600Y00865372D01*
D02*
G37*
G36*
X00582602Y00845857D02*
X00582164Y00845853D01*
X00580789Y00845759D01*
X00580540Y00845715D01*
X00580328Y00845664D01*
X00580155Y00845605D01*
X00580019Y00845538D01*
X00579922Y00845463D01*
X00582324Y00847865D01*
X00582381Y00847918D01*
X00582440Y00847965D01*
X00582501Y00848007D01*
X00582565Y00848043D01*
X00582631Y00848074D01*
X00582699Y00848099D01*
X00582770Y00848118D01*
X00582843Y00848132D01*
X00582918Y00848140D01*
X00582996Y00848143D01*
X00582602Y00845857D01*
D02*
G37*
G36*
X00708533Y00843566D02*
X00708538Y00843135D01*
X00708656Y00841631D01*
X00708710Y00841310D01*
X00708848Y00840733D01*
X00708931Y00840478D01*
X00709025Y00840244D01*
X00704554Y00841724D01*
X00704876Y00841926D01*
X00705163Y00842149D01*
X00705417Y00842393D01*
X00705638Y00842657D01*
X00705824Y00842942D01*
X00705976Y00843247D01*
X00706095Y00843573D01*
X00706179Y00843919D01*
X00706230Y00844287D01*
X00706247Y00844675D01*
X00708533Y00843566D01*
D02*
G37*
G36*
X00576223Y00841732D02*
X00576134Y00841547D01*
X00576094Y00841345D01*
X00576102Y00841126D01*
X00576159Y00840892D01*
X00576264Y00840641D01*
X00576417Y00840375D01*
X00576619Y00840092D01*
X00576870Y00839793D01*
X00577169Y00839477D01*
X00575552Y00837861D01*
X00575237Y00838160D01*
X00574938Y00838411D01*
X00574655Y00838613D01*
X00574389Y00838766D01*
X00574138Y00838871D01*
X00573904Y00838928D01*
X00573685Y00838936D01*
X00573483Y00838896D01*
X00573298Y00838807D01*
X00573128Y00838669D01*
X00576361Y00841902D01*
X00576223Y00841732D01*
D02*
G37*
G36*
X00566104Y00852772D02*
X00562632Y00849257D01*
X00562845Y00849496D01*
X00563035Y00849758D01*
X00563204Y00850044D01*
X00563349Y00850354D01*
X00563473Y00850687D01*
X00563574Y00851044D01*
X00563652Y00851425D01*
X00563708Y00851829D01*
X00563742Y00852256D01*
X00563753Y00852708D01*
X00566039Y00854994D01*
X00566104Y00852772D01*
D02*
G37*
G36*
X00670524Y00861609D02*
X00671398Y00860862D01*
X00671778Y00860592D01*
X00672120Y00860393D01*
X00672425Y00860263D01*
X00672691Y00860203D01*
X00672920Y00860212D01*
X00673110Y00860291D01*
X00673263Y00860440D01*
X00670561Y00856737D01*
X00670665Y00856935D01*
X00670709Y00857160D01*
X00670694Y00857413D01*
X00670618Y00857694D01*
X00670484Y00858004D01*
X00670289Y00858341D01*
X00670035Y00858706D01*
X00669721Y00859100D01*
X00668914Y00859970D01*
X00670030Y00862086D01*
X00670524Y00861609D01*
D02*
G37*
G36*
X00518999Y00860634D02*
X00519840Y00859922D01*
X00520212Y00859664D01*
X00520551Y00859470D01*
X00520858Y00859341D01*
X00521133Y00859276D01*
X00521376D01*
X00521586Y00859341D01*
X00521763Y00859470D01*
X00518531Y00856237D01*
X00518660Y00856415D01*
X00518725Y00856625D01*
Y00856867D01*
X00518660Y00857142D01*
X00518531Y00857449D01*
X00518337Y00857789D01*
X00518078Y00858160D01*
X00517755Y00858565D01*
X00516914Y00859470D01*
X00518531Y00861086D01*
X00518999Y00860634D01*
D02*
G37*
G36*
X00505937Y00857901D02*
X00506215Y00857682D01*
X00506515Y00857481D01*
X00506835Y00857299D01*
X00507177Y00857134D01*
X00507540Y00856988D01*
X00507924Y00856859D01*
X00508330Y00856749D01*
X00508756Y00856658D01*
X00509204Y00856584D01*
X00505618Y00852998D01*
X00505544Y00853446D01*
X00505343Y00854278D01*
X00505215Y00854662D01*
X00505068Y00855025D01*
X00504903Y00855367D01*
X00504721Y00855687D01*
X00504520Y00855987D01*
X00504301Y00856265D01*
X00504063Y00856522D01*
X00505680Y00858139D01*
X00505937Y00857901D01*
D02*
G37*
G36*
X00613411Y00896390D02*
X00613386Y00896146D01*
X00613410Y00895883D01*
X00613484Y00895603D01*
X00613608Y00895305D01*
X00613781Y00894989D01*
X00614004Y00894655D01*
X00614277Y00894304D01*
X00614599Y00893934D01*
X00614970Y00893547D01*
X00613901Y00891383D01*
X00613530Y00891738D01*
X00613187Y00892033D01*
X00612872Y00892267D01*
X00612586Y00892440D01*
X00612329Y00892552D01*
X00612099Y00892604D01*
X00611899Y00892596D01*
X00611727Y00892526D01*
X00611583Y00892396D01*
X00611468Y00892206D01*
X00613486Y00896617D01*
X00613411Y00896390D01*
D02*
G37*
G36*
X00690017Y00881775D02*
X00690344Y00881497D01*
X00690669Y00881250D01*
X00690994Y00881037D01*
X00691317Y00880856D01*
X00691640Y00880707D01*
X00691962Y00880592D01*
X00692283Y00880508D01*
X00692604Y00880458D01*
X00692923Y00880440D01*
X00687531Y00880470D01*
X00687617Y00880486D01*
X00687661Y00880535D01*
X00687662Y00880615D01*
X00687619Y00880729D01*
X00687534Y00880874D01*
X00687405Y00881052D01*
X00687233Y00881262D01*
X00686759Y00881779D01*
X00686457Y00882086D01*
X00689690D01*
X00690017Y00881775D01*
D02*
G37*
G36*
X00491157Y00883152D02*
X00491199Y00882801D01*
X00491268Y00882447D01*
X00491366Y00882091D01*
X00491491Y00881733D01*
X00491644Y00881373D01*
X00491825Y00881010D01*
X00492034Y00880646D01*
X00492271Y00880279D01*
X00492536Y00879911D01*
X00487464D01*
X00487729Y00880279D01*
X00488175Y00881010D01*
X00488356Y00881373D01*
X00488509Y00881733D01*
X00488634Y00882091D01*
X00488732Y00882447D01*
X00488801Y00882801D01*
X00488843Y00883152D01*
X00488857Y00883502D01*
X00491143D01*
X00491157Y00883152D01*
D02*
G37*
G36*
X00664232Y00897171D02*
X00664225Y00896909D01*
X00664265Y00896631D01*
X00664352Y00896338D01*
X00664486Y00896029D01*
X00664667Y00895705D01*
X00664895Y00895366D01*
X00665171Y00895011D01*
X00665494Y00894641D01*
X00665863Y00894255D01*
X00665049Y00891837D01*
X00664675Y00892194D01*
X00664333Y00892488D01*
X00664021Y00892718D01*
X00663741Y00892885D01*
X00663491Y00892989D01*
X00663272Y00893029D01*
X00663084Y00893006D01*
X00662927Y00892920D01*
X00662801Y00892770D01*
X00662706Y00892557D01*
X00664286Y00897418D01*
X00664232Y00897171D01*
D02*
G37*
G36*
X00640370Y00904254D02*
X00639999Y00903867D01*
X00639404Y00903146D01*
X00639181Y00902812D01*
X00639008Y00902496D01*
X00638885Y00902198D01*
X00638811Y00901917D01*
X00638786Y00901655D01*
X00638811Y00901411D01*
X00638886Y00901184D01*
X00636867Y00905595D01*
X00636983Y00905405D01*
X00637127Y00905275D01*
X00637299Y00905205D01*
X00637500Y00905197D01*
X00637729Y00905248D01*
X00637986Y00905361D01*
X00638272Y00905534D01*
X00638587Y00905768D01*
X00638929Y00906063D01*
X00639301Y00906418D01*
X00640370Y00904254D01*
D02*
G37*
G36*
X00538770D02*
X00538399Y00903867D01*
X00537804Y00903146D01*
X00537581Y00902812D01*
X00537408Y00902496D01*
X00537285Y00902198D01*
X00537211Y00901917D01*
X00537186Y00901655D01*
X00537211Y00901411D01*
X00537286Y00901184D01*
X00535267Y00905595D01*
X00535383Y00905405D01*
X00535527Y00905275D01*
X00535699Y00905205D01*
X00535900Y00905197D01*
X00536129Y00905248D01*
X00536386Y00905361D01*
X00536672Y00905534D01*
X00536987Y00905768D01*
X00537329Y00906063D01*
X00537701Y00906418D01*
X00538770Y00904254D01*
D02*
G37*
G36*
X00553732Y00892206D02*
X00553617Y00892396D01*
X00553473Y00892526D01*
X00553301Y00892596D01*
X00553100Y00892604D01*
X00552871Y00892552D01*
X00552613Y00892440D01*
X00552327Y00892267D01*
X00552013Y00892033D01*
X00551670Y00891738D01*
X00551299Y00891383D01*
X00550230Y00893547D01*
X00550601Y00893934D01*
X00551195Y00894655D01*
X00551418Y00894989D01*
X00551591Y00895305D01*
X00551715Y00895603D01*
X00551789Y00895883D01*
X00551814Y00896146D01*
X00551788Y00896390D01*
X00551714Y00896617D01*
X00553732Y00892206D01*
D02*
G37*
G36*
X00586320Y00875598D02*
X00586622Y00875344D01*
X00586908Y00875139D01*
X00587178Y00874982D01*
X00587431Y00874875D01*
X00587667Y00874816D01*
X00587887Y00874807D01*
X00588090Y00874846D01*
X00588277Y00874934D01*
X00588447Y00875071D01*
X00585214Y00871839D01*
X00585351Y00872009D01*
X00585439Y00872195D01*
X00585478Y00872398D01*
X00585469Y00872618D01*
X00585410Y00872854D01*
X00585303Y00873107D01*
X00585146Y00873377D01*
X00584941Y00873663D01*
X00584687Y00873966D01*
X00584384Y00874285D01*
X00586000Y00875901D01*
X00586320Y00875598D01*
D02*
G37*
G36*
X00670561Y00871728D02*
X00670538Y00871945D01*
X00670468Y00872140D01*
X00670352Y00872311D01*
X00670190Y00872459D01*
X00669982Y00872585D01*
X00669727Y00872688D01*
X00669426Y00872768D01*
X00669078Y00872825D01*
X00668684Y00872860D01*
X00668244Y00872871D01*
Y00875157D01*
X00668684Y00875168D01*
X00669078Y00875203D01*
X00669426Y00875260D01*
X00669727Y00875340D01*
X00669982Y00875443D01*
X00670190Y00875568D01*
X00670352Y00875717D01*
X00670468Y00875889D01*
X00670538Y00876083D01*
X00670561Y00876300D01*
Y00871728D01*
D02*
G37*
G36*
X00545462Y00876069D02*
X00545532Y00875875D01*
X00545647Y00875703D01*
X00545810Y00875555D01*
X00546018Y00875429D01*
X00546273Y00875326D01*
X00546574Y00875246D01*
X00546921Y00875189D01*
X00547315Y00875155D01*
X00547755Y00875143D01*
Y00872857D01*
X00547315Y00872846D01*
X00546921Y00872812D01*
X00546574Y00872754D01*
X00546273Y00872674D01*
X00546018Y00872571D01*
X00545810Y00872446D01*
X00545647Y00872297D01*
X00545532Y00872126D01*
X00545462Y00871932D01*
X00545439Y00871714D01*
Y00876286D01*
X00545462Y00876069D01*
D02*
G37*
G36*
X00631616Y00874285D02*
X00631313Y00873966D01*
X00631059Y00873663D01*
X00630854Y00873377D01*
X00630697Y00873107D01*
X00630590Y00872854D01*
X00630531Y00872618D01*
X00630522Y00872398D01*
X00630561Y00872195D01*
X00630649Y00872009D01*
X00630787Y00871839D01*
X00627554Y00875071D01*
X00627724Y00874934D01*
X00627910Y00874846D01*
X00628113Y00874807D01*
X00628333Y00874816D01*
X00628569Y00874875D01*
X00628822Y00874982D01*
X00629092Y00875139D01*
X00629378Y00875344D01*
X00629680Y00875598D01*
X00630000Y00875901D01*
X00631616Y00874285D01*
D02*
G37*
G36*
X00530086Y00878970D02*
X00529653Y00878521D01*
X00528965Y00877706D01*
X00528711Y00877341D01*
X00528516Y00877003D01*
X00528381Y00876694D01*
X00528306Y00876413D01*
X00528291Y00876160D01*
X00528335Y00875934D01*
X00528439Y00875737D01*
X00525737Y00879439D01*
X00525890Y00879291D01*
X00526080Y00879212D01*
X00526309Y00879202D01*
X00526575Y00879263D01*
X00526880Y00879393D01*
X00527222Y00879592D01*
X00527602Y00879861D01*
X00528020Y00880200D01*
X00528970Y00881086D01*
X00530086Y00878970D01*
D02*
G37*
G36*
X00591976Y00881255D02*
X00592279Y00881001D01*
X00592565Y00880795D01*
X00592835Y00880639D01*
X00593087Y00880531D01*
X00593324Y00880473D01*
X00593544Y00880463D01*
X00593747Y00880503D01*
X00593933Y00880591D01*
X00594103Y00880728D01*
X00590870Y00877495D01*
X00591007Y00877665D01*
X00591096Y00877852D01*
X00591135Y00878055D01*
X00591125Y00878275D01*
X00591067Y00878511D01*
X00590959Y00878764D01*
X00590803Y00879033D01*
X00590598Y00879319D01*
X00590344Y00879622D01*
X00590040Y00879941D01*
X00591657Y00881558D01*
X00591976Y00881255D01*
D02*
G37*
G36*
X00655949Y00877320D02*
X00655581Y00877585D01*
X00654850Y00878031D01*
X00654488Y00878212D01*
X00654127Y00878365D01*
X00653769Y00878490D01*
X00653413Y00878588D01*
X00653059Y00878657D01*
X00652708Y00878699D01*
X00652358Y00878713D01*
Y00880999D01*
X00652708Y00881013D01*
X00653059Y00881055D01*
X00653413Y00881124D01*
X00653769Y00881222D01*
X00654127Y00881347D01*
X00654488Y00881500D01*
X00654850Y00881681D01*
X00655214Y00881890D01*
X00655581Y00882127D01*
X00655949Y00882392D01*
Y00877320D01*
D02*
G37*
G36*
X00669109Y00841274D02*
X00669476Y00840956D01*
X00669649Y00840827D01*
X00669814Y00840718D01*
X00669972Y00840629D01*
X00670123Y00840559D01*
X00670266Y00840510D01*
X00670402Y00840480D01*
X00670530Y00840470D01*
X00670561Y00834997D01*
X00670543Y00835316D01*
X00670492Y00835637D01*
X00670409Y00835958D01*
X00670293Y00836280D01*
X00670145Y00836602D01*
X00669964Y00836926D01*
X00669750Y00837251D01*
X00669504Y00837576D01*
X00669225Y00837903D01*
X00668914Y00838230D01*
Y00841463D01*
X00669109Y00841274D01*
D02*
G37*
G36*
X00676655Y00792317D02*
X00676689Y00791923D01*
X00676746Y00791575D01*
X00676826Y00791274D01*
X00676929Y00791019D01*
X00677055Y00790811D01*
X00677203Y00790649D01*
X00677375Y00790533D01*
X00677569Y00790463D01*
X00677786Y00790440D01*
X00673214D01*
X00673431Y00790463D01*
X00673626Y00790533D01*
X00673797Y00790649D01*
X00673946Y00790811D01*
X00674072Y00791019D01*
X00674174Y00791274D01*
X00674254Y00791575D01*
X00674312Y00791923D01*
X00674346Y00792317D01*
X00674357Y00792757D01*
X00676643D01*
X00676655Y00792317D01*
D02*
G37*
G36*
X00571454Y00789878D02*
X00571284Y00790016D01*
X00571099Y00790105D01*
X00570896Y00790145D01*
X00570678Y00790137D01*
X00570444Y00790080D01*
X00570193Y00789976D01*
X00569927Y00789822D01*
X00569644Y00789620D01*
X00569345Y00789369D01*
X00569030Y00789070D01*
X00567413Y00790687D01*
X00567712Y00791002D01*
X00567963Y00791301D01*
X00568165Y00791584D01*
X00568318Y00791851D01*
X00568423Y00792101D01*
X00568480Y00792336D01*
X00568488Y00792554D01*
X00568448Y00792756D01*
X00568359Y00792942D01*
X00568221Y00793111D01*
X00571454Y00789878D01*
D02*
G37*
G36*
X00647641Y00792941D02*
X00647552Y00792755D01*
X00647512Y00792553D01*
X00647520Y00792335D01*
X00647577Y00792101D01*
X00647682Y00791850D01*
X00647835Y00791583D01*
X00648037Y00791300D01*
X00648288Y00791001D01*
X00648587Y00790686D01*
X00646971Y00789070D01*
X00646655Y00789369D01*
X00646356Y00789619D01*
X00646073Y00789821D01*
X00645807Y00789975D01*
X00645556Y00790080D01*
X00645322Y00790137D01*
X00645104Y00790145D01*
X00644902Y00790104D01*
X00644716Y00790015D01*
X00644546Y00789878D01*
X00647779Y00793111D01*
X00647641Y00792941D01*
D02*
G37*
G36*
X00565797Y00795536D02*
X00565627Y00795673D01*
X00565442Y00795762D01*
X00565239Y00795802D01*
X00565021Y00795794D01*
X00564787Y00795738D01*
X00564536Y00795632D01*
X00564270Y00795479D01*
X00564087Y00795348D01*
X00563941Y00795146D01*
X00563743Y00794832D01*
X00563563Y00794503D01*
X00563401Y00794158D01*
X00563257Y00793798D01*
X00563130Y00793422D01*
X00563021Y00793030D01*
X00562930Y00792623D01*
X00559688Y00796414D01*
X00560124Y00796444D01*
X00560541Y00796498D01*
X00560940Y00796576D01*
X00561320Y00796677D01*
X00561680Y00796803D01*
X00562022Y00796952D01*
X00562345Y00797125D01*
X00562494Y00797222D01*
X00562508Y00797241D01*
X00562661Y00797508D01*
X00562766Y00797758D01*
X00562823Y00797993D01*
X00562831Y00798211D01*
X00562790Y00798413D01*
X00562702Y00798599D01*
X00562564Y00798768D01*
X00565797Y00795536D01*
D02*
G37*
G36*
X00677967Y00808660D02*
X00678552Y00808178D01*
X00678855Y00807964D01*
X00679484Y00807591D01*
X00679809Y00807432D01*
X00680142Y00807291D01*
X00680482Y00807169D01*
X00680830Y00807064D01*
X00676835Y00804261D01*
X00676855Y00804675D01*
X00676844Y00805074D01*
X00676804Y00805458D01*
X00676733Y00805826D01*
X00676631Y00806179D01*
X00676500Y00806516D01*
X00676338Y00806838D01*
X00676146Y00807144D01*
X00675923Y00807435D01*
X00675671Y00807710D01*
X00677686Y00808929D01*
X00677967Y00808660D01*
D02*
G37*
G36*
X00614187Y00809180D02*
X00614530Y00808905D01*
X00614887Y00808663D01*
X00615257Y00808453D01*
X00615641Y00808275D01*
X00616038Y00808130D01*
X00616448Y00808017D01*
X00616872Y00807936D01*
X00617309Y00807887D01*
X00617759Y00807871D01*
X00618429Y00805585D01*
X00617995Y00805562D01*
X00617606Y00805493D01*
X00617263Y00805379D01*
X00616966Y00805219D01*
X00616715Y00805014D01*
X00616509Y00804762D01*
X00616349Y00804465D01*
X00616234Y00804122D01*
X00616166Y00803733D01*
X00616143Y00803299D01*
X00613857Y00803969D01*
X00613841Y00804419D01*
X00613792Y00804856D01*
X00613712Y00805280D01*
X00613598Y00805690D01*
X00613453Y00806087D01*
X00613275Y00806471D01*
X00613065Y00806841D01*
X00612822Y00807198D01*
X00612548Y00807541D01*
X00612240Y00807871D01*
X00613857Y00809487D01*
X00614187Y00809180D01*
D02*
G37*
G36*
X00610841Y00801544D02*
X00610767Y00801302D01*
X00610702Y00801036D01*
X00610598Y00800431D01*
X00610559Y00800091D01*
X00610493Y00798926D01*
X00610489Y00798489D01*
X00608203Y00797291D01*
X00608186Y00797681D01*
X00608135Y00798049D01*
X00608050Y00798394D01*
X00607932Y00798718D01*
X00607779Y00799019D01*
X00607593Y00799299D01*
X00607372Y00799557D01*
X00607118Y00799792D01*
X00606829Y00800006D01*
X00606507Y00800198D01*
X00610923Y00801761D01*
X00610841Y00801544D01*
D02*
G37*
G36*
X00549279Y00787271D02*
X00550010Y00786825D01*
X00550373Y00786644D01*
X00550733Y00786491D01*
X00551091Y00786366D01*
X00551447Y00786268D01*
X00551801Y00786199D01*
X00552152Y00786157D01*
X00552502Y00786143D01*
Y00783857D01*
X00552152Y00783843D01*
X00551801Y00783801D01*
X00551447Y00783732D01*
X00551091Y00783634D01*
X00550733Y00783509D01*
X00550373Y00783356D01*
X00550010Y00783175D01*
X00549646Y00782966D01*
X00549279Y00782729D01*
X00548911Y00782464D01*
Y00787536D01*
X00549279Y00787271D01*
D02*
G37*
G36*
X00582768Y00778565D02*
X00582598Y00778702D01*
X00582412Y00778791D01*
X00582210Y00778831D01*
X00581992Y00778823D01*
X00581758Y00778767D01*
X00581507Y00778662D01*
X00581240Y00778508D01*
X00580957Y00778306D01*
X00580658Y00778056D01*
X00580343Y00777757D01*
X00578727Y00779373D01*
X00579026Y00779688D01*
X00579276Y00779987D01*
X00579478Y00780270D01*
X00579632Y00780537D01*
X00579737Y00780787D01*
X00579794Y00781022D01*
X00579802Y00781240D01*
X00579761Y00781442D01*
X00579672Y00781628D01*
X00579535Y00781798D01*
X00582768Y00778565D01*
D02*
G37*
G36*
X00612482Y00781553D02*
X00612785Y00781298D01*
X00613071Y00781093D01*
X00613340Y00780937D01*
X00613593Y00780829D01*
X00613830Y00780771D01*
X00614049Y00780761D01*
X00614253Y00780800D01*
X00614439Y00780889D01*
X00614609Y00781026D01*
X00611376Y00777793D01*
X00611513Y00777963D01*
X00611602Y00778149D01*
X00611641Y00778353D01*
X00611631Y00778572D01*
X00611573Y00778809D01*
X00611465Y00779062D01*
X00611309Y00779331D01*
X00611104Y00779617D01*
X00610849Y00779920D01*
X00610546Y00780239D01*
X00612163Y00781856D01*
X00612482Y00781553D01*
D02*
G37*
G36*
X00618139Y00787210D02*
X00618442Y00786955D01*
X00618728Y00786750D01*
X00618997Y00786594D01*
X00619250Y00786486D01*
X00619487Y00786428D01*
X00619706Y00786418D01*
X00619910Y00786458D01*
X00620096Y00786546D01*
X00620266Y00786683D01*
X00617033Y00783450D01*
X00617170Y00783620D01*
X00617259Y00783807D01*
X00617298Y00784010D01*
X00617288Y00784230D01*
X00617230Y00784466D01*
X00617122Y00784719D01*
X00616966Y00784988D01*
X00616761Y00785274D01*
X00616507Y00785577D01*
X00616203Y00785896D01*
X00617820Y00787513D01*
X00618139Y00787210D01*
D02*
G37*
G36*
X00597535Y00787211D02*
X00597546Y00786640D01*
X00597636Y00785648D01*
X00597714Y00785227D01*
X00597815Y00784857D01*
X00597939Y00784537D01*
X00598084Y00784267D01*
X00598253Y00784048D01*
X00598443Y00783879D01*
X00598656Y00783761D01*
X00594128Y00785647D01*
X00594341Y00785597D01*
X00594531Y00785635D01*
X00594700Y00785761D01*
X00594845Y00785975D01*
X00594969Y00786276D01*
X00595070Y00786665D01*
X00595148Y00787141D01*
X00595204Y00787706D01*
X00595249Y00789097D01*
X00597535Y00787211D01*
D02*
G37*
G36*
X00605775Y00788169D02*
X00605329Y00787438D01*
X00605148Y00787076D01*
X00604995Y00786715D01*
X00604870Y00786357D01*
X00604772Y00786001D01*
X00604703Y00785647D01*
X00604661Y00785295D01*
X00604647Y00784946D01*
X00602361D01*
X00602347Y00785295D01*
X00602305Y00785647D01*
X00602236Y00786001D01*
X00602138Y00786357D01*
X00602013Y00786715D01*
X00601860Y00787076D01*
X00601679Y00787438D01*
X00601470Y00787802D01*
X00601233Y00788169D01*
X00600968Y00788537D01*
X00606040D01*
X00605775Y00788169D01*
D02*
G37*
G36*
X00575083Y00786250D02*
X00575090Y00786257D01*
X00576707Y00784640D01*
X00576700Y00784633D01*
X00577417Y00783915D01*
X00577265Y00784036D01*
X00577094Y00784109D01*
X00576906Y00784136D01*
X00576699Y00784116D01*
X00576475Y00784050D01*
X00576232Y00783936D01*
X00576070Y00783837D01*
X00576049Y00783805D01*
X00575867Y00783485D01*
X00575702Y00783143D01*
X00575555Y00782780D01*
X00575427Y00782396D01*
X00575317Y00781990D01*
X00575226Y00781564D01*
X00575152Y00781116D01*
X00571566Y00784702D01*
X00572014Y00784776D01*
X00572846Y00784977D01*
X00573230Y00785106D01*
X00573593Y00785252D01*
X00573935Y00785416D01*
X00574255Y00785599D01*
X00574260Y00785602D01*
X00574372Y00785797D01*
X00574477Y00786048D01*
X00574534Y00786282D01*
X00574542Y00786500D01*
X00574501Y00786702D01*
X00574412Y00786888D01*
X00574275Y00787058D01*
X00575083Y00786250D01*
D02*
G37*
G36*
X00572993Y00832360D02*
X00573271Y00832141D01*
X00573571Y00831939D01*
X00573891Y00831757D01*
X00574233Y00831592D01*
X00574596Y00831446D01*
X00574980Y00831318D01*
X00575386Y00831208D01*
X00575812Y00831116D01*
X00576260Y00831042D01*
X00572674Y00827456D01*
X00572600Y00827904D01*
X00572399Y00828736D01*
X00572271Y00829120D01*
X00572124Y00829483D01*
X00571959Y00829825D01*
X00571777Y00830146D01*
X00571576Y00830445D01*
X00571357Y00830723D01*
X00571119Y00830981D01*
X00572736Y00832597D01*
X00572993Y00832360D01*
D02*
G37*
G36*
X00596576Y00824787D02*
X00596676Y00824644D01*
X00596812Y00824517D01*
X00596984Y00824407D01*
X00597192Y00824314D01*
X00597435Y00824238D01*
X00597715Y00824179D01*
X00598030Y00824137D01*
X00598381Y00824111D01*
X00598768Y00824103D01*
Y00821817D01*
X00598381Y00821808D01*
X00597715Y00821741D01*
X00597435Y00821682D01*
X00597192Y00821606D01*
X00596984Y00821513D01*
X00596812Y00821403D01*
X00596676Y00821276D01*
X00596576Y00821133D01*
X00596512Y00820972D01*
Y00824948D01*
X00596576Y00824787D01*
D02*
G37*
G36*
X00699086Y00819970D02*
X00698653Y00819521D01*
X00697965Y00818706D01*
X00697711Y00818341D01*
X00697516Y00818004D01*
X00697381Y00817695D01*
X00697306Y00817413D01*
X00697291Y00817160D01*
X00697335Y00816935D01*
X00697439Y00816737D01*
X00694737Y00820440D01*
X00694889Y00820291D01*
X00695080Y00820212D01*
X00695309Y00820203D01*
X00695575Y00820263D01*
X00695879Y00820393D01*
X00696222Y00820592D01*
X00696602Y00820862D01*
X00697020Y00821200D01*
X00697970Y00822087D01*
X00699086Y00819970D01*
D02*
G37*
G36*
X00690263Y00829562D02*
X00690111Y00829710D01*
X00689920Y00829789D01*
X00689691Y00829798D01*
X00689425Y00829738D01*
X00689121Y00829608D01*
X00688778Y00829409D01*
X00688398Y00829140D01*
X00687980Y00828801D01*
X00687030Y00827915D01*
X00685914Y00830031D01*
X00686347Y00830480D01*
X00687035Y00831295D01*
X00687289Y00831660D01*
X00687484Y00831997D01*
X00687619Y00832307D01*
X00687694Y00832588D01*
X00687709Y00832841D01*
X00687665Y00833067D01*
X00687561Y00833264D01*
X00690263Y00829562D01*
D02*
G37*
G36*
X00631487Y00837559D02*
X00631688Y00836727D01*
X00631816Y00836343D01*
X00631963Y00835980D01*
X00632127Y00835638D01*
X00632310Y00835318D01*
X00632511Y00835018D01*
X00632730Y00834740D01*
X00632968Y00834483D01*
X00631351Y00832866D01*
X00631094Y00833104D01*
X00630816Y00833323D01*
X00630517Y00833524D01*
X00630196Y00833707D01*
X00629854Y00833871D01*
X00629491Y00834017D01*
X00629107Y00834146D01*
X00628701Y00834256D01*
X00628275Y00834347D01*
X00627827Y00834421D01*
X00631413Y00838007D01*
X00631487Y00837559D01*
D02*
G37*
G36*
X00570567Y00836075D02*
X00570478Y00835890D01*
X00570437Y00835687D01*
X00570445Y00835469D01*
X00570502Y00835235D01*
X00570607Y00834984D01*
X00570761Y00834718D01*
X00570963Y00834435D01*
X00571213Y00834136D01*
X00571512Y00833820D01*
X00569896Y00832204D01*
X00569581Y00832503D01*
X00569282Y00832754D01*
X00568999Y00832956D01*
X00568732Y00833109D01*
X00568481Y00833214D01*
X00568247Y00833271D01*
X00568029Y00833279D01*
X00567827Y00833239D01*
X00567641Y00833150D01*
X00567471Y00833012D01*
X00570704Y00836245D01*
X00570567Y00836075D01*
D02*
G37*
G36*
X00552576Y00836305D02*
X00552721Y00836114D01*
X00552923Y00835946D01*
X00553182Y00835800D01*
X00553498Y00835677D01*
X00553872Y00835576D01*
X00554303Y00835497D01*
X00554791Y00835441D01*
X00555336Y00835408D01*
X00555939Y00835396D01*
X00557131Y00833110D01*
X00556422Y00833099D01*
X00555247Y00833009D01*
X00554781Y00832931D01*
X00554395Y00832830D01*
X00554091Y00832707D01*
X00553867Y00832561D01*
X00553724Y00832393D01*
X00553662Y00832202D01*
X00553680Y00831989D01*
X00553385Y00833112D01*
X00553200Y00833110D01*
Y00833813D01*
X00552488Y00836518D01*
X00552576Y00836305D01*
D02*
G37*
G36*
X00569686Y00816007D02*
X00569385Y00815690D01*
X00569132Y00815388D01*
X00568928Y00815103D01*
X00568772Y00814834D01*
X00568665Y00814582D01*
X00568606Y00814345D01*
X00568596Y00814125D01*
X00568634Y00813921D01*
X00568721Y00813733D01*
X00568856Y00813561D01*
X00567165Y00815296D01*
X00567046Y00815447D01*
X00566973Y00815616D01*
X00566947Y00815804D01*
X00566968Y00816010D01*
X00567035Y00816233D01*
X00567149Y00816475D01*
X00567309Y00816735D01*
X00567516Y00817013D01*
X00567770Y00817309D01*
X00568069Y00817624D01*
X00569686Y00816007D01*
D02*
G37*
G36*
X00553126Y00808250D02*
X00553103Y00808463D01*
X00553008Y00808653D01*
X00552842Y00808821D01*
X00552604Y00808967D01*
X00552295Y00809091D01*
X00551914Y00809192D01*
X00551461Y00809270D01*
X00550938Y00809326D01*
X00549676Y00809371D01*
X00549926Y00811657D01*
X00550571Y00811668D01*
X00551660Y00811758D01*
X00552105Y00811836D01*
X00552483Y00811937D01*
X00552795Y00812061D01*
X00553040Y00812206D01*
X00553219Y00812375D01*
X00553331Y00812565D01*
X00553377Y00812778D01*
X00553126Y00808250D01*
D02*
G37*
G36*
X00584116Y00810508D02*
X00584317Y00809676D01*
X00584445Y00809292D01*
X00584592Y00808929D01*
X00584757Y00808587D01*
X00584939Y00808267D01*
X00585140Y00807967D01*
X00585359Y00807689D01*
X00585597Y00807432D01*
X00583980Y00805815D01*
X00583723Y00806053D01*
X00583445Y00806272D01*
X00583145Y00806473D01*
X00582825Y00806656D01*
X00582483Y00806820D01*
X00582120Y00806966D01*
X00581736Y00807095D01*
X00581330Y00807205D01*
X00580904Y00807296D01*
X00580456Y00807370D01*
X00584042Y00810956D01*
X00584116Y00810508D01*
D02*
G37*
G36*
X00668909Y00816362D02*
X00666623Y00815537D01*
X00666608Y00815953D01*
X00666563Y00816327D01*
X00666489Y00816660D01*
X00666385Y00816951D01*
X00666251Y00817202D01*
X00666087Y00817411D01*
X00665893Y00817579D01*
X00665670Y00817705D01*
X00665417Y00817791D01*
X00665134Y00817835D01*
X00668513Y00820466D01*
X00668909Y00816362D01*
D02*
G37*
G36*
X00571120Y00823230D02*
X00571277Y00823100D01*
X00571461Y00822986D01*
X00571673Y00822887D01*
X00571913Y00822803D01*
X00572181Y00822734D01*
X00572477Y00822681D01*
X00572800Y00822643D01*
X00573532Y00822613D01*
Y00820327D01*
X00573152Y00820319D01*
X00572477Y00820258D01*
X00572181Y00820205D01*
X00571913Y00820136D01*
X00571673Y00820052D01*
X00571461Y00819953D01*
X00571277Y00819839D01*
X00571120Y00819709D01*
X00570992Y00819565D01*
Y00823374D01*
X00571120Y00823230D01*
D02*
G37*
G36*
X00541049Y00823741D02*
X00541157Y00823551D01*
X00541332Y00823382D01*
X00541575Y00823237D01*
X00541886Y00823113D01*
X00542265Y00823012D01*
X00542712Y00822934D01*
X00543227Y00822878D01*
X00544461Y00822833D01*
X00544568Y00820547D01*
X00543907Y00820536D01*
X00542797Y00820446D01*
X00542346Y00820368D01*
X00541966Y00820267D01*
X00541656Y00820143D01*
X00541416Y00819997D01*
X00541247Y00819829D01*
X00541147Y00819639D01*
X00541117Y00819426D01*
X00541010Y00823954D01*
X00541049Y00823741D01*
D02*
G37*
G36*
X00550031Y00819154D02*
X00549663Y00819419D01*
X00548932Y00819865D01*
X00548569Y00820046D01*
X00548209Y00820199D01*
X00547851Y00820324D01*
X00547495Y00820422D01*
X00547141Y00820491D01*
X00546790Y00820533D01*
X00546440Y00820547D01*
Y00822833D01*
X00546790Y00822847D01*
X00547141Y00822889D01*
X00547495Y00822958D01*
X00547851Y00823056D01*
X00548209Y00823181D01*
X00548569Y00823334D01*
X00548932Y00823515D01*
X00549296Y00823724D01*
X00549663Y00823961D01*
X00550031Y00824226D01*
Y00819154D01*
D02*
G37*
G36*
X00584264Y01016062D02*
X00584067Y01016166D01*
X00583841Y01016210D01*
X00583588Y01016195D01*
X00583307Y01016119D01*
X00582997Y01015984D01*
X00582660Y01015790D01*
X00582295Y01015536D01*
X00581902Y01015222D01*
X00581031Y01014415D01*
X00578914Y01015530D01*
X00579392Y01016024D01*
X00580139Y01016898D01*
X00580408Y01017278D01*
X00580608Y01017621D01*
X00580738Y01017925D01*
X00580798Y01018191D01*
X00580788Y01018420D01*
X00580709Y01018611D01*
X00580561Y01018763D01*
X00584264Y01016062D01*
D02*
G37*
G36*
X00697263Y01014561D02*
X00697110Y01014710D01*
X00696920Y01014789D01*
X00696691Y01014798D01*
X00696425Y01014738D01*
X00696120Y01014608D01*
X00695778Y01014409D01*
X00695398Y01014139D01*
X00694980Y01013801D01*
X00694030Y01012915D01*
X00692914Y01015031D01*
X00693347Y01015480D01*
X00694035Y01016295D01*
X00694289Y01016660D01*
X00694484Y01016997D01*
X00694618Y01017307D01*
X00694694Y01017588D01*
X00694709Y01017841D01*
X00694665Y01018066D01*
X00694561Y01018264D01*
X00697263Y01014561D01*
D02*
G37*
G36*
X00526263D02*
X00526110Y01014710D01*
X00525920Y01014789D01*
X00525691Y01014798D01*
X00525425Y01014738D01*
X00525120Y01014608D01*
X00524778Y01014409D01*
X00524398Y01014139D01*
X00523980Y01013801D01*
X00523030Y01012915D01*
X00521914Y01015031D01*
X00522347Y01015480D01*
X00523035Y01016295D01*
X00523289Y01016660D01*
X00523484Y01016997D01*
X00523619Y01017307D01*
X00523694Y01017588D01*
X00523709Y01017841D01*
X00523665Y01018066D01*
X00523561Y01018264D01*
X00526263Y01014561D01*
D02*
G37*
G36*
X00643654Y01031822D02*
X00643689Y01031433D01*
X00643746Y01031090D01*
X00643826Y01030793D01*
X00643929Y01030542D01*
X00644055Y01030336D01*
X00644203Y01030176D01*
X00644375Y01030062D01*
X00644569Y01029993D01*
X00644786Y01029970D01*
X00640214D01*
X00640431Y01029993D01*
X00640626Y01030062D01*
X00640797Y01030176D01*
X00640946Y01030336D01*
X00641071Y01030542D01*
X00641174Y01030793D01*
X00641254Y01031090D01*
X00641311Y01031433D01*
X00641346Y01031822D01*
X00641357Y01032256D01*
X00643643D01*
X00643654Y01031822D01*
D02*
G37*
G36*
X00605654D02*
X00605688Y01031433D01*
X00605746Y01031090D01*
X00605826Y01030793D01*
X00605928Y01030542D01*
X00606054Y01030336D01*
X00606203Y01030176D01*
X00606374Y01030062D01*
X00606568Y01029993D01*
X00606786Y01029970D01*
X00602214D01*
X00602431Y01029993D01*
X00602625Y01030062D01*
X00602797Y01030176D01*
X00602945Y01030336D01*
X00603071Y01030542D01*
X00603174Y01030793D01*
X00603254Y01031090D01*
X00603311Y01031433D01*
X00603345Y01031822D01*
X00603357Y01032256D01*
X00605643D01*
X00605654Y01031822D01*
D02*
G37*
G36*
X00567654D02*
X00567688Y01031433D01*
X00567746Y01031090D01*
X00567826Y01030793D01*
X00567929Y01030542D01*
X00568054Y01030336D01*
X00568203Y01030176D01*
X00568374Y01030062D01*
X00568569Y01029993D01*
X00568786Y01029970D01*
X00564214D01*
X00564431Y01029993D01*
X00564625Y01030062D01*
X00564797Y01030176D01*
X00564945Y01030336D01*
X00565071Y01030542D01*
X00565174Y01030793D01*
X00565254Y01031090D01*
X00565311Y01031433D01*
X00565345Y01031822D01*
X00565357Y01032256D01*
X00567643D01*
X00567654Y01031822D01*
D02*
G37*
G36*
X00552290Y01018611D02*
X00552211Y01018420D01*
X00552202Y01018191D01*
X00552262Y01017925D01*
X00552392Y01017621D01*
X00552592Y01017278D01*
X00552861Y01016898D01*
X00553200Y01016480D01*
X00554086Y01015530D01*
X00551969Y01014415D01*
X00551520Y01014848D01*
X00550705Y01015536D01*
X00550340Y01015790D01*
X00550003Y01015984D01*
X00549693Y01016119D01*
X00549412Y01016195D01*
X00549159Y01016210D01*
X00548933Y01016166D01*
X00548736Y01016062D01*
X00552439Y01018763D01*
X00552290Y01018611D01*
D02*
G37*
G36*
X00721335Y01018066D02*
X00721291Y01017841D01*
X00721306Y01017588D01*
X00721381Y01017307D01*
X00721516Y01016997D01*
X00721711Y01016660D01*
X00721965Y01016295D01*
X00722279Y01015901D01*
X00723086Y01015031D01*
X00721970Y01012915D01*
X00721476Y01013392D01*
X00720602Y01014139D01*
X00720222Y01014409D01*
X00719879Y01014608D01*
X00719575Y01014738D01*
X00719309Y01014798D01*
X00719080Y01014789D01*
X00718889Y01014710D01*
X00718737Y01014561D01*
X00721439Y01018264D01*
X00721335Y01018066D01*
D02*
G37*
G36*
X00662960Y01068040D02*
Y01054040D01*
X00662960Y01052960D01*
X00662960D01*
Y01051040D01*
X00662960D01*
Y01035960D01*
X00671129D01*
X00673134Y01032960D01*
X00672960Y01032540D01*
X00672960D01*
Y01015881D01*
X00669000D01*
Y01028965D01*
X00663268Y01023232D01*
X00661500Y01025000D01*
X00659732Y01023232D01*
X00654000Y01028965D01*
Y01017036D01*
X00659732Y01022768D01*
X00663268Y01019232D01*
X00660167Y01016132D01*
X00660264Y01016062D01*
X00660155Y01016119D01*
X00656719Y01012684D01*
X00657529Y01010729D01*
X00656190Y01009390D01*
X00655872Y01009027D01*
X00655603Y01008625D01*
X00655390Y01008192D01*
X00655235Y01007735D01*
X00655141Y01007262D01*
X00655109Y01006780D01*
Y00984748D01*
X00655005Y00984699D01*
X00654328Y00984293D01*
X00653693Y00983823D01*
X00653108Y00983292D01*
X00652578Y00982707D01*
X00652107Y00982072D01*
X00651701Y00981395D01*
X00651363Y00980681D01*
X00651097Y00979937D01*
X00650905Y00979171D01*
X00650789Y00978389D01*
X00650750Y00977600D01*
Y00972600D01*
X00650789Y00971811D01*
X00650905Y00971030D01*
X00651097Y00970264D01*
X00651363Y00969520D01*
X00651701Y00968806D01*
X00652107Y00968128D01*
X00652578Y00967494D01*
X00653108Y00966908D01*
X00653693Y00966378D01*
X00654328Y00965907D01*
X00655005Y00965501D01*
X00655720Y00965163D01*
X00656463Y00964897D01*
X00657230Y00964705D01*
X00658011Y00964589D01*
X00658800Y00964550D01*
X00659589Y00964589D01*
X00660370Y00964705D01*
X00661137Y00964897D01*
X00661880Y00965163D01*
X00662595Y00965501D01*
X00663272Y00965907D01*
X00663907Y00966378D01*
X00664309Y00966742D01*
X00665071Y00966651D01*
X00667243Y00965686D01*
X00667309Y00965633D01*
Y00938029D01*
X00637560Y00908280D01*
X00637195Y00908499D01*
X00636480Y00908837D01*
X00635737Y00909103D01*
X00634970Y00909295D01*
X00634189Y00909411D01*
X00633400Y00909450D01*
X00632611Y00909411D01*
X00631830Y00909295D01*
X00631063Y00909103D01*
X00630320Y00908837D01*
X00629605Y00908499D01*
X00628928Y00908093D01*
X00628483Y00907763D01*
X00627607Y00907927D01*
X00625992Y00908644D01*
X00625483Y00909104D01*
Y00936752D01*
X00625451Y00937234D01*
X00625357Y00937707D01*
X00625202Y00938164D01*
X00624988Y00938597D01*
X00624720Y00938999D01*
X00624402Y00939362D01*
X00611691Y00952073D01*
Y00965452D01*
X00611795Y00965501D01*
X00612472Y00965907D01*
X00613107Y00966378D01*
X00613692Y00966908D01*
X00614222Y00967494D01*
X00614693Y00968128D01*
X00615099Y00968806D01*
X00615437Y00969520D01*
X00615703Y00970264D01*
X00615895Y00971030D01*
X00616011Y00971811D01*
X00616050Y00972600D01*
Y00977600D01*
X00616011Y00978389D01*
X00615895Y00979171D01*
X00615703Y00979937D01*
X00615437Y00980681D01*
X00615099Y00981395D01*
X00614693Y00982072D01*
X00614222Y00982707D01*
X00613692Y00983292D01*
X00613107Y00983823D01*
X00612472Y00984293D01*
X00611795Y00984699D01*
X00611081Y00985037D01*
X00610337Y00985303D01*
X00609570Y00985495D01*
X00608789Y00985611D01*
X00608000Y00985650D01*
X00607211Y00985611D01*
X00606430Y00985495D01*
X00605663Y00985303D01*
X00604920Y00985037D01*
X00604205Y00984699D01*
X00603528Y00984293D01*
X00602893Y00983823D01*
X00602308Y00983292D01*
X00601777Y00982707D01*
X00601307Y00982072D01*
X00600901Y00981395D01*
X00600563Y00980681D01*
X00600297Y00979937D01*
X00600105Y00979171D01*
X00599989Y00978389D01*
X00599950Y00977600D01*
Y00972600D01*
X00599989Y00971811D01*
X00600105Y00971030D01*
X00600297Y00970264D01*
X00600563Y00969520D01*
X00600901Y00968806D01*
X00601307Y00968128D01*
X00601777Y00967494D01*
X00602308Y00966908D01*
X00602893Y00966378D01*
X00603528Y00965907D01*
X00604205Y00965501D01*
X00604309Y00965452D01*
Y00950544D01*
X00604341Y00950062D01*
X00604435Y00949589D01*
X00604590Y00949132D01*
X00604803Y00948699D01*
X00605072Y00948297D01*
X00605390Y00947934D01*
X00618101Y00935223D01*
Y00905864D01*
X00615101Y00905191D01*
X00615099Y00905195D01*
X00614693Y00905872D01*
X00614222Y00906507D01*
X00613692Y00907092D01*
X00613107Y00907623D01*
X00612472Y00908093D01*
X00611795Y00908499D01*
X00611081Y00908837D01*
X00610337Y00909103D01*
X00609570Y00909295D01*
X00608789Y00909411D01*
X00608000Y00909450D01*
X00607211Y00909411D01*
X00606430Y00909295D01*
X00605663Y00909103D01*
X00604920Y00908837D01*
X00604205Y00908499D01*
X00603528Y00908093D01*
X00602893Y00907623D01*
X00602308Y00907092D01*
X00601777Y00906507D01*
X00601307Y00905872D01*
X00600901Y00905195D01*
X00600563Y00904481D01*
X00600297Y00903737D01*
X00600105Y00902971D01*
X00599989Y00902189D01*
X00599950Y00901400D01*
Y00896400D01*
X00599989Y00895611D01*
X00600105Y00894830D01*
X00600297Y00894063D01*
X00600563Y00893320D01*
X00600901Y00892606D01*
X00601307Y00891928D01*
X00601777Y00891293D01*
X00602308Y00890708D01*
X00602893Y00890178D01*
X00603528Y00889707D01*
X00604205Y00889301D01*
X00604920Y00888963D01*
X00605663Y00888697D01*
X00606430Y00888505D01*
X00607211Y00888389D01*
X00608000Y00888351D01*
X00608789Y00888389D01*
X00609570Y00888505D01*
X00610337Y00888697D01*
X00611081Y00888963D01*
X00611795Y00889301D01*
X00612160Y00889520D01*
X00619300Y00882380D01*
X00608000Y00871079D01*
X00594388Y00884691D01*
X00593257Y00883560D01*
X00589239Y00887579D01*
X00589038Y00887919D01*
X00588330Y00890564D01*
X00588823Y00891294D01*
X00589293Y00891928D01*
X00589699Y00892606D01*
X00590037Y00893320D01*
X00590303Y00894063D01*
X00590495Y00894830D01*
X00590611Y00895611D01*
X00590650Y00896400D01*
Y00901400D01*
X00590611Y00902189D01*
X00590495Y00902971D01*
X00590303Y00903737D01*
X00590037Y00904481D01*
X00589699Y00905195D01*
X00589293Y00905872D01*
X00588823Y00906507D01*
X00588292Y00907092D01*
X00587707Y00907623D01*
X00587072Y00908093D01*
X00586395Y00908499D01*
X00585681Y00908837D01*
X00584937Y00909103D01*
X00584170Y00909295D01*
X00583389Y00909411D01*
X00582600Y00909450D01*
X00581811Y00909411D01*
X00581030Y00909295D01*
X00580263Y00909103D01*
X00579520Y00908837D01*
X00578805Y00908499D01*
X00578128Y00908093D01*
X00577493Y00907623D01*
X00576908Y00907092D01*
X00576377Y00906507D01*
X00575907Y00905872D01*
X00575501Y00905195D01*
X00575163Y00904481D01*
X00574897Y00903737D01*
X00574705Y00902971D01*
X00574589Y00902189D01*
X00574550Y00901400D01*
Y00896400D01*
X00574589Y00895611D01*
X00574705Y00894830D01*
X00574897Y00894063D01*
X00575163Y00893320D01*
X00574230Y00891322D01*
X00573322Y00890405D01*
X00567642D01*
X00567160Y00890373D01*
X00566687Y00890279D01*
X00566305Y00890150D01*
X00566026Y00890281D01*
X00565097Y00890999D01*
X00564185Y00892416D01*
X00564299Y00892606D01*
X00564637Y00893320D01*
X00564903Y00894063D01*
X00565095Y00894830D01*
X00565211Y00895611D01*
X00565250Y00896400D01*
Y00901400D01*
X00565211Y00902189D01*
X00565095Y00902971D01*
X00564903Y00903737D01*
X00564637Y00904481D01*
X00564299Y00905195D01*
X00563893Y00905872D01*
X00563423Y00906507D01*
X00562892Y00907092D01*
X00562307Y00907623D01*
X00561672Y00908093D01*
X00560995Y00908499D01*
X00560280Y00908837D01*
X00559537Y00909103D01*
X00558770Y00909295D01*
X00558759Y00909297D01*
X00557790Y00911185D01*
X00557651Y00912431D01*
X00585210Y00939990D01*
X00585528Y00940353D01*
X00585796Y00940754D01*
X00586010Y00941187D01*
X00586165Y00941645D01*
X00586259Y00942118D01*
X00586291Y00942600D01*
Y00965452D01*
X00586395Y00965501D01*
X00587072Y00965907D01*
X00587707Y00966378D01*
X00588292Y00966908D01*
X00588823Y00967494D01*
X00589293Y00968128D01*
X00589699Y00968806D01*
X00590037Y00969520D01*
X00590303Y00970264D01*
X00590495Y00971030D01*
X00590611Y00971811D01*
X00590650Y00972600D01*
Y00977600D01*
X00590611Y00978389D01*
X00590495Y00979171D01*
X00590303Y00979937D01*
X00590037Y00980681D01*
X00589699Y00981395D01*
X00589293Y00982072D01*
X00588823Y00982707D01*
X00588292Y00983292D01*
X00587707Y00983823D01*
X00587072Y00984293D01*
X00586395Y00984699D01*
X00585681Y00985037D01*
X00584937Y00985303D01*
X00584170Y00985495D01*
X00583389Y00985611D01*
X00582600Y00985650D01*
X00581811Y00985611D01*
X00581030Y00985495D01*
X00580263Y00985303D01*
X00579520Y00985037D01*
X00578805Y00984699D01*
X00578128Y00984293D01*
X00577493Y00983823D01*
X00576908Y00983292D01*
X00576691Y00983053D01*
X00575420Y00983211D01*
X00573691Y00984121D01*
Y00988587D01*
X00580649Y00995545D01*
X00587460D01*
Y00991460D01*
X00602540D01*
Y01010540D01*
X00602540D01*
X00602733Y01013460D01*
X00612040D01*
Y01032540D01*
X00608191D01*
Y01034001D01*
X00608159Y01034483D01*
X00608065Y01034956D01*
X00607910Y01035413D01*
X00607696Y01035846D01*
X00607428Y01036248D01*
X00607109Y01036611D01*
X00603040Y01040680D01*
Y01043826D01*
X00603112Y01044013D01*
X00603556Y01044674D01*
X00604095Y01045164D01*
X00606000Y01046276D01*
X00606641Y01046312D01*
X00607274Y01046420D01*
X00607891Y01046597D01*
X00608484Y01046843D01*
X00609045Y01047153D01*
X00609569Y01047525D01*
X00610047Y01047952D01*
X00610366Y01048309D01*
X00624500D01*
X00624960Y01047878D01*
Y01035960D01*
X00633129D01*
X00635134Y01032960D01*
X00634960Y01032540D01*
X00634960D01*
Y01013540D01*
X00634960Y01013460D01*
X00634767Y01010540D01*
X00631096D01*
X00631000Y01013500D01*
X00631000Y01013540D01*
Y01028965D01*
X00625268Y01023232D01*
X00623500Y01025000D01*
X00621732Y01023232D01*
X00616000Y01028965D01*
Y01017036D01*
X00621732Y01022768D01*
X00625268Y01019232D01*
X00622168Y01016132D01*
X00622264Y01016062D01*
X00622155Y01016119D01*
X00619536Y01013500D01*
X00625364D01*
X00625460Y01010540D01*
X00625460Y01010500D01*
Y00991460D01*
X00629309D01*
Y00984522D01*
X00628928Y00984293D01*
X00628293Y00983823D01*
X00627708Y00983292D01*
X00627178Y00982707D01*
X00626707Y00982072D01*
X00626301Y00981395D01*
X00625963Y00980681D01*
X00625697Y00979937D01*
X00625505Y00979171D01*
X00625389Y00978389D01*
X00625350Y00977600D01*
Y00972600D01*
X00625389Y00971811D01*
X00625505Y00971030D01*
X00625697Y00970264D01*
X00625963Y00969520D01*
X00626301Y00968806D01*
X00626707Y00968128D01*
X00627178Y00967494D01*
X00627708Y00966908D01*
X00628293Y00966378D01*
X00628928Y00965907D01*
X00629605Y00965501D01*
X00630320Y00965163D01*
X00631063Y00964897D01*
X00631830Y00964705D01*
X00632611Y00964589D01*
X00633400Y00964550D01*
X00634189Y00964589D01*
X00634970Y00964705D01*
X00635737Y00964897D01*
X00636480Y00965163D01*
X00637195Y00965501D01*
X00637872Y00965907D01*
X00638507Y00966378D01*
X00639092Y00966908D01*
X00639622Y00967494D01*
X00640093Y00968128D01*
X00640499Y00968806D01*
X00640837Y00969520D01*
X00641103Y00970264D01*
X00641295Y00971030D01*
X00641411Y00971811D01*
X00641450Y00972600D01*
Y00977600D01*
X00641411Y00978389D01*
X00641295Y00979171D01*
X00641103Y00979937D01*
X00640837Y00980681D01*
X00640499Y00981395D01*
X00640093Y00982072D01*
X00639622Y00982707D01*
X00639092Y00983292D01*
X00638507Y00983823D01*
X00637872Y00984293D01*
X00637195Y00984699D01*
X00636691Y00984938D01*
Y00991460D01*
X00640540D01*
Y01010460D01*
X00640540Y01010540D01*
X00640733Y01013460D01*
X00650040D01*
Y01032540D01*
X00646191D01*
Y01034000D01*
X00646159Y01034482D01*
X00646065Y01034956D01*
X00645910Y01035413D01*
X00645696Y01035846D01*
X00645428Y01036247D01*
X00645110Y01036610D01*
X00641040Y01040680D01*
Y01051040D01*
X00641040Y01051040D01*
Y01052960D01*
X00641040D01*
X00641040Y01054040D01*
Y01068040D01*
X00643929Y01068309D01*
X00660071D01*
X00662960Y01068040D01*
D02*
G37*
G36*
X00509263Y01014561D02*
X00509111Y01014710D01*
X00508920Y01014789D01*
X00508691Y01014798D01*
X00508425Y01014738D01*
X00508121Y01014608D01*
X00507779Y01014409D01*
X00507398Y01014139D01*
X00506980Y01013801D01*
X00506031Y01012915D01*
X00504914Y01015031D01*
X00505348Y01015480D01*
X00506035Y01016295D01*
X00506289Y01016660D01*
X00506484Y01016997D01*
X00506619Y01017307D01*
X00506694Y01017588D01*
X00506709Y01017841D01*
X00506665Y01018066D01*
X00506561Y01018264D01*
X00509263Y01014561D01*
D02*
G37*
G36*
X00628286Y01018523D02*
X00628204Y01018335D01*
X00628192Y01018109D01*
X00628251Y01017844D01*
X00628381Y01017540D01*
X00628581Y01017197D01*
X00628851Y01016816D01*
X00629192Y01016396D01*
X00630086Y01015439D01*
X00627877Y01014415D01*
X00627432Y01014844D01*
X00626623Y01015526D01*
X00626259Y01015779D01*
X00625922Y01015973D01*
X00625612Y01016108D01*
X00625330Y01016185D01*
X00625074Y01016203D01*
X00624845Y01016162D01*
X00624644Y01016062D01*
X00628439Y01018671D01*
X00628286Y01018523D01*
D02*
G37*
G36*
X00590290Y01018611D02*
X00590211Y01018420D01*
X00590202Y01018192D01*
X00590262Y01017925D01*
X00590392Y01017621D01*
X00590592Y01017279D01*
X00590861Y01016898D01*
X00591200Y01016480D01*
X00592086Y01015530D01*
X00589969Y01014415D01*
X00589520Y01014848D01*
X00588705Y01015536D01*
X00588340Y01015790D01*
X00588003Y01015984D01*
X00587693Y01016119D01*
X00587412Y01016195D01*
X00587159Y01016210D01*
X00586933Y01016166D01*
X00586736Y01016062D01*
X00590439Y01018763D01*
X00590290Y01018611D01*
D02*
G37*
G36*
X00681655Y01031822D02*
X00681689Y01031433D01*
X00681746Y01031090D01*
X00681826Y01030793D01*
X00681929Y01030542D01*
X00682055Y01030336D01*
X00682203Y01030176D01*
X00682375Y01030062D01*
X00682569Y01029993D01*
X00682786Y01029970D01*
X00678214D01*
X00678431Y01029993D01*
X00678625Y01030062D01*
X00678797Y01030176D01*
X00678946Y01030336D01*
X00679071Y01030542D01*
X00679174Y01030793D01*
X00679254Y01031090D01*
X00679311Y01031433D01*
X00679346Y01031822D01*
X00679357Y01032256D01*
X00681643D01*
X00681655Y01031822D01*
D02*
G37*
G36*
X00593264Y01055561D02*
X00593066Y01055665D01*
X00592841Y01055710D01*
X00592588Y01055694D01*
X00592306Y01055619D01*
X00591997Y01055484D01*
X00591660Y01055290D01*
X00591294Y01055035D01*
X00590901Y01054721D01*
X00590031Y01053914D01*
X00587914Y01055031D01*
X00588392Y01055525D01*
X00589139Y01056398D01*
X00589408Y01056779D01*
X00589608Y01057121D01*
X00589738Y01057425D01*
X00589798Y01057692D01*
X00589789Y01057920D01*
X00589710Y01058111D01*
X00589561Y01058264D01*
X00593264Y01055561D01*
D02*
G37*
G36*
X00690157Y01058152D02*
X00690199Y01057801D01*
X00690268Y01057447D01*
X00690366Y01057091D01*
X00690491Y01056733D01*
X00690644Y01056373D01*
X00690825Y01056010D01*
X00691034Y01055646D01*
X00691271Y01055279D01*
X00691536Y01054911D01*
X00686464D01*
X00686729Y01055279D01*
X00687175Y01056010D01*
X00687356Y01056373D01*
X00687509Y01056733D01*
X00687634Y01057091D01*
X00687732Y01057447D01*
X00687801Y01057801D01*
X00687843Y01058152D01*
X00687857Y01058502D01*
X00690143D01*
X00690157Y01058152D01*
D02*
G37*
G36*
X00676457Y01060345D02*
X00676508Y01060025D01*
X00676591Y01059703D01*
X00676707Y01059381D01*
X00676855Y01059059D01*
X00677036Y01058735D01*
X00677250Y01058410D01*
X00677496Y01058085D01*
X00677775Y01057759D01*
X00678086Y01057432D01*
Y01054199D01*
X00677830Y01054452D01*
X00676734Y01055411D01*
X00676625Y01055478D01*
X00676537Y01055518D01*
X00676469Y01055531D01*
X00676439Y01060665D01*
X00676457Y01060345D01*
D02*
G37*
G36*
X00706857Y01103900D02*
X00704913Y01101565D01*
X00704548Y01101456D01*
X00704014Y01101813D01*
X00703225Y01102255D01*
X00702404Y01102633D01*
X00701557Y01102946D01*
X00700687Y01103191D01*
X00699800Y01103367D01*
X00698903Y01103474D01*
X00698000Y01103509D01*
X00697097Y01103474D01*
X00696200Y01103367D01*
X00695313Y01103191D01*
X00694444Y01102946D01*
X00693596Y01102633D01*
X00692775Y01102255D01*
X00691987Y01101813D01*
X00691829Y01101708D01*
X00699768Y01093768D01*
X00707707Y01085829D01*
X00707813Y01085987D01*
X00708255Y01086775D01*
X00708633Y01087596D01*
X00708946Y01088444D01*
X00709072Y01088891D01*
X00710113Y01089236D01*
X00712199Y01089060D01*
X00749181Y00986334D01*
Y00972001D01*
X00749213Y00971502D01*
X00749311Y00971012D01*
X00749472Y00970539D01*
X00749693Y00970091D01*
X00749970Y00969676D01*
X00750300Y00969300D01*
X00750675Y00968970D01*
X00751090Y00968693D01*
X00751539Y00968472D01*
X00752012Y00968311D01*
X00752502Y00968214D01*
X00753000Y00968181D01*
X00772210D01*
Y00949960D01*
X00772210Y00949960D01*
X00772425Y00947165D01*
X00771685Y00946900D01*
X00771142Y00946643D01*
X00776518Y00941268D01*
X00772982Y00937732D01*
X00767607Y00943108D01*
X00767350Y00942565D01*
X00767085Y00941825D01*
X00766894Y00941063D01*
X00766779Y00940285D01*
X00766740Y00939500D01*
Y00934500D01*
X00766779Y00933715D01*
X00766894Y00932937D01*
X00767085Y00932175D01*
X00767350Y00931435D01*
X00767607Y00930892D01*
X00772982Y00936268D01*
X00776518Y00932732D01*
X00771142Y00927357D01*
X00771685Y00927100D01*
X00772425Y00926835D01*
X00772210Y00924040D01*
X00772210D01*
Y00920691D01*
X00757366D01*
X00757048Y00921048D01*
X00756569Y00921475D01*
X00756045Y00921847D01*
X00755484Y00922157D01*
X00754891Y00922403D01*
X00754274Y00922580D01*
X00753641Y00922688D01*
X00753000Y00922724D01*
X00752359Y00922688D01*
X00751726Y00922580D01*
X00751109Y00922403D01*
X00750516Y00922157D01*
X00749955Y00921847D01*
X00749431Y00921475D01*
X00748952Y00921048D01*
X00748525Y00920569D01*
X00748153Y00920045D01*
X00747843Y00919484D01*
X00747597Y00918891D01*
X00747420Y00918274D01*
X00747312Y00917641D01*
X00747276Y00917000D01*
X00747312Y00916359D01*
X00747420Y00915726D01*
X00747597Y00915109D01*
X00747843Y00914516D01*
X00748153Y00913955D01*
X00748525Y00913431D01*
X00748952Y00912952D01*
X00749431Y00912525D01*
X00749955Y00912153D01*
X00750516Y00911843D01*
X00751109Y00911597D01*
X00751726Y00911420D01*
X00752359Y00911312D01*
X00753000Y00911276D01*
X00753641Y00911312D01*
X00754274Y00911420D01*
X00754891Y00911597D01*
X00755484Y00911843D01*
X00756045Y00912153D01*
X00756569Y00912525D01*
X00757048Y00912952D01*
X00757366Y00913309D01*
X00772210D01*
Y00905819D01*
X00753001D01*
X00752502Y00905787D01*
X00752012Y00905689D01*
X00751539Y00905528D01*
X00751091Y00905307D01*
X00750676Y00905030D01*
X00750300Y00904700D01*
X00750300Y00904700D01*
X00750300Y00904700D01*
X00749970Y00904324D01*
X00749693Y00903909D01*
X00749472Y00903461D01*
X00749311Y00902988D01*
X00749213Y00902498D01*
X00749181Y00901999D01*
Y00887667D01*
X00712199Y00784940D01*
X00710113Y00784764D01*
X00709072Y00785110D01*
X00708946Y00785556D01*
X00708633Y00786404D01*
X00708255Y00787225D01*
X00707813Y00788013D01*
X00707707Y00788172D01*
X00699768Y00780232D01*
X00691829Y00772293D01*
X00691987Y00772187D01*
X00692775Y00771746D01*
X00693596Y00771367D01*
X00694444Y00771054D01*
X00695313Y00770809D01*
X00696200Y00770633D01*
X00697097Y00770527D01*
X00698000Y00770491D01*
X00698903Y00770527D01*
X00699800Y00770633D01*
X00700687Y00770809D01*
X00701557Y00771054D01*
X00702404Y00771367D01*
X00703225Y00771746D01*
X00704014Y00772187D01*
X00704548Y00772544D01*
X00704913Y00772435D01*
X00706857Y00770100D01*
X00705316Y00765819D01*
X00628042D01*
X00626894Y00768591D01*
X00632925Y00774623D01*
X00638582Y00780280D01*
X00646064Y00787761D01*
X00646035Y00787789D01*
X00648000Y00789754D01*
X00651000Y00788511D01*
Y00780536D01*
X00656732Y00786268D01*
X00660268Y00782732D01*
X00654536Y00777000D01*
X00666000D01*
Y00777000D01*
X00667960Y00776960D01*
Y00776960D01*
X00683040D01*
Y00793040D01*
X00681132D01*
X00680254Y00794141D01*
X00679542Y00795505D01*
X00679402Y00796040D01*
X00679735Y00796651D01*
X00680718Y00797941D01*
X00681078Y00798283D01*
X00681445Y00798469D01*
X00681890Y00798597D01*
X00682483Y00798843D01*
X00683045Y00799153D01*
X00683568Y00799525D01*
X00684047Y00799952D01*
X00684475Y00800431D01*
X00684846Y00800955D01*
X00685157Y00801516D01*
X00685403Y00802109D01*
X00685580Y00802726D01*
X00685688Y00803359D01*
X00685724Y00804000D01*
X00686834Y00805904D01*
X00687325Y00806444D01*
X00687986Y00806888D01*
X00688174Y00806960D01*
X00700040D01*
Y00817321D01*
X00702888Y00820169D01*
X00703206Y00820532D01*
X00703474Y00820933D01*
X00703688Y00821366D01*
X00703843Y00821823D01*
X00703937Y00822297D01*
X00703969Y00822779D01*
Y00830512D01*
X00704064Y00830825D01*
X00704374Y00831360D01*
X00706120Y00833238D01*
X00706761Y00833274D01*
X00707394Y00833382D01*
X00708010Y00833559D01*
X00708604Y00833805D01*
X00709165Y00834115D01*
X00709689Y00834487D01*
X00710167Y00834914D01*
X00710595Y00835393D01*
X00710967Y00835917D01*
X00711277Y00836478D01*
X00711523Y00837072D01*
X00711701Y00837688D01*
X00711808Y00838321D01*
X00711844Y00838962D01*
X00711808Y00839603D01*
X00711701Y00840236D01*
X00711523Y00840853D01*
X00711277Y00841446D01*
X00711081Y00841801D01*
Y00899602D01*
X00712121Y00900453D01*
X00713134Y00900840D01*
X00714081Y00901084D01*
X00714516Y00900843D01*
X00715109Y00900597D01*
X00715726Y00900419D01*
X00716359Y00900312D01*
X00717000Y00900276D01*
X00717641Y00900312D01*
X00718274Y00900419D01*
X00718891Y00900597D01*
X00719483Y00900843D01*
X00720045Y00901153D01*
X00720569Y00901525D01*
X00721048Y00901953D01*
X00721475Y00902431D01*
X00721847Y00902955D01*
X00722157Y00903516D01*
X00722403Y00904109D01*
X00722580Y00904726D01*
X00722688Y00905359D01*
X00722724Y00906000D01*
X00722688Y00906641D01*
X00722580Y00907274D01*
X00722403Y00907890D01*
X00722157Y00908484D01*
X00721847Y00909045D01*
X00721691Y00909265D01*
Y00939634D01*
X00722048Y00939952D01*
X00722475Y00940431D01*
X00722847Y00940955D01*
X00723157Y00941516D01*
X00723403Y00942110D01*
X00723580Y00942726D01*
X00723688Y00943359D01*
X00723724Y00944000D01*
X00723688Y00944641D01*
X00723580Y00945274D01*
X00723403Y00945891D01*
X00723157Y00946484D01*
X00722847Y00947045D01*
X00722475Y00947569D01*
X00722048Y00948047D01*
X00721691Y00948366D01*
Y00963981D01*
X00722372Y00964575D01*
X00723423Y00965060D01*
X00724691Y00965340D01*
X00724955Y00965153D01*
X00725516Y00964843D01*
X00726109Y00964597D01*
X00726726Y00964419D01*
X00727359Y00964312D01*
X00728000Y00964276D01*
X00728641Y00964312D01*
X00729274Y00964419D01*
X00729891Y00964597D01*
X00730484Y00964843D01*
X00731045Y00965153D01*
X00731569Y00965525D01*
X00732048Y00965953D01*
X00732475Y00966431D01*
X00732847Y00966955D01*
X00733157Y00967516D01*
X00733403Y00968110D01*
X00733580Y00968726D01*
X00733688Y00969359D01*
X00733724Y00970000D01*
X00733688Y00970641D01*
X00733580Y00971274D01*
X00733403Y00971890D01*
X00733157Y00972484D01*
X00732847Y00973045D01*
X00732475Y00973569D01*
X00732048Y00974047D01*
X00731691Y00974366D01*
Y01008501D01*
X00731659Y01008982D01*
X00731565Y01009456D01*
X00731410Y01009913D01*
X00731196Y01010346D01*
X00730928Y01010747D01*
X00730610Y01011110D01*
X00724040Y01017680D01*
Y01028040D01*
X00711081D01*
Y01046610D01*
X00711049Y01047092D01*
X00710955Y01047565D01*
X00710800Y01048023D01*
X00710586Y01048456D01*
X00710318Y01048857D01*
X00710000Y01049220D01*
X00684610Y01074610D01*
X00684247Y01074928D01*
X00683846Y01075196D01*
X00683412Y01075410D01*
X00682955Y01075565D01*
X00682482Y01075659D01*
X00682000Y01075691D01*
X00568522D01*
X00568040Y01075659D01*
X00567566Y01075565D01*
X00567109Y01075410D01*
X00566676Y01075196D01*
X00566275Y01074928D01*
X00565912Y01074610D01*
X00559342Y01068040D01*
X00548960D01*
Y01056521D01*
X00528830D01*
X00528348Y01056489D01*
X00527875Y01056395D01*
X00527417Y01056240D01*
X00526984Y01056026D01*
X00526583Y01055758D01*
X00526220Y01055440D01*
X00487390Y01016610D01*
X00487072Y01016247D01*
X00486804Y01015845D01*
X00486590Y01015413D01*
X00486435Y01014955D01*
X00486341Y01014482D01*
X00486309Y01014000D01*
Y00882366D01*
X00485952Y00882048D01*
X00485525Y00881569D01*
X00485153Y00881045D01*
X00484843Y00880484D01*
X00484597Y00879891D01*
X00484420Y00879274D01*
X00484312Y00878641D01*
X00484276Y00878000D01*
X00484312Y00877359D01*
X00484420Y00876726D01*
X00484597Y00876109D01*
X00484843Y00875516D01*
X00485153Y00874955D01*
X00485525Y00874431D01*
X00485952Y00873952D01*
X00486431Y00873525D01*
X00486955Y00873153D01*
X00487516Y00872843D01*
X00488110Y00872597D01*
X00488726Y00872420D01*
X00489359Y00872312D01*
X00490000Y00872276D01*
X00490309Y00872293D01*
X00490862Y00872156D01*
X00492692Y00870862D01*
X00492992Y00870531D01*
X00493309Y00869938D01*
Y00844000D01*
X00493341Y00843518D01*
X00493435Y00843045D01*
X00493590Y00842588D01*
X00493804Y00842154D01*
X00494072Y00841753D01*
X00494390Y00841390D01*
X00536309Y00799471D01*
Y00783025D01*
X00536341Y00782544D01*
X00536435Y00782070D01*
X00536590Y00781613D01*
X00536804Y00781180D01*
X00537072Y00780779D01*
X00537390Y00780415D01*
X00544700Y00773106D01*
X00545062Y00772788D01*
X00545464Y00772520D01*
X00545897Y00772306D01*
X00546354Y00772151D01*
X00546828Y00772057D01*
X00547309Y00772025D01*
X00576686D01*
X00577168Y00772057D01*
X00577641Y00772151D01*
X00578099Y00772306D01*
X00578532Y00772520D01*
X00578933Y00772788D01*
X00579296Y00773106D01*
X00581944Y00775754D01*
X00589106Y00768591D01*
X00587958Y00765819D01*
X00510684D01*
X00509143Y00770100D01*
X00511087Y00772435D01*
X00511452Y00772544D01*
X00511987Y00772187D01*
X00512775Y00771746D01*
X00513596Y00771367D01*
X00514444Y00771054D01*
X00515313Y00770809D01*
X00516200Y00770633D01*
X00517097Y00770527D01*
X00518000Y00770491D01*
X00518903Y00770527D01*
X00519800Y00770633D01*
X00520687Y00770809D01*
X00521556Y00771054D01*
X00522404Y00771367D01*
X00523225Y00771746D01*
X00524013Y00772187D01*
X00524172Y00772293D01*
X00516232Y00780232D01*
X00508293Y00788172D01*
X00508187Y00788013D01*
X00507746Y00787225D01*
X00507367Y00786404D01*
X00507054Y00785556D01*
X00506928Y00785110D01*
X00505887Y00784764D01*
X00503801Y00784940D01*
X00466819Y00887667D01*
Y00902000D01*
X00466787Y00902498D01*
X00466689Y00902988D01*
X00466529Y00903461D01*
X00466308Y00903909D01*
X00466030Y00904325D01*
X00465701Y00904700D01*
X00465325Y00905030D01*
X00464910Y00905307D01*
X00464462Y00905528D01*
X00463988Y00905689D01*
X00463498Y00905787D01*
X00463000Y00905819D01*
X00451819D01*
Y00968181D01*
X00463000D01*
X00463498Y00968214D01*
X00463988Y00968311D01*
X00464462Y00968472D01*
X00464910Y00968693D01*
X00465325Y00968970D01*
X00465701Y00969300D01*
X00466030Y00969676D01*
X00466308Y00970091D01*
X00466529Y00970539D01*
X00466689Y00971012D01*
X00466787Y00971502D01*
X00466819Y00972001D01*
Y00986334D01*
X00503801Y01089060D01*
X00505887Y01089236D01*
X00506928Y01088891D01*
X00507054Y01088444D01*
X00507367Y01087596D01*
X00507746Y01086775D01*
X00508187Y01085987D01*
X00508293Y01085829D01*
X00516232Y01093768D01*
X00524172Y01101708D01*
X00524013Y01101813D01*
X00523225Y01102255D01*
X00522404Y01102633D01*
X00521556Y01102946D01*
X00520687Y01103191D01*
X00519800Y01103367D01*
X00518903Y01103474D01*
X00518000Y01103509D01*
X00517097Y01103474D01*
X00516200Y01103367D01*
X00515313Y01103191D01*
X00514444Y01102946D01*
X00513596Y01102633D01*
X00512775Y01102255D01*
X00511987Y01101813D01*
X00511452Y01101456D01*
X00511087Y01101565D01*
X00509143Y01103900D01*
X00510684Y01108181D01*
X00705316D01*
X00706857Y01103900D01*
D02*
G37*
G36*
X00564086Y01065948D02*
X00563609Y01065455D01*
X00562863Y01064583D01*
X00562595Y01064203D01*
X00562395Y01063861D01*
X00562265Y01063556D01*
X00562205Y01063289D01*
X00562213Y01063060D01*
X00562292Y01062869D01*
X00562439Y01062715D01*
X00558759Y01065439D01*
X00558955Y01065334D01*
X00559180Y01065289D01*
X00559432Y01065304D01*
X00559713Y01065379D01*
X00560023Y01065514D01*
X00560360Y01065708D01*
X00560726Y01065963D01*
X00561119Y01066277D01*
X00561992Y01067086D01*
X00564086Y01065948D01*
D02*
G37*
G36*
X00631263Y01055561D02*
X00631066Y01055665D01*
X00630841Y01055710D01*
X00630587Y01055694D01*
X00630306Y01055619D01*
X00629997Y01055484D01*
X00629660Y01055290D01*
X00629294Y01055035D01*
X00628901Y01054721D01*
X00628031Y01053914D01*
X00625914Y01055031D01*
X00626392Y01055525D01*
X00627139Y01056398D01*
X00627408Y01056779D01*
X00627608Y01057121D01*
X00627738Y01057425D01*
X00627798Y01057692D01*
X00627789Y01057920D01*
X00627710Y01058111D01*
X00627561Y01058264D01*
X00631263Y01055561D01*
D02*
G37*
G36*
X00638290Y01041111D02*
X00638212Y01040920D01*
X00638202Y01040692D01*
X00638262Y01040425D01*
X00638392Y01040121D01*
X00638592Y01039779D01*
X00638861Y01039399D01*
X00639200Y01038981D01*
X00640086Y01038031D01*
X00637970Y01036915D01*
X00637520Y01037348D01*
X00636706Y01038036D01*
X00636340Y01038290D01*
X00636003Y01038484D01*
X00635694Y01038619D01*
X00635413Y01038694D01*
X00635159Y01038710D01*
X00634934Y01038665D01*
X00634737Y01038562D01*
X00638439Y01041264D01*
X00638290Y01041111D01*
D02*
G37*
G36*
X00600290D02*
X00600212Y01040920D01*
X00600202Y01040692D01*
X00600263Y01040425D01*
X00600392Y01040121D01*
X00600592Y01039779D01*
X00600861Y01039399D01*
X00601200Y01038981D01*
X00602086Y01038031D01*
X00599970Y01036915D01*
X00599520Y01037348D01*
X00598706Y01038036D01*
X00598341Y01038290D01*
X00598003Y01038484D01*
X00597694Y01038619D01*
X00597413Y01038694D01*
X00597159Y01038710D01*
X00596934Y01038665D01*
X00596737Y01038562D01*
X00600439Y01041264D01*
X00600290Y01041111D01*
D02*
G37*
G36*
X00562291D02*
X00562212Y01040920D01*
X00562202Y01040692D01*
X00562263Y01040425D01*
X00562393Y01040121D01*
X00562592Y01039779D01*
X00562861Y01039399D01*
X00563200Y01038981D01*
X00564086Y01038031D01*
X00561970Y01036915D01*
X00561520Y01037348D01*
X00560706Y01038036D01*
X00560341Y01038290D01*
X00560003Y01038484D01*
X00559694Y01038619D01*
X00559413Y01038694D01*
X00559160Y01038710D01*
X00558934Y01038665D01*
X00558737Y01038562D01*
X00562439Y01041264D01*
X00562291Y01041111D01*
D02*
G37*
G36*
X00608279Y01054271D02*
X00609010Y01053826D01*
X00609372Y01053644D01*
X00609733Y01053491D01*
X00610091Y01053366D01*
X00610447Y01053268D01*
X00610801Y01053199D01*
X00611152Y01053157D01*
X00611502Y01053143D01*
Y01050857D01*
X00611152Y01050843D01*
X00610801Y01050801D01*
X00610447Y01050732D01*
X00610091Y01050634D01*
X00609733Y01050509D01*
X00609372Y01050356D01*
X00609010Y01050175D01*
X00608646Y01049966D01*
X00608279Y01049729D01*
X00607911Y01049464D01*
Y01054536D01*
X00608279Y01054271D01*
D02*
G37*
G36*
X00687695Y01047667D02*
X00688569Y01046904D01*
X00688846Y01046693D01*
X00689379Y01046338D01*
X00689634Y01046193D01*
X00689883Y01046070D01*
X00690124Y01045969D01*
X00685928Y01043803D01*
X00686008Y01044177D01*
X00686050Y01044541D01*
X00686055Y01044896D01*
X00686021Y01045240D01*
X00685949Y01045575D01*
X00685839Y01045900D01*
X00685692Y01046215D01*
X00685506Y01046520D01*
X00685282Y01046816D01*
X00685021Y01047101D01*
X00687389Y01047966D01*
X00687695Y01047667D01*
D02*
G37*
G36*
X00676290Y01041111D02*
X00676211Y01040920D01*
X00676202Y01040692D01*
X00676262Y01040425D01*
X00676392Y01040121D01*
X00676592Y01039779D01*
X00676861Y01039399D01*
X00677200Y01038981D01*
X00678086Y01038031D01*
X00675969Y01036915D01*
X00675520Y01037348D01*
X00674706Y01038036D01*
X00674341Y01038290D01*
X00674003Y01038484D01*
X00673694Y01038619D01*
X00673412Y01038694D01*
X00673159Y01038710D01*
X00672934Y01038665D01*
X00672737Y01038562D01*
X00676439Y01041264D01*
X00676290Y01041111D01*
D02*
G37*
G36*
X00634154Y00984798D02*
X00634188Y00984345D01*
X00634245Y00983948D01*
X00634324Y00983605D01*
X00634426Y00983318D01*
X00634550Y00983087D01*
X00634697Y00982910D01*
X00634867Y00982788D01*
X00635059Y00982722D01*
X00635274Y00982711D01*
X00630726Y00982380D01*
X00630941Y00982423D01*
X00631133Y00982518D01*
X00631303Y00982665D01*
X00631450Y00982866D01*
X00631574Y00983118D01*
X00631676Y00983423D01*
X00631755Y00983780D01*
X00631812Y00984190D01*
X00631846Y00984653D01*
X00631857Y00985167D01*
X00634143Y00985305D01*
X00634154Y00984798D01*
D02*
G37*
G36*
X00729157Y00975153D02*
X00729199Y00974801D01*
X00729268Y00974447D01*
X00729366Y00974091D01*
X00729491Y00973733D01*
X00729644Y00973372D01*
X00729825Y00973010D01*
X00730034Y00972646D01*
X00730271Y00972279D01*
X00730536Y00971911D01*
X00725464D01*
X00725729Y00972279D01*
X00726174Y00973010D01*
X00726356Y00973372D01*
X00726509Y00973733D01*
X00726634Y00974091D01*
X00726732Y00974447D01*
X00726801Y00974801D01*
X00726843Y00975153D01*
X00726857Y00975502D01*
X00729143D01*
X00729157Y00975153D01*
D02*
G37*
G36*
X00610059Y00967628D02*
X00609867Y00967547D01*
X00609697Y00967412D01*
X00609550Y00967222D01*
X00609426Y00966979D01*
X00609324Y00966681D01*
X00609245Y00966329D01*
X00609188Y00965923D01*
X00609154Y00965463D01*
X00609143Y00964948D01*
X00606857D01*
X00606846Y00965463D01*
X00606755Y00966329D01*
X00606676Y00966681D01*
X00606574Y00966979D01*
X00606450Y00967222D01*
X00606302Y00967412D01*
X00606133Y00967547D01*
X00605940Y00967628D01*
X00605726Y00967655D01*
X00610274D01*
X00610059Y00967628D01*
D02*
G37*
G36*
X00558154Y00984768D02*
X00558245Y00983910D01*
X00558324Y00983563D01*
X00558426Y00983270D01*
X00558550Y00983033D01*
X00558698Y00982850D01*
X00558867Y00982721D01*
X00559059Y00982647D01*
X00559274Y00982628D01*
X00554726Y00982463D01*
X00554941Y00982498D01*
X00555133Y00982587D01*
X00555303Y00982729D01*
X00555450Y00982925D01*
X00555574Y00983174D01*
X00555676Y00983477D01*
X00555755Y00983834D01*
X00555812Y00984245D01*
X00555846Y00984709D01*
X00555857Y00985226D01*
X00558143Y00985279D01*
X00558154Y00984768D01*
D02*
G37*
G36*
X00689456Y00983318D02*
X00689108Y00982954D01*
X00688819Y00982616D01*
X00688588Y00982304D01*
X00688417Y00982019D01*
X00688305Y00981761D01*
X00688251Y00981529D01*
X00688257Y00981323D01*
X00688321Y00981144D01*
X00688444Y00980992D01*
X00688626Y00980866D01*
X00684386Y00983123D01*
X00684609Y00983034D01*
X00684849Y00982995D01*
X00685107Y00983006D01*
X00685381Y00983067D01*
X00685673Y00983178D01*
X00685982Y00983340D01*
X00686308Y00983551D01*
X00686652Y00983812D01*
X00687012Y00984124D01*
X00687390Y00984485D01*
X00689456Y00983318D01*
D02*
G37*
G36*
X00659954Y00984738D02*
X00660045Y00983872D01*
X00660124Y00983520D01*
X00660226Y00983222D01*
X00660350Y00982979D01*
X00660497Y00982789D01*
X00660667Y00982654D01*
X00660859Y00982573D01*
X00661074Y00982545D01*
X00656525D01*
X00656740Y00982573D01*
X00656933Y00982654D01*
X00657102Y00982789D01*
X00657250Y00982979D01*
X00657374Y00983222D01*
X00657476Y00983520D01*
X00657555Y00983872D01*
X00657611Y00984278D01*
X00657645Y00984738D01*
X00657657Y00985253D01*
X00659943D01*
X00659954Y00984738D01*
D02*
G37*
G36*
X00532954D02*
X00533045Y00983872D01*
X00533124Y00983520D01*
X00533226Y00983222D01*
X00533350Y00982979D01*
X00533497Y00982789D01*
X00533667Y00982654D01*
X00533859Y00982573D01*
X00534074Y00982545D01*
X00529525D01*
X00529740Y00982573D01*
X00529933Y00982654D01*
X00530102Y00982789D01*
X00530249Y00982979D01*
X00530374Y00983222D01*
X00530476Y00983520D01*
X00530555Y00983872D01*
X00530611Y00984278D01*
X00530645Y00984738D01*
X00530657Y00985253D01*
X00532943D01*
X00532954Y00984738D01*
D02*
G37*
G36*
X00584659Y00967628D02*
X00584467Y00967547D01*
X00584297Y00967412D01*
X00584150Y00967222D01*
X00584026Y00966979D01*
X00583924Y00966681D01*
X00583845Y00966329D01*
X00583788Y00965923D01*
X00583754Y00965463D01*
X00583743Y00964948D01*
X00581457D01*
X00581446Y00965463D01*
X00581355Y00966329D01*
X00581276Y00966681D01*
X00581174Y00966979D01*
X00581049Y00967222D01*
X00580902Y00967412D01*
X00580733Y00967547D01*
X00580540Y00967628D01*
X00580326Y00967655D01*
X00584874D01*
X00584659Y00967628D01*
D02*
G37*
G36*
X00784230Y00923321D02*
X00784304Y00922292D01*
X00784349Y00922041D01*
X00784403Y00921835D01*
X00784467Y00921675D01*
X00784541Y00921561D01*
X00784626Y00921492D01*
X00784719Y00921469D01*
X00780796Y00921439D01*
X00781013Y00921464D01*
X00781208Y00921535D01*
X00781379Y00921651D01*
X00781527Y00921814D01*
X00781653Y00922023D01*
X00781756Y00922277D01*
X00781836Y00922578D01*
X00781893Y00922924D01*
X00781928Y00923317D01*
X00781939Y00923755D01*
X00784225D01*
X00784230Y00923321D01*
D02*
G37*
G36*
X00755279Y00919271D02*
X00756010Y00918825D01*
X00756373Y00918644D01*
X00756733Y00918491D01*
X00757091Y00918366D01*
X00757447Y00918268D01*
X00757801Y00918199D01*
X00758152Y00918157D01*
X00758502Y00918143D01*
Y00915857D01*
X00758152Y00915843D01*
X00757801Y00915801D01*
X00757447Y00915732D01*
X00757091Y00915634D01*
X00756733Y00915509D01*
X00756373Y00915356D01*
X00756010Y00915174D01*
X00755646Y00914966D01*
X00755279Y00914729D01*
X00754911Y00914464D01*
Y00919536D01*
X00755279Y00919271D01*
D02*
G37*
G36*
X00719143Y00910883D02*
X00719150Y00910474D01*
X00719205Y00909698D01*
X00719254Y00909332D01*
X00719392Y00908641D01*
X00719482Y00908317D01*
X00719586Y00908007D01*
X00719704Y00907711D01*
X00719835Y00907429D01*
X00715189Y00908608D01*
X00715506Y00908848D01*
X00715790Y00909103D01*
X00716040Y00909374D01*
X00716257Y00909660D01*
X00716440Y00909963D01*
X00716590Y00910281D01*
X00716707Y00910615D01*
X00716790Y00910965D01*
X00716840Y00911330D01*
X00716857Y00911712D01*
X00719143Y00910883D01*
D02*
G37*
G36*
X00769301Y00934718D02*
X00769278Y00934934D01*
X00769207Y00935128D01*
X00769089Y00935299D01*
X00768925Y00935447D01*
X00768713Y00935572D01*
X00768454Y00935675D01*
X00768148Y00935754D01*
X00767795Y00935811D01*
X00767395Y00935845D01*
X00766947Y00935857D01*
Y00938143D01*
X00767395Y00938154D01*
X00767795Y00938188D01*
X00768148Y00938245D01*
X00768454Y00938325D01*
X00768713Y00938428D01*
X00768924Y00938553D01*
X00769089Y00938701D01*
X00769207Y00938872D01*
X00769278Y00939065D01*
X00769301Y00939282D01*
X00769301Y00934718D01*
D02*
G37*
G36*
X00784719Y00952531D02*
X00784625Y00952508D01*
X00784541Y00952439D01*
X00784467Y00952325D01*
X00784403Y00952165D01*
X00784349Y00951959D01*
X00784304Y00951708D01*
X00784269Y00951410D01*
X00784230Y00950679D01*
X00784225Y00950245D01*
X00781939D01*
X00781928Y00950683D01*
X00781893Y00951076D01*
X00781836Y00951422D01*
X00781756Y00951723D01*
X00781653Y00951977D01*
X00781527Y00952186D01*
X00781379Y00952349D01*
X00781208Y00952466D01*
X00781013Y00952536D01*
X00780796Y00952561D01*
X00784719Y00952531D01*
D02*
G37*
G36*
X00719157Y00949153D02*
X00719199Y00948801D01*
X00719268Y00948447D01*
X00719366Y00948091D01*
X00719491Y00947733D01*
X00719644Y00947373D01*
X00719826Y00947010D01*
X00720034Y00946646D01*
X00720271Y00946279D01*
X00720536Y00945911D01*
X00715464D01*
X00715729Y00946279D01*
X00716175Y00947010D01*
X00716356Y00947373D01*
X00716509Y00947733D01*
X00716634Y00948091D01*
X00716732Y00948447D01*
X00716801Y00948801D01*
X00716843Y00949153D01*
X00716857Y00949502D01*
X00719143D01*
X00719157Y00949153D01*
D02*
G37*
G36*
X00720271Y00941721D02*
X00719826Y00940990D01*
X00719644Y00940628D01*
X00719491Y00940267D01*
X00719366Y00939909D01*
X00719268Y00939553D01*
X00719199Y00939199D01*
X00719157Y00938848D01*
X00719143Y00938498D01*
X00716857D01*
X00716843Y00938848D01*
X00716801Y00939199D01*
X00716732Y00939553D01*
X00716634Y00939909D01*
X00716509Y00940267D01*
X00716356Y00940628D01*
X00716175Y00940990D01*
X00715966Y00941354D01*
X00715729Y00941721D01*
X00715464Y00942089D01*
X00720536D01*
X00720271Y00941721D01*
D02*
G37*
G36*
X00513569Y00994508D02*
X00513375Y00994440D01*
X00513203Y00994325D01*
X00513055Y00994165D01*
X00512929Y00993960D01*
X00512826Y00993708D01*
X00512746Y00993411D01*
X00512689Y00993068D01*
X00512654Y00992679D01*
X00512643Y00992245D01*
X00510357D01*
X00510346Y00992679D01*
X00510311Y00993068D01*
X00510254Y00993411D01*
X00510174Y00993708D01*
X00510071Y00993960D01*
X00509946Y00994165D01*
X00509797Y00994325D01*
X00509626Y00994440D01*
X00509431Y00994508D01*
X00509214Y00994531D01*
X00513786D01*
X00513569Y00994508D01*
D02*
G37*
G36*
X00533369D02*
X00533280Y00994440D01*
X00533201Y00994325D01*
X00533132Y00994165D01*
X00533074Y00993960D01*
X00533027Y00993708D01*
X00532990Y00993411D01*
X00532948Y00992679D01*
X00532943Y00992245D01*
X00530657D01*
X00530645Y00992679D01*
X00530611Y00993068D01*
X00530554Y00993411D01*
X00530474Y00993708D01*
X00530371Y00993960D01*
X00530245Y00994165D01*
X00530097Y00994325D01*
X00529925Y00994440D01*
X00529731Y00994508D01*
X00529514Y00994531D01*
X00533469D01*
X00533369Y00994508D01*
D02*
G37*
G36*
X00673069Y00994038D02*
X00672874Y00993969D01*
X00672703Y00993853D01*
X00672554Y00993691D01*
X00672429Y00993482D01*
X00672326Y00993227D01*
X00672246Y00992926D01*
X00672189Y00992579D01*
X00672154Y00992185D01*
X00672143Y00991745D01*
X00669857D01*
X00669846Y00992185D01*
X00669811Y00992579D01*
X00669754Y00992926D01*
X00669674Y00993227D01*
X00669571Y00993482D01*
X00669445Y00993691D01*
X00669297Y00993853D01*
X00669125Y00993969D01*
X00668931Y00994038D01*
X00668714Y00994061D01*
X00673286D01*
X00673069Y00994038D01*
D02*
G37*
G36*
X00701960Y00994537D02*
X00701617Y00994463D01*
X00701256Y00994341D01*
X00700878Y00994169D01*
X00700482Y00993948D01*
X00700070Y00993678D01*
X00699640Y00993359D01*
X00698727Y00992573D01*
X00698245Y00992106D01*
X00695820Y00992915D01*
X00696116Y00993227D01*
X00696347Y00993508D01*
X00696512Y00993755D01*
X00696610Y00993969D01*
X00696643Y00994150D01*
X00696610Y00994298D01*
X00696512Y00994413D01*
X00696347Y00994496D01*
X00696116Y00994545D01*
X00695820Y00994561D01*
X00702286D01*
X00701960Y00994537D01*
D02*
G37*
G36*
X00499271Y01004720D02*
X00498825Y01003989D01*
X00498644Y01003627D01*
X00498491Y01003267D01*
X00498366Y01002909D01*
X00498268Y01002553D01*
X00498199Y01002199D01*
X00498157Y01001847D01*
X00498143Y01001497D01*
X00495857D01*
X00495843Y01001847D01*
X00495801Y01002199D01*
X00495732Y01002553D01*
X00495634Y01002909D01*
X00495509Y01003267D01*
X00495356Y01003627D01*
X00495175Y01003989D01*
X00494966Y01004354D01*
X00494729Y01004720D01*
X00494464Y01005089D01*
X00499536D01*
X00499271Y01004720D01*
D02*
G37*
G36*
X00548960Y01035960D02*
X00557129D01*
X00559134Y01032960D01*
X00558960Y01032540D01*
X00558960D01*
Y01013540D01*
X00558960Y01013460D01*
X00558767Y01010540D01*
X00555096D01*
X00555000Y01013500D01*
X00555000Y01013540D01*
Y01028965D01*
X00549268Y01023232D01*
X00547500Y01025000D01*
X00545732Y01023232D01*
X00540000Y01028965D01*
Y01017036D01*
X00545732Y01022768D01*
X00549268Y01019232D01*
X00543535Y01013500D01*
X00549364D01*
X00549460Y01010540D01*
X00549460Y01010500D01*
Y00991460D01*
X00553309D01*
Y00984642D01*
X00552728Y00984293D01*
X00552093Y00983823D01*
X00551508Y00983292D01*
X00550978Y00982707D01*
X00550507Y00982072D01*
X00550101Y00981395D01*
X00549763Y00980681D01*
X00549497Y00979937D01*
X00549305Y00979171D01*
X00549189Y00978389D01*
X00549150Y00977600D01*
Y00972600D01*
X00549189Y00971811D01*
X00549305Y00971030D01*
X00549497Y00970264D01*
X00549763Y00969520D01*
X00550101Y00968806D01*
X00550507Y00968128D01*
X00550978Y00967494D01*
X00551508Y00966908D01*
X00552093Y00966378D01*
X00552728Y00965907D01*
X00553405Y00965501D01*
X00554119Y00965163D01*
X00554863Y00964897D01*
X00555630Y00964705D01*
X00556411Y00964589D01*
X00557200Y00964550D01*
X00557989Y00964589D01*
X00558770Y00964705D01*
X00559537Y00964897D01*
X00560280Y00965163D01*
X00560995Y00965501D01*
X00561672Y00965907D01*
X00562307Y00966378D01*
X00562892Y00966908D01*
X00563309Y00967368D01*
X00563756Y00967363D01*
X00566309Y00966367D01*
Y00938629D01*
X00535960Y00908280D01*
X00535595Y00908499D01*
X00534880Y00908837D01*
X00534137Y00909103D01*
X00533370Y00909295D01*
X00532589Y00909411D01*
X00531800Y00909450D01*
X00531011Y00909411D01*
X00530230Y00909295D01*
X00529463Y00909103D01*
X00528719Y00908837D01*
X00528005Y00908499D01*
X00527328Y00908093D01*
X00526693Y00907623D01*
X00526108Y00907092D01*
X00525867Y00906826D01*
X00524697Y00906956D01*
X00522867Y00907888D01*
Y00966112D01*
X00524697Y00967045D01*
X00525867Y00967174D01*
X00526108Y00966908D01*
X00526693Y00966378D01*
X00527328Y00965907D01*
X00528005Y00965501D01*
X00528719Y00965163D01*
X00529463Y00964897D01*
X00530230Y00964705D01*
X00531011Y00964589D01*
X00531800Y00964550D01*
X00532589Y00964589D01*
X00533370Y00964705D01*
X00534137Y00964897D01*
X00534880Y00965163D01*
X00535595Y00965501D01*
X00536272Y00965907D01*
X00536907Y00966378D01*
X00537492Y00966908D01*
X00538022Y00967494D01*
X00538493Y00968128D01*
X00538899Y00968806D01*
X00539237Y00969520D01*
X00539503Y00970264D01*
X00539695Y00971030D01*
X00539811Y00971811D01*
X00539850Y00972600D01*
Y00977600D01*
X00539811Y00978389D01*
X00539695Y00979171D01*
X00539503Y00979937D01*
X00539237Y00980681D01*
X00538899Y00981395D01*
X00538493Y00982072D01*
X00538022Y00982707D01*
X00537492Y00983292D01*
X00536907Y00983823D01*
X00536272Y00984293D01*
X00535595Y00984699D01*
X00535491Y00984749D01*
Y00991960D01*
X00536040D01*
Y01008040D01*
X00528590D01*
X00527001Y01011040D01*
X00527625Y01011960D01*
X00536040D01*
Y01028040D01*
X00522040D01*
X00520960Y01028040D01*
Y01028040D01*
X00519040D01*
Y01028040D01*
X00513180D01*
X00512032Y01030812D01*
X00530359Y01049139D01*
X00548960D01*
Y01035960D01*
D02*
G37*
G36*
X00720069Y00994538D02*
X00719874Y00994469D01*
X00719703Y00994353D01*
X00719555Y00994191D01*
X00719429Y00993982D01*
X00719326Y00993728D01*
X00719246Y00993426D01*
X00719189Y00993079D01*
X00719154Y00992685D01*
X00719143Y00992245D01*
X00716857D01*
X00716846Y00992685D01*
X00716811Y00993079D01*
X00716754Y00993426D01*
X00716674Y00993728D01*
X00716571Y00993982D01*
X00716445Y00994191D01*
X00716297Y00994353D01*
X00716125Y00994469D01*
X00715931Y00994538D01*
X00715714Y00994561D01*
X00720286D01*
X00720069Y00994538D01*
D02*
G37*
G36*
X00590061Y00996950D02*
X00590038Y00997167D01*
X00589968Y00997362D01*
X00589853Y00997533D01*
X00589690Y00997682D01*
X00589482Y00997807D01*
X00589227Y00997910D01*
X00588926Y00997990D01*
X00588578Y00998047D01*
X00588185Y00998082D01*
X00587745Y00998093D01*
Y01000379D01*
X00588185Y01000390D01*
X00588578Y01000425D01*
X00588926Y01000482D01*
X00589227Y01000562D01*
X00589482Y01000665D01*
X00589690Y01000790D01*
X00589853Y01000939D01*
X00589968Y01001111D01*
X00590038Y01001305D01*
X00590061Y01001522D01*
Y00996950D01*
D02*
G37*
G36*
X00559069Y00994038D02*
X00558875Y00993969D01*
X00558703Y00993853D01*
X00558555Y00993691D01*
X00558429Y00993482D01*
X00558326Y00993227D01*
X00558246Y00992926D01*
X00558189Y00992579D01*
X00558155Y00992185D01*
X00558143Y00991745D01*
X00555857D01*
X00555846Y00992185D01*
X00555811Y00992579D01*
X00555754Y00992926D01*
X00555674Y00993227D01*
X00555571Y00993482D01*
X00555446Y00993691D01*
X00555297Y00993853D01*
X00555126Y00993969D01*
X00554931Y00994038D01*
X00554714Y00994061D01*
X00559286D01*
X00559069Y00994038D01*
D02*
G37*
G36*
X00635069D02*
X00634874Y00993969D01*
X00634703Y00993853D01*
X00634554Y00993691D01*
X00634429Y00993482D01*
X00634326Y00993227D01*
X00634246Y00992926D01*
X00634189Y00992579D01*
X00634154Y00992185D01*
X00634143Y00991745D01*
X00631857D01*
X00631846Y00992185D01*
X00631811Y00992579D01*
X00631754Y00992926D01*
X00631674Y00993227D01*
X00631571Y00993482D01*
X00631446Y00993691D01*
X00631297Y00993853D01*
X00631125Y00993969D01*
X00630931Y00994038D01*
X00630714Y00994061D01*
X00635286D01*
X00635069Y00994038D01*
D02*
G37*
%LPC*%
G36*
X00688293Y01098172D02*
X00688187Y01098014D01*
X00687746Y01097225D01*
X00687367Y01096405D01*
X00687055Y01095557D01*
X00686809Y01094687D01*
X00686633Y01093801D01*
X00686527Y01092903D01*
X00686491Y01092000D01*
X00686527Y01091097D01*
X00686633Y01090200D01*
X00686809Y01089314D01*
X00687055Y01088444D01*
X00687367Y01087596D01*
X00687746Y01086775D01*
X00688187Y01085987D01*
X00688293Y01085829D01*
X00694465Y01092000D01*
X00688293Y01098172D01*
D02*
G37*
G36*
X00518000Y01088465D02*
X00511828Y01082293D01*
X00511987Y01082187D01*
X00512775Y01081746D01*
X00513596Y01081368D01*
X00514444Y01081055D01*
X00515313Y01080809D01*
X00516200Y01080633D01*
X00517097Y01080527D01*
X00518000Y01080491D01*
X00518903Y01080527D01*
X00519800Y01080633D01*
X00520687Y01080809D01*
X00521556Y01081055D01*
X00522404Y01081368D01*
X00523225Y01081746D01*
X00524013Y01082187D01*
X00524172Y01082293D01*
X00518000Y01088465D01*
D02*
G37*
G36*
X00698000D02*
X00691829Y01082293D01*
X00691987Y01082187D01*
X00692775Y01081746D01*
X00693596Y01081368D01*
X00694444Y01081055D01*
X00695313Y01080809D01*
X00696200Y01080633D01*
X00697097Y01080527D01*
X00698000Y01080491D01*
X00698903Y01080527D01*
X00699800Y01080633D01*
X00700687Y01080809D01*
X00701557Y01081055D01*
X00702404Y01081368D01*
X00703225Y01081746D01*
X00704014Y01082187D01*
X00704172Y01082293D01*
X00698000Y01088465D01*
D02*
G37*
G36*
X00688293Y00788172D02*
X00688187Y00788013D01*
X00687746Y00787225D01*
X00687367Y00786404D01*
X00687055Y00785556D01*
X00686809Y00784687D01*
X00686633Y00783800D01*
X00686527Y00782903D01*
X00686491Y00782000D01*
X00686527Y00781097D01*
X00686633Y00780200D01*
X00686809Y00779313D01*
X00687055Y00778444D01*
X00687367Y00777596D01*
X00687746Y00776775D01*
X00688187Y00775987D01*
X00688293Y00775828D01*
X00694465Y00782000D01*
X00688293Y00788172D01*
D02*
G37*
G36*
X00527707Y00788172D02*
X00521535Y00782000D01*
X00527707Y00775828D01*
X00527813Y00775987D01*
X00528254Y00776775D01*
X00528633Y00777596D01*
X00528946Y00778444D01*
X00529191Y00779313D01*
X00529367Y00780200D01*
X00529473Y00781097D01*
X00529509Y00782000D01*
X00529473Y00782903D01*
X00529367Y00783800D01*
X00529191Y00784687D01*
X00528946Y00785556D01*
X00528633Y00786404D01*
X00528254Y00787225D01*
X00527813Y00788013D01*
X00527707Y00788172D01*
D02*
G37*
G36*
Y01098172D02*
X00521535Y01092000D01*
X00527707Y01085829D01*
X00527813Y01085987D01*
X00528254Y01086775D01*
X00528633Y01087596D01*
X00528946Y01088444D01*
X00529191Y01089314D01*
X00529367Y01090200D01*
X00529473Y01091097D01*
X00529509Y01092000D01*
X00529473Y01092903D01*
X00529367Y01093801D01*
X00529191Y01094687D01*
X00528946Y01095557D01*
X00528633Y01096405D01*
X00528254Y01097225D01*
X00527813Y01098014D01*
X00527707Y01098172D01*
D02*
G37*
G36*
X00617698Y00820429D02*
X00617711Y00820369D01*
X00617974Y00819537D01*
X00618308Y00818730D01*
X00618711Y00817955D01*
X00618761Y00817877D01*
X00619892Y00819008D01*
X00617698Y00820429D01*
D02*
G37*
G36*
X00551464Y01032500D02*
X00543535D01*
X00547500Y01028536D01*
X00551464Y01032500D01*
D02*
G37*
G36*
X00622866Y00823938D02*
Y00821982D01*
X00623844Y00822960D01*
X00622866Y00823938D01*
D02*
G37*
G36*
X00618761Y00828043D02*
X00618711Y00827965D01*
X00618308Y00827190D01*
X00617974Y00826384D01*
X00617711Y00825551D01*
X00617695Y00825477D01*
X00619364Y00826478D01*
X00619934Y00826870D01*
X00618761Y00828043D01*
D02*
G37*
G36*
X00665464Y01032500D02*
X00657535D01*
X00657779Y01032256D01*
X00659143D01*
X00659154Y01031822D01*
X00659189Y01031433D01*
X00659246Y01031090D01*
X00659326Y01030793D01*
X00659384Y01030652D01*
X00660028Y01030007D01*
X00660069Y01029993D01*
X00660286Y01029970D01*
X00660066D01*
X00661500Y01028536D01*
X00665464Y01032500D01*
D02*
G37*
G36*
X00518000Y00793509D02*
X00517097Y00793473D01*
X00516200Y00793367D01*
X00515313Y00793191D01*
X00514444Y00792945D01*
X00513596Y00792633D01*
X00512775Y00792254D01*
X00511987Y00791813D01*
X00511828Y00791707D01*
X00518000Y00785536D01*
X00524172Y00791707D01*
X00524013Y00791813D01*
X00523225Y00792254D01*
X00522404Y00792633D01*
X00521556Y00792945D01*
X00520687Y00793191D01*
X00519800Y00793367D01*
X00518903Y00793473D01*
X00518000Y00793509D01*
D02*
G37*
G36*
X00698000D02*
X00697097Y00793473D01*
X00696200Y00793367D01*
X00695313Y00793191D01*
X00694444Y00792945D01*
X00693596Y00792633D01*
X00692775Y00792254D01*
X00691987Y00791813D01*
X00691829Y00791707D01*
X00698000Y00785536D01*
X00704172Y00791707D01*
X00704014Y00791813D01*
X00703225Y00792254D01*
X00702404Y00792633D01*
X00701557Y00792945D01*
X00700687Y00793191D01*
X00699800Y00793367D01*
X00698903Y00793473D01*
X00698000Y00793509D01*
D02*
G37*
G36*
X00627464Y01032500D02*
X00619535D01*
X00623500Y01028536D01*
X00627464Y01032500D01*
D02*
G37*
%LPD*%
D10*
X00566500Y01023000D02*
D03*
X00547500D02*
D03*
X00557000Y01001000D02*
D03*
X00680500Y01023000D02*
D03*
X00661500D02*
D03*
X00671000Y01001000D02*
D03*
X00642500Y01023000D02*
D03*
X00623500D02*
D03*
X00633000Y01001000D02*
D03*
X00604500Y01023000D02*
D03*
X00585500D02*
D03*
X00595000Y01001000D02*
D03*
D11*
X00618253Y00873851D02*
D03*
X00623910Y00868194D02*
D03*
X00629567Y00862538D02*
D03*
X00635224Y00856881D02*
D03*
X00640881Y00851224D02*
D03*
X00646537Y00845567D02*
D03*
X00652194Y00839910D02*
D03*
X00657851Y00834253D02*
D03*
X00597747Y00774149D02*
D03*
X00592090Y00779806D02*
D03*
X00586433Y00785463D02*
D03*
X00580776Y00791120D02*
D03*
X00575120Y00796777D02*
D03*
X00569463Y00802433D02*
D03*
X00563806Y00808090D02*
D03*
X00558149Y00813747D02*
D03*
D12*
X00657851D02*
D03*
X00652194Y00808090D02*
D03*
X00646537Y00802433D02*
D03*
X00640881Y00796777D02*
D03*
X00635224Y00791120D02*
D03*
X00629567Y00785463D02*
D03*
X00623910Y00779806D02*
D03*
X00618253Y00774149D02*
D03*
X00558149Y00834253D02*
D03*
X00563806Y00839910D02*
D03*
X00569463Y00845567D02*
D03*
X00575120Y00851224D02*
D03*
X00580776Y00856881D02*
D03*
X00586433Y00862538D02*
D03*
X00592090Y00868194D02*
D03*
X00597747Y00873851D02*
D03*
D13*
X00779750Y00960000D02*
D03*
X00796750D02*
D03*
Y00914000D02*
D03*
X00779750Y00914000D02*
D03*
D14*
X00658500Y00785000D02*
D03*
X00675500D02*
D03*
X00692500Y00815000D02*
D03*
X00675500D02*
D03*
X00523500Y00854000D02*
D03*
X00540500D02*
D03*
X00528500Y01020000D02*
D03*
X00511500D02*
D03*
X00699500D02*
D03*
X00716500D02*
D03*
X00692500Y00855000D02*
D03*
X00675500D02*
D03*
X00523500Y00874000D02*
D03*
X00540500D02*
D03*
X00692500Y00875000D02*
D03*
X00675500D02*
D03*
X00528500Y01000000D02*
D03*
X00511500D02*
D03*
X00699500D02*
D03*
X00716500D02*
D03*
X00692500Y00835000D02*
D03*
X00675500D02*
D03*
D15*
X00557000Y01043500D02*
D03*
Y01060500D02*
D03*
X00671000Y01043500D02*
D03*
Y01060500D02*
D03*
X00633000Y01043500D02*
D03*
Y01060500D02*
D03*
X00595000Y01043500D02*
D03*
Y01060500D02*
D03*
D16*
X00535990Y00821990D02*
D03*
X00548010Y00834011D02*
D03*
D17*
X00681605Y00775333D02*
X00686443Y00780172D01*
X00658500Y00785001D02*
X00668168Y00775333D01*
X00681605D01*
X00548010Y00834011D02*
X00552958D01*
X00553200Y00834253D01*
X00558149D01*
X00684200Y00975100D02*
Y00979678D01*
X00699500Y00994978D01*
Y01000001D01*
X00658800Y01006780D02*
X00664210Y01012190D01*
X00658800Y00975100D02*
Y01006780D01*
X00519176Y00894080D02*
X00525023Y00888233D01*
X00536697D01*
X00595000Y00999236D02*
Y01001000D01*
X00608000Y00950544D02*
X00621792Y00936752D01*
X00608000Y00950544D02*
Y00975100D01*
X00658800Y00896366D02*
Y00898900D01*
X00623910Y00868195D02*
X00631507Y00875792D01*
X00651510D01*
X00675500Y00874014D02*
Y00875001D01*
X00629566Y00862538D02*
X00638249Y00871220D01*
X00649224D01*
X00563806Y00839910D02*
X00575818Y00827898D01*
X00535989Y00821690D02*
Y00821990D01*
X00576089Y00861568D02*
X00580776Y00856881D01*
X00567944Y00861568D02*
X00576089D01*
X00564896Y00858520D02*
X00567944Y00861568D01*
X00554915Y00810514D02*
X00558149Y00813747D01*
X00563806Y00808091D02*
Y00811743D01*
X00568452Y00821469D02*
X00573532D01*
X00560271Y00793242D02*
X00569462Y00802434D01*
X00559816Y00793242D02*
X00560271D01*
X00706120Y00838962D02*
X00707390Y00840232D01*
X00557000Y01060500D02*
X00557022D01*
X00540500Y00874000D02*
X00554928D01*
X00567642Y00886714D01*
X00686443Y00793496D02*
X00711962Y00819015D01*
X00572008Y00781558D02*
X00580776Y00790326D01*
Y00791120D01*
X00592090Y00779806D02*
X00596392Y00784108D01*
Y00795020D01*
X00580898Y00810514D02*
X00596392Y00795020D01*
X00515620Y00883158D02*
X00518160Y00885698D01*
X00628269Y00837565D02*
X00637794Y00828040D01*
Y00817880D02*
Y00828040D01*
X00618253Y00873851D02*
X00624257Y00879856D01*
X00657860D01*
X00635224Y00857219D02*
X00643382Y00865378D01*
X00635224Y00856881D02*
Y00857219D01*
X00563806Y00811743D02*
X00573532Y00821469D01*
X00535989Y00821690D02*
X00551942D01*
X00779750Y00911500D02*
X00783082Y00914832D01*
X00796750Y00911500D02*
X00801750Y00916500D01*
X00796750Y00962500D02*
X00801750Y00957500D01*
Y00916500D02*
Y00957500D01*
X00779750Y00962500D02*
X00783082Y00959167D01*
Y00914832D02*
Y00959167D01*
X00774249Y00917000D02*
X00779750Y00911500D01*
X00753000Y00917000D02*
X00774249D01*
X00675500Y00785001D02*
Y00795414D01*
X00684022Y00826470D02*
Y00826523D01*
X00692500Y00835001D01*
X00682552Y00825000D02*
X00684022Y00826470D01*
X00667832Y00821605D02*
X00671227Y00825000D01*
X00682552D01*
X00675500Y00809498D02*
Y00815001D01*
X00667766Y00803148D02*
X00675500Y00795414D01*
X00667766Y00803148D02*
Y00821000D01*
X00665383D02*
X00667766D01*
X00615000Y00788716D02*
X00623910Y00779806D01*
X00569462Y00845567D02*
X00589280Y00825750D01*
Y00822960D02*
Y00825750D01*
X00564896Y00850134D02*
Y00858520D01*
Y00850134D02*
X00569462Y00845567D01*
X00608000Y00803000D02*
X00609346Y00801654D01*
X00626642Y00806728D02*
X00637794Y00817880D01*
X00615000Y00788716D02*
Y00806728D01*
X00626642D01*
X00609346Y00783056D02*
Y00801654D01*
Y00783056D02*
X00618253Y00774149D01*
X00640881Y00796776D02*
X00652655Y00785001D01*
X00658500D01*
X00686443Y00780172D02*
Y00793496D01*
X00589280Y00822960D02*
X00598768D01*
X00615000Y00806728D01*
X00607036Y00822960D02*
X00627379D01*
X00575120Y00851224D02*
X00579344Y00847000D01*
X00582996D01*
X00607036Y00822960D01*
X00576000Y00872971D02*
Y00873000D01*
Y00872971D02*
X00586433Y00862538D01*
X00547500Y01020500D02*
Y01023001D01*
Y01020500D02*
X00555000Y01013000D01*
X00578000D01*
X00585500Y01020500D01*
Y01023001D01*
Y01020500D02*
X00593000Y01013000D01*
X00616000D01*
X00623467Y01020467D01*
X00623500Y01023001D01*
Y01020408D02*
X00630908Y01013000D01*
X00623500Y01020408D02*
Y01023001D01*
X00630908Y01013000D02*
X00654000D01*
X00661500Y01020500D01*
Y01023001D01*
X00672000Y00835001D02*
X00675500D01*
X00643382Y00865378D02*
X00672000Y00836760D01*
Y00835001D02*
Y00836760D01*
X00567642Y00886714D02*
X00584884D01*
X00597747Y00873851D01*
X00570628Y00880000D02*
X00580285D01*
X00592090Y00868195D01*
X00540500Y00854000D02*
X00544628D01*
X00570628Y00880000D01*
X00521000Y00854000D02*
X00523500D01*
X00515620Y00862380D02*
Y00883158D01*
Y00862380D02*
X00521000Y00857000D01*
Y00854000D02*
Y00857000D01*
X00511500Y00861112D02*
Y01000001D01*
X00523500Y00874000D02*
X00533923Y00884423D01*
X00542723D01*
X00557200Y00898900D01*
X00658800Y00896366D02*
X00660468Y00898034D01*
X00670268Y00888233D01*
X00681927D02*
X00692500Y00877660D01*
X00666750Y00884423D02*
X00680349D01*
X00684022Y00880750D01*
X00670268Y00888233D02*
X00681927D01*
X00692500Y00875001D02*
Y00877660D01*
X00684022Y00863479D02*
Y00880750D01*
Y00863479D02*
X00692500Y00855001D01*
X00625348Y00888233D02*
X00640075D01*
X00621792Y00891789D02*
X00625348Y00888233D01*
X00621792Y00891789D02*
Y00936752D01*
X00608000Y00898900D02*
X00622477Y00884423D01*
X00664173Y00887000D02*
X00666750Y00884423D01*
X00622477D02*
X00650423D01*
X00653000Y00887000D01*
X00664173D01*
X00700278Y00822779D02*
Y00904240D01*
X00692500Y00815001D02*
X00700278Y00822779D01*
X00528500Y01000001D02*
X00531800Y00996701D01*
Y00975100D02*
Y00996701D01*
X00557000Y00975300D02*
X00557200Y00975100D01*
X00557000Y00975300D02*
Y01001000D01*
X00579120Y00999236D02*
X00595000D01*
X00570000Y00990116D02*
X00579120Y00999236D01*
X00531800Y00898900D02*
X00570000Y00937101D01*
Y00990116D01*
X00633000Y00975500D02*
X00633400Y00975100D01*
X00633000Y00975500D02*
Y01001000D01*
X00633400Y00898900D02*
X00671000Y00936500D01*
Y01001000D01*
X00664210Y01012190D02*
X00691689D01*
X00699500Y01020001D01*
X00716500D02*
X00728000Y01008501D01*
X00671000Y01043501D02*
X00680500Y01034000D01*
Y01023001D02*
Y01034000D01*
X00671000Y01060500D02*
X00673401D01*
X00633000Y01043501D02*
X00642500Y01034000D01*
Y01023001D02*
Y01034000D01*
X00606000Y01052000D02*
X00624500D01*
X00633000Y01060500D01*
X00595000Y01043501D02*
X00604500Y01034001D01*
Y01023001D02*
Y01034001D01*
X00587330Y01052830D02*
X00595000Y01060500D01*
X00658000Y01026501D02*
X00661500Y01023001D01*
X00658000Y01026501D02*
Y01063000D01*
X00689000Y01053000D02*
Y01059000D01*
X00557022Y01060500D02*
X00568522Y01072000D01*
X00658000Y01063000D02*
X00663190Y01068190D01*
X00679810D01*
X00689000Y01059000D01*
X00568522Y01072000D02*
X00682000D01*
X00707390Y01046610D01*
Y00840232D02*
Y01046610D01*
X00557000Y01043501D02*
X00566500Y01034001D01*
Y01023001D02*
Y01034001D01*
X00519176Y00894080D02*
Y01010677D01*
X00528500Y01020001D01*
X00511500Y01019556D02*
Y01020001D01*
X00503682Y01012182D02*
X00511500Y01020001D01*
X00528830Y01052830D02*
X00587330D01*
X00764738Y00937000D02*
X00774750D01*
X00711962Y00819015D02*
Y00884224D01*
X00764738Y00937000D01*
X00728000Y00970000D02*
Y01008501D01*
X00716500Y01000001D02*
X00718000Y00998501D01*
Y00944000D02*
Y00998501D01*
X00563343Y00785000D02*
X00575120Y00796777D01*
X00576686Y00775716D02*
X00586433Y00785463D01*
X00547309Y00775716D02*
X00576686D01*
X00597747Y00774149D02*
X00603597Y00780000D01*
X00603504D02*
X00603597D01*
X00603504D02*
Y00790448D01*
X00547000Y00785000D02*
X00563343D01*
X00511500Y00861112D02*
X00514604Y00858008D01*
X00540000Y00783025D02*
X00547309Y00775716D01*
X00503682Y00994718D02*
X00503810Y00994590D01*
Y00858392D02*
Y00994590D01*
Y00858392D02*
X00508762Y00853440D01*
X00718000Y00907000D02*
Y00944000D01*
X00717000Y00906000D02*
X00718000Y00907000D01*
X00694944Y00909574D02*
X00700278Y00904240D01*
X00649462Y00909574D02*
X00694944D01*
X00680000Y00804000D02*
X00680998D01*
X00675500Y00809498D02*
X00680998Y00804000D01*
X00651510Y00875792D02*
X00653288Y00874014D01*
X00675500D01*
X00649224Y00871220D02*
X00651444Y00869000D01*
X00661500D01*
X00675500Y00855001D01*
X00503682Y00994718D02*
Y01012182D01*
X00497000Y00844000D02*
Y01007000D01*
X00540000Y00783025D02*
Y00801000D01*
X00514604Y00831784D02*
Y00858008D01*
Y00831784D02*
X00535874Y00810514D01*
X00554915D01*
X00490000Y01014000D02*
X00528830Y01052830D01*
X00490000Y00878000D02*
Y01014000D01*
X00497000Y00844000D02*
X00540000Y00801000D01*
X00683158Y01050580D02*
Y01050743D01*
X00689000Y01043000D02*
Y01044738D01*
X00683158Y01050580D02*
X00689000Y01044738D01*
X00673401Y01060500D02*
X00683158Y01050743D01*
X00536697Y00888233D02*
X00544000Y00895536D01*
Y00904000D01*
X00582600Y00942600D01*
Y00975100D01*
X00640075Y00888233D02*
X00645000Y00893158D01*
Y00905113D01*
X00649462Y00909574D01*
D18*
X00698000Y01092000D02*
D03*
X00518000D02*
D03*
Y00782000D02*
D03*
X00698000D02*
D03*
D19*
X00589280Y00822960D02*
D03*
X00627379D02*
D03*
D20*
X00801750Y00937000D02*
D03*
X00774750D02*
D03*
X00684200Y00975100D02*
D03*
X00658800D02*
D03*
X00633400D02*
D03*
X00608000D02*
D03*
X00582600D02*
D03*
X00557200D02*
D03*
X00531800D02*
D03*
X00684200Y00898900D02*
D03*
X00658800D02*
D03*
X00633400D02*
D03*
X00608000D02*
D03*
X00582600D02*
D03*
X00557200D02*
D03*
X00531800D02*
D03*
D21*
X00643382Y00865378D02*
D03*
X00575818Y00827898D02*
D03*
X00551942Y00821690D02*
D03*
X00568452Y00821469D02*
D03*
X00508762Y00853440D02*
D03*
X00559816Y00793242D02*
D03*
X00706120Y00838962D02*
D03*
X00603504Y00790448D02*
D03*
X00572008Y00781558D02*
D03*
X00580898Y00810514D02*
D03*
X00518160Y00885698D02*
D03*
X00628269Y00837565D02*
D03*
X00657860Y00879856D02*
D03*
X00753000Y00917000D02*
D03*
X00665383Y00821000D02*
D03*
X00608000Y00803000D02*
D03*
X00576000Y00873000D02*
D03*
X00689000Y01053000D02*
D03*
X00606000Y01052000D02*
D03*
X00728000Y00970000D02*
D03*
X00718000Y00944000D02*
D03*
X00547000Y00785000D02*
D03*
X00717000Y00906000D02*
D03*
X00680000Y00804000D02*
D03*
X00497000Y01007000D02*
D03*
X00490000Y00878000D02*
D03*
X00689000Y01043000D02*
D03*
M02*
