%FSAX44Y44*%
%MOMM*%
G71*
G01*
G75*
G04 Layer_Color=32896*
%ADD10R,1.0000X1.0000*%
%ADD11R,1.0000X1.1000*%
G04:AMPARAMS|DCode=12|XSize=0.55mm|YSize=1.5mm|CornerRadius=0mm|HoleSize=0mm|Usage=FLASHONLY|Rotation=45.000|XOffset=0mm|YOffset=0mm|HoleType=Round|Shape=Rectangle|*
%AMROTATEDRECTD12*
4,1,4,0.3359,-0.7248,-0.7248,0.3359,-0.3359,0.7248,0.7248,-0.3359,0.3359,-0.7248,0.0*
%
%ADD12ROTATEDRECTD12*%

G04:AMPARAMS|DCode=13|XSize=0.55mm|YSize=1.5mm|CornerRadius=0mm|HoleSize=0mm|Usage=FLASHONLY|Rotation=315.000|XOffset=0mm|YOffset=0mm|HoleType=Round|Shape=Rectangle|*
%AMROTATEDRECTD13*
4,1,4,-0.7248,-0.3359,0.3359,0.7248,0.7248,0.3359,-0.3359,-0.7248,-0.7248,-0.3359,0.0*
%
%ADD13ROTATEDRECTD13*%

%ADD14R,1.1000X1.0000*%
%ADD15R,1.0000X1.4000*%
G04:AMPARAMS|DCode=16|XSize=1mm|YSize=1.1mm|CornerRadius=0mm|HoleSize=0mm|Usage=FLASHONLY|Rotation=225.000|XOffset=0mm|YOffset=0mm|HoleType=Round|Shape=Rectangle|*
%AMROTATEDRECTD16*
4,1,4,-0.0354,0.7425,0.7425,-0.0354,0.0354,-0.7425,-0.7425,0.0354,-0.0354,0.7425,0.0*
%
%ADD16ROTATEDRECTD16*%

%ADD17C,0.2286*%
%ADD18C,0.2540*%
%ADD19C,1.7780*%
%ADD20C,1.5000*%
%ADD21O,1.1000X1.5000*%
%ADD22O,1.3970X1.9050*%
%ADD23C,0.6350*%
%ADD24R,1.5000X2.0000*%
%ADD25C,0.6000*%
%ADD26C,0.1250*%
%ADD27C,0.2000*%
%ADD28C,0.1000*%
%ADD29C,0.2500*%
%ADD30C,0.5000*%
D18*
X00626750Y01060250D02*
G03*
X00589250Y01060250I-00018750J-00001295D01*
G01*
Y01045250D02*
G03*
X00626750Y01045250I00018750J00001295D01*
G01*
D27*
X00547750Y00924250D02*
X00668250D01*
Y00949750D01*
X00547750D02*
X00668250D01*
X00547750Y00924250D02*
Y00949750D01*
X00575280Y00808960D02*
X00603280D01*
Y00836960D01*
X00575280D02*
X00603280D01*
X00575280Y00808960D02*
Y00836960D01*
X00613380Y00808960D02*
X00641380D01*
Y00836960D01*
X00613380D02*
X00641380D01*
X00613380Y00808960D02*
Y00836960D01*
D28*
X00570496Y00914500D02*
Y00921998D01*
X00567996Y00919499D01*
X00565497Y00921998D01*
Y00914500D01*
X00559249Y00921998D02*
X00561748D01*
X00562998Y00920748D01*
Y00915750D01*
X00561748Y00914500D01*
X00559249D01*
X00557999Y00915750D01*
Y00920748D01*
X00559249Y00921998D01*
X00550502Y00920748D02*
X00551751Y00921998D01*
X00554251D01*
X00555500Y00920748D01*
Y00919499D01*
X00554251Y00918249D01*
X00551751D01*
X00550502Y00917000D01*
Y00915750D01*
X00551751Y00914500D01*
X00554251D01*
X00555500Y00915750D01*
X00548003Y00921998D02*
X00545503D01*
X00546753D01*
Y00914500D01*
X00548003D01*
X00545503D01*
X00591120Y00952000D02*
Y00959498D01*
X00588621Y00956999D01*
X00586122Y00959498D01*
Y00952000D01*
X00583623Y00959498D02*
X00581124D01*
X00582373D01*
Y00952000D01*
X00583623D01*
X00581124D01*
X00572376Y00958248D02*
X00573626Y00959498D01*
X00576125D01*
X00577375Y00958248D01*
Y00956999D01*
X00576125Y00955749D01*
X00573626D01*
X00572376Y00954500D01*
Y00953250D01*
X00573626Y00952000D01*
X00576125D01*
X00577375Y00953250D01*
X00566128Y00959498D02*
X00568627D01*
X00569877Y00958248D01*
Y00953250D01*
X00568627Y00952000D01*
X00566128D01*
X00564879Y00953250D01*
Y00958248D01*
X00566128Y00959498D01*
X00602998Y00920748D02*
X00604248Y00921998D01*
X00606747D01*
X00607996Y00920748D01*
Y00919499D01*
X00606747Y00918249D01*
X00604248D01*
X00602998Y00917000D01*
Y00915750D01*
X00604248Y00914500D01*
X00606747D01*
X00607996Y00915750D01*
X00595500Y00920748D02*
X00596750Y00921998D01*
X00599249D01*
X00600499Y00920748D01*
Y00915750D01*
X00599249Y00914500D01*
X00596750D01*
X00595500Y00915750D01*
X00593001Y00921998D02*
Y00914500D01*
Y00917000D01*
X00588003Y00921998D01*
X00591751Y00918249D01*
X00588003Y00914500D01*
X00627996Y00952000D02*
Y00959498D01*
X00624248D01*
X00622998Y00958248D01*
Y00955749D01*
X00624248Y00954500D01*
X00627996D01*
X00625497D02*
X00622998Y00952000D01*
X00615500Y00958248D02*
X00616750Y00959498D01*
X00619249D01*
X00620499Y00958248D01*
Y00956999D01*
X00619249Y00955749D01*
X00616750D01*
X00615500Y00954500D01*
Y00953250D01*
X00616750Y00952000D01*
X00619249D01*
X00620499Y00953250D01*
X00613001Y00959498D02*
X00608003D01*
X00610502D01*
Y00952000D01*
X00647996Y00921998D02*
Y00917000D01*
X00645497Y00914500D01*
X00642998Y00917000D01*
Y00921998D01*
X00635500Y00920748D02*
X00636750Y00921998D01*
X00639249D01*
X00640499Y00920748D01*
Y00915750D01*
X00639249Y00914500D01*
X00636750D01*
X00635500Y00915750D01*
X00628003Y00920748D02*
X00629252Y00921998D01*
X00631751D01*
X00633001Y00920748D01*
Y00915750D01*
X00631751Y00914500D01*
X00629252D01*
X00628003Y00915750D01*
X00662998Y00958248D02*
X00664248Y00959498D01*
X00666747D01*
X00667996Y00958248D01*
Y00953250D01*
X00666747Y00952000D01*
X00664248D01*
X00662998Y00953250D01*
Y00955749D01*
X00665497D01*
X00660499Y00952000D02*
Y00959498D01*
X00655500Y00952000D01*
Y00959498D01*
X00653001D02*
Y00952000D01*
X00649252D01*
X00648003Y00953250D01*
Y00958248D01*
X00649252Y00959498D01*
X00653001D01*
X00654235Y01016084D02*
Y01021082D01*
X00651736D01*
X00650903Y01020249D01*
Y01018583D01*
X00651736Y01017750D01*
X00654235D01*
X00646737Y01016084D02*
X00648404D01*
X00649237Y01016917D01*
Y01018583D01*
X00648404Y01019416D01*
X00646737D01*
X00645904Y01018583D01*
Y01017750D01*
X00649237D01*
X00644238Y01019416D02*
Y01016084D01*
Y01017750D01*
X00643405Y01018583D01*
X00642572Y01019416D01*
X00641739D01*
X00633409D02*
X00631742D01*
X00630909Y01018583D01*
Y01016084D01*
X00633409D01*
X00634241Y01016917D01*
X00633409Y01017750D01*
X00630909D01*
X00629243Y01016084D02*
X00626744D01*
X00625911Y01016917D01*
X00626744Y01017750D01*
X00628410D01*
X00629243Y01018583D01*
X00628410Y01019416D01*
X00625911D01*
X00624245Y01014418D02*
Y01019416D01*
X00621746D01*
X00620913Y01018583D01*
Y01016917D01*
X00621746Y01016084D01*
X00624245D01*
X00616747D02*
X00618413D01*
X00619246Y01016917D01*
Y01018583D01*
X00618413Y01019416D01*
X00616747D01*
X00615914Y01018583D01*
Y01017750D01*
X00619246D01*
X00614248Y01019416D02*
Y01016084D01*
Y01017750D01*
X00613415Y01018583D01*
X00612582Y01019416D01*
X00611749D01*
X00608417D02*
X00606750D01*
X00605918Y01018583D01*
Y01016084D01*
X00608417D01*
X00609250Y01016917D01*
X00608417Y01017750D01*
X00605918D01*
X00598420Y01019416D02*
X00596754D01*
X00595921Y01018583D01*
Y01016084D01*
X00598420D01*
X00599253Y01016917D01*
X00598420Y01017750D01*
X00595921D01*
X00590922Y01021082D02*
Y01016084D01*
X00593422D01*
X00594255Y01016917D01*
Y01018583D01*
X00593422Y01019416D01*
X00590922D01*
X00583425D02*
X00581759D01*
X00580926Y01018583D01*
Y01016084D01*
X00583425D01*
X00584258Y01016917D01*
X00583425Y01017750D01*
X00580926D01*
X00579259Y01016084D02*
X00576760D01*
X00575927Y01016917D01*
X00576760Y01017750D01*
X00578427D01*
X00579259Y01018583D01*
X00578427Y01019416D01*
X00575927D01*
X00573428Y01020249D02*
Y01019416D01*
X00574261D01*
X00572595D01*
X00573428D01*
Y01016917D01*
X00572595Y01016084D01*
X00570096Y01019416D02*
Y01016084D01*
Y01017750D01*
X00569263Y01018583D01*
X00568430Y01019416D01*
X00567597D01*
X00564264D02*
X00562598D01*
X00561765Y01018583D01*
Y01016084D01*
X00564264D01*
X00565098Y01016917D01*
X00564264Y01017750D01*
X00561765D01*
D29*
X00590530Y00802460D02*
G03*
X00590530Y00802460I-00001250J00000000D01*
G01*
X00628630D02*
G03*
X00628630Y00802460I-00001250J00000000D01*
G01*
X00626750Y01045250D02*
Y01060250D01*
X00589250Y01045250D02*
X00606750D01*
X00584250Y01027750D02*
Y01077750D01*
X00546750Y01027750D02*
Y01077750D01*
X00565500Y01045250D01*
X00584250Y01077750D01*
X00589250Y01027750D02*
Y01045250D01*
X00631750Y01077750D02*
X00650500Y01027750D01*
X00669250Y01077750D01*
D30*
X00536750Y01087750D02*
X00679250D01*
Y01017750D02*
Y01087750D01*
X00536750Y01017750D02*
Y01087750D01*
Y01017750D02*
X00556750D01*
X00659250D02*
X00679250D01*
M02*
