%FSAX44Y44*%
%MOMM*%
G71*
G01*
G75*
G04 Layer_Color=16711935*
G04:AMPARAMS|DCode=10|XSize=1mm|YSize=1.1mm|CornerRadius=0mm|HoleSize=0mm|Usage=FLASHONLY|Rotation=225.000|XOffset=0mm|YOffset=0mm|HoleType=Round|Shape=Rectangle|*
%AMROTATEDRECTD10*
4,1,4,-0.0354,0.7425,0.7425,-0.0354,0.0354,-0.7425,-0.7425,0.0354,-0.0354,0.7425,0.0*
%
%ADD10ROTATEDRECTD10*%

%ADD11R,1.0000X1.4000*%
%ADD12R,1.1000X1.0000*%
%ADD13R,1.0000X1.1000*%
G04:AMPARAMS|DCode=14|XSize=0.55mm|YSize=1.5mm|CornerRadius=0mm|HoleSize=0mm|Usage=FLASHONLY|Rotation=45.000|XOffset=0mm|YOffset=0mm|HoleType=Round|Shape=Rectangle|*
%AMROTATEDRECTD14*
4,1,4,0.3359,-0.7248,-0.7248,0.3359,-0.3359,0.7248,0.7248,-0.3359,0.3359,-0.7248,0.0*
%
%ADD14ROTATEDRECTD14*%

G04:AMPARAMS|DCode=15|XSize=0.55mm|YSize=1.5mm|CornerRadius=0mm|HoleSize=0mm|Usage=FLASHONLY|Rotation=315.000|XOffset=0mm|YOffset=0mm|HoleType=Round|Shape=Rectangle|*
%AMROTATEDRECTD15*
4,1,4,-0.7248,-0.3359,0.3359,0.7248,0.7248,0.3359,-0.3359,-0.7248,-0.7248,-0.3359,0.0*
%
%ADD15ROTATEDRECTD15*%

%ADD16R,1.0000X1.0000*%
%ADD17C,0.2286*%
%ADD18C,0.2540*%
%ADD19C,1.7780*%
%ADD20C,1.5000*%
%ADD21O,1.3970X1.9050*%
%ADD22O,1.1000X1.5000*%
%ADD23C,0.6350*%
%ADD24R,1.5000X2.0000*%
%ADD25C,0.1250*%
%ADD26C,0.6000*%
%ADD27C,0.2000*%
%ADD28C,0.1270*%
G04:AMPARAMS|DCode=29|XSize=1.2032mm|YSize=1.3032mm|CornerRadius=0mm|HoleSize=0mm|Usage=FLASHONLY|Rotation=225.000|XOffset=0mm|YOffset=0mm|HoleType=Round|Shape=Rectangle|*
%AMROTATEDRECTD29*
4,1,4,-0.0354,0.8861,0.8861,-0.0354,0.0354,-0.8861,-0.8861,0.0354,-0.0354,0.8861,0.0*
%
%ADD29ROTATEDRECTD29*%

%ADD30R,1.2032X1.6032*%
%ADD31R,1.3032X1.2032*%
%ADD32R,1.2032X1.3032*%
G04:AMPARAMS|DCode=33|XSize=0.7532mm|YSize=1.7032mm|CornerRadius=0mm|HoleSize=0mm|Usage=FLASHONLY|Rotation=45.000|XOffset=0mm|YOffset=0mm|HoleType=Round|Shape=Rectangle|*
%AMROTATEDRECTD33*
4,1,4,0.3359,-0.8685,-0.8685,0.3359,-0.3359,0.8685,0.8685,-0.3359,0.3359,-0.8685,0.0*
%
%ADD33ROTATEDRECTD33*%

G04:AMPARAMS|DCode=34|XSize=0.7532mm|YSize=1.7032mm|CornerRadius=0mm|HoleSize=0mm|Usage=FLASHONLY|Rotation=315.000|XOffset=0mm|YOffset=0mm|HoleType=Round|Shape=Rectangle|*
%AMROTATEDRECTD34*
4,1,4,-0.8685,-0.3359,0.3359,0.8685,0.8685,0.3359,-0.3359,-0.8685,-0.8685,-0.3359,0.0*
%
%ADD34ROTATEDRECTD34*%

%ADD35R,1.2032X1.2032*%
%ADD36C,1.9812*%
%ADD37C,1.7032*%
%ADD38O,1.6002X2.1082*%
%ADD39O,1.3032X1.7032*%
%ADD40C,0.8382*%
%ADD41R,1.7032X2.2032*%
D36*
X00518000Y00782000D02*
D03*
X00698000D02*
D03*
Y01092000D02*
D03*
X00518000D02*
D03*
D37*
X00589280Y00822960D02*
D03*
X00627379D02*
D03*
D38*
X00531800Y00975100D02*
D03*
X00557200D02*
D03*
X00582600D02*
D03*
X00608000D02*
D03*
X00633400D02*
D03*
X00658800D02*
D03*
X00684200D02*
D03*
Y00898900D02*
D03*
X00658800D02*
D03*
X00633400D02*
D03*
X00608000D02*
D03*
X00582600D02*
D03*
X00557200D02*
D03*
X00531800D02*
D03*
D39*
X00801750Y00937000D02*
D03*
X00774750D02*
D03*
D40*
X00622000Y00797000D02*
D03*
X00613000Y00793000D02*
D03*
X00535000Y00835000D02*
D03*
X00702000Y00825000D02*
D03*
X00704000Y00811000D02*
D03*
X00542750Y01051000D02*
D03*
X00509016Y00846836D02*
D03*
X00607568Y00784834D02*
D03*
X00570410Y00817758D02*
D03*
X00577257Y00830580D02*
D03*
X00602742Y00840232D02*
D03*
X00614680Y00845820D02*
D03*
X00591058Y00842518D02*
D03*
X00491490Y00843026D02*
D03*
X00647700Y00886460D02*
D03*
X00675386Y00800100D02*
D03*
X00567690Y01060450D02*
D03*
X00708660Y00969772D02*
D03*
X00640334Y00872490D02*
D03*
X00509524Y00951992D02*
D03*
X00552450Y00784860D02*
D03*
X00657402Y01060500D02*
D03*
X00568198Y00778256D02*
D03*
X00503682Y00873760D02*
D03*
X00509016Y00819658D02*
D03*
X00653034Y01012190D02*
D03*
X00716500Y00951992D02*
D03*
X00544830Y00999490D02*
D03*
X00660146Y00864108D02*
D03*
X00524764Y00833882D02*
D03*
D41*
X00657999Y00937000D02*
D03*
X00637999D02*
D03*
X00617999D02*
D03*
X00597999D02*
D03*
X00577999D02*
D03*
X00557999D02*
D03*
M02*
