G04 Layer_Color=65535*
%FSAX44Y44*%
%MOMM*%
G71*
G01*
G75*
%ADD23C,0.4000*%
%ADD24C,0.6000*%
%ADD25C,0.2000*%
%ADD26C,0.1270*%
D23*
X00589494Y00884104D02*
G03*
X00589494Y00884104I-00002000J00000000D01*
G01*
D24*
X00611000Y00852285D02*
G03*
X00611000Y00852285I-00003000J00000000D01*
G01*
X00534800Y00927000D02*
G03*
X00534800Y00927000I-00003000J00000000D01*
G01*
D25*
X00519500Y00930650D02*
G03*
X00519500Y00943350I00000000J00006350D01*
G01*
X00574250Y01018500D02*
Y01032750D01*
X00539750Y01018500D02*
Y01032750D01*
Y00991250D02*
Y01005500D01*
X00574250Y00991250D02*
Y01005500D01*
X00539750Y00991250D02*
X00574250D01*
X00539750Y01032750D02*
X00574250D01*
X00688250Y01018500D02*
Y01032750D01*
X00653750Y01018500D02*
Y01032750D01*
Y00991250D02*
Y01005500D01*
X00688250Y00991250D02*
Y01005500D01*
X00653750Y00991250D02*
X00688250D01*
X00653750Y01032750D02*
X00688250D01*
X00650250Y01018500D02*
Y01032750D01*
X00615750Y01018500D02*
Y01032750D01*
Y00991250D02*
Y01005500D01*
X00650250Y00991250D02*
Y01005500D01*
X00615750Y00991250D02*
X00650250D01*
X00615750Y01032750D02*
X00650250D01*
X00612250Y01018500D02*
Y01032750D01*
X00577750Y01018500D02*
Y01032750D01*
Y00991250D02*
Y01005500D01*
X00612250Y00991250D02*
Y01005500D01*
X00577750Y00991250D02*
X00612250D01*
X00577750Y01032750D02*
X00612250D01*
X00564159Y00824000D02*
X00608000Y00780160D01*
Y00867841D02*
X00651841Y00824000D01*
X00608000Y00780160D02*
X00651841Y00824000D01*
X00564159D02*
X00608000Y00867841D01*
X00772000Y00903750D02*
X00804500D01*
X00804500D02*
Y00913750D01*
X00772000Y00903750D02*
Y00913750D01*
X00804500Y00960250D02*
Y00970250D01*
X00772000Y00960250D02*
Y00970250D01*
X00772000D02*
X00804500D01*
X00519500Y00987500D02*
X00696500D01*
Y00886500D02*
Y00987500D01*
X00519500Y00886500D02*
X00696500D01*
X00519500Y00943350D02*
Y00987500D01*
Y00886500D02*
Y00930650D01*
X00650750Y00793250D02*
X00660750D01*
X00650750Y00776750D02*
X00660750D01*
X00673250Y00793250D02*
X00683250D01*
X00673250Y00776750D02*
X00683250D01*
X00650750D02*
Y00793250D01*
X00683250Y00776750D02*
Y00793250D01*
X00548750Y01035750D02*
X00565250D01*
X00548750Y01068250D02*
X00565250D01*
X00548750Y01035750D02*
Y01045750D01*
X00565250Y01035750D02*
Y01045750D01*
X00548750Y01058250D02*
Y01068250D01*
X00565250Y01058250D02*
Y01068250D01*
X00662750Y01035750D02*
X00679250D01*
X00662750Y01068250D02*
X00679250D01*
X00662750Y01035750D02*
Y01045750D01*
X00679250Y01035750D02*
Y01045750D01*
X00662750Y01058250D02*
Y01068250D01*
X00679250Y01058250D02*
Y01068250D01*
X00624750Y01035750D02*
X00641250D01*
X00624750Y01068250D02*
X00641250D01*
X00624750Y01035750D02*
Y01045750D01*
X00641250Y01035750D02*
Y01045750D01*
X00624750Y01058250D02*
Y01068250D01*
X00641250Y01058250D02*
Y01068250D01*
X00586750Y01035750D02*
X00603250D01*
X00586750Y01068250D02*
X00603250D01*
X00586750Y01035750D02*
Y01045750D01*
X00603250Y01035750D02*
Y01045750D01*
X00586750Y01058250D02*
Y01068250D01*
X00603250Y01058250D02*
Y01068250D01*
X00700250Y00806750D02*
Y00823250D01*
X00667750Y00806750D02*
Y00823250D01*
X00690250Y00806750D02*
X00700250D01*
X00690250Y00823250D02*
X00700250D01*
X00667750Y00806750D02*
X00677750D01*
X00667750Y00823250D02*
X00677750D01*
X00515750Y00845750D02*
Y00862250D01*
X00548250Y00845750D02*
Y00862250D01*
X00515750D02*
X00525750D01*
X00515750Y00845750D02*
X00525750D01*
X00538250Y00862250D02*
X00548250D01*
X00538250Y00845750D02*
X00548250D01*
X00536250Y01011750D02*
Y01028250D01*
X00503750Y01011750D02*
Y01028250D01*
X00526250Y01011750D02*
X00536250D01*
X00526250Y01028250D02*
X00536250D01*
X00503750Y01011750D02*
X00513750D01*
X00503750Y01028250D02*
X00513750D01*
X00691750Y01011750D02*
Y01028250D01*
X00724250Y01011750D02*
Y01028250D01*
X00691750D02*
X00701750D01*
X00691750Y01011750D02*
X00701750D01*
X00714250Y01028250D02*
X00724250D01*
X00714250Y01011750D02*
X00724250D01*
X00700250Y00846750D02*
Y00863250D01*
X00667750Y00846750D02*
Y00863250D01*
X00690250Y00846750D02*
X00700250D01*
X00690250Y00863250D02*
X00700250D01*
X00667750Y00846750D02*
X00677750D01*
X00667750Y00863250D02*
X00677750D01*
X00515750Y00865750D02*
Y00882250D01*
X00548250Y00865750D02*
Y00882250D01*
X00515750D02*
X00525750D01*
X00515750Y00865750D02*
X00525750D01*
X00538250Y00882250D02*
X00548250D01*
X00538250Y00865750D02*
X00548250D01*
X00700250Y00866750D02*
Y00883250D01*
X00667750Y00866750D02*
Y00883250D01*
X00690250Y00866750D02*
X00700250D01*
X00690250Y00883250D02*
X00700250D01*
X00667750Y00866750D02*
X00677750D01*
X00667750Y00883250D02*
X00677750D01*
X00536250Y00991750D02*
Y01008250D01*
X00503750Y00991750D02*
Y01008250D01*
X00526250Y00991750D02*
X00536250D01*
X00526250Y01008250D02*
X00536250D01*
X00503750Y00991750D02*
X00513750D01*
X00503750Y01008250D02*
X00513750D01*
X00691750Y00991750D02*
Y01008250D01*
X00724250Y00991750D02*
Y01008250D01*
X00691750D02*
X00701750D01*
X00691750Y00991750D02*
X00701750D01*
X00714250Y01008250D02*
X00724250D01*
X00714250Y00991750D02*
X00724250D01*
X00700250Y00826750D02*
Y00843250D01*
X00667750Y00826750D02*
Y00843250D01*
X00690250Y00826750D02*
X00700250D01*
X00690250Y00843250D02*
X00700250D01*
X00667750Y00826750D02*
X00677750D01*
X00667750Y00843250D02*
X00677750D01*
X00542177Y00817570D02*
X00583189Y00776558D01*
X00529449Y00804843D02*
X00542177Y00817570D01*
X00570461Y00763830D02*
X00583189Y00776558D01*
X00529449Y00804843D02*
X00570461Y00763830D01*
D26*
X00665998Y00802498D02*
X00664749Y00803748D01*
X00662250D01*
X00661000Y00802498D01*
Y00797500D01*
X00662250Y00796250D01*
X00664749D01*
X00665998Y00797500D01*
X00668498Y00796250D02*
X00670997D01*
X00669747D01*
Y00803748D01*
X00668498Y00802498D01*
X00600000Y00828498D02*
Y00821000D01*
X00603749D01*
X00604998Y00822250D01*
Y00827248D01*
X00603749Y00828498D01*
X00600000D01*
X00607498D02*
Y00821000D01*
X00611246D01*
X00612496Y00822250D01*
Y00827248D01*
X00611246Y00828498D01*
X00607498D01*
X00614995Y00821000D02*
X00617494D01*
X00616245D01*
Y00828498D01*
X00614995Y00827248D01*
X00508502Y00929000D02*
X00516000D01*
X00512251D01*
Y00933998D01*
X00508502D01*
X00516000D01*
X00509752Y00941496D02*
X00508502Y00940246D01*
Y00937747D01*
X00509752Y00936498D01*
X00514750D01*
X00516000Y00937747D01*
Y00940246D01*
X00514750Y00941496D01*
X00512251D01*
Y00938997D01*
X00516000Y00943995D02*
Y00946494D01*
Y00945245D01*
X00508502D01*
X00509752Y00943995D01*
X00712000Y00843000D02*
X00719498D01*
Y00839251D01*
X00718248Y00838002D01*
X00715749D01*
X00714499Y00839251D01*
Y00843000D01*
Y00840501D02*
X00712000Y00838002D01*
Y00835502D02*
Y00833003D01*
Y00834253D01*
X00719498D01*
X00718248Y00835502D01*
X00727750Y01008500D02*
X00735248D01*
Y01004751D01*
X00733998Y01003502D01*
X00731499D01*
X00730249Y01004751D01*
Y01008500D01*
Y01006001D02*
X00727750Y01003502D01*
Y00996004D02*
Y01001002D01*
X00732748Y00996004D01*
X00733998D01*
X00735248Y00997254D01*
Y00999753D01*
X00733998Y01001002D01*
X00500000Y00990000D02*
X00492502D01*
Y00993749D01*
X00493752Y00994998D01*
X00496251D01*
X00497501Y00993749D01*
Y00990000D01*
Y00992499D02*
X00500000Y00994998D01*
X00493752Y00997498D02*
X00492502Y00998747D01*
Y01001246D01*
X00493752Y01002496D01*
X00495002D01*
X00496251Y01001246D01*
Y00999997D01*
Y01001246D01*
X00497501Y01002496D01*
X00498750D01*
X00500000Y01001246D01*
Y00998747D01*
X00498750Y00997498D01*
X00703750Y00883500D02*
X00711248D01*
Y00879751D01*
X00709998Y00878502D01*
X00707499D01*
X00706249Y00879751D01*
Y00883500D01*
Y00881001D02*
X00703750Y00878502D01*
Y00872254D02*
X00711248D01*
X00707499Y00876002D01*
Y00871004D01*
X00551750Y00882750D02*
X00559248D01*
Y00879001D01*
X00557998Y00877752D01*
X00555499D01*
X00554249Y00879001D01*
Y00882750D01*
Y00880251D02*
X00551750Y00877752D01*
X00559248Y00870254D02*
Y00875252D01*
X00555499D01*
X00556748Y00872753D01*
Y00871504D01*
X00555499Y00870254D01*
X00553000D01*
X00551750Y00871504D01*
Y00874003D01*
X00553000Y00875252D01*
X00704000Y00863500D02*
X00711498D01*
Y00859751D01*
X00710248Y00858502D01*
X00707749D01*
X00706499Y00859751D01*
Y00863500D01*
Y00861001D02*
X00704000Y00858502D01*
X00711498Y00851004D02*
X00710248Y00853503D01*
X00707749Y00856002D01*
X00705250D01*
X00704000Y00854753D01*
Y00852254D01*
X00705250Y00851004D01*
X00706499D01*
X00707749Y00852254D01*
Y00856002D01*
X00727750Y01028500D02*
X00735248D01*
Y01024751D01*
X00733998Y01023502D01*
X00731499D01*
X00730249Y01024751D01*
Y01028500D01*
Y01026001D02*
X00727750Y01023502D01*
X00735248Y01021002D02*
Y01016004D01*
X00733998D01*
X00729000Y01021002D01*
X00727750D01*
X00500000Y01013000D02*
X00492502D01*
Y01016749D01*
X00493752Y01017998D01*
X00496251D01*
X00497501Y01016749D01*
Y01013000D01*
Y01015499D02*
X00500000Y01017998D01*
X00493752Y01020498D02*
X00492502Y01021747D01*
Y01024246D01*
X00493752Y01025496D01*
X00495002D01*
X00496251Y01024246D01*
X00497501Y01025496D01*
X00498750D01*
X00500000Y01024246D01*
Y01021747D01*
X00498750Y01020498D01*
X00497501D01*
X00496251Y01021747D01*
X00495002Y01020498D01*
X00493752D01*
X00496251Y01021747D02*
Y01024246D01*
X00551750Y00862750D02*
X00559248D01*
Y00859001D01*
X00557998Y00857752D01*
X00555499D01*
X00554249Y00859001D01*
Y00862750D01*
Y00860251D02*
X00551750Y00857752D01*
X00553000Y00855252D02*
X00551750Y00854003D01*
Y00851504D01*
X00553000Y00850254D01*
X00557998D01*
X00559248Y00851504D01*
Y00854003D01*
X00557998Y00855252D01*
X00556748D01*
X00555499Y00854003D01*
Y00850254D01*
X00704000Y00823000D02*
X00711498D01*
Y00819251D01*
X00710248Y00818002D01*
X00707749D01*
X00706499Y00819251D01*
Y00823000D01*
Y00820501D02*
X00704000Y00818002D01*
Y00815502D02*
Y00813003D01*
Y00814253D01*
X00711498D01*
X00710248Y00815502D01*
Y00809254D02*
X00711498Y00808005D01*
Y00805506D01*
X00710248Y00804256D01*
X00705250D01*
X00704000Y00805506D01*
Y00808005D01*
X00705250Y00809254D01*
X00710248D01*
X00586000Y01074000D02*
Y01081498D01*
X00589749D01*
X00590998Y01080248D01*
Y01077749D01*
X00589749Y01076499D01*
X00586000D01*
X00588499D02*
X00590998Y01074000D01*
X00593498D02*
X00595997D01*
X00594747D01*
Y01081498D01*
X00593498Y01080248D01*
X00599746Y01074000D02*
X00602245D01*
X00600995D01*
Y01081498D01*
X00599746Y01080248D01*
X00624000Y01074000D02*
Y01081498D01*
X00627749D01*
X00628998Y01080248D01*
Y01077749D01*
X00627749Y01076499D01*
X00624000D01*
X00626499D02*
X00628998Y01074000D01*
X00631498D02*
X00633997D01*
X00632747D01*
Y01081498D01*
X00631498Y01080248D01*
X00642744Y01074000D02*
X00637746D01*
X00642744Y01078999D01*
Y01080248D01*
X00641494Y01081498D01*
X00638995D01*
X00637746Y01080248D01*
X00662000Y01074000D02*
Y01081498D01*
X00665749D01*
X00666998Y01080248D01*
Y01077749D01*
X00665749Y01076499D01*
X00662000D01*
X00664499D02*
X00666998Y01074000D01*
X00669498D02*
X00671997D01*
X00670747D01*
Y01081498D01*
X00669498Y01080248D01*
X00675746D02*
X00676995Y01081498D01*
X00679494D01*
X00680744Y01080248D01*
Y01078999D01*
X00679494Y01077749D01*
X00678245D01*
X00679494D01*
X00680744Y01076499D01*
Y01075250D01*
X00679494Y01074000D01*
X00676995D01*
X00675746Y01075250D01*
X00548000Y01074000D02*
Y01081498D01*
X00551749D01*
X00552998Y01080248D01*
Y01077749D01*
X00551749Y01076499D01*
X00548000D01*
X00550499D02*
X00552998Y01074000D01*
X00555498D02*
X00557997D01*
X00556747D01*
Y01081498D01*
X00555498Y01080248D01*
X00565494Y01074000D02*
Y01081498D01*
X00561746Y01077749D01*
X00566744D01*
X00575502Y01038000D02*
X00580501D01*
X00583000Y01040499D01*
X00580501Y01042998D01*
X00575502D01*
Y01045498D02*
Y01050496D01*
Y01047997D01*
X00583000D01*
Y01052995D02*
Y01055494D01*
Y01054245D01*
X00575502D01*
X00576752Y01052995D01*
X00613752Y01038000D02*
X00618751D01*
X00621250Y01040499D01*
X00618751Y01042998D01*
X00613752D01*
Y01045498D02*
Y01050496D01*
Y01047997D01*
X00621250D01*
Y01057994D02*
Y01052995D01*
X00616252Y01057994D01*
X00615002D01*
X00613752Y01056744D01*
Y01054245D01*
X00615002Y01052995D01*
X00651752Y01038000D02*
X00656751D01*
X00659250Y01040499D01*
X00656751Y01042998D01*
X00651752D01*
Y01045498D02*
Y01050496D01*
Y01047997D01*
X00659250D01*
X00653002Y01052995D02*
X00651752Y01054245D01*
Y01056744D01*
X00653002Y01057994D01*
X00654252D01*
X00655501Y01056744D01*
Y01055494D01*
Y01056744D01*
X00656751Y01057994D01*
X00658000D01*
X00659250Y01056744D01*
Y01054245D01*
X00658000Y01052995D01*
X00536502Y01038000D02*
X00541501D01*
X00544000Y01040499D01*
X00541501Y01042998D01*
X00536502D01*
Y01045498D02*
Y01050496D01*
Y01047997D01*
X00544000D01*
Y01056744D02*
X00536502D01*
X00540251Y01052995D01*
Y01057994D01*
X00520552Y00826802D02*
X00524086Y00823267D01*
X00523202Y00822384D01*
X00516134D01*
X00515250Y00821500D01*
X00518784Y00817966D01*
X00524970Y00813548D02*
X00528504Y00817082D01*
Y00818849D01*
X00526737Y00820616D01*
X00524970D01*
X00521435Y00817082D01*
Y00815315D01*
X00523202Y00813548D01*
X00524086Y00816198D02*
X00524086Y00812664D01*
X00523202Y00813548D02*
X00524970D01*
X00525853Y00810897D02*
X00527620Y00809130D01*
X00526737Y00810013D01*
X00532038Y00815315D01*
X00530271D01*
X00759252Y00933499D02*
X00758002Y00932249D01*
Y00929750D01*
X00759252Y00928500D01*
X00760501D01*
X00761751Y00929750D01*
Y00932249D01*
X00763001Y00933499D01*
X00764250D01*
X00765500Y00932249D01*
Y00929750D01*
X00764250Y00928500D01*
X00758002Y00935998D02*
X00765500D01*
Y00939746D01*
X00764250Y00940996D01*
X00763001D01*
X00761751Y00939746D01*
Y00935998D01*
Y00939746D01*
X00760501Y00940996D01*
X00759252D01*
X00758002Y00939746D01*
Y00935998D01*
X00765500Y00943495D02*
Y00945995D01*
Y00944745D01*
X00758002D01*
X00759252Y00943495D01*
M02*
